<?xml version="1.0" standalone="no"?>
<!DOCTYPE svg PUBLIC "-//W3C//DTD SVG 1.1//EN" "http://www.w3.org/Graphics/SVG/1.1/DTD/svg11.dtd" >
<svg xmlns="http://www.w3.org/2000/svg" xmlns:xlink="http://www.w3.org/1999/xlink" version="1.1">
<metadata></metadata>
<defs>
<font id="p22_mackinac_proextra_bold" horiz-adv-x="749" >
<font-face units-per-em="1000" ascent="800" descent="-200" />
<missing-glyph horiz-adv-x="213" />
<glyph unicode="&#xfb01;" horiz-adv-x="690" d="M642 55q24 -13 24 -29q0 -26 -38 -26h-216q-39 0 -39 26q0 16 25 29q27 14 37 43q10 28 10 105v129q0 47 -7 66q-8 21 -37 33q-1 1 -4.5 2t-6.5 2.5t-5 3.5q-8 -15 -34 -15q-7 0 -25 1.5t-23 1.5q-24 1 -38 1q-13 0 -13 -13v-213q0 -78 10 -104q10 -29 37 -43 q25 -13 25 -29q0 -26 -39 -26h-216q-39 0 -39 26q0 15 25 29q27 16 37 43q9 23 9 104v219q0 7 -8 7h-62q-15 0 -15 14v46q0 15 15 15h63q8 0 9 8q11 100 89.5 168t183.5 68q81 0 112 -23q28 -20 28 -77q0 -22 -2.5 -35.5t-12.5 -24.5t-28 -11q-14 0 -28 15t-24.5 32.5 t-31 32.5t-47.5 15q-91 0 -91 -160q0 -8 10 -8q33 0 53 2q4 0 23 3t29 3q18 0 24.5 -6t6.5 -21q2 1 6 2q78 19 140 41q18 6 26 6q26 0 26 -34v-296q0 -77 10 -105t37 -43z" />
<glyph unicode="&#xfb02;" horiz-adv-x="689" d="M640 55q24 -13 24 -29q0 -26 -38 -26h-215q-38 0 -38 26q0 16 24 29q29 16 37 42q10 28 10 105v419q0 16 -11 26q-26 22 -63 22q-61 0 -89 -44.5t-28 -111.5q0 -11 11 -11q36 0 54 2q2 0 22 3t30 3q27 0 27 -23q0 -5 -4 -25q-3 -19 -10 -28.5t-24 -9.5q-10 0 -27.5 1.5 t-23.5 1.5q-16 1 -43 1q-12 0 -12 -13v-213q0 -76 10 -104q8 -28 36 -43q25 -13 25 -29q0 -26 -38 -26h-217q-39 0 -39 26q0 16 25 29q29 17 37 43q10 35 10 104q0 39 -0.5 120.5t-0.5 97.5q0 8 -9 8h-61q-15 0 -15 15v45q0 14 15 14h66q11 0 12 10q16 104 96.5 169.5 t186.5 65.5q40 0 76.5 -7.5t41.5 -7.5q8 0 31 9q15 6 25 6q27 0 27 -34v-511q0 -77 10 -105q8 -26 37 -42z" />
<glyph unicode="&#xfb03;" horiz-adv-x="1039" d="M457 725q31 -22 31 -78q0 -21 -3 -37q36 62 100 99.5t140 37.5q81 0 112 -23q28 -20 28 -77q0 -22 -2.5 -35.5t-12.5 -24.5t-28 -11q-14 0 -28 15t-24.5 32.5t-31 32.5t-47.5 15q-91 0 -91 -160q0 -8 10 -8q33 0 53 2q4 0 23 3t29 3q18 0 24.5 -6t6.5 -21q2 1 6 2 q78 19 140 41q18 6 26 6q26 0 26 -34v-296q0 -77 10 -105t37 -43q24 -13 24 -29q0 -26 -38 -26h-216q-39 0 -39 26q0 16 25 29q27 14 37 43q10 28 10 105v129q0 47 -7 66q-8 21 -37 33l-16 8q-8 -15 -34 -15q-8 0 -25.5 1.5t-22.5 1.5q-24 1 -38 1q-13 0 -13 -13v-213 q0 -78 10 -104q10 -29 37 -43q25 -13 25 -29q0 -26 -39 -26h-216q-39 0 -39 26q0 15 25 29q27 16 37 43q9 23 9 104v219q0 7 -8 7h-177q-12 0 -12 -13v-213q0 -77 10 -105q8 -26 36 -42q25 -14 25 -29q0 -26 -38 -26h-217q-38 0 -38 26q0 16 24 29q29 16 37 42q10 35 10 105 q0 38 -0.5 120.5t-0.5 98.5q0 7 -8 7h-61q-16 0 -16 14v46q0 15 16 15h62q9 0 10 8q11 105 81.5 170.5t181.5 65.5q60 0 90 -22zM452 511q5 40 19 73q-10 -8 -25 -8q-13 0 -27 14.5t-24.5 31.5t-29 31.5t-40.5 14.5q-73 0 -73 -157q0 -8 10 -8h181q8 0 9 8z" />
<glyph unicode="&#xfb04;" horiz-adv-x="1037" d="M457 725q31 -22 31 -78q0 -34 -8.5 -52.5t-33.5 -18.5q-13 0 -27 14.5t-24.5 31.5t-29 31.5t-40.5 14.5q-73 0 -73 -157q0 -8 10 -8q6 0 67 -0.5t73 -0.5h43q11 0 12 10q16 104 96.5 169.5t186.5 65.5q40 0 76.5 -7.5t41.5 -7.5q8 0 31 9q15 6 25 6q27 0 27 -34v-511 q0 -77 10 -105q8 -26 37 -42q24 -13 24 -29q0 -26 -38 -26h-215q-38 0 -38 26q0 16 24 29q29 16 37 42q10 28 10 105v419q0 16 -11 26q-26 22 -63 22q-61 0 -89 -44.5t-28 -111.5q0 -11 11 -11q36 0 54 2q2 0 22 3t30 3q27 0 27 -23q0 -5 -4 -25q-3 -19 -10 -28.5t-24 -9.5 q-10 0 -27.5 1.5t-23.5 1.5q-16 1 -43 1q-12 0 -12 -13v-213q0 -76 10 -104q8 -28 36 -43q25 -13 25 -29q0 -26 -38 -26h-217q-39 0 -39 26q0 16 25 29q29 17 37 43q10 35 10 104q0 39 -0.5 120.5t-0.5 97.5q0 8 -9 8h-175q-12 0 -12 -13v-213q0 -77 10 -105q8 -26 36 -42 q25 -14 25 -29q0 -26 -38 -26h-217q-38 0 -38 26q0 16 24 29q29 16 37 42q10 35 10 105q0 38 -0.5 120.5t-0.5 98.5q0 7 -8 7h-61q-16 0 -16 14v46q0 15 16 15h62q9 0 10 8q11 105 81.5 170.5t181.5 65.5q60 0 90 -22z" />
<glyph horiz-adv-x="0" />
<glyph horiz-adv-x="333" />
<glyph unicode=" "  horiz-adv-x="213" />
<glyph unicode="&#x09;" horiz-adv-x="213" />
<glyph unicode="&#xa0;" horiz-adv-x="213" />
<glyph unicode="!" horiz-adv-x="359" d="M295 90q0 -24 -38 -62.5t-63 -38.5q-24 0 -62.5 38.5t-38.5 62.5t38.5 62.5t62.5 38.5q25 0 63 -38.5t38 -62.5zM248 324q-2 -24 -3.5 -35t-7 -26t-16 -21t-27.5 -6q-22 0 -33.5 13.5t-14.5 28.5t-6 46q-7 74 -24 164t-17 139q0 99 95 99q96 0 96 -100q0 -47 -18 -136 t-24 -166z" />
<glyph unicode="&#x22;" horiz-adv-x="390" d="M284 714q39 0 53 -16t14 -55q0 -36 -9 -89t-19 -81q-14 -40 -39 -40t-39 40q-10 28 -19 81t-9 89q0 39 14 55t53 16zM106 714q39 0 53 -16t14 -55q0 -36 -9 -89t-19 -81q-14 -40 -39 -40t-39 40q-10 28 -19 81t-9 89q0 39 14 55t53 16z" />
<glyph unicode="#" horiz-adv-x="667" d="M598 477h-104l-36 -112h103l-27 -84h-103l-61 -185h-94l60 185h-97l-60 -185h-94l60 185h-103l27 84h103l36 112h-102l27 84h103l53 165h95l-54 -165h97l54 165h94l-54 -165h104zM363 365l37 112h-97l-37 -112h97z" />
<glyph unicode="$" horiz-adv-x="565" d="M183 586q0 -35 33.5 -59t81 -39.5t95 -35.5t81 -61t33.5 -101q0 -77 -56 -130.5t-141 -67.5v-79q0 -13 -13 -13h-42q-13 0 -13 13v74q-66 0 -121.5 19t-75.5 50q-6 9 -10 21t-4.5 20t-1.5 21t-1 17q0 6 -1.5 17.5t-1.5 14.5q0 19 9.5 29t23.5 10q13 0 21.5 -7t26 -30.5 t32.5 -40.5q62 -68 133 -68q19 0 35 4q30 8 48 31t18 50q0 32 -24 55t-59.5 35.5t-77.5 29.5t-77.5 35t-59.5 53t-24 82q0 75 56.5 127.5t135.5 62.5v84q0 13 13 13h42q13 0 13 -13v-81q101 -5 147 -48q21 -21 21 -83q0 -63 -35 -63q-13 0 -22 8t-24.5 29t-33.5 38 q-52 50 -97 50q-32 0 -57.5 -20t-25.5 -53z" />
<glyph unicode="%" horiz-adv-x="887" d="M290 535q0 60 -14.5 94.5t-39.5 34.5q-54 0 -54 -129q0 -55 15 -92t39 -37q54 0 54 129zM412 535q0 -87 -51.5 -139.5t-124.5 -52.5q-82 0 -129 55.5t-47 136.5t51.5 136t124.5 55q78 0 127 -53.5t49 -137.5zM717 181q0 60 -14.5 94.5t-39.5 34.5q-54 0 -54 -129 q0 -55 15 -92t39 -37q54 0 54 129zM839 181q0 -87 -51.5 -139.5t-124.5 -52.5q-82 0 -129 55.5t-47 136.5t51.5 136t124.5 55q78 0 127 -53.5t49 -137.5zM189 0l437 714h83l-437 -714h-83z" />
<glyph unicode="&#x26;" horiz-adv-x="763" d="M475 119q2 2 2 4t-5 5q-22 14 -77 45t-84 49q-74 45 -111 90q-3 3 -5 3q-3 0 -5 -3q-18 -33 -18 -69q0 -69 55.5 -116.5t127.5 -47.5q70 0 120 40zM618 198q31 -23 51 -48q46 -55 46 -121q0 -15 -4 -21.5t-17 -7.5h-97q-19 0 -22 17q-7 39 -32 60q-4 3 -7 3q-2 0 -4 -2 q-92 -89 -224 -89q-105 0 -189 61t-84 160q0 55 32 99t88 62q4 1 4 4l-2 6q-12 31 -12 65q0 80 57.5 131.5t149.5 51.5q91 0 127 -42q19 -21 19 -73q0 -44 -8 -64t-36 -20q-13 0 -21 5.5t-11.5 12.5t-11 24.5t-13.5 29.5q-28 52 -72 52q-27 0 -48.5 -19t-21.5 -51 q0 -47 39 -82t134 -87q95 -53 118 -67q6 -4 8 -4t4 4q10 25 10 51q0 28 -12 46.5t-26 24.5t-26 15t-12 21q0 24 39 24h169q34 0 34 -24q0 -3 -0.5 -5.5t-2 -5t-2.5 -4t-4 -3.5t-4 -3t-6 -3.5t-6 -3.5q-30 -19 -49 -61q-8 -16 -21 -53t-22 -55q-2 -4 -2 -6q0 -3 3 -5z" />
<glyph unicode="'" horiz-adv-x="212" d="M106 714q39 0 53 -16t14 -55q0 -36 -9 -89t-19 -81q-14 -40 -39 -40t-39 40q-10 28 -19 81t-9 89q0 39 14 55t53 16z" />
<glyph unicode="(" horiz-adv-x="392" d="M185 662q43 41 88.5 63t73.5 22q32 0 32 -24q0 -14 -26 -34q-89 -67 -132 -180q-36 -96 -36 -214t36 -213q42 -114 132 -181q26 -19 26 -34q0 -24 -32 -24q-28 0 -73.5 22.5t-88.5 63.5q-71 68 -113.5 165t-42.5 201t42 201t114 166z" />
<glyph unicode=")" horiz-adv-x="392" d="M207 -72q-43 -41 -88.5 -63t-73.5 -22q-32 0 -32 24q0 14 26 34q89 67 132 180q36 96 36 214t-36 213q-42 114 -132 181q-26 19 -26 34q0 24 32 24q28 0 73.5 -22.5t88.5 -63.5q71 -68 113.5 -165t42.5 -201t-42 -201t-114 -166z" />
<glyph unicode="*" horiz-adv-x="412" d="M332 666q23 0 35.5 -27t12.5 -51q0 -17 -11.5 -27t-31.5 -10q-12 0 -38 6t-42 6q-7 0 -20 -2t-17 -2q4 -3 12.5 -12t14.5 -13q11 -9 37 -20t31 -15q24 -15 24 -38q0 -18 -23 -37q-27 -24 -50 -24q-26 0 -37 36q-3 8 -6 35.5t-7 40.5q-2 7 -8 18t-7 15q-1 -4 -7 -15 t-8 -18q-4 -14 -7.5 -41t-5.5 -34q-11 -36 -36 -36q-19 0 -44 18q-30 21 -30 43t24 37q5 3 30.5 15t37.5 21q6 4 15 12.5t12 11.5q-3 0 -9.5 1.5t-14 2t-16.5 0.5q-15 0 -41 -5.5t-36 -5.5q-42 0 -42 37q0 25 13 51.5t34 26.5q16 0 33 -14q7 -5 25.5 -25t29.5 -28 q6 -5 18 -11l14 -7q-1 4 -3 16t-4 19q-4 15 -21.5 44t-17.5 48q0 38 58 38t58 -38q0 -18 -17.5 -48t-21.5 -44q-2 -6 -3 -12.5t-2 -13.5t-2 -10q4 3 15 8.5t16 9.5q11 8 29.5 28.5t25.5 25.5q17 13 32 13z" />
<glyph unicode="+" horiz-adv-x="690" d="M606 380v-45q0 -15 -15 -15h-199q-5 0 -6 -1t-1 -7v-201q0 -14 -15 -14h-50q-15 0 -15 14v201q0 8 -7 8h-199q-15 0 -15 15v45q0 15 15 15h199q7 0 7 8v201q0 15 15 15h50q15 0 15 -15v-201q0 -5 1 -6.5t6 -1.5h199q15 0 15 -15z" />
<glyph unicode="," horiz-adv-x="306" d="M238 131q30 -37 30 -75q0 -60 -93 -159q-73 -76 -108 -76q-12 0 -20 8.5t-8 20.5q0 9 6 14.5t21.5 14.5t28.5 21q42 40 42 73q0 23 -27 52q-38 43 -38 61q0 23 36 59t59 36q14 0 36 -16.5t35 -33.5z" />
<glyph unicode="-" horiz-adv-x="328" d="M29 232v81q0 15 15 15h240q15 0 15 -15v-81q0 -15 -15 -15h-240q-15 0 -15 15z" />
<glyph unicode="." horiz-adv-x="278" d="M240 90q0 -24 -38 -62.5t-63 -38.5q-24 0 -62.5 38.5t-38.5 62.5t38.5 62.5t62.5 38.5q25 0 63 -38.5t38 -62.5z" />
<glyph unicode="/" horiz-adv-x="488" d="M476 747h61q7 0 7 -5q0 -2 -2 -5l-504 -824q-6 -9 -17 -9h-60q-7 0 -7 6q0 3 4 9l500 818q6 10 18 10z" />
<glyph unicode="0" horiz-adv-x="720" d="M486 334q0 151 -36.5 230t-94.5 79q-57 0 -88.5 -64.5t-31.5 -195.5q0 -134 34 -221.5t96 -87.5q121 0 121 260zM664 367q0 -177 -91 -277.5t-218 -100.5q-99 0 -168.5 51.5t-100 131t-30.5 178.5q0 161 90.5 268.5t220.5 107.5q138 0 217.5 -98.5t79.5 -260.5z" />
<glyph unicode="1" horiz-adv-x="429" d="M324 692v-668q0 -24 -25 -24h-114q-25 0 -25 24v499q0 53 -6 68q-6 16 -41 16q-13 0 -36.5 -2.5t-35.5 -2.5q-17 0 -22 12.5t-5 35.5q0 24 22 29q21 4 82 12.5t97 18.5q64 16 76 16q33 0 33 -34z" />
<glyph unicode="2" horiz-adv-x="589" d="M107 679q69 47 171 47q63 0 119 -21t95.5 -68.5t39.5 -112.5q0 -96 -85 -168q-43 -36 -131 -79t-115 -64q-39 -30 -39 -57q0 -15 20 -15h158q86 0 113 10q18 7 34.5 24.5t28.5 17.5q25 0 25 -28q0 -13 -10 -66q-2 -10 -4.5 -31t-5.5 -30t-9.5 -21t-20.5 -16.5t-35 -4.5 q-18 0 -71.5 2t-84.5 2h-196q-60 0 -60 71q0 95 97 192q21 22 88 80t91 90q42 53 42 111q0 40 -22.5 71.5t-65.5 31.5q-61 0 -108 -75q-5 -8 -14 -25t-14 -24.5t-14 -14.5t-20 -7q-22 0 -32 16.5t-10 56.5q0 73 45 105z" />
<glyph unicode="3" horiz-adv-x="613" d="M386 373q76 -9 128 -53t52 -117q0 -77 -59 -134q-84 -80 -232 -80q-73 0 -132 20t-83 56q-20 31 -20 93q0 26 2 39.5t12.5 25t30.5 11.5q16 0 26.5 -9.5t24.5 -38t19 -36.5q49 -81 120 -81q52 0 78.5 39.5t26.5 103.5q0 57 -29.5 89.5t-85.5 32.5q-15 0 -36 -2.5 t-28 -2.5q-37 0 -37 34v26q0 33 36 33q6 0 26 -2t34 -2q105 0 105 119q0 46 -22.5 78.5t-68.5 32.5q-50 0 -87 -44q-13 -15 -28 -43.5t-27.5 -43.5t-29.5 -15q-21 0 -30 15.5t-10 57.5q0 76 46 108q58 43 175 43q111 0 181 -44q38 -24 59 -59.5t21 -74.5q0 -54 -40.5 -98.5 t-120.5 -65.5q-8 -2 -8 -6t11 -5z" />
<glyph unicode="4" horiz-adv-x="640" d="M490 298h84q24 0 24 -23v-70q0 -23 -25 -23h-84q-7 0 -7 -12q1 -49 9 -71q10 -27 37 -43q25 -14 25 -30q0 -26 -39 -26h-218q-39 0 -39 26q0 16 25 30q27 15 37 43q9 25 10 71q0 12 -8 12h-263q-11 0 -15.5 4.5t-4.5 16.5v59q0 24 13 44q76 118 109.5 210.5t36.5 188.5 q0 21 24 21h87q20 0 20 -17v-4q-4 -90 -47.5 -183t-130.5 -213q-3 -5 -3 -6q0 -5 6 -5h168q8 0 8 8v256q0 17 19 17h113q20 0 20 -17v-256q0 -8 9 -8z" />
<glyph unicode="5" horiz-adv-x="573" d="M447 409q81 -70 81 -173q0 -108 -78 -177.5t-195 -69.5q-60 0 -112.5 18.5t-75.5 51.5q-23 32 -23 125q0 48 45 48q17 0 28 -12t23.5 -38t20.5 -37q53 -80 134 -80q50 0 86.5 31.5t36.5 82.5q0 66 -65 111q-91 63 -249 63h-24q-14 0 -14 9q0 3 2 13l65 324q3 15 21 15 h146q79 0 103 6q21 5 38 22q19 20 34 20q24 0 24 -26q0 -7 -7 -54q-2 -10 -5 -31t-4.5 -29.5t-6 -19t-11.5 -16.5q-14 -12 -74 -12h-198q-10 0 -12 -10l-12 -58q-1 -5 -1 -7q0 -10 12 -10q175 -2 267 -80z" />
<glyph unicode="6" horiz-adv-x="633" d="M222 227q0 -75 28.5 -116.5t74.5 -41.5q51 0 77.5 44t26.5 114t-27 113.5t-74 43.5q-46 0 -76 -40t-30 -117zM541 596q0 -81 -46 -81q-5 0 -10 1.5t-10 5.5t-8 7.5t-8 10.5t-7.5 11t-8 13.5t-7.5 13.5q-43 71 -96 71q-59 0 -90 -67.5t-33 -181.5q0 -4 3 -4q2 0 5 5 q23 38 63.5 61.5t91.5 23.5q90 0 149 -64.5t59 -158.5q0 -113 -71.5 -193.5t-192.5 -80.5q-131 0 -199.5 95.5t-68.5 236.5q0 52 9 105t32 108t56.5 97t88 68.5t121.5 26.5q50 0 92 -13t61 -33q25 -26 25 -84z" />
<glyph unicode="7" horiz-adv-x="564" d="M534 699q1 -10 1 -28q0 -30 -3 -56t-13.5 -53t-16 -42.5t-25.5 -45t-27 -39.5t-35 -46l-35 -45q-64 -84 -90 -132.5t-26 -90.5q0 -43 36 -74q13 -12 13 -24q0 -10 -9 -16.5t-23 -6.5h-141q-21 0 -29 9t-8 37q0 101 86 208q27 33 91 102.5t88 102.5q43 58 58 95q2 6 2 9 q0 10 -16 10h-177q-80 0 -104 -6q-20 -5 -37 -22q-20 -20 -34 -20q-25 0 -25 30q0 2 8 50q2 11 4.5 31t4.5 29t6.5 20t11.5 17q14 12 74 12h371q18 0 19 -15z" />
<glyph unicode="8" horiz-adv-x="692" d="M439 537q0 44 -22 77t-68 33q-44 0 -68.5 -32.5t-24.5 -79.5q0 -53 28.5 -80t66.5 -27q35 0 61.5 30t26.5 79zM223 196q0 -59 36 -92.5t88 -33.5t87.5 34t35.5 96q0 65 -37 99.5t-81 34.5q-50 0 -89.5 -36.5t-39.5 -101.5zM612 555q0 -61 -43.5 -98.5t-113.5 -49.5 q-12 -1 -12 -9q0 -6 12 -9q78 -18 134 -66t56 -122q0 -88 -81.5 -150t-215.5 -62q-133 0 -216 54t-83 141q0 73 53.5 115.5t133.5 55.5q10 1 10 9q0 6 -9 9q-66 20 -111.5 62t-45.5 107q0 78 74 131t193 53q118 0 191.5 -44.5t73.5 -126.5z" />
<glyph unicode="9" horiz-adv-x="638" d="M412 484q0 77 -28 120.5t-75 43.5q-52 0 -78 -44.5t-26 -119.5q0 -67 28 -109t73 -42q53 0 79.5 44.5t26.5 106.5zM78 136q0 33 8 50.5t32 17.5q18 0 36 -21t32.5 -46t43.5 -46t66 -21q119 0 121 246q0 5 -4 5q-3 0 -4 -3q-21 -39 -62 -62.5t-92 -23.5q-87 0 -147.5 65 t-60.5 159q0 113 73 191.5t191 78.5q71 0 125 -30t85 -81t46.5 -113t15.5 -132q0 -164 -86 -272.5t-242 -108.5q-107 0 -152 48q-25 27 -25 99z" />
<glyph unicode=":" horiz-adv-x="378" d="M287 422q0 -25 -38 -63t-62 -38q-25 0 -63 38.5t-38 62.5t38 62t63 38q24 0 62 -38t38 -62zM287 89q0 -24 -38 -62t-62 -38q-25 0 -63 38.5t-38 61.5q0 24 38 62.5t63 38.5q24 0 62 -38t38 -63z" />
<glyph unicode=";" horiz-adv-x="407" d="M316 422q0 -25 -38 -63t-62 -38t-62 38.5t-38 62.5q0 23 38 61.5t62 38.5t62 -38t38 -62zM286 131q30 -37 30 -75q0 -64 -93 -159q-73 -76 -108 -76q-12 0 -20 8.5t-8 20.5q0 9 6 14.5t21.5 14.5t28.5 21q42 40 42 73q0 23 -27 52q-38 43 -38 61q0 23 36 59t59 36 q14 0 36 -16.5t35 -33.5z" />
<glyph unicode="&#x3c;" horiz-adv-x="699" d="M245 320l336 -147q15 -7 15 -23v-84q0 -10 -8 -10q-3 0 -7 2l-469 207q-14 6 -14 23v73q0 16 14 23l467 206q4 2 7 2q10 0 10 -10v-83q0 -17 -15 -23q-334 -146 -336 -147q-3 -1 -3 -5q0 -2 3 -4z" />
<glyph unicode="=" horiz-adv-x="736" d="M107 414v45q0 15 15 15h492q15 0 15 -15v-45q0 -15 -15 -15h-492q-15 0 -15 15zM107 256v45q0 15 15 15h492q15 0 15 -15v-45q0 -15 -15 -15h-492q-15 0 -15 15z" />
<glyph unicode="&#x3e;" horiz-adv-x="699" d="M454 320q3 2 3 4q0 4 -3 5l-336 147q-15 6 -15 23v83q0 10 10 10q3 0 7 -2l467 -206q14 -7 14 -23v-73q0 -17 -14 -23l-469 -207q-4 -2 -7 -2q-8 0 -8 10v84q0 16 15 23q334 146 336 147z" />
<glyph unicode="?" horiz-adv-x="561" d="M164 573q0 -34 43 -43q37 -8 37 -30q0 -30 -42 -51q-22 -12 -54 -12q-48 0 -79 30.5t-31 80.5q0 73 69 125.5t174 52.5q104 0 171 -45q78 -53 78 -132q0 -80 -69 -130q-23 -16 -72 -36.5t-65 -28.5q-46 -25 -46 -52q0 -23 37 -35q25 -8 25 -23q0 -35 -83 -35 q-102 0 -102 72q0 39 37 77q14 14 54 45t62 54q44 44 44 91q0 42 -25 71t-69 29q-35 0 -64.5 -20.5t-29.5 -54.5zM253 -11q-25 0 -63.5 38.5t-38.5 62.5t38.5 62t63.5 38q24 0 62.5 -38t38.5 -62t-38.5 -62.5t-62.5 -38.5z" />
<glyph unicode="@" horiz-adv-x="1054" d="M555 270q46 77 46 116q0 24 -22 41t-48 17q-18 0 -32.5 -11.5t-26 -34t-18.5 -40.5t-15 -45q-20 -66 -20 -112q0 -50 26 -50q36 0 110 119zM928 516q44 -88 44 -189q0 -56 -14 -106q-25 -86 -83.5 -134t-131.5 -48q-63 0 -113 34.5t-59 97.5q-1 6 -4 6q-2 0 -5 -4 q-29 -47 -78.5 -86t-99.5 -39q-47 0 -72 38t-25 93q0 115 76 220q78 107 178 107q35 0 79 -14t51 -14q15 0 37 17q13 11 23 11q20 0 20 -22q0 -9 -5.5 -32t-17 -66.5t-20.5 -84.5q-18 -81 -18 -122q0 -77 70 -77q30 0 60 19.5t51 56.5q38 68 38 156q0 110 -61 196 q-50 68 -132.5 108t-174.5 40q-164 0 -280.5 -119t-116.5 -287t116.5 -287.5t280.5 -119.5q94 0 177.5 43t140.5 120q11 15 27 15q10 0 19 -7.5t9 -18.5q0 -10 -8 -23q-53 -79 -152.5 -133t-212.5 -54q-191 0 -325 135t-134 330q0 194 135 329t324 135q127 0 229.5 -57 t157.5 -163z" />
<glyph unicode="A" d="M339 518l-85 -205q-3 -8 -3 -10q0 -7 9 -7l160 -1q8 0 8 7q0 2 -3 10l-78 206q-1 3 -4 3t-4 -3zM665 143q25 -61 45 -77q6 -5 18.5 -11.5t19.5 -12.5t7 -15q0 -27 -37 -27h-226q-35 0 -35 25q0 14 24.5 27.5t24.5 35.5q0 10 -6 27l-31 81q-8 18 -28 18h-217 q-14 0 -19 -15q-23 -57 -23 -93q0 -33 27 -52q2 -1 8 -4.5t9 -6t6 -7t3 -10.5q0 -26 -39 -26h-167q-38 0 -38 26q0 13 15 23q33 20 57 59q29 47 53 101l221 497q7 16 24 16h64q18 0 24 -15q159 -425 216 -564z" />
<glyph unicode="B" horiz-adv-x="696" d="M75 714h271q83 0 134.5 -8t89.5 -36q60 -45 60 -121q0 -63 -45.5 -103t-116.5 -53q-6 -1 -6 -6t12 -6q80 -10 135 -56t55 -121q0 -58 -35 -103q-41 -51 -115.5 -76t-204.5 -25h-235q-39 0 -39 26q0 16 25 29q30 16 37 43q10 35 10 105v375q0 33 -5 50t-24 29 q-5 3 -13 7.5t-12 7t-7.5 7.5t-3.5 12q0 23 33 23zM272 329v-149q0 -77 7 -85q9 -11 38 -11h21q148 0 148 133q0 63 -42.5 91.5t-108.5 29.5h-54q-9 0 -9 -9zM284 422h40q57 0 94 26.5t37 83.5q0 55 -36 78.5t-91 23.5h-43q-13 0 -13 -12v-187q0 -13 12 -13z" />
<glyph unicode="C" horiz-adv-x="686" d="M411 81q37 0 64.5 15.5t42.5 38t27 45t27 38t34 15.5q46 0 46 -56q0 -101 -35 -133q-27 -25 -85.5 -40t-117.5 -15q-168 0 -276.5 100.5t-108.5 264.5t114 268t284 104q116 0 175 -40q40 -27 40 -74v-42q0 -69 -47 -69q-18 0 -31 12.5t-29.5 38.5t-27.5 39 q-44 50 -109 50t-109 -42.5t-61.5 -100t-17.5 -124.5q0 -49 10 -97t31.5 -94t63 -74t96.5 -28z" />
<glyph unicode="D" horiz-adv-x="778" d="M514 161q55 72 55 195q0 177 -108 245q-55 33 -144 33h-18q-16 -1 -21.5 -7t-5.5 -21v-408q0 -53 2.5 -73t12.5 -28q15 -12 57 -12q17 0 39 2q80 8 131 74zM569 666q82 -39 130.5 -120t48.5 -182q0 -74 -24.5 -137.5t-73.5 -115.5t-133 -81.5t-194 -29.5h-249 q-39 0 -39 26q0 14 22.5 27.5t30.5 25.5q18 26 18 123v382q0 31 -5 46.5t-23 26.5q-4 3 -12.5 7t-12.5 6.5t-7.5 8t-3.5 12.5q0 23 33 23h159q129 0 203.5 -9.5t131.5 -38.5z" />
<glyph unicode="E" horiz-adv-x="664" d="M594 224q17 0 30 -9.5t13 -26.5q0 -12 -7 -40q-5 -19 -9.5 -52.5t-8.5 -52.5t-19 -35t-42 -16q-9 0 -67.5 4t-120.5 4h-289q-39 0 -39 26q0 10 7 17t16 10.5t19.5 13t16.5 24.5q13 30 13 111v376q0 33 -5 50t-24 29q-4 3 -12.5 7t-12.5 6.5t-7.5 8t-3.5 12.5q0 23 34 23 h266q61 0 134.5 3.5t83.5 3.5q22 0 31.5 -7.5t11.5 -27.5q0 -5 0.5 -17t1 -29t0.5 -28q2 -70 2 -78q0 -37 -44 -37q-13 0 -21.5 8.5t-19.5 35.5q-24 55 -62 75q-36 18 -140 18h-21q-16 0 -21 -6t-5 -22v-164q0 -10 1 -14.5t8 -8.5t21 -4q36 0 96 3q16 1 45 3.5t40 2.5 q33 0 33 -24q0 -1 -3 -28q-2 -28 -11.5 -37.5t-45.5 -9.5q-11 0 -35.5 1.5t-31.5 1.5q-30 1 -102 1q-15 0 -15 -16v-142q0 -39 4 -57.5t17 -25.5q11 -6 46 -6q71 0 119 22.5t87 81.5q24 38 48 38z" />
<glyph unicode="F" horiz-adv-x="626" d="M607 533q0 -35 -42 -35q-15 0 -23.5 8t-20.5 35q-24 55 -61 74q-17 9 -41.5 13.5t-44.5 5t-64 0.5h-11q-16 0 -21.5 -6.5t-5.5 -21.5v-187q0 -16 5 -24t23 -8q58 0 90 2q13 1 44.5 4t46.5 3q35 0 35 -24q0 -4 -1.5 -13t-1.5 -14q-1 -25 -10 -36.5t-35 -11.5q-9 0 -22 0.5 t-31 1.5t-27 1q-29 1 -101 1q-15 0 -15 -16v-83q0 -91 16 -118q9 -15 32 -28t23 -30q0 -26 -38 -26h-232q-38 0 -38 26q0 16 21.5 28t31.5 27q18 27 18 121v382q0 31 -5 47t-23 26q-4 3 -13 7t-13 6.5t-7.5 8t-3.5 12.5q0 23 34 23h266q61 0 134.5 3.5t83.5 3.5 q22 0 31.5 -7.5t11.5 -27.5q1 -11 1.5 -37t0.5 -35z" />
<glyph unicode="G" horiz-adv-x="739" d="M674 350q33 0 33 -23q0 -7 -3.5 -12t-7.5 -7.5t-12 -7t-13 -7.5q-19 -13 -23.5 -31t-4.5 -58v-95q0 -27 -24 -46q-100 -74 -224 -74q-167 0 -266.5 99.5t-99.5 260.5t110 269t280 108q125 0 184 -40q39 -26 39 -95v-8q0 -17 -1 -27.5t-5 -25t-13.5 -21.5t-25.5 -7 q-19 0 -31.5 11t-28.5 36t-25 36q-46 55 -115 55q-65 0 -108.5 -39.5t-61 -96t-17.5 -126.5q0 -47 10.5 -96t32.5 -97t62.5 -78t92.5 -30q23 0 44 6q25 7 25 37v71q0 46 -9 68t-41 34q-3 1 -11.5 4t-12.5 5t-9.5 5.5t-7.5 7.5t-2 10q0 25 36 25h254z" />
<glyph unicode="H" horiz-adv-x="818" d="M758 55q25 -14 25 -29q0 -26 -39 -26h-231q-39 0 -39 26q0 15 25 29q27 16 37 43q10 28 10 104v122q0 14 -16 14h-249q-9 0 -9 -9v-127q0 -76 10 -104t36 -43q25 -14 25 -29q0 -26 -38 -26h-232q-38 0 -38 26q0 15 24 29q27 15 37 43t10 104v366q0 40 -4.5 58.5 t-24.5 30.5q-4 3 -12.5 7t-12.5 6.5t-7.5 8t-3.5 12.5q0 23 34 23h228q33 0 33 -23q0 -7 -3.5 -12.5t-7.5 -8t-12.5 -6.5t-12.5 -7q-19 -12 -23.5 -30.5t-4.5 -58.5v-134q0 -13 16 -13h248q10 0 10 8v139q0 40 -4.5 58.5t-24.5 30.5q-4 3 -12.5 7t-12.5 6.5t-7.5 8 t-3.5 12.5q0 23 34 23h228q33 0 33 -23q0 -7 -3.5 -12.5t-7.5 -8t-12.5 -6.5t-12.5 -7q-18 -11 -23 -27t-5 -46v-382q0 -81 9 -104q10 -27 37 -43z" />
<glyph unicode="I" horiz-adv-x="377" d="M317 55q25 -14 25 -29q0 -26 -39 -26h-230q-38 0 -38 26q0 15 24 29q27 15 37 43t10 105v364q0 28 -1 41t-7.5 27t-19.5 22q-4 3 -13 7t-13 6.5t-7.5 8t-3.5 12.5q0 23 34 23h227q33 0 33 -23q0 -7 -3.5 -12.5t-7.5 -8t-12.5 -6.5t-12.5 -7q-17 -10 -22.5 -26t-5.5 -44 v-384q0 -80 9 -105q10 -27 37 -43z" />
<glyph unicode="J" horiz-adv-x="504" d="M26 20q-33 32 -33 107q0 62 43 62q19 0 28.5 -10t26.5 -42q7 -13 12 -21t15 -19.5t22 -17.5t26 -6q32 0 51 26q24 32 24 139v274q0 93 -3 107q-6 28 -38 44q-26 14 -26 28q0 23 39 23h221q38 0 38 -24q0 -5 -1.5 -8.5t-5.5 -7t-6 -5t-8.5 -4.5t-7.5 -3q-30 -15 -34 -44 q-2 -13 -2 -106q0 -33 0.5 -102.5t0.5 -108.5q0 -141 -56 -214q-76 -98 -211 -98q-80 0 -115 31z" />
<glyph unicode="K" horiz-adv-x="776" d="M763 23q0 -23 -32 -23h-86q-44 0 -64.5 3.5t-37.5 14.5q-19 13 -38.5 40.5t-73.5 118.5q-40 70 -60.5 96.5t-40.5 26.5q-11 0 -30 -16l-19 -18q-9 -9 -9 -22v-42q0 -93 18 -121q8 -13 30.5 -26.5t22.5 -28.5q0 -26 -38 -26h-232q-38 0 -38 26q0 15 24 29t32 31 q15 30 15 116v382q0 31 -5 46.5t-23 26.5q-3 2 -16 8t-17 11t-4 15q0 23 34 23h228q34 0 34 -23q0 -7 -3.5 -12.5t-7.5 -8t-12.5 -6.5t-12.5 -7q-19 -11 -24 -28t-5 -51v-191q0 -7 5 -7q3 0 7 4l153 161q68 71 68 98q0 11 -14.5 23t-14.5 24q0 24 34 24h209q32 0 32 -23 q0 -10 -6 -16t-25 -13.5t-24 -10.5q-68 -35 -168 -135l-103 -105q-2 -2 -2 -4q0 -4 4 -4q2 0 9.5 2.5t14.5 2.5t14 -2.5t14.5 -8t14 -11t14.5 -16t14 -18.5t15.5 -22.5t15 -24t16.5 -27t17 -27.5q101 -162 138 -190q5 -4 13.5 -9t13.5 -8t8.5 -8.5t3.5 -12.5z" />
<glyph unicode="L" horiz-adv-x="596" d="M559 224q17 0 30 -9t13 -26q0 -9 -8 -41q-5 -17 -9 -50.5t-7.5 -53t-18.5 -36t-43 -16.5q-11 0 -68.5 4t-119.5 4h-255q-38 0 -38 26q0 12 6 18t20 13q26 14 35 41q10 28 10 105v375q0 34 -5 51t-23 28q-4 3 -13 7t-13 6.5t-7.5 8t-3.5 12.5q0 23 34 23h229q33 0 33 -23 q0 -7 -3.5 -12.5t-7.5 -8t-12.5 -6.5t-12.5 -7q-19 -11 -24 -28.5t-5 -51.5v-383q0 -37 1 -53t5.5 -31.5t15.5 -21.5q12 -6 32 -6q30 0 62 9q42 12 69 34t54 62q25 37 48 37z" />
<glyph unicode="M" horiz-adv-x="933" d="M873 55q25 -14 25 -29q0 -26 -38 -26h-232q-38 0 -38 26q0 15 24 29q28 17 37 43q10 28 10 104v374q0 4 -4 4t-7 -8l-177 -434q-6 -14 -11 -18t-16 -4h-45q-12 0 -17.5 4t-10.5 18l-180 439q-1 3 -4 3q-5 0 -5 -6q0 -358 3 -401q2 -37 13 -61t19 -31t23 -15q4 -2 14.5 -7 t16.5 -8t11.5 -9.5t5.5 -13.5q0 -28 -41 -28h-179q-43 0 -43 25q0 12 17.5 26t23.5 22q26 36 29 159q3 138 3 372q0 22 -4 31q-4 10 -20 18q-2 1 -13 5.5t-15 7t-9 8.5t-5 13q0 27 42 27h197q21 0 29 -4.5t14 -17.5l143 -336q2 -4 5 -4t5 4l138 335q9 23 34 23h217 q33 0 33 -23q0 -7 -3.5 -12.5t-7.5 -8t-12.5 -6.5t-12.5 -7q-18 -10 -23 -26t-5 -47v-382q0 -76 10 -104t36 -43z" />
<glyph unicode="N" horiz-adv-x="816" d="M752 714q41 0 41 -25q0 -6 -2.5 -11t-7.5 -8.5t-9 -6t-11 -5.5t-9 -4q-15 -8 -23.5 -16.5t-16 -32.5t-10.5 -64q-5 -67 -5 -533q0 -16 -18 -16h-94q-24 0 -36 18l-330 477q-4 6 -7 6q-4 0 -4 -6q0 -270 2 -314q2 -37 13 -61t20 -31.5t23 -14.5q2 -1 18.5 -7.5t23.5 -13.5 t7 -17q0 -28 -42 -28h-208q-41 0 -41 26q0 7 5 13t9 9t14 7t11 5q16 9 25 16.5t19 32t13 64.5q4 60 4 431q0 11 -6 17q-14 14 -34 24q-7 4 -20 9.5t-18 8.5t-10 9t-5 14q0 28 41 28h163q34 0 52 -25l315 -458q4 -6 7 -6q5 0 5 6q0 243 -4 310q-2 39 -10 63t-15.5 31.5 t-20.5 14.5q-5 2 -15.5 7t-15.5 8t-10 9t-5 13q0 27 42 27h190z" />
<glyph unicode="O" horiz-adv-x="790" d="M383 640q-59 0 -100 -40t-57.5 -95t-16.5 -117q0 -48 10 -98.5t31.5 -100t62 -81t93.5 -31.5q86 0 130 74.5t44 174.5q0 49 -10.5 100t-32 101t-61.5 81.5t-93 31.5zM761 358q0 -155 -104.5 -262t-261.5 -107q-167 0 -266.5 102t-99.5 267q0 154 104.5 261t261.5 107 q167 0 266.5 -103t99.5 -265z" />
<glyph unicode="P" horiz-adv-x="653" d="M454 428q21 32 21 74q0 51 -31 85q-42 45 -126 45h-31q-15 0 -15 -15v-234q0 -12 12 -12h34q99 0 136 57zM630 424q-57 -137 -277 -137h-69q-12 0 -12 -14v-71q0 -76 10 -104t37 -43q24 -13 24 -29q0 -26 -38 -26h-232q-38 0 -38 26q0 15 25 29q26 15 36 43t10 104v382 q0 30 -5 46.5t-23 26.5q-4 3 -12.5 7t-12.5 6.5t-7.5 8t-3.5 12.5q0 23 33 23h220q82 0 123.5 -2.5t90.5 -17.5t81 -45q56 -53 56 -143q0 -44 -16 -82z" />
<glyph unicode="Q" horiz-adv-x="798" d="M210 388q0 -50 10.5 -101t32 -100.5t62 -80.5t93.5 -31q58 0 99 38.5t58.5 94t17.5 119.5q0 47 -10.5 98t-32 101t-62 82t-93.5 32q-59 0 -100 -39t-58 -94t-17 -119zM713 -79q2 0 9 -1.5t11 -2t10 -2.5t9.5 -4.5t6 -7t2.5 -10.5q0 -16 -24 -27l-98 -44q-32 -15 -55 -15 q-8 0 -15.5 1.5t-16 5.5t-15.5 8t-17.5 12t-17 13t-19 16t-19 17t-21 19.5t-21.5 20.5q-69 65 -118 76q-128 27 -201.5 123.5t-73.5 236.5q0 155 105 262.5t263 107.5q167 0 267 -103t100 -267q0 -111 -57 -201.5t-154 -134.5q12 -6 24 -17q39 -33 68.5 -52t40 -22.5 t27.5 -7.5z" />
<glyph unicode="R" d="M329 406q55 0 91 28t36 88q0 110 -124 110h-45q-15 0 -15 -15v-199q0 -12 12 -12h45zM708 60q2 -2 12.5 -8.5t15.5 -12.5t5 -15q0 -24 -33 -24h-101q-60 0 -84 35q-17 23 -69 147q-28 67 -64 104t-90 37q-11 0 -16 -1q-12 -3 -12 -16v-104q0 -78 10 -104q9 -28 37 -43 q24 -14 24 -29q0 -26 -38 -26h-231q-39 0 -39 26q0 15 25 29q27 16 37 43q9 25 9 104v382q0 30 -5 46.5t-23 26.5q-4 3 -12.5 7t-12.5 6.5t-7.5 8t-3.5 12.5q0 23 33 23h204q13 0 41.5 0.5t43.5 0.5q148 0 210 -47t62 -128q0 -40 -14 -68q-19 -41 -59 -65t-89 -30 q-11 -2 -11 -6q0 -6 10 -7q59 -8 92 -47.5t72 -130.5q29 -68 42.5 -90.5t28.5 -35.5z" />
<glyph unicode="S" horiz-adv-x="615" d="M520 670q25 -25 25 -97q0 -20 -1.5 -32.5t-11 -24.5t-26.5 -12q-11 0 -21 6t-16 12t-19 23t-20 26q-64 75 -129 75q-38 0 -66.5 -21.5t-28.5 -61.5q0 -42 38.5 -69t93 -44.5t109 -40t93 -69.5t38.5 -118q0 -102 -84 -167.5t-213 -65.5q-78 0 -145 22t-90 58 q-20 32 -20 89q0 7 -1 19.5t-1 18.5q0 22 11.5 34t26.5 12t25.5 -9.5t29.5 -36t38 -46.5q73 -77 150 -77q54 0 84 26q34 30 34 72q0 32 -20.5 55.5t-53 39t-72 29.5t-79.5 30.5t-72.5 38.5t-53 58t-20.5 83q0 93 77.5 157t197.5 64q59 0 112 -15t81 -41z" />
<glyph unicode="T" horiz-adv-x="637" d="M640 531q0 -34 -44 -34q-14 0 -21.5 8t-19.5 36q-24 55 -62 75q-29 16 -64 16q-18 0 -23 -7t-5 -21v-402q0 -81 11 -107q6 -16 17.5 -26.5t20.5 -14t16 -10.5t7 -17q0 -27 -39 -27h-231q-39 0 -39 26q0 12 10 19t25.5 17.5t23.5 28.5q13 27 13 111v402q0 14 -5 21t-23 7 q-36 0 -64 -16q-38 -21 -61 -75q-12 -28 -19.5 -35.5t-21.5 -7.5q-45 0 -45 36l3 87q0 43 2 65q2 21 11.5 28t36.5 7q17 0 86.5 -3.5t112.5 -3.5h139q46 0 115 3.5t85 3.5q24 0 35 -7t12 -28q1 -15 1.5 -39.5t0.5 -33.5q0 -5 1.5 -36.5t1.5 -45.5z" />
<glyph unicode="U" horiz-adv-x="771" d="M723 714q41 0 41 -25q0 -7 -4.5 -13t-9 -9t-14 -7.5t-11.5 -5.5q-15 -9 -23 -17t-16 -31.5t-11 -63.5q-1 -15 -2 -70t-1.5 -125.5t-0.5 -90.5q-2 -62 -16 -104q-27 -80 -97 -121.5t-173 -41.5q-225 0 -280 156q-14 42 -14 110v313q0 28 -1 40.5t-7.5 26t-20.5 22.5 q-5 3 -13 7.5t-12 7t-7.5 7.5t-3.5 12q0 23 34 23h228q33 0 33 -23q0 -7 -3.5 -12t-7.5 -7.5t-12 -7t-13 -7.5q-19 -12 -23.5 -30.5t-4.5 -58.5v-285q0 -56 14 -91q38 -91 150 -91q74 0 117.5 45t46.5 127q2 56 2 115q0 98 -3 154q-2 39 -10 62.5t-15.5 31t-20.5 14.5 q-5 3 -15.5 7.5t-15.5 7.5t-10 9t-5 14q0 26 42 26h189z" />
<glyph unicode="V" horiz-adv-x="750" d="M721 714q38 0 38 -25q0 -12 -15 -24l-10 -8q-11 -8 -15 -11.5t-13.5 -14.5t-18.5 -25q-23 -34 -53 -101l-221 -497q-7 -16 -22 -16h-66q-19 0 -24 15l-217 564q-23 59 -38 72q-11 10 -33 21q-18 9 -18 23q0 27 37 27h226q35 0 35 -25q0 -14 -24.5 -27.5t-24.5 -34.5 q0 -11 6 -28l151 -398q3 -8 6 -8q4 0 7 8q84 193 131 314q23 57 23 93q0 19 -8 32t-18 18t-18 12.5t-8 17.5q0 26 38 26h167z" />
<glyph unicode="W" horiz-adv-x="1149" d="M1118 714q37 0 37 -26q0 -14 -16 -25q-37 -25 -58 -56q-25 -38 -50 -102q-48 -118 -193 -496q-6 -16 -23 -16h-63q-16 0 -21 15l-162 477q-2 6 -5 6t-5 -6l-173 -476q-6 -16 -23 -16h-70q-18 0 -23 15l-183 563q-17 53 -37 70q-8 7 -23 15t-22.5 14.5t-7.5 16.5 q0 27 37 27h230q35 0 35 -25q0 -13 -23.5 -27t-23.5 -37q0 -13 4 -26l111 -371q1 -4 3 -4t4 6l174 479q4 12 21 12h86q15 0 19 -12l155 -482q1 -4 3 -4t3 4l107 288q23 64 23 94q0 25 -18 43q-5 5 -15 10.5t-15 11t-5 14.5q0 26 38 26h168z" />
<glyph unicode="X" horiz-adv-x="773" d="M719 57q3 -1 12.5 -6t12.5 -7.5t7 -8t4 -12.5q0 -23 -34 -23h-250q-33 0 -33 23q0 11 17 24.5t17 26.5q0 21 -36 74l-95 142q-3 4 -6 4q-4 0 -7 -5q-56 -80 -87 -140q-20 -40 -20 -59q0 -18 11.5 -28.5t23.5 -18.5t12 -19q0 -24 -35 -24h-178q-36 0 -36 24q0 6 3.5 12.5 t7 9.5t13 10t12.5 10q39 32 84 91q44 57 137 202q5 8 5 14q0 5 -5 13l-114 169q-25 37 -34.5 50.5t-24.5 27.5t-34 24q-3 2 -10.5 5.5t-10.5 5.5t-7.5 5.5t-6 7.5t-1.5 10q0 23 33 23h250q34 0 34 -23q0 -12 -17.5 -25t-17.5 -27q0 -21 40 -79l78 -115q3 -5 6 -5t6 5 q54 80 80 132q14 28 14 47q0 24 -23.5 38.5t-23.5 27.5q0 24 35 24h178q35 0 35 -24q0 -5 -1.5 -9.5t-6 -9t-7.5 -7t-10.5 -8.5t-10.5 -8q-39 -32 -84 -91q-51 -67 -123 -182q-5 -8 -5 -13q0 -4 5 -12l128 -190q34 -50 50.5 -69t43.5 -34z" />
<glyph unicode="Y" horiz-adv-x="732" d="M699 714q38 0 38 -25q0 -12 -15 -24q-34 -25 -58 -51q-24 -25 -73 -99q-92 -145 -142 -225q-3 -4 -3 -11v-77q0 -79 9 -104q9 -27 36 -42q26 -15 26 -30q0 -26 -39 -26h-230q-38 0 -38 26q0 16 24 29q27 15 37 43t10 104v40q0 8 -5 18q-148 271 -173 312q-34 58 -45 69 q-10 10 -36 23q-18 10 -18 23q0 27 37 27h232q34 0 34 -25q0 -14 -23 -27t-23 -29q0 -13 11 -32l123 -223q3 -5 6 -5t7 6q47 74 101 162q30 48 30 76q0 24 -25.5 41t-25.5 30q0 26 39 26h172z" />
<glyph unicode="Z" horiz-adv-x="650" d="M587 223q43 0 43 -36q0 -11 -7 -39q-5 -18 -10 -52t-9 -53t-19.5 -35t-41.5 -16q-7 0 -66 4t-121 4h-301q-15 0 -20 6t-5 23q0 42 14 66l352 522q6 8 6 12q0 5 -8 5h-17q-92 0 -126 -2.5t-59 -15.5q-36 -18 -61 -75q-11 -26 -20 -34.5t-23 -8.5q-43 0 -43 36 q0 10 1.5 41.5t1.5 41.5q2 61 3 69q2 21 10.5 28t31.5 7q10 0 83.5 -3.5t134.5 -3.5h272q16 0 21.5 -5.5t5.5 -24.5v-15q0 -28 -17 -54l-352 -521q-3 -5 -3 -6q0 -4 5 -4q140 0 173 8q41 10 68.5 32t54.5 62q24 37 48 37z" />
<glyph unicode="[" horiz-adv-x="386" d="M352 671h-136q-21 0 -21 -21v-709q0 -13 4.5 -17t16.5 -4h137q21 0 21 -19v-37q0 -20 -21 -20h-275q-21 0 -21 21v861q0 21 20 21h275q22 0 22 -19v-38q0 -19 -22 -19z" />
<glyph unicode="\" horiz-adv-x="514" d="M-37 747h61q12 0 18 -10l500 -818q4 -6 4 -9q0 -6 -7 -6h-60q-11 0 -17 9l-504 824q-2 3 -2 5q0 5 7 5z" />
<glyph unicode="]" horiz-adv-x="386" d="M34 -80h136q21 0 21 21v709q0 13 -4.5 17t-16.5 4h-137q-21 0 -21 19v37q0 20 21 20h275q21 0 21 -21v-861q0 -21 -20 -21h-275q-22 0 -22 19v38q0 19 22 19z" />
<glyph unicode="^" horiz-adv-x="551" d="M270 611l-79 -133q-8 -14 -29 -14h-99q-12 0 -12 8q0 2 5 11l137 229q9 14 29 14h107q20 0 29 -14l140 -234q2 -4 2 -6q0 -8 -12 -8h-99q-21 0 -29 14l-79 133q-3 4 -6 4t-5 -4z" />
<glyph unicode="_" horiz-adv-x="495" d="M510 -95v-46q0 -15 -15 -15h-495q-15 0 -15 15v46q0 15 15 15h495q15 0 15 -15z" />
<glyph unicode="`" horiz-adv-x="533" d="M260 619l-141 86q-11 7 -11 12q0 9 14 9h148q29 0 45 -17l74 -82q10 -11 10 -15q0 -7 -10 -7h-79q-28 0 -50 14z" />
<glyph unicode="a" horiz-adv-x="568" d="M327 249v10q0 6 -3 6q-2 0 -6 -3q-8 -5 -46 -22t-58 -33q-39 -28 -39 -66q0 -26 17 -42.5t45 -16.5q52 0 77 50q13 27 13 117zM528 79q25 -2 25 -22t-24 -40q-34 -28 -86 -28q-35 0 -62.5 18.5t-36.5 56.5q-2 6 -3 6t-5 -5q-58 -76 -163 -76q-65 0 -111.5 34.5 t-46.5 98.5q0 79 72 122q29 17 91 40t74 28q75 35 75 85q0 27 -17.5 43t-47.5 16q-34 0 -61 -19q-22 -15 -39.5 -39.5t-30.5 -39.5t-32 -15q-25 0 -34.5 14t-9.5 49q0 52 19 75q22 28 80 40t111 12q89 0 156 -42.5t67 -126.5q0 -34 -2.5 -97t-2.5 -95q0 -38 1.5 -53.5 t11.5 -27t32 -12.5z" />
<glyph unicode="b" horiz-adv-x="635" d="M224 251q0 -89 32 -137.5t83 -48.5q55 0 83 50t28 128q0 81 -31.5 131t-81.5 50q-60 0 -86.5 -51t-26.5 -122zM607 288q0 -123 -75 -211t-198 -88q-82 0 -145 38q-15 9 -25 9q-19 0 -28 -20q-11 -27 -30 -27q-29 0 -29 40v518q0 47 -7 66q-8 21 -37 33q-1 1 -7 3t-9 3.5 t-7 4.5t-6 7t-2 9q0 19 34 28q71 16 134 39q21 7 28 7q26 0 26 -34v-254q0 -11 7 -11q5 0 9 6q64 79 159 79q93 0 150.5 -71.5t57.5 -173.5z" />
<glyph unicode="c" horiz-adv-x="513" d="M490 112q0 -28 -52 -71q-64 -52 -163 -52q-110 0 -177.5 68t-67.5 178q0 126 80.5 212t208.5 86q97 0 132 -39q22 -25 22 -69q0 -71 -42 -71q-10 0 -18 5.5t-12 11t-12.5 18t-12.5 18.5q-13 17 -21 26t-24 18t-36 9q-51 0 -82.5 -45.5t-31.5 -114.5q0 -83 41.5 -146.5 t118.5 -63.5q38 0 79.5 21.5t48.5 21.5q8 0 14.5 -5.5t6.5 -15.5z" />
<glyph unicode="d" horiz-adv-x="652" d="M301 97q47 0 78.5 44.5t31.5 129.5q0 88 -31.5 136.5t-83.5 48.5q-41 0 -67 -30t-35 -67.5t-9 -81.5q0 -80 31 -130t85 -50zM601 90q1 -1 6 -3l7.5 -3t6.5 -3.5t6 -5t4 -6.5t2 -8q0 -17 -34 -26q-60 -15 -127 -37q-27 -9 -35 -9q-26 0 -26 34v40q0 11 -7 11q-4 0 -9 -6 q-64 -79 -158 -79q-92 0 -150 70.5t-58 174.5q0 119 71.5 209t189.5 90q57 0 108 -22q8 -3 9 -3q4 0 4 7v32q0 47 -7 66q-8 21 -37 33q-31 12 -31 27q0 19 34 28q83 20 136 40q18 6 26 6q26 0 26 -34v-524q0 -47 7 -66q8 -21 36 -33z" />
<glyph unicode="e" horiz-adv-x="545" d="M185 354q-1 -6 -1 -9q0 -9 10 -9h116q31 0 47 9t16 35q0 30 -22.5 54t-58.5 24q-42 0 -70.5 -28t-36.5 -76zM489 132q9 0 15.5 -6t6.5 -15q0 -16 -18 -37t-42 -37q-72 -48 -165 -48q-111 0 -183.5 71t-72.5 187t76.5 201t190.5 85q89 0 156.5 -57t67.5 -147 q0 -41 -19 -54t-66 -13h-240q-11 0 -11 -9q0 -4 1 -12q4 -41 26 -75q48 -75 146 -75q34 0 61.5 10.5t44.5 20.5t25 10z" />
<glyph unicode="f" horiz-adv-x="443" d="M457 725q31 -22 31 -78q0 -34 -8.5 -52.5t-33.5 -18.5q-13 0 -27 14.5t-24.5 31.5t-29 31.5t-40.5 14.5q-73 0 -73 -157q0 -8 10 -8q42 0 62 2q52 5 58 5q33 0 33 -20q0 -6 -4 -26q-5 -22 -13.5 -31t-27.5 -9q-11 0 -30 1.5t-26 1.5q-25 1 -49 1q-12 0 -12 -13v-213 q0 -77 10 -105q8 -26 36 -42q25 -14 25 -29q0 -26 -38 -26h-217q-38 0 -38 26q0 16 24 29q29 16 37 42q10 35 10 105q0 38 -0.5 120.5t-0.5 98.5q0 7 -8 7h-61q-16 0 -16 14v46q0 15 16 15h62q9 0 10 8q11 105 81.5 170.5t181.5 65.5q60 0 90 -22z" />
<glyph unicode="g" horiz-adv-x="565" d="M362 95q86 0 126 -29q47 -33 47 -91q0 -69 -66 -117q-71 -51 -215 -51q-36 0 -72 4.5t-78.5 16t-69 38.5t-26.5 65q0 63 70 87q3 1 3 3q0 1 -2 3q-20 23 -20 52q0 64 79 95q4 2 4 5q0 2 -4 4q-49 23 -77 65t-28 96q0 79 66 135.5t161 56.5q64 0 116 -24q12 -6 24 -12.5 t17.5 -8.5t10.5 -2q12 0 28 25t42 25q22 0 35.5 -14t13.5 -39q0 -26 -17.5 -42t-47.5 -16q-10 0 -15 1q19 -38 19 -80q0 -82 -66 -137t-158 -55h-15q-64 0 -64 -30t79 -30q16 0 51 0.5t49 0.5zM412 -61q0 19 -18 26t-54 7q-11 0 -36.5 -0.5t-37.5 -0.5q-91 0 -134 17 q-8 -21 -8 -29q0 -43 46.5 -62t102.5 -19q64 0 101.5 17.5t37.5 43.5zM254 462q-35 0 -51 -27t-16 -68q0 -48 19 -93.5t61 -45.5q30 0 47 28.5t17 71.5q0 21 -3.5 42t-11 43t-24 35.5t-38.5 13.5z" />
<glyph unicode="h" horiz-adv-x="679" d="M636 56q25 -14 25 -30q0 -26 -39 -26h-216q-39 0 -39 26q0 15 25 30q27 16 37 42q10 28 10 106v123q0 42 -20.5 67.5t-60.5 25.5q-39 0 -66 -27q-25 -24 -35 -67.5t-10 -121.5t10 -106q8 -26 37 -42q25 -15 25 -30q0 -26 -39 -26h-214q-38 0 -38 26q0 15 24 30 q29 16 37 42q10 28 10 106v342q0 47 -7 66q-8 21 -36 34q-1 1 -9 4t-11.5 5t-7.5 6.5t-4 10.5q0 21 34 28q82 20 137 41q18 6 26 6q26 0 26 -34v-262q0 -7 4 -7q3 0 6 5q59 84 162 84q93 0 140 -73q30 -44 30 -133v-123q0 -71 10 -106q8 -25 37 -42z" />
<glyph unicode="i" horiz-adv-x="351" d="M276 664q0 -23 -36 -59.5t-59 -36.5t-59.5 36.5t-36.5 59.5t36.5 59t59.5 36t59 -36.5t36 -58.5zM302 55q1 -1 5 -3.5t5.5 -3t4.5 -3t4.5 -4t3 -4t2 -5.5t0.5 -6q0 -26 -39 -26h-215q-39 0 -39 26q0 15 25 29q27 16 37 43q10 28 10 105v130q0 47 -7 66q-8 21 -37 33 q-1 0 -7 2.5t-9 4.5t-7 5t-6 7t-2 9q0 18 33 27q84 20 139 40q18 6 26 6q26 0 26 -34v-296q0 -77 10 -105q10 -27 37 -43z" />
<glyph unicode="j" horiz-adv-x="363" d="M284 123q0 -137 -46 -205q-35 -52 -96 -81.5t-130 -29.5q-57 0 -87 22q-31 24 -31 82q0 75 44 75q8 0 15 -5.5t11.5 -10.5t12.5 -18t12 -18q29 -40 62 -40q34 0 55 26q26 35 26 179v235q0 50 -6 66q-9 22 -39 33q-29 11 -29 27q0 20 33 27q75 18 139 41q15 5 25 5 q28 0 28 -33q0 -68 0.5 -191t0.5 -186zM300 664q0 -23 -36 -59.5t-59 -36.5t-59.5 36.5t-36.5 59.5t36.5 59t59.5 36t59 -36.5t36 -58.5z" />
<glyph unicode="k" horiz-adv-x="679" d="M635 61q5 -4 16.5 -10.5t16.5 -12t5 -13.5q0 -25 -33 -25h-97q-48 0 -71 11q-19 9 -34.5 32t-48.5 85q-28 53 -41.5 71t-27.5 18q-13 0 -42 -27l-18 -18q-5 -5 -5 -16q1 -35 9 -56q10 -27 38 -44q24 -15 24 -29q0 -27 -38 -27h-220q-40 0 -40 27q0 3 0.5 5.5t2.5 5.5 l3 4.5t4.5 3.5t4.5 3t5.5 3.5t5.5 3.5q27 17 38 44q10 23 10 107v336q0 49 -7 68q-8 20 -38 34q-2 1 -7.5 3t-8.5 4t-7.5 4.5t-6.5 6.5t-2 9q0 20 34 29q88 21 142 41q18 6 26 6q27 0 27 -35v-422q0 -6 3 -6q2 0 6 4l71 70q66 66 66 93q0 12 -14.5 23t-14.5 23q0 24 35 24 h212q34 0 34 -25q0 -6 -2.5 -11t-9 -8.5t-11.5 -5.5t-14.5 -5.5t-14.5 -5.5q-41 -15 -81.5 -46t-105.5 -94q-3 -3 -3 -5q0 -6 6 -6q2 0 8 2.5t14 2.5q17 0 34.5 -16.5t29 -35.5t35.5 -63q61 -110 98 -139z" />
<glyph unicode="l" horiz-adv-x="344" d="M295 55q1 -1 5 -3.5t5.5 -3t4.5 -3t4.5 -4t3 -4t2 -5.5t0.5 -6q0 -26 -39 -26h-215q-39 0 -39 26q0 15 25 29q27 16 37 43q10 28 10 105v344q0 47 -7 66q-8 21 -37 33q-1 0 -7 2.5t-9 4.5t-7 5t-6 7t-2 9q0 18 33 27q84 20 139 40q18 6 26 6q26 0 26 -34v-510 q0 -77 10 -105q10 -27 37 -43z" />
<glyph unicode="m" horiz-adv-x="1006" d="M963 56q25 -15 25 -30q-2 -26 -39 -26h-215q-39 0 -39 26q0 15 25 30q29 18 37 42q10 28 10 105v125q0 40 -19.5 66.5t-61.5 26.5q-38 0 -65 -27q-23 -23 -29 -62.5t-6 -128.5q0 -92 5 -112q5 -21 23 -34q2 -1 8 -5.5t9 -7t6 -7.5t3 -11q-2 -26 -39 -26h-180 q-38 0 -38 26q0 3 0.5 6t2.5 6t3.5 4.5t4.5 4t4.5 3.5t5.5 3.5t5 3.5q18 13 22 34q5 20 5 112v113q0 105 -81 105q-34 0 -58 -24q-25 -24 -33.5 -67.5t-8.5 -126.5q0 -70 10 -105q10 -27 37 -43q25 -14 25 -29q0 -26 -39 -26h-215q-38 0 -38 26q0 16 24 29q27 15 37 43 t10 105v130q0 47 -7 66q-8 21 -37 33q-1 0 -5.5 2t-7 3t-6.5 3.5t-6 5t-4 6t-2 8.5q0 18 34 27q78 19 136 40q16 6 27 6q27 0 27 -34v-50q0 -5 4 -5q3 0 5 3q59 86 163 86q46 0 85 -21.5t60 -60.5q4 -6 7 -6q4 0 8 6q57 82 160 82q41 0 79 -18.5t60 -53.5q30 -48 30 -132 v-126q0 -77 10 -105q9 -25 37 -42z" />
<glyph unicode="n" horiz-adv-x="685" d="M642 56q25 -14 25 -30q0 -26 -39 -26h-216q-39 0 -39 26q0 15 25 30q27 16 37 42q10 28 10 106v123q0 42 -20.5 67.5t-60.5 25.5q-39 0 -66 -27q-25 -24 -35 -67.5t-10 -121.5t10 -106q8 -26 37 -42q25 -15 25 -30q0 -26 -39 -26h-214q-38 0 -38 26q0 15 24 30 q29 16 37 42q10 28 10 106v128q0 47 -7 66q-8 22 -35 33q-1 1 -6 3l-7.5 3t-6.5 3.5t-6.5 5t-4 6t-1.5 7.5q0 21 34 28q70 17 133 40q16 6 29 6q26 0 26 -34v-48q0 -7 4 -7q3 0 6 5q59 84 162 84q93 0 140 -73q30 -44 30 -133v-123q0 -71 10 -106q8 -25 37 -42z" />
<glyph unicode="o" horiz-adv-x="606" d="M417 236q0 32 -5.5 66t-17.5 71.5t-38 61.5t-62 24q-51 0 -78.5 -41.5t-27.5 -117.5q0 -31 5.5 -67t18.5 -75.5t39 -65.5t61 -26q51 0 78 47.5t27 122.5zM310 533q119 0 193 -75.5t74 -193.5q0 -114 -79.5 -194.5t-195.5 -80.5q-121 0 -197 73.5t-76 195.5 q0 114 81 194.5t200 80.5z" />
<glyph unicode="p" horiz-adv-x="651" d="M354 66q57 0 84.5 49.5t27.5 127.5q0 82 -31.5 131.5t-80.5 49.5q-51 0 -82.5 -44.5t-31.5 -128.5q1 -88 33 -136.5t81 -48.5zM514 505q55 -32 82 -90t27 -127q0 -118 -71 -208.5t-190 -90.5q-30 0 -57.5 6.5t-43 12.5t-16.5 6q-4 0 -4 -5v-11q0 -67 10 -93q9 -26 36 -43 q1 -1 5 -3.5t5.5 -3t4.5 -3t4.5 -4t3 -4t2 -5.5t0.5 -6q0 -26 -38 -26h-214q-38 0 -38 26q0 3 0.5 6t2 5.5t3 4t4.5 4t4.5 3t5.5 3t5 3.5q27 17 36 43q10 28 10 102v326q0 47 -6 66q-6 21 -37 33q-1 1 -7 3t-9 3.5t-7 4.5t-6 6.5t-2 8.5q0 20 33 29q78 19 137 40q18 6 26 6 q26 0 26 -34v-40q0 -11 7 -11q4 0 9 6q64 79 158 79q50 0 99 -28z" />
<glyph unicode="q" horiz-adv-x="631" d="M299 98q50 0 81.5 44t31.5 126q0 91 -32 140t-82 49q-55 0 -83.5 -49.5t-28.5 -130.5t31.5 -130t81.5 -49zM606 -138q24 -13 24 -28q0 -27 -38 -27h-213q-39 0 -39 26q0 15 25 29q29 17 37 43q9 31 9 105v53q0 11 -6 11q-5 0 -9 -6q-64 -79 -158 -79q-92 0 -150.5 71 t-58.5 174q0 120 73.5 209.5t192.5 89.5q63 0 134 -31q40 -17 45 -17q13 0 25 21q16 27 32 27q28 0 28 -40v-483q0 -70 10 -105q8 -27 37 -43z" />
<glyph unicode="r" horiz-adv-x="464" d="M391 533q41 0 63.5 -27.5t22.5 -68.5q0 -25 -13 -43t-36 -18q-15 0 -40 13.5t-43 13.5q-90 0 -90 -200q0 -77 10 -105q8 -27 37 -43q24 -13 24 -29q0 -26 -38 -26h-215q-39 0 -39 26q0 15 25 29q27 16 37 43q9 25 9 105v131q0 46 -6 65q-7 23 -37 34q-1 0 -6 2t-7 2.5 t-6.5 3t-6 5t-3.5 6.5t-2 9q0 19 33 26q66 15 123 38q19 8 31 8q27 0 27 -33v-76q0 -4 2 -4t4 4q21 43 58.5 76t81.5 33z" />
<glyph unicode="s" horiz-adv-x="487" d="M26 139q0 50 38 50q4 0 7 -0.5t6.5 -2.5t6 -3.5t6 -4.5t6 -5.5t6.5 -7.5t6.5 -8.5t8 -10t8.5 -10.5q52 -67 118 -67q27 0 51 14.5t24 41.5q0 22 -20.5 37t-51 22.5t-66 20t-66 28t-51 47t-20.5 75.5q0 83 65.5 130.5t156.5 47.5q76 0 124 -24q45 -24 45 -87q0 -35 -8 -49 t-32 -14q-20 0 -37 26q-49 73 -112 73q-31 0 -50 -15t-19 -39q0 -23 29 -39t70.5 -28t83.5 -29t71 -53t29 -89q0 -79 -72 -130q-66 -47 -163 -47q-51 0 -96.5 13t-67.5 31q-34 30 -34 106z" />
<glyph unicode="t" horiz-adv-x="439" d="M403 119q8 0 14 -6t6 -15q0 -16 -13 -34q-23 -34 -64 -54.5t-87 -20.5q-103 0 -145 78q-23 43 -23 126q0 34 4.5 107t5.5 117q0 11 -11 11h-61q-15 0 -15 16v43q0 14 17 17q68 11 95 50q13 19 24 72q3 16 17 16h65q15 0 15 -15v-94q0 -20 4 -25t22 -5q21 0 46 3 q45 5 57 5q35 0 35 -20l-6 -30q-5 -21 -14 -29t-32 -8q-7 0 -15 0.5t-19 1.5t-17 1q-16 1 -52 1q-11 0 -11 -11q-1 -24 -1 -83q0 -145 15 -191q18 -55 67 -55q22 0 45.5 15.5t31.5 15.5z" />
<glyph unicode="u" horiz-adv-x="682" d="M627 90q1 0 7 -2.5t9 -4.5t7 -5t6 -7t2 -9q0 -18 -33 -27q-79 -19 -139 -40q-18 -6 -26 -6q-26 0 -26 34v50q0 5 -3 5t-5 -3q-60 -86 -163 -86q-93 0 -140 72q-29 46 -29 132v140q0 47 -7 66q-8 21 -37 33q-1 0 -7 2.5t-9 4.5t-7 5t-6 7t-2 9q0 18 33 27q81 19 138 40 q17 6 27 6q26 0 26 -34v-303q0 -41 20 -68t60 -27q39 0 66 27q25 24 35 68.5t10 122.5q0 61 -7 80q-8 21 -36 33q-1 0 -7 2.5t-9 4.5t-7 5t-6 7t-2 9q0 18 33 27q84 20 139 40q18 6 26 6q26 0 26 -34v-310q0 -50 6 -66q8 -21 37 -33z" />
<glyph unicode="v" horiz-adv-x="629" d="M595 522q40 0 40 -28q0 -13 -15 -23q-2 -1 -7 -5t-7.5 -5.5t-7.5 -5.5t-8.5 -7.5t-8.5 -9t-10 -12.5t-10 -15q-20 -28 -56 -106l-136 -300q-5 -12 -21 -12h-91q-13 0 -18 12l-148 369q-25 59 -43 76q-8 8 -32 21q-18 9 -18 23q0 28 38 28h217q36 0 36 -26q0 -11 -8 -18 t-17 -10.5t-17 -12.5t-8 -23q0 -13 8 -34l95 -238q3 -7 6 -7q4 0 7 7l66 157q24 57 24 94q0 21 -8.5 34.5t-18.5 18.5t-18.5 12.5t-8.5 16.5q0 29 41 29h163z" />
<glyph unicode="w" horiz-adv-x="985" d="M989 496q0 -15 -16 -25q-2 -1 -9 -5.5t-11.5 -7.5t-12 -9t-15 -14t-14.5 -18q-26 -36 -55 -111l-115 -302q-4 -11 -18 -11h-105q-13 0 -16 11l-117 344q-2 6 -5 6t-5 -6l-118 -344q-4 -11 -16 -11h-111q-15 0 -19 11q-47 147 -121 370q-19 58 -36 74q-14 12 -38 22 q-19 8 -19 25q0 27 37 27h218q36 0 36 -25q0 -9 -7.5 -16.5t-16 -12t-16 -16.5t-7.5 -30t9 -46l68 -212q2 -6 5 -6t5 6l121 351q6 14 23 14h93q20 0 24 -14l120 -354q1 -4 5 -4t5 4l56 156q23 64 23 98q0 24 -13 37t-26 21.5t-13 20.5q0 28 40 28h165q36 0 38 -26z" />
<glyph unicode="x" horiz-adv-x="631" d="M586 58q3 -1 10 -4t10.5 -5t8 -5.5t6.5 -8t2 -10.5q0 -25 -34 -25h-245q-35 0 -35 23q0 11 18 25.5t18 30.5q0 21 -48 87l-24 32q-3 3 -5 3q-4 0 -8 -6q-51 -75 -51 -103q0 -18 12.5 -29t24.5 -19.5t12 -18.5q0 -25 -34 -25h-179q-37 0 -37 25q0 3 0.5 5t1.5 4.5t2 4.5 t3.5 4t4 3.5t5 4t5.5 4t6.5 4.5t6.5 5q47 34 114 124l53 71q4 5 4 11q0 5 -5 12l-64 85q-37 48 -53 64.5t-43 29.5q-2 1 -13 5.5t-14.5 7t-8.5 8.5t-5 14q0 26 35 26h245q35 0 35 -24q0 -11 -18 -25t-18 -30q0 -22 48 -88l22 -30q4 -5 7 -5t6 5q51 78 51 106 q0 18 -12.5 28.5t-24.5 18.5t-12 19q0 25 35 25h178q38 0 38 -26q0 -4 -1.5 -7.5t-3 -6t-5.5 -6t-6.5 -5.5t-9.5 -7t-10 -7q-42 -30 -114 -123q-28 -36 -52 -73q-4 -6 -4 -9q0 -5 4 -10l66 -87q36 -47 53.5 -65t45.5 -32z" />
<glyph unicode="y" horiz-adv-x="617" d="M584 522q39 0 39 -26q0 -14 -15 -24l-12 -8t-15 -10.5t-16 -15t-19 -23.5q-21 -31 -53 -108q-22 -50 -65.5 -159t-50.5 -125q-89 -216 -237 -216q-50 0 -79.5 27.5t-29.5 73.5q0 27 11.5 47.5t38.5 20.5q12 0 24.5 -9.5t22 -20.5t26 -20.5t36.5 -9.5q37 0 64 42q5 8 5 13 q0 4 -2 9l-169 397q-24 57 -42 75q-6 6 -32 19q-18 9 -18 24q0 27 38 27h214q35 0 35 -25q0 -15 -23 -27q-27 -14 -27 -37q0 -11 11 -37l98 -222q2 -6 5 -6t5 6l61 146q24 57 24 93q0 26 -13.5 39.5t-26.5 22t-13 20.5q0 27 39 27h161z" />
<glyph unicode="z" horiz-adv-x="534" d="M473 210q17 0 30 -9.5t13 -26.5q0 -14 -5 -29q-3 -10 -8 -57t-20.5 -71.5t-52.5 -24.5q-6 0 -66.5 4t-124.5 4h-192q-15 0 -20 7.5t-5 29.5v15q1 29 13 44l271 335q3 4 3 6q0 6 -10 6h-53q-40 0 -65 -13q-31 -16 -61 -72q-19 -36 -43 -36q-19 0 -30.5 10.5t-11.5 29.5 q0 12 1 37t1 37q0 40 1 57q1 20 11 28t35 8q12 0 86 -3.5t135 -3.5h170q16 0 22 -5.5t6 -20.5q0 -10 -2 -32q-3 -29 -15 -43l-263 -325q-4 -5 -4 -8q0 -4 6 -4q82 0 124.5 15.5t79.5 77.5q20 33 44 33z" />
<glyph unicode="{" horiz-adv-x="386" d="M39 258q-21 6 -21 23v29q0 19 20 23q56 13 75.5 41.5t19.5 80.5q0 13 -2.5 47t-2.5 60q0 96 58 141q57 44 157 44q22 0 22 -18v-41q0 -17 -20 -18q-40 -5 -56 -29.5t-16 -82.5q0 -16 2 -51t2 -55q0 -54 -19 -90t-73 -61q-6 -3 -6 -6q0 -2 6 -5q54 -24 73 -60.5t19 -90.5 q0 -14 -2 -48.5t-2 -57.5q0 -57 16 -81.5t56 -29.5q11 -2 15.5 -5.5t4.5 -14.5v-40q0 -17 -23 -17q-108 0 -164 51q-50 46 -50 133q0 16 2.5 51.5t2.5 56.5q0 51 -19.5 79.5t-74.5 41.5z" />
<glyph unicode="|" horiz-adv-x="303" d="M186 -193h-69q-14 0 -14 15v1035q0 15 14 15h69q14 0 14 -15v-1035q0 -15 -14 -15z" />
<glyph unicode="}" horiz-adv-x="386" d="M347 334q21 -6 21 -23v-29q0 -19 -20 -23q-56 -13 -75.5 -41.5t-19.5 -80.5q0 -13 2.5 -47t2.5 -60q0 -96 -58 -141q-57 -44 -157 -44q-22 0 -22 18v41q0 17 20 18q40 5 56 29.5t16 82.5q0 16 -2 51t-2 55q0 54 19 90t73 61q6 3 6 6q0 2 -6 5q-54 24 -73 60.5t-19 90.5 q0 14 2 48.5t2 57.5q0 57 -16 81.5t-56 29.5q-11 2 -15.5 5.5t-4.5 14.5v40q0 17 23 17q108 0 164 -51q50 -46 50 -133q0 -16 -2.5 -51.5t-2.5 -56.5q0 -51 19.5 -79.5t74.5 -41.5z" />
<glyph unicode="~" horiz-adv-x="637" d="M91 208l-37 12q-12 4 -12 15q0 5 3 14q55 152 174 152q46 0 122 -30t107 -30q43 0 72 46q9 13 21 13q4 0 11 -2l28 -9q15 -5 15 -15q0 -3 -3 -12q-58 -153 -171 -153q-47 0 -124.5 30t-107.5 30q-45 0 -70 -49q-7 -14 -17 -14q-5 0 -11 2z" />
<glyph unicode="&#xa1;" horiz-adv-x="359" d="M64 443q0 24 38 62.5t63 38.5q24 0 62.5 -38.5t38.5 -62.5t-38.5 -62.5t-62.5 -38.5q-25 0 -63 38.5t-38 62.5zM111 209q2 24 3.5 35t7 26t16 21t27.5 6q22 0 33.5 -13.5t14.5 -28.5t6 -46q7 -74 24 -164t17 -139q0 -99 -95 -99q-96 0 -96 100q0 47 18 136t24 166z" />
<glyph unicode="&#xa2;" horiz-adv-x="532" d="M480 133q8 0 14.5 -6t6.5 -15q0 -10 -11 -28q-25 -39 -69 -63t-94 -29v-75q0 -13 -14 -13h-41q-13 0 -13 13v73q-99 10 -158.5 75.5t-59.5 170.5t59 186t159 103v86q0 13 13 13h41q14 0 14 -13v-78q100 0 136 -39q21 -22 21 -67q0 -73 -41 -73q-16 0 -30.5 16.5 t-24.5 36.5t-31.5 36.5t-50.5 16.5q-51 0 -82.5 -45t-31.5 -115q0 -81 41 -145.5t118 -64.5q38 0 80.5 21.5t48.5 21.5z" />
<glyph unicode="&#xa3;" horiz-adv-x="642" d="M548 170q12 0 21 -8.5t9 -21.5q0 -11 -6.5 -31.5t-7.5 -25.5q0 -1 -2 -8t-3.5 -12.5t-5 -15t-8 -16.5t-11.5 -14.5t-16 -12.5q-28 -16 -76 -16q-66 0 -187 41.5t-165 41.5q-18 0 -32.5 -6.5t-21.5 -6.5q-8 0 -15 6t-7 15q0 26 64 66q21 13 52 13q12 0 23.5 -1t18.5 -2.5 t8 -1.5q3 0 7 2q51 27 51 74q0 27 -18 52h-141q-13 0 -13 14v33q0 13 13 13h99q-46 63 -46 114q0 82 80 131q61 37 148 37q77 0 107 -18q34 -20 34 -76q0 -69 -41 -69q-14 0 -28.5 15t-25.5 33t-31.5 33t-45.5 15t-43.5 -18t-18.5 -44q0 -24 14.5 -49.5t37.5 -55t33 -48.5 h153q13 0 13 -13v-33q0 -14 -13 -14h-131q1 -8 1 -19q0 -38 -24.5 -71.5t-62.5 -53.5q-3 -1 -3 -4t7 -4q75 -15 118 -15q36 0 56.5 8.5t47.5 30.5q22 17 34 17z" />
<glyph unicode="&#xa4;" horiz-adv-x="725" d="M544 155l112 -112q4 -4 4 -9t-4 -9l-30 -30q-4 -4 -9 -4t-9 4l-113 113q-61 -43 -134 -43q-75 0 -134 43l-110 -109q-7 -7 -12 -7t-11 6l-28 27q-4 4 -4 9t4 9l112 112q-45 61 -45 135q0 76 45 135l-112 112q-5 5 -5 10q0 4 5 9l29 29q5 5 10 5q4 0 9 -5l113 -113 q59 43 134 43q73 0 134 -43l113 113q4 4 9 4t9 -4l30 -29q5 -5 5 -10q0 -4 -5 -9l-112 -112q45 -59 45 -135q0 -74 -45 -135zM361 188q42 0 71.5 30t29.5 72q0 43 -29.5 73t-71.5 30t-71.5 -30t-29.5 -73q0 -42 29.5 -72t71.5 -30z" />
<glyph unicode="&#xa5;" horiz-adv-x="734" d="M638 618q32 0 32 -22q0 -12 -14 -22q-30 -23 -48 -43q-33 -37 -64 -85l-44 -69q-2 -3 -2 -5q0 -3 4 -3h107q9 0 9 -8v-35q0 -9 -10 -9h-139q-8 0 -12 -6l-32 -51q-2 -3 -2 -5q0 -3 4 -3h181q10 0 10 -9v-34q0 -9 -11 -9h-183q-6 0 -6 -6v-19q0 -70 8 -91q8 -22 32 -36 q21 -12 21 -26q0 -22 -33 -22h-200q-34 0 -34 22q0 13 22 26q26 15 32 36q8 26 8 91v20q0 5 -6 5h-182q-11 0 -11 10v32q0 10 9 10h164q5 0 5 4q0 1 -1 3l-29 52q-4 6 -13 6h-125q-10 0 -10 9v34q0 9 9 9h98q5 0 5 4q0 2 -2 6l-65 116q-29 50 -39 60q-6 6 -31 20 q-15 8 -15 20q0 23 32 23h195q30 0 30 -21q0 -13 -19.5 -23.5t-19.5 -25.5q0 -12 9 -28l111 -201q4 -6 6 -6t5 5l94 150q25 41 25 67q0 19 -21.5 34t-21.5 26q0 23 33 23h145z" />
<glyph unicode="&#xa6;" horiz-adv-x="303" d="M186 367h-69q-14 0 -14 15v475q0 15 14 15h69q14 0 14 -15v-475q0 -15 -14 -15zM186 -193h-69q-14 0 -14 15v475q0 15 14 15h69q14 0 14 -15v-475q0 -15 -14 -15z" />
<glyph unicode="&#xa7;" horiz-adv-x="530" d="M337 289q0 29 -25.5 49.5t-61.5 20.5t-61.5 -20.5t-25.5 -49.5t25.5 -49t61.5 -20t61.5 20t25.5 49zM347 165q52 -24 83 -65t31 -96q0 -88 -71.5 -142.5t-167.5 -54.5q-51 0 -95.5 15t-66.5 37q-25 26 -25 95q0 62 40 62q8 0 14.5 -2.5t12.5 -10t9.5 -12t10.5 -18 t11 -19.5q40 -68 103 -68q34 0 61.5 21t27.5 56t-32 54.5t-90 41t-93 48.5q-69 53 -69 137q0 50 28 92t74 65q3 1 3 3t-5 5q-97 51 -97 147q0 85 64.5 138t152.5 53q74 0 124 -29q28 -16 37.5 -37t9.5 -66q0 -17 -1 -26.5t-8.5 -18.5t-21.5 -9q-22 0 -43 32q-25 37 -49.5 56 t-63.5 19q-29 0 -52.5 -16.5t-23.5 -46.5q0 -17 8 -30.5t26.5 -24.5t33.5 -17.5t44 -17t43 -16.5q134 -55 134 -166q0 -63 -47 -113q-31 -32 -64 -46q-4 -2 -4 -5q0 -2 4 -4z" />
<glyph unicode="&#xa8;" horiz-adv-x="571" d="M440 713q12 -12 12 -52q0 -39 -12 -51q-13 -13 -52 -13q-40 0 -52 13q-12 12 -12 51t12 52q13 13 52 13q37 0 52 -13zM234 713q12 -12 12 -52q0 -39 -12 -51q-13 -13 -52 -13q-40 0 -52 13q-12 12 -12 51t12 52q13 13 52 13q37 0 52 -13z" />
<glyph unicode="&#xa9;" horiz-adv-x="902" d="M142 357q0 -128 91 -219.5t218 -91.5t218 91.5t91 219.5q0 129 -90.5 220.5t-218.5 91.5t-218.5 -91.5t-90.5 -220.5zM82 357q0 153 108.5 261t260.5 108t260.5 -108t108.5 -261q0 -152 -108.5 -260t-260.5 -108t-260.5 108t-108.5 260zM480 212q12 0 22 2t18.5 8.5 t14 10t13 15.5t9.5 15t9.5 18.5t8.5 16.5q13 24 30 24q32 0 32 -37q0 -13 -2 -37q-3 -44 -21 -62q-14 -14 -54.5 -23t-85.5 -9q-101 0 -167.5 58t-66.5 149q0 97 75 154.5t178 57.5q71 0 110 -23q17 -9 21.5 -27t4.5 -48q0 -36 -6 -49.5t-27 -13.5q-13 0 -24 16t-19.5 35.5 t-29 35.5t-49.5 16q-54 0 -82.5 -40.5t-28.5 -103.5q0 -76 35 -119q33 -40 82 -40z" />
<glyph unicode="&#xaa;" horiz-adv-x="418" d="M233 514v17q0 5 -2 5q-1 0 -6 -3t-26.5 -12.5t-34.5 -18.5q-23 -16 -23 -40q0 -15 10.5 -26t26.5 -11q33 0 47 31q8 16 8 58zM400 394q0 -11 -9 -22q-24 -31 -66 -31q-55 0 -75 56q-1 4 -4 4q-2 0 -4 -3q-41 -56 -109 -56q-44 0 -79.5 29t-35.5 73q0 50 48 82 q20 13 62 29.5t51 20.5q28 13 41.5 24.5t13.5 28.5q0 16 -13 25.5t-31 9.5q-32 0 -58 -26q-7 -7 -19 -22t-20 -21.5t-18 -6.5q-37 0 -37 51q0 34 15 50q17 18 58.5 27.5t82.5 9.5q65 0 111 -30t46 -94q0 -24 -1 -76.5t-1 -77.5q0 -16 6.5 -25t11.5 -10t14 -2q19 -2 19 -17z M245 255q12 -12 12 -52q0 -39 -12 -51q-13 -13 -52 -13q-40 0 -52 13q-12 12 -12 51t12 52q13 13 52 13q37 0 52 -13z" />
<glyph unicode="&#xab;" horiz-adv-x="523" d="M311 274l139 -122q10 -9 10 -24v-74q0 -7 -4 -7q-2 0 -12 8l-248 218q-7 6 -7 11t7 11l253 223q3 3 6 3q5 0 5 -7v-73q0 -15 -11 -26q-139 -121 -140 -122q-6 -5 -6 -9q0 -2 8 -10zM97 279l144 -127q11 -10 11 -24v-74q0 -7 -5 -7q-2 0 -12 8l-199 176q-7 6 -7 17v72 q0 11 8 19q194 171 203 179q3 3 6 3q6 0 6 -7v-73q0 -14 -12 -26q-132 -116 -138 -121q-8 -7 -8 -10q0 -2 3 -5z" />
<glyph unicode="&#xac;" horiz-adv-x="794" d="M691 522v-310h-98v212h-529v98h627z" />
<glyph unicode="&#xad;" horiz-adv-x="328" d="M29 232v81q0 15 15 15h240q15 0 15 -15v-81q0 -15 -15 -15h-240q-15 0 -15 15z" />
<glyph unicode="&#xae;" horiz-adv-x="513" d="M252 726q100 0 171.5 -71t71.5 -172t-71.5 -172t-171.5 -71t-171 71t-71 172q0 100 71 171.5t171 71.5zM412 361q40 54 40 122q0 85 -58.5 144.5t-141.5 59.5t-141 -59.5t-58 -144.5q0 -84 58.5 -144t140.5 -60q90 0 149 69q-2 -1 -8 -1h-40q-23 0 -34 8q-9 7 -36 59 q-20 39 -34 47q-11 6 -26 6q-5 0 -5 -6v-6q0 -43 5 -56q5 -14 20 -22q13 -7 13 -16q0 -14 -21 -14h-107q-21 0 -21 14q0 9 13 16q15 8 20 22q6 16 6 52v89q0 26 -2.5 35.5t-13.5 15.5q-2 1 -5.5 3t-5.5 3t-4 3t-3 4.5t-1 5.5q0 12 18 12h146q55 0 77 -18t22 -47 q0 -30 -22 -46.5t-57 -17.5q-3 0 -3 -3t3 -3q25 -4 39.5 -15t29.5 -40q21 -42 29 -50q2 -2 6 -5t6.5 -5t4.5 -5t2 -6zM248 508q42 0 42 37q0 36 -43 36h-24q-5 0 -5 -6v-62q0 -5 5 -5h25z" />
<glyph unicode="&#xaf;" horiz-adv-x="623" d="M118 651v51q0 12 12 12h363q12 0 12 -12v-51q0 -12 -12 -12h-363q-12 0 -12 12z" />
<glyph unicode="&#xb0;" horiz-adv-x="271" d="M72 632q0 -25 17.5 -42.5t42.5 -17.5t42 17.5t17 42.5t-17 42.5t-42 17.5t-42.5 -17.5t-17.5 -42.5zM15 632q0 47 34.5 81t82.5 34t82 -34t34 -81t-34 -81t-82 -34t-82.5 34t-34.5 81z" />
<glyph unicode="&#xb1;" horiz-adv-x="674" d="M578 427v-46q0 -15 -14 -15h-180q-5 0 -6 -1t-1 -6v-168q0 -15 -15 -15h-50q-15 0 -15 15v168q0 5 -1 6t-6 1h-179q-15 0 -15 15v46q0 15 15 15h179q5 0 6 1t1 6v168q0 15 15 15h50q15 0 15 -15v-168q0 -5 1 -6t6 -1h180q14 0 14 -15zM96 78v45q0 15 15 15h452 q15 0 15 -15v-45q0 -15 -15 -15h-452q-15 0 -15 15z" />
<glyph unicode="&#xb2;" horiz-adv-x="358" d="M60 877q32 28 105 28q60 0 105 -27t45 -82q0 -48 -38 -75q-24 -18 -71 -32t-59 -20q-23 -11 -23 -24q0 -6 8 -6h62q44 0 62 5q11 3 25 15t22 12q22 0 22 -23q0 -5 -1.5 -13.5t-4 -20t-3.5 -17.5q-3 -18 -5 -27t-8 -20t-16.5 -15.5t-26.5 -4.5q-10 0 -34 1.5t-48 1.5h-112 q-20 0 -27.5 11t-7.5 38q0 68 49 110q15 13 41.5 28.5t34.5 21.5q36 26 36 60q0 18 -9.5 30.5t-26.5 12.5q-26 0 -45 -35l-6.5 -13t-8.5 -16t-9.5 -10t-13.5 -5q-18 0 -24 12t-6 38q0 45 17 61z" />
<glyph unicode="&#xb3;" horiz-adv-x="368" d="M226 721q43 -4 75.5 -25.5t32.5 -61.5q0 -52 -50 -82t-109 -30h-11q-92 0 -122 39q-12 17 -12 59q0 46 29 46q4 0 7 -1t6 -3t5.5 -4t5 -6.5t4 -6.5t5 -7.5t4.5 -7.5q29 -46 70 -46q21 0 33 15t12 39q0 54 -51 54q-9 0 -22 -1.5t-17 -1.5q-10 0 -15.5 5.5t-6 11.5t-0.5 18 q0 32 20 32q5 0 16 -1.5t19 -1.5q44 0 44 45t-36 45q-24 0 -40 -18q-10 -10 -19 -26t-16 -24t-18 -8q-19 0 -24 12t-5 40q0 44 22 59q44 28 112 28q72 0 112 -27q35 -25 35 -62q0 -30 -24.5 -55t-71.5 -34q-3 0 -3 -3q0 -4 4 -4z" />
<glyph unicode="&#xb4;" horiz-adv-x="489" d="M379 706l-138 -88q-21 -13 -50 -13h-79q-10 0 -10 7q0 3 8 13l71 83q15 18 44 18h148q14 0 14 -9q0 -6 -8 -11z" />
<glyph unicode="&#xb5;" horiz-adv-x="808" d="M351 506q-9 -43 -21.5 -102t-20 -95t-15.5 -75t-11.5 -63t-3.5 -36q0 -48 39 -48q32 0 66.5 29.5t65.5 86.5q38 69 68 206l18 87q4 22 27 25l102 11q10 1 14 1q19 0 19 -15q0 -2 -2 -12q-78 -380 -78 -391q0 -28 19 -28q10 0 27 13t28 13q7 0 12 -5.5t5 -13.5 q0 -20 -37 -54q-56 -51 -124 -51q-80 0 -80 83q0 4 0.5 12.5t0.5 10.5q0 6 -5 6q-4 0 -7 -4q-82 -108 -193 -108q-26 0 -45.5 7.5t-29 15.5t-10.5 8q-3 0 -5 -5q-11 -50 -16 -82q-3 -25 -4 -49.5t-2.5 -36t-7.5 -21.5q-12 -19 -46 -19q-56 0 -56 37q0 8 2 18t5 19t9 27.5 t11 33.5q37 122 66 268l58 290q3 19 27 22l105 10q10 1 14 1q14 0 14 -14q0 -3 -2 -13z" />
<glyph unicode="&#xb6;" horiz-adv-x="730" d="M188 501q0 -59 40 -97t98 -38q12 0 12 12v248q0 9 -15 9q-53 0 -94 -37t-41 -97zM637 714q37 0 37 -32q0 -16 -30 -36q-21 -13 -27 -32t-6 -68v-631q0 -11 -11 -11h-63q-11 0 -11 11v705q0 16 -18 16h-72q-12 0 -12 -11v-710q0 -11 -12 -11h-63q-11 0 -11 11v353 q0 11 -3.5 15t-15.5 4q-159 0 -233 74q-57 57 -57 137q0 90 63 146q48 43 123 56.5t184 13.5h238z" />
<glyph unicode="&#xb7;" horiz-adv-x="306" d="M254 273q0 -24 -38 -62.5t-63 -38.5q-24 0 -62.5 38.5t-38.5 62.5t38.5 62.5t62.5 38.5q25 0 63 -38.5t38 -62.5z" />
<glyph unicode="&#xb8;" horiz-adv-x="464" d="M175 0h65q-27 -20 -27 -35q0 -9 11 -12.5t33.5 -6.5t35.5 -6q52 -15 52 -54q0 -40 -56 -64q-36 -15 -83 -15q-10 0 -22 1t-28 4.5t-27 10.5t-11 17q0 9 6.5 15t16.5 6q5 0 22.5 -4t30.5 -4q23 0 34 8q13 9 13 20q0 16 -25 22.5t-50 14.5t-25 27q0 21 34 55z" />
<glyph unicode="&#xb9;" horiz-adv-x="288" d="M212 879v-326q0 -20 -21 -20h-70q-21 0 -21 21v79t-0.5 95.5t-0.5 44.5q0 31 -3 39q-4 10 -24 10q-6 0 -18.5 -1t-21.5 -1q-12 0 -15 17q-2 12 -2 21q0 17 14 20q12 2 47 6t60 11q37 10 50 10q26 0 26 -26z" />
<glyph unicode="&#xba;" horiz-adv-x="452" d="M298 514q0 22 -3 44.5t-11 47.5t-24.5 40.5t-39.5 15.5q-67 0 -67 -105q0 -21 3.5 -43.5t11.5 -48.5t24.5 -42.5t40.5 -16.5q32 0 48.5 30.5t16.5 77.5zM231 726q84 0 136.5 -53.5t52.5 -136.5q0 -80 -56.5 -137t-139.5 -57q-85 0 -138.5 52t-53.5 137q0 80 58 137.5 t141 57.5zM276 255q12 -12 12 -52q0 -39 -12 -51q-13 -13 -52 -13q-40 0 -52 13q-12 12 -12 51t12 52q13 13 52 13q37 0 52 -13z" />
<glyph unicode="&#xbb;" horiz-adv-x="523" d="M212 274q8 8 8 10q0 4 -6 9l-140 122q-11 11 -11 26v73q0 7 5 7q3 0 6 -3l253 -223q7 -6 7 -11t-7 -11l-248 -218q-10 -8 -12 -8q-4 0 -4 7v74q0 15 10 24q132 116 139 122zM426 279q3 3 3 5q0 3 -8 10l-138 121q-12 12 -12 26v73q0 7 6 7q3 0 6 -3l203 -179q8 -8 8 -19 v-72q0 -11 -7 -17q-192 -170 -199 -176q-10 -8 -12 -8q-5 0 -5 7v74q0 14 11 24q136 120 144 127z" />
<glyph unicode="&#xbc;" horiz-adv-x="761" d="M517 618h90l-399 -522h-89zM269 700v-326q0 -20 -21 -20h-70q-21 0 -21 21q0 26 -0.5 79t-0.5 95.5v44.5q0 32 -3 39q-4 10 -24 10q-5 0 -18 -1t-22 -1q-12 0 -15 17q-2 12 -2 21q0 17 14 20q12 2 47 6t60 11q37 10 50 10q26 0 26 -26zM676 152h28q17 0 17 -15v-42 q0 -15 -16 -15h-29q-10 0 -10 -9v-57q0 -14 -15 -14h-82q-15 0 -15 15v56q0 9 -10 9h-149q-18 0 -18 17v52q0 26 14 40q39 38 54.5 72.5t16.5 96.5q0 14 15 14h72q8 0 11.5 -3t3.5 -14q0 -118 -100 -193q-4 -3 -4 -6q0 -4 6 -4h78q10 0 10 9v118q0 16 16 16h79q17 0 17 -16 v-118q0 -9 10 -9z" />
<glyph unicode="&#xbd;" horiz-adv-x="768" d="M515 618h90l-399 -522h-89zM269 700v-326q0 -20 -21 -20h-70q-21 0 -21 21q0 26 -0.5 79t-0.5 95.5v44.5q0 32 -3 39q-4 10 -24 10q-5 0 -18 -1t-22 -1q-12 0 -15 17q-2 12 -2 21q0 17 14 20q12 2 47 6t60 11q37 10 50 10q26 0 26 -26zM458 344q32 28 105 28 q60 0 105 -27t45 -82q0 -48 -38 -75q-24 -18 -71 -32t-59 -20q-23 -11 -23 -24q0 -6 8 -6h62q44 0 62 5q11 3 25 15t22 12q22 0 22 -23q0 -5 -1.5 -13.5t-4 -19.5t-3.5 -18q-3 -18 -5 -27t-8 -20t-16.5 -15.5t-26.5 -4.5q-10 0 -34 1.5t-48 1.5h-112q-20 0 -27.5 11t-7.5 38 q0 68 49 110q15 13 41.5 28.5t34.5 21.5q36 26 36 60q0 18 -9.5 30.5t-26.5 12.5q-26 0 -45 -35l-6.5 -13t-8.5 -16t-9.5 -10t-13.5 -5q-18 0 -24 11.5t-6 38.5q0 45 17 61z" />
<glyph unicode="&#xbe;" horiz-adv-x="814" d="M573 618h90l-399 -522h-89zM729 152h28q17 0 17 -15v-42q0 -15 -16 -15h-29q-10 0 -10 -9v-57q0 -14 -15 -14h-82q-15 0 -15 15v56q0 9 -10 9h-149q-18 0 -18 17v52q0 26 14 40q39 38 54.5 72.5t16.5 96.5q0 14 15 14h72q8 0 11.5 -3t3.5 -14q0 -118 -100 -193 q-4 -3 -4 -6q0 -4 6 -4h78q10 0 10 9v118q0 16 16 16h79q17 0 17 -16v-118q0 -9 10 -9zM256 541q43 -4 75.5 -25.5t32.5 -61.5q0 -52 -50 -82t-109 -30h-11q-92 0 -122 39q-12 17 -12 59q0 46 29 46q4 0 7 -1t6 -3t5.5 -4t5 -6.5t4 -6.5t5 -7.5t4.5 -7.5q29 -46 70 -46 q21 0 33 15t12 39q0 54 -51 54q-9 0 -22 -1.5t-17 -1.5q-10 0 -15.5 5.5t-6 11.5t-0.5 18q0 32 20 32q5 0 16 -1.5t19 -1.5q44 0 44 45t-36 45q-24 0 -40 -18q-10 -10 -19 -26t-16 -24t-18 -8q-19 0 -24 12t-5 40q0 44 22 59q44 28 112 28q72 0 112 -27q35 -25 35 -62 q0 -30 -24.5 -55t-71.5 -34q-3 0 -3 -3q0 -4 4 -4z" />
<glyph unicode="&#xbf;" horiz-adv-x="561" d="M397 -40q0 34 -43 43q-37 8 -37 30q0 30 42 51q23 12 54 12q48 0 79 -30.5t31 -80.5q0 -73 -69 -125.5t-174 -52.5q-104 0 -171 45q-78 53 -78 132q0 80 69 130q23 16 72 36.5t65 28.5q46 25 46 52q0 23 -37 35q-25 8 -25 23q0 35 83 35q102 0 102 -72q0 -39 -37 -77 q-14 -14 -54 -45t-62 -54q-44 -44 -44 -91q0 -42 25 -71t69 -29q35 0 64.5 20.5t29.5 54.5zM308 544q25 0 63.5 -38.5t38.5 -62.5t-38.5 -62t-63.5 -38q-24 0 -62.5 38t-38.5 62t38.5 62.5t62.5 38.5z" />
<glyph unicode="&#xc0;" d="M339 518l-85 -205q-3 -8 -3 -10q0 -7 9 -7l160 -1q8 0 8 7q0 2 -3 10l-78 206q-1 3 -4 3t-4 -3zM665 143q25 -61 45 -77q6 -5 18.5 -11.5t19.5 -12.5t7 -15q0 -27 -37 -27h-226q-35 0 -35 25q0 14 24.5 27.5t24.5 35.5q0 10 -6 27l-31 81q-8 18 -28 18h-217 q-14 0 -19 -15q-23 -57 -23 -93q0 -33 27 -52q2 -1 8 -4.5t9 -6t6 -7t3 -10.5q0 -26 -39 -26h-167q-38 0 -38 26q0 13 15 23q33 20 57 59q29 47 53 101l221 497q7 16 24 16h64q18 0 24 -15q159 -425 216 -564zM399 806l-141 86q-11 7 -11 12q0 9 14 9h148q29 0 45 -17 l74 -82q10 -11 10 -15q0 -7 -10 -7h-79q-28 0 -50 14z" />
<glyph unicode="&#xc1;" d="M339 518l-85 -205q-3 -8 -3 -10q0 -7 9 -7l160 -1q8 0 8 7q0 2 -3 10l-78 206q-1 3 -4 3t-4 -3zM665 143q25 -61 45 -77q6 -5 18.5 -11.5t19.5 -12.5t7 -15q0 -27 -37 -27h-226q-35 0 -35 25q0 14 24.5 27.5t24.5 35.5q0 10 -6 27l-31 81q-8 18 -28 18h-217 q-14 0 -19 -15q-23 -57 -23 -93q0 -33 27 -52q2 -1 8 -4.5t9 -6t6 -7t3 -10.5q0 -26 -39 -26h-167q-38 0 -38 26q0 13 15 23q33 20 57 59q29 47 53 101l221 497q7 16 24 16h64q18 0 24 -15q159 -425 216 -564zM531 893l-138 -88q-21 -13 -50 -13h-79q-10 0 -10 7q0 3 8 13 l71 83q15 18 44 18h148q14 0 14 -9q0 -6 -8 -11z" />
<glyph unicode="&#xc2;" d="M339 518l-85 -205q-3 -8 -3 -10q0 -7 9 -7l160 -1q8 0 8 7q0 2 -3 10l-78 206q-1 3 -4 3t-4 -3zM665 143q25 -61 45 -77q6 -5 18.5 -11.5t19.5 -12.5t7 -15q0 -27 -37 -27h-226q-35 0 -35 25q0 14 24.5 27.5t24.5 35.5q0 10 -6 27l-31 81q-8 18 -28 18h-217 q-14 0 -19 -15q-23 -57 -23 -93q0 -33 27 -52q2 -1 8 -4.5t9 -6t6 -7t3 -10.5q0 -26 -39 -26h-167q-38 0 -38 26q0 13 15 23q33 20 57 59q29 47 53 101l221 497q7 16 24 16h64q18 0 24 -15q159 -425 216 -564zM376 851l-63 -56q-9 -8 -22 -8h-55q-7 0 -7 5q0 2 2 4l87 106 q8 11 23 11h94q14 0 23 -11l83 -101q6 -7 6 -9q0 -5 -6 -5h-57q-10 0 -21 9l-64 55q-10 8 -12 8t-11 -8z" />
<glyph unicode="&#xc3;" d="M339 518l-85 -205q-3 -8 -3 -10q0 -7 9 -7l160 -1q8 0 8 7q0 2 -3 10l-78 206q-1 3 -4 3t-4 -3zM665 143q25 -61 45 -77q6 -5 18.5 -11.5t19.5 -12.5t7 -15q0 -27 -37 -27h-226q-35 0 -35 25q0 14 24.5 27.5t24.5 35.5q0 10 -6 27l-31 81q-8 18 -28 18h-217 q-14 0 -19 -15q-23 -57 -23 -93q0 -33 27 -52q2 -1 8 -4.5t9 -6t6 -7t3 -10.5q0 -26 -39 -26h-167q-38 0 -38 26q0 13 15 23q33 20 57 59q29 47 53 101l221 497q7 16 24 16h64q18 0 24 -15q159 -425 216 -564zM240 786l-21 7q-8 3 -8 10q0 2 2 8q34 98 112 98q30 0 78 -19 t68 -19q27 0 46 29q6 9 13 9q2 0 8 -2l17 -6q10 -3 10 -10q0 -2 -2 -7q-39 -99 -110 -99q-31 0 -79.5 19.5t-68.5 19.5q-29 0 -45 -31q-4 -9 -12 -9q-2 0 -8 2z" />
<glyph unicode="&#xc4;" d="M339 518l-85 -205q-3 -8 -3 -10q0 -7 9 -7l160 -1q8 0 8 7q0 2 -3 10l-78 206q-1 3 -4 3t-4 -3zM665 143q25 -61 45 -77q6 -5 18.5 -11.5t19.5 -12.5t7 -15q0 -27 -37 -27h-226q-35 0 -35 25q0 14 24.5 27.5t24.5 35.5q0 10 -6 27l-31 81q-8 18 -28 18h-217 q-14 0 -19 -15q-23 -57 -23 -93q0 -33 27 -52q2 -1 8 -4.5t9 -6t6 -7t3 -10.5q0 -26 -39 -26h-167q-38 0 -38 26q0 13 15 23q33 20 57 59q29 47 53 101l221 497q7 16 24 16h64q18 0 24 -15q159 -425 216 -564zM548 893q12 -12 12 -52q0 -39 -12 -51q-13 -13 -52 -13 q-40 0 -52 13q-12 12 -12 51t12 52q13 13 52 13q37 0 52 -13zM342 893q12 -12 12 -52q0 -39 -12 -51q-13 -13 -52 -13q-40 0 -52 13q-12 12 -12 51t12 52q13 13 52 13q37 0 52 -13z" />
<glyph unicode="&#xc5;" d="M339 518l-85 -205q-3 -8 -3 -10q0 -7 9 -7l160 -1q8 0 8 7q0 2 -3 10l-78 206q-1 3 -4 3t-4 -3zM665 143q25 -61 45 -77q6 -5 18.5 -11.5t19.5 -12.5t7 -15q0 -27 -37 -27h-226q-35 0 -35 25q0 14 24.5 27.5t24.5 35.5q0 10 -6 27l-31 81q-8 18 -28 18h-217 q-14 0 -19 -15q-23 -57 -23 -93q0 -33 27 -52q2 -1 8 -4.5t9 -6t6 -7t3 -10.5q0 -26 -39 -26h-167q-38 0 -38 26q0 13 15 23q33 20 57 59q29 47 53 101l221 497q7 16 24 16h64q18 0 24 -15q159 -425 216 -564zM350 822q0 -18 12.5 -30.5t29.5 -12.5q18 0 30.5 12.5 t12.5 30.5t-12.5 30.5t-30.5 12.5q-17 0 -29.5 -12.5t-12.5 -30.5zM301 822q0 37 26.5 63.5t64.5 26.5t64.5 -26t26.5 -64q0 -37 -26.5 -63.5t-64.5 -26.5q-37 0 -64 26.5t-27 63.5z" />
<glyph unicode="&#xc6;" horiz-adv-x="1035" d="M278 295h189q10 0 10 11v277q0 8 -6 8q-3 0 -9 -8q-102 -147 -187 -275q-4 -5 -4 -8q0 -5 7 -5zM965 224q18 0 30.5 -9.5t12.5 -27.5q0 -8 -4 -25l-4 -16q-4 -18 -8 -43t-6 -38.5t-7 -30t-12 -24.5t-19 -13.5t-30 -5.5q-7 0 -64.5 4.5t-119.5 4.5h-290q-38 0 -38 26 q0 14 23.5 28t31.5 29q16 28 16 88v31q0 11 -11 11h-242q-9 0 -14 -7q-57 -86 -57 -118q0 -18 17 -32q4 -3 13.5 -9t13.5 -10.5t4 -12.5q0 -24 -34 -24h-179q-36 0 -36 25q0 4 1.5 8t3 6.5t5.5 6t6.5 5.5t9.5 7t10 7q42 31 84 94l303 443q11 17 11 26q0 17 -33.5 29.5 t-33.5 29.5q0 27 38 27h355q62 0 135.5 3.5t83.5 3.5q21 0 31 -7.5t11 -27.5q1 -14 2 -47t1 -36q2 -40 2 -70q0 -36 -46 -36q-12 0 -20 8.5t-20 35.5q-24 55 -61 75q-35 18 -141 18h-20q-16 0 -21.5 -6.5t-5.5 -21.5v-159q0 -17 6 -24.5t22 -7.5q49 0 100 3q16 1 44.5 3.5 t38.5 2.5q33 0 33 -26q0 -5 -1 -13t-1 -12q-2 -28 -12 -37.5t-43 -9.5q-16 0 -74 2q-30 1 -98 1q-15 0 -15 -16v-132q0 -43 3.5 -63t16.5 -28q12 -8 47 -8q71 0 119 22t87 82q26 38 49 38z" />
<glyph unicode="&#xc7;" horiz-adv-x="686" d="M411 81q37 0 64.5 15.5t42.5 38t27 45t27 38t34 15.5q46 0 46 -56q0 -101 -35 -133q-27 -25 -85.5 -40t-117.5 -15q-12 0 -36 2q-14 -14 -14 -25q0 -9 11 -12.5t33.5 -6.5t35.5 -6q52 -15 52 -54q0 -40 -56 -64q-36 -15 -83 -15q-10 0 -22 1t-28 4.5t-27 10.5t-11 17 q0 9 6.5 15t16.5 6q5 0 22.5 -4t30.5 -4q23 0 34 8q13 9 13 20q0 13 -15.5 20t-34.5 9.5t-34.5 11t-15.5 23.5q0 21 31 52q-132 26 -213 121t-81 235q0 164 114 268t284 104q116 0 175 -40q40 -27 40 -74v-42q0 -69 -47 -69q-18 0 -31 12.5t-29.5 38.5t-27.5 39 q-44 50 -109 50t-109 -42.5t-61.5 -100t-17.5 -124.5q0 -49 10 -97t31.5 -94t63 -74t96.5 -28z" />
<glyph unicode="&#xc8;" horiz-adv-x="664" d="M594 224q17 0 30 -9.5t13 -26.5q0 -12 -7 -40q-5 -19 -9.5 -52.5t-8.5 -52.5t-19 -35t-42 -16q-9 0 -67.5 4t-120.5 4h-289q-39 0 -39 26q0 10 7 17t16 10.5t19.5 13t16.5 24.5q13 30 13 111v376q0 33 -5 50t-24 29q-4 3 -12.5 7t-12.5 6.5t-7.5 8t-3.5 12.5q0 23 34 23 h266q61 0 134.5 3.5t83.5 3.5q22 0 31.5 -7.5t11.5 -27.5q0 -5 0.5 -17t1 -29t0.5 -28q2 -70 2 -78q0 -37 -44 -37q-13 0 -21.5 8.5t-19.5 35.5q-24 55 -62 75q-36 18 -140 18h-21q-16 0 -21 -6t-5 -22v-164q0 -10 1 -14.5t8 -8.5t21 -4q36 0 96 3q16 1 45 3.5t40 2.5 q33 0 33 -24q0 -1 -3 -28q-2 -28 -11.5 -37.5t-45.5 -9.5q-11 0 -35.5 1.5t-31.5 1.5q-30 1 -102 1q-15 0 -15 -16v-142q0 -39 4 -57.5t17 -25.5q11 -6 46 -6q71 0 119 22.5t87 81.5q24 38 48 38zM323 806l-141 86q-11 7 -11 12q0 9 14 9h148q29 0 45 -17l74 -82 q10 -11 10 -15q0 -7 -10 -7h-79q-28 0 -50 14z" />
<glyph unicode="&#xc9;" horiz-adv-x="664" d="M594 224q17 0 30 -9.5t13 -26.5q0 -12 -7 -40q-5 -19 -9.5 -52.5t-8.5 -52.5t-19 -35t-42 -16q-9 0 -67.5 4t-120.5 4h-289q-39 0 -39 26q0 10 7 17t16 10.5t19.5 13t16.5 24.5q13 30 13 111v376q0 33 -5 50t-24 29q-4 3 -12.5 7t-12.5 6.5t-7.5 8t-3.5 12.5q0 23 34 23 h266q61 0 134.5 3.5t83.5 3.5q22 0 31.5 -7.5t11.5 -27.5q0 -5 0.5 -17t1 -29t0.5 -28q2 -70 2 -78q0 -37 -44 -37q-13 0 -21.5 8.5t-19.5 35.5q-24 55 -62 75q-36 18 -140 18h-21q-16 0 -21 -6t-5 -22v-164q0 -10 1 -14.5t8 -8.5t21 -4q36 0 96 3q16 1 45 3.5t40 2.5 q33 0 33 -24q0 -1 -3 -28q-2 -28 -11.5 -37.5t-45.5 -9.5q-11 0 -35.5 1.5t-31.5 1.5q-30 1 -102 1q-15 0 -15 -16v-142q0 -39 4 -57.5t17 -25.5q11 -6 46 -6q71 0 119 22.5t87 81.5q24 38 48 38zM501 893l-138 -88q-21 -13 -50 -13h-79q-10 0 -10 7q0 3 8 13l71 83 q15 18 44 18h148q14 0 14 -9q0 -6 -8 -11z" />
<glyph unicode="&#xca;" horiz-adv-x="664" d="M594 224q17 0 30 -9.5t13 -26.5q0 -12 -7 -40q-5 -19 -9.5 -52.5t-8.5 -52.5t-19 -35t-42 -16q-9 0 -67.5 4t-120.5 4h-289q-39 0 -39 26q0 10 7 17t16 10.5t19.5 13t16.5 24.5q13 30 13 111v376q0 33 -5 50t-24 29q-4 3 -12.5 7t-12.5 6.5t-7.5 8t-3.5 12.5q0 23 34 23 h266q61 0 134.5 3.5t83.5 3.5q22 0 31.5 -7.5t11.5 -27.5q0 -5 0.5 -17t1 -29t0.5 -28q2 -70 2 -78q0 -37 -44 -37q-13 0 -21.5 8.5t-19.5 35.5q-24 55 -62 75q-36 18 -140 18h-21q-16 0 -21 -6t-5 -22v-164q0 -10 1 -14.5t8 -8.5t21 -4q36 0 96 3q16 1 45 3.5t40 2.5 q33 0 33 -24q0 -1 -3 -28q-2 -28 -11.5 -37.5t-45.5 -9.5q-11 0 -35.5 1.5t-31.5 1.5q-30 1 -102 1q-15 0 -15 -16v-142q0 -39 4 -57.5t17 -25.5q11 -6 46 -6q71 0 119 22.5t87 81.5q24 38 48 38zM339 851l-63 -56q-9 -8 -22 -8h-55q-7 0 -7 5q0 2 2 4l87 106q8 11 23 11h94 q14 0 23 -11l83 -101q6 -7 6 -9q0 -5 -6 -5h-57q-11 0 -21 9l-64 55q-10 8 -12 8t-11 -8z" />
<glyph unicode="&#xcb;" horiz-adv-x="664" d="M594 224q17 0 30 -9.5t13 -26.5q0 -12 -7 -40q-5 -19 -9.5 -52.5t-8.5 -52.5t-19 -35t-42 -16q-9 0 -67.5 4t-120.5 4h-289q-39 0 -39 26q0 10 7 17t16 10.5t19.5 13t16.5 24.5q13 30 13 111v376q0 33 -5 50t-24 29q-4 3 -12.5 7t-12.5 6.5t-7.5 8t-3.5 12.5q0 23 34 23 h266q61 0 134.5 3.5t83.5 3.5q22 0 31.5 -7.5t11.5 -27.5q0 -5 0.5 -17t1 -29t0.5 -28q2 -70 2 -78q0 -37 -44 -37q-13 0 -21.5 8.5t-19.5 35.5q-24 55 -62 75q-36 18 -140 18h-21q-16 0 -21 -6t-5 -22v-164q0 -10 1 -14.5t8 -8.5t21 -4q36 0 96 3q16 1 45 3.5t40 2.5 q33 0 33 -24q0 -1 -3 -28q-2 -28 -11.5 -37.5t-45.5 -9.5q-11 0 -35.5 1.5t-31.5 1.5q-30 1 -102 1q-15 0 -15 -16v-142q0 -39 4 -57.5t17 -25.5q11 -6 46 -6q71 0 119 22.5t87 81.5q24 38 48 38zM481 893q12 -12 12 -52q0 -39 -12 -51q-13 -13 -52 -13q-40 0 -52 13 q-12 12 -12 51t12 52q13 13 52 13q37 0 52 -13zM275 893q12 -12 12 -52q0 -39 -12 -51q-13 -13 -52 -13q-40 0 -52 13q-12 12 -12 51t12 52q13 13 52 13q37 0 52 -13z" />
<glyph unicode="&#xcc;" horiz-adv-x="377" d="M317 55q25 -14 25 -29q0 -26 -39 -26h-230q-38 0 -38 26q0 15 24 29q27 15 37 43t10 105v364q0 28 -1 41t-7.5 27t-19.5 22q-4 3 -13 7t-13 6.5t-7.5 8t-3.5 12.5q0 23 34 23h227q33 0 33 -23q0 -7 -3.5 -12.5t-7.5 -8t-12.5 -6.5t-12.5 -7q-17 -10 -22.5 -26t-5.5 -44 v-384q0 -80 9 -105q10 -27 37 -43zM186 806l-141 86q-11 7 -11 12q0 9 14 9h148q29 0 45 -17l74 -82q10 -11 10 -15q0 -7 -10 -7h-79q-28 0 -50 14z" />
<glyph unicode="&#xcd;" horiz-adv-x="377" d="M317 55q25 -14 25 -29q0 -26 -39 -26h-230q-38 0 -38 26q0 15 24 29q27 15 37 43t10 105v364q0 28 -1 41t-7.5 27t-19.5 22q-4 3 -13 7t-13 6.5t-7.5 8t-3.5 12.5q0 23 34 23h227q33 0 33 -23q0 -7 -3.5 -12.5t-7.5 -8t-12.5 -6.5t-12.5 -7q-17 -10 -22.5 -26t-5.5 -44 v-384q0 -80 9 -105q10 -27 37 -43zM338 893l-138 -88q-21 -13 -50 -13h-79q-10 0 -10 7q0 3 8 13l71 83q15 18 44 18h148q14 0 14 -9q0 -6 -8 -11z" />
<glyph unicode="&#xce;" horiz-adv-x="377" d="M317 55q25 -14 25 -29q0 -26 -39 -26h-230q-38 0 -38 26q0 15 24 29q27 15 37 43t10 105v364q0 28 -1 41t-7.5 27t-19.5 22q-4 3 -13 7t-13 6.5t-7.5 8t-3.5 12.5q0 23 34 23h227q33 0 33 -23q0 -7 -3.5 -12.5t-7.5 -8t-12.5 -6.5t-12.5 -7q-17 -10 -22.5 -26t-5.5 -44 v-384q0 -80 9 -105q10 -27 37 -43zM178 851l-63 -56q-9 -8 -22 -8h-55q-7 0 -7 5q0 2 2 4l87 106q8 11 23 11h94q14 0 23 -11l83 -101q6 -7 6 -9q0 -5 -6 -5h-57q-10 0 -21 9l-64 55q-10 8 -12 8t-11 -8z" />
<glyph unicode="&#xcf;" horiz-adv-x="377" d="M317 55q25 -14 25 -29q0 -26 -39 -26h-230q-38 0 -38 26q0 15 24 29q27 15 37 43t10 105v364q0 28 -1 41t-7.5 27t-19.5 22q-4 3 -13 7t-13 6.5t-7.5 8t-3.5 12.5q0 23 34 23h227q33 0 33 -23q0 -7 -3.5 -12.5t-7.5 -8t-12.5 -6.5t-12.5 -7q-17 -10 -22.5 -26t-5.5 -44 v-384q0 -80 9 -105q10 -27 37 -43zM343 893q12 -12 12 -52q0 -39 -12 -51q-13 -13 -52 -13q-40 0 -52 13q-12 12 -12 51t12 52q13 13 52 13q37 0 52 -13zM137 893q12 -12 12 -52q0 -39 -12 -51q-13 -13 -52 -13q-40 0 -52 13q-12 12 -12 51t12 52q13 13 52 13q37 0 52 -13z " />
<glyph unicode="&#xd0;" horiz-adv-x="824" d="M616 666q82 -39 130 -119t48 -181q0 -75 -24 -139t-73.5 -116t-133 -81.5t-194.5 -29.5h-249q-38 0 -38 26q0 16 24 29q29 16 37 43q10 35 10 104v108q0 14 -16 14q-18 0 -60 -4q-20 -2 -32 -2q-36 0 -36 23q0 5 5 28q4 22 11.5 31t29.5 9q10 0 36 -1.5t46 -1.5 q16 0 16 15v146q0 28 -1 41t-7.5 26.5t-20.5 22.5q-4 3 -12.5 7t-12.5 6.5t-7.5 8t-3.5 12.5q0 23 34 23h158q129 0 203.5 -9.5t132.5 -38.5zM561 161q54 73 54 195q0 177 -108 245q-53 33 -161 33q-17 0 -22 -6t-5 -22v-185q0 -15 16 -15q10 0 70 3q34 2 41 2q36 0 36 -23 q0 -6 -2 -15t-2 -11q-2 -15 -5 -23t-12 -13.5t-26 -5.5q-15 0 -43 2t-58 2q-15 0 -15 -14v-123q0 -45 2.5 -64t12.5 -27q12 -11 61 -11q55 0 93.5 16.5t72.5 59.5z" />
<glyph unicode="&#xd1;" horiz-adv-x="816" d="M752 714q41 0 41 -25q0 -6 -2.5 -11t-7.5 -8.5t-9 -6t-11 -5.5t-9 -4q-15 -8 -23.5 -16.5t-16 -32.5t-10.5 -64q-5 -67 -5 -533q0 -16 -18 -16h-94q-24 0 -36 18l-330 477q-4 6 -7 6q-4 0 -4 -6q0 -270 2 -314q2 -37 13 -61t20 -31.5t23 -14.5q2 -1 18.5 -7.5t23.5 -13.5 t7 -17q0 -28 -42 -28h-208q-41 0 -41 26q0 7 5 13t9 9t14 7t11 5q16 9 25 16.5t19 32t13 64.5q4 60 4 431q0 11 -6 17q-14 14 -34 24q-7 4 -20 9.5t-18 8.5t-10 9t-5 14q0 28 41 28h163q34 0 52 -25l315 -458q4 -6 7 -6q5 0 5 6q0 243 -4 310q-2 39 -10 63t-15.5 31.5 t-20.5 14.5q-5 2 -15.5 7t-15.5 8t-10 9t-5 13q0 27 42 27h190zM274 786l-21 7q-8 3 -8 10q0 2 2 8q34 98 112 98q30 0 78 -19t68 -19q27 0 46 29q6 9 13 9q2 0 8 -2l17 -6q10 -3 10 -10q0 -2 -2 -7q-39 -99 -110 -99q-31 0 -79.5 19.5t-68.5 19.5q-29 0 -45 -31 q-4 -9 -12 -9q-2 0 -8 2z" />
<glyph unicode="&#xd2;" horiz-adv-x="790" d="M383 640q-59 0 -100 -40t-57.5 -95t-16.5 -117q0 -48 10 -98.5t31.5 -100t62 -81t93.5 -31.5q86 0 130 74.5t44 174.5q0 49 -10.5 100t-32 101t-61.5 81.5t-93 31.5zM761 358q0 -155 -104.5 -262t-261.5 -107q-167 0 -266.5 102t-99.5 267q0 154 104.5 261t261.5 107 q167 0 266.5 -103t99.5 -265zM399 806l-141 86q-11 7 -11 12q0 9 14 9h148q29 0 45 -17l74 -82q10 -11 10 -15q0 -7 -10 -7h-79q-28 0 -50 14z" />
<glyph unicode="&#xd3;" horiz-adv-x="790" d="M383 640q-59 0 -100 -40t-57.5 -95t-16.5 -117q0 -48 10 -98.5t31.5 -100t62 -81t93.5 -31.5q86 0 130 74.5t44 174.5q0 49 -10.5 100t-32 101t-61.5 81.5t-93 31.5zM761 358q0 -155 -104.5 -262t-261.5 -107q-167 0 -266.5 102t-99.5 267q0 154 104.5 261t261.5 107 q167 0 266.5 -103t99.5 -265zM544 893l-138 -88q-21 -13 -50 -13h-79q-10 0 -10 7q0 3 8 13l71 83q15 18 44 18h148q14 0 14 -9q0 -6 -8 -11z" />
<glyph unicode="&#xd4;" horiz-adv-x="790" d="M383 640q-59 0 -100 -40t-57.5 -95t-16.5 -117q0 -48 10 -98.5t31.5 -100t62 -81t93.5 -31.5q86 0 130 74.5t44 174.5q0 49 -10.5 100t-32 101t-61.5 81.5t-93 31.5zM761 358q0 -155 -104.5 -262t-261.5 -107q-167 0 -266.5 102t-99.5 267q0 154 104.5 261t261.5 107 q167 0 266.5 -103t99.5 -265zM382 851l-63 -56q-9 -8 -22 -8h-55q-7 0 -7 5q0 2 2 4l87 106q8 11 23 11h94q14 0 23 -11l83 -101q6 -7 6 -9q0 -5 -6 -5h-57q-10 0 -21 9l-64 55q-10 8 -12 8t-11 -8z" />
<glyph unicode="&#xd5;" horiz-adv-x="790" d="M383 640q-59 0 -100 -40t-57.5 -95t-16.5 -117q0 -48 10 -98.5t31.5 -100t62 -81t93.5 -31.5q86 0 130 74.5t44 174.5q0 49 -10.5 100t-32 101t-61.5 81.5t-93 31.5zM761 358q0 -155 -104.5 -262t-261.5 -107q-167 0 -266.5 102t-99.5 267q0 154 104.5 261t261.5 107 q167 0 266.5 -103t99.5 -265zM251 786l-21 7q-8 3 -8 10q0 2 2 8q34 98 112 98q30 0 78 -19t68 -19q27 0 46 29q6 9 13 9q2 0 8 -2l17 -6q10 -3 10 -10q0 -2 -2 -7q-39 -99 -110 -99q-31 0 -79.5 19.5t-68.5 19.5q-29 0 -45 -31q-5 -9 -12 -9q-2 0 -8 2z" />
<glyph unicode="&#xd6;" horiz-adv-x="790" d="M383 640q-59 0 -100 -40t-57.5 -95t-16.5 -117q0 -48 10 -98.5t31.5 -100t62 -81t93.5 -31.5q86 0 130 74.5t44 174.5q0 49 -10.5 100t-32 101t-61.5 81.5t-93 31.5zM761 358q0 -155 -104.5 -262t-261.5 -107q-167 0 -266.5 102t-99.5 267q0 154 104.5 261t261.5 107 q167 0 266.5 -103t99.5 -265zM548 893q12 -12 12 -52q0 -39 -12 -51q-13 -13 -52 -13q-40 0 -52 13q-12 12 -12 51t12 52q13 13 52 13q37 0 52 -13zM342 893q12 -12 12 -52q0 -39 -12 -51q-13 -13 -52 -13q-40 0 -52 13q-12 12 -12 51t12 52q13 13 52 13q37 0 52 -13z" />
<glyph unicode="&#xd7;" horiz-adv-x="608" d="M461 570l56 -56l-157 -157l157 -156l-56 -56l-157 156l-156 -156l-57 56l157 156l-157 157l57 56l156 -156z" />
<glyph unicode="&#xd8;" horiz-adv-x="801" d="M411 77q59 0 100 38.5t58 93t17 118.5q0 72 -23 149q-1 3 -4 3q-2 0 -4 -2l-279 -304q-5 -5 -5 -8t3 -7q52 -81 137 -81zM238 238q1 -4 4 -4q2 0 4 2l279 303q5 5 5 9t-3 8q-54 84 -139 84q-58 0 -99 -40t-57.5 -95t-16.5 -116q0 -74 23 -151zM683 606q84 -100 84 -249 q0 -154 -105 -261t-261 -107q-130 0 -222 64q-5 3 -7 3q-3 0 -8 -5l-42 -45q-6 -6 -15 -6h-65q-7 0 -7 4q0 3 3 6l79 86q3 3 3 6t-2 6q-84 100 -84 249q0 154 104.5 261t262.5 107q130 0 223 -66q3 -2 5 -2q3 0 6 3l43 47q7 7 18 7h64q6 0 6 -4q0 -3 -4 -7l-79 -86 q-3 -3 -3 -6q0 -2 3 -5z" />
<glyph unicode="&#xd9;" horiz-adv-x="771" d="M723 714q41 0 41 -25q0 -7 -4.5 -13t-9 -9t-14 -7.5t-11.5 -5.5q-15 -9 -23 -17t-16 -31.5t-11 -63.5q-1 -15 -2 -70t-1.5 -125.5t-0.5 -90.5q-2 -62 -16 -104q-27 -80 -97 -121.5t-173 -41.5q-225 0 -280 156q-14 42 -14 110v313q0 28 -1 40.5t-7.5 26t-20.5 22.5 q-5 3 -13 7.5t-12 7t-7.5 7.5t-3.5 12q0 23 34 23h228q33 0 33 -23q0 -7 -3.5 -12t-7.5 -7.5t-12 -7t-13 -7.5q-19 -12 -23.5 -30.5t-4.5 -58.5v-285q0 -56 14 -91q38 -91 150 -91q74 0 117.5 45t46.5 127q2 56 2 115q0 98 -3 154q-2 39 -10 62.5t-15.5 31t-20.5 14.5 q-5 3 -15.5 7.5t-15.5 7.5t-10 9t-5 14q0 26 42 26h189zM392 806l-141 86q-11 7 -11 12q0 9 14 9h148q29 0 45 -17l74 -82q10 -11 10 -15q0 -7 -10 -7h-79q-28 0 -50 14z" />
<glyph unicode="&#xda;" horiz-adv-x="771" d="M723 714q41 0 41 -25q0 -7 -4.5 -13t-9 -9t-14 -7.5t-11.5 -5.5q-15 -9 -23 -17t-16 -31.5t-11 -63.5q-1 -15 -2 -70t-1.5 -125.5t-0.5 -90.5q-2 -62 -16 -104q-27 -80 -97 -121.5t-173 -41.5q-225 0 -280 156q-14 42 -14 110v313q0 28 -1 40.5t-7.5 26t-20.5 22.5 q-5 3 -13 7.5t-12 7t-7.5 7.5t-3.5 12q0 23 34 23h228q33 0 33 -23q0 -7 -3.5 -12t-7.5 -7.5t-12 -7t-13 -7.5q-19 -12 -23.5 -30.5t-4.5 -58.5v-285q0 -56 14 -91q38 -91 150 -91q74 0 117.5 45t46.5 127q2 56 2 115q0 98 -3 154q-2 39 -10 62.5t-15.5 31t-20.5 14.5 q-5 3 -15.5 7.5t-15.5 7.5t-10 9t-5 14q0 26 42 26h189zM545 893l-138 -88q-21 -13 -50 -13h-79q-10 0 -10 7q0 3 8 13l71 83q15 18 44 18h148q14 0 14 -9q0 -6 -8 -11z" />
<glyph unicode="&#xdb;" horiz-adv-x="771" d="M723 714q41 0 41 -25q0 -7 -4.5 -13t-9 -9t-14 -7.5t-11.5 -5.5q-15 -9 -23 -17t-16 -31.5t-11 -63.5q-1 -15 -2 -70t-1.5 -125.5t-0.5 -90.5q-2 -62 -16 -104q-27 -80 -97 -121.5t-173 -41.5q-225 0 -280 156q-14 42 -14 110v313q0 28 -1 40.5t-7.5 26t-20.5 22.5 q-5 3 -13 7.5t-12 7t-7.5 7.5t-3.5 12q0 23 34 23h228q33 0 33 -23q0 -7 -3.5 -12t-7.5 -7.5t-12 -7t-13 -7.5q-19 -12 -23.5 -30.5t-4.5 -58.5v-285q0 -56 14 -91q38 -91 150 -91q74 0 117.5 45t46.5 127q2 56 2 115q0 98 -3 154q-2 39 -10 62.5t-15.5 31t-20.5 14.5 q-5 3 -15.5 7.5t-15.5 7.5t-10 9t-5 14q0 26 42 26h189zM395 851l-63 -56q-9 -8 -22 -8h-55q-7 0 -7 5q0 2 2 4l87 106q8 11 23 11h94q14 0 23 -11l83 -101q6 -7 6 -9q0 -5 -6 -5h-57q-11 0 -21 9l-64 55q-10 8 -12 8t-11 -8z" />
<glyph unicode="&#xdc;" horiz-adv-x="771" d="M723 714q41 0 41 -25q0 -7 -4.5 -13t-9 -9t-14 -7.5t-11.5 -5.5q-15 -9 -23 -17t-16 -31.5t-11 -63.5q-1 -15 -2 -70t-1.5 -125.5t-0.5 -90.5q-2 -62 -16 -104q-27 -80 -97 -121.5t-173 -41.5q-225 0 -280 156q-14 42 -14 110v313q0 28 -1 40.5t-7.5 26t-20.5 22.5 q-5 3 -13 7.5t-12 7t-7.5 7.5t-3.5 12q0 23 34 23h228q33 0 33 -23q0 -7 -3.5 -12t-7.5 -7.5t-12 -7t-13 -7.5q-19 -12 -23.5 -30.5t-4.5 -58.5v-285q0 -56 14 -91q38 -91 150 -91q74 0 117.5 45t46.5 127q2 56 2 115q0 98 -3 154q-2 39 -10 62.5t-15.5 31t-20.5 14.5 q-5 3 -15.5 7.5t-15.5 7.5t-10 9t-5 14q0 26 42 26h189zM565 893q12 -12 12 -52q0 -39 -12 -51q-13 -13 -52 -13q-40 0 -52 13q-12 12 -12 51t12 52q13 13 52 13q37 0 52 -13zM359 893q12 -12 12 -52q0 -39 -12 -51q-13 -13 -52 -13q-40 0 -52 13q-12 12 -12 51t12 52 q13 13 52 13q37 0 52 -13z" />
<glyph unicode="&#xdd;" horiz-adv-x="732" d="M699 714q38 0 38 -25q0 -12 -15 -24q-34 -25 -58 -51q-24 -25 -73 -99q-92 -145 -142 -225q-3 -4 -3 -11v-77q0 -79 9 -104q9 -27 36 -42q26 -15 26 -30q0 -26 -39 -26h-230q-38 0 -38 26q0 16 24 29q27 15 37 43t10 104v40q0 8 -5 18q-148 271 -173 312q-34 58 -45 69 q-10 10 -36 23q-18 10 -18 23q0 27 37 27h232q34 0 34 -25q0 -14 -23 -27t-23 -29q0 -13 11 -32l123 -223q3 -5 6 -5t7 6q47 74 101 162q30 48 30 76q0 24 -25.5 41t-25.5 30q0 26 39 26h172zM536 893l-138 -88q-21 -13 -50 -13h-79q-10 0 -10 7q0 3 8 13l71 83q15 18 44 18 h148q14 0 14 -9q0 -6 -8 -11z" />
<glyph unicode="&#xde;" horiz-adv-x="674" d="M588 514q56 -53 56 -142q0 -41 -13 -75q-55 -145 -279 -145h-70q-9 0 -9 -9q2 -30 8 -45q9 -25 37 -43q2 -1 6 -3.5t5 -3.5t4 -3t4 -3.5t2.5 -4t2 -5.5t0.5 -6q0 -26 -38 -26h-230q-39 0 -39 26q0 3 0.5 6t2 5.5t3 4t4.5 4t4.5 3t5.5 3t5 3.5q29 18 37 43q10 28 10 105 v380q0 31 -5 47.5t-24 26.5q-4 3 -12.5 7t-12.5 6.5t-7.5 8t-3.5 12.5q0 23 34 23h226q34 0 34 -23q0 -7 -3.5 -12.5t-7.5 -8t-12.5 -6.5t-12.5 -7q-17 -10 -22.5 -25t-6.5 -41q0 -12 15 -12h20q112 0 175 -11.5t107 -53.5zM454 296q20 30 20 72q0 52 -31 84q-42 45 -126 45 h-31q-15 0 -15 -12v-236q0 -13 15 -13h31q95 0 137 60z" />
<glyph unicode="&#xdf;" horiz-adv-x="691" d="M579 315q29 -20 47 -35.5t33.5 -44.5t15.5 -64q0 -48 -26 -87t-71 -64q-57 -31 -136 -31q-56 0 -83 14q-45 23 -45 71q0 18 10 32.5t31 14.5q16 0 32.5 -15.5t37.5 -31.5t47 -16q27 0 46 17t19 40q0 31 -25 55t-81 57q-63 37 -88.5 67.5t-25.5 62.5q0 33 19 62t64 74 q55 56 55 101q0 34 -23.5 56.5t-59.5 22.5q-49 0 -79 -32q-40 -42 -40 -141v-297q0 -73 9 -105q10 -27 37 -43q25 -14 25 -29q0 -26 -39 -26h-216q-39 0 -39 26q0 3 0.5 6t2 5.5t3 4t4.5 4t4.5 3t5.5 3t5 3.5q28 18 37 43t9 104v214q0 9 -9 9h-61q-15 0 -15 14v46 q0 15 15 15h68q8 0 9 8q15 82 53 130q87 109 243 109q89 0 146 -36t57 -95q0 -52 -66 -104q-8 -6 -23 -17.5t-21 -16.5t-16 -13.5t-14 -14.5t-7.5 -14t-3.5 -16q0 -13 11 -26t24 -22t41 -26.5t47 -30.5z" />
<glyph unicode="&#xe0;" horiz-adv-x="568" d="M327 249v10q0 6 -3 6q-2 0 -6 -3q-8 -5 -46 -22t-58 -33q-39 -28 -39 -66q0 -26 17 -42.5t45 -16.5q52 0 77 50q13 27 13 117zM528 79q25 -2 25 -22t-24 -40q-34 -28 -86 -28q-35 0 -62.5 18.5t-36.5 56.5q-2 6 -3 6t-5 -5q-58 -76 -163 -76q-65 0 -111.5 34.5 t-46.5 98.5q0 79 72 122q29 17 91 40t74 28q75 35 75 85q0 27 -17.5 43t-47.5 16q-34 0 -61 -19q-22 -15 -39.5 -39.5t-30.5 -39.5t-32 -15q-25 0 -34.5 14t-9.5 49q0 52 19 75q22 28 80 40t111 12q89 0 156 -42.5t67 -126.5q0 -34 -2.5 -97t-2.5 -95q0 -38 1.5 -53.5 t11.5 -27t32 -12.5zM258 619l-141 86q-11 7 -11 12q0 9 14 9h148q29 0 45 -17l74 -82q10 -11 10 -15q0 -7 -10 -7h-79q-28 0 -50 14z" />
<glyph unicode="&#xe1;" horiz-adv-x="568" d="M327 249v10q0 6 -3 6q-2 0 -6 -3q-8 -5 -46 -22t-58 -33q-39 -28 -39 -66q0 -26 17 -42.5t45 -16.5q52 0 77 50q13 27 13 117zM528 79q25 -2 25 -22t-24 -40q-34 -28 -86 -28q-35 0 -62.5 18.5t-36.5 56.5q-2 6 -3 6t-5 -5q-58 -76 -163 -76q-65 0 -111.5 34.5 t-46.5 98.5q0 79 72 122q29 17 91 40t74 28q75 35 75 85q0 27 -17.5 43t-47.5 16q-34 0 -61 -19q-22 -15 -39.5 -39.5t-30.5 -39.5t-32 -15q-25 0 -34.5 14t-9.5 49q0 52 19 75q22 28 80 40t111 12q89 0 156 -42.5t67 -126.5q0 -34 -2.5 -97t-2.5 -95q0 -38 1.5 -53.5 t11.5 -27t32 -12.5zM433 706l-138 -88q-21 -13 -50 -13h-79q-10 0 -10 7q0 3 8 13l71 83q15 18 44 18h148q14 0 14 -9q0 -6 -8 -11z" />
<glyph unicode="&#xe2;" horiz-adv-x="568" d="M327 249v10q0 6 -3 6q-2 0 -6 -3q-8 -5 -46 -22t-58 -33q-39 -28 -39 -66q0 -26 17 -42.5t45 -16.5q52 0 77 50q13 27 13 117zM528 79q25 -2 25 -22t-24 -40q-34 -28 -86 -28q-35 0 -62.5 18.5t-36.5 56.5q-2 6 -3 6t-5 -5q-58 -76 -163 -76q-65 0 -111.5 34.5 t-46.5 98.5q0 79 72 122q29 17 91 40t74 28q75 35 75 85q0 27 -17.5 43t-47.5 16q-34 0 -61 -19q-22 -15 -39.5 -39.5t-30.5 -39.5t-32 -15q-25 0 -34.5 14t-9.5 49q0 52 19 75q22 28 80 40t111 12q89 0 156 -42.5t67 -126.5q0 -34 -2.5 -97t-2.5 -95q0 -38 1.5 -53.5 t11.5 -27t32 -12.5zM262 664l-63 -56q-9 -8 -22 -8h-55q-7 0 -7 5q0 2 2 4l87 106q8 11 23 11h94q14 0 23 -11l83 -101q6 -8 6 -9q0 -5 -6 -5h-57q-10 0 -21 9l-64 55q-10 8 -12 8t-11 -8z" />
<glyph unicode="&#xe3;" horiz-adv-x="568" d="M327 249v10q0 6 -3 6q-2 0 -6 -3q-8 -5 -46 -22t-58 -33q-39 -28 -39 -66q0 -26 17 -42.5t45 -16.5q52 0 77 50q13 27 13 117zM528 79q25 -2 25 -22t-24 -40q-34 -28 -86 -28q-35 0 -62.5 18.5t-36.5 56.5q-2 6 -3 6t-5 -5q-58 -76 -163 -76q-65 0 -111.5 34.5 t-46.5 98.5q0 79 72 122q29 17 91 40t74 28q75 35 75 85q0 27 -17.5 43t-47.5 16q-34 0 -61 -19q-22 -15 -39.5 -39.5t-30.5 -39.5t-32 -15q-25 0 -34.5 14t-9.5 49q0 52 19 75q22 28 80 40t111 12q89 0 156 -42.5t67 -126.5q0 -34 -2.5 -97t-2.5 -95q0 -38 1.5 -53.5 t11.5 -27t32 -12.5zM123 603l-21 7q-8 3 -8 10q0 2 2 8q34 98 112 98q30 0 78 -19t68 -19q27 0 46 29q6 9 13 9q2 0 8 -2l17 -6q10 -3 10 -10q0 -2 -2 -7q-39 -99 -110 -99q-31 0 -79.5 19.5t-68.5 19.5q-29 0 -45 -31q-5 -9 -12 -9q-2 0 -8 2z" />
<glyph unicode="&#xe4;" horiz-adv-x="568" d="M327 249v10q0 6 -3 6q-2 0 -6 -3q-8 -5 -46 -22t-58 -33q-39 -28 -39 -66q0 -26 17 -42.5t45 -16.5q52 0 77 50q13 27 13 117zM528 79q25 -2 25 -22t-24 -40q-34 -28 -86 -28q-35 0 -62.5 18.5t-36.5 56.5q-2 6 -3 6t-5 -5q-58 -76 -163 -76q-65 0 -111.5 34.5 t-46.5 98.5q0 79 72 122q29 17 91 40t74 28q75 35 75 85q0 27 -17.5 43t-47.5 16q-34 0 -61 -19q-22 -15 -39.5 -39.5t-30.5 -39.5t-32 -15q-25 0 -34.5 14t-9.5 49q0 52 19 75q22 28 80 40t111 12q89 0 156 -42.5t67 -126.5q0 -34 -2.5 -97t-2.5 -95q0 -38 1.5 -53.5 t11.5 -27t32 -12.5zM420 713q12 -12 12 -52q0 -39 -12 -51q-13 -13 -52 -13q-40 0 -52 13q-12 12 -12 51t12 52q13 13 52 13q37 0 52 -13zM214 713q12 -12 12 -52q0 -39 -12 -51q-13 -13 -52 -13q-40 0 -52 13q-12 12 -12 51t12 52q13 13 52 13q37 0 52 -13z" />
<glyph unicode="&#xe5;" horiz-adv-x="568" d="M327 249v10q0 6 -3 6q-2 0 -6 -3q-8 -5 -46 -22t-58 -33q-39 -28 -39 -66q0 -26 17 -42.5t45 -16.5q52 0 77 50q13 27 13 117zM528 79q25 -2 25 -22t-24 -40q-34 -28 -86 -28q-35 0 -62.5 18.5t-36.5 56.5q-2 6 -3 6t-5 -5q-58 -76 -163 -76q-65 0 -111.5 34.5 t-46.5 98.5q0 79 72 122q29 17 91 40t74 28q75 35 75 85q0 27 -17.5 43t-47.5 16q-34 0 -61 -19q-22 -15 -39.5 -39.5t-30.5 -39.5t-32 -15q-25 0 -34.5 14t-9.5 49q0 52 19 75q22 28 80 40t111 12q89 0 156 -42.5t67 -126.5q0 -34 -2.5 -97t-2.5 -95q0 -38 1.5 -53.5 t11.5 -27t32 -12.5zM221 657q0 -18 12.5 -30.5t29.5 -12.5q18 0 30.5 12.5t12.5 30.5t-12.5 30.5t-30.5 12.5q-17 0 -29.5 -12.5t-12.5 -30.5zM172 657q0 37 26.5 63.5t64.5 26.5t64.5 -26t26.5 -64q0 -37 -26.5 -63.5t-64.5 -26.5q-37 0 -64 26.5t-27 63.5z" />
<glyph unicode="&#xe6;" horiz-adv-x="842" d="M495 262q-12 0 -12 -11q0 -43 27 -85q48 -75 145 -75q47 0 86.5 20.5t45.5 20.5q8 0 15 -6.5t7 -15.5q0 -16 -18 -36.5t-42 -36.5q-72 -48 -165 -48q-64 0 -119.5 25t-90.5 77q-27 -49 -77.5 -76t-112.5 -27q-68 0 -118.5 33.5t-50.5 99.5q0 80 72 123q29 17 91 39.5 t74 28.5q75 35 75 85q0 28 -18 43.5t-46 15.5q-46 0 -86 -40q-13 -14 -27 -35t-24 -29.5t-26 -8.5q-26 0 -35.5 15.5t-9.5 46.5q0 51 19 76q21 26 78.5 39t112.5 13q107 0 172 -55q66 55 158 55q89 0 151 -52q72 -60 72 -151q0 -42 -18 -54.5t-69 -13.5h-236zM314 132 q13 27 13 105v24q0 4 -3 4q-2 0 -6 -3q-8 -5 -46 -22.5t-58 -32.5q-38 -29 -38 -66q0 -27 17 -43t44 -16q52 0 77 50zM482 354q-1 -6 -1 -9q0 -9 10 -9h116q31 0 47 9t16 36q0 30 -22.5 53.5t-60.5 23.5q-40 0 -69 -29t-36 -75z" />
<glyph unicode="&#xe7;" horiz-adv-x="513" d="M490 112q0 -28 -52 -71q-64 -52 -163 -52q-14 -12 -14 -24q0 -9 11 -12.5t33.5 -6.5t35.5 -6q52 -15 52 -54q0 -40 -56 -64q-36 -15 -83 -15q-10 0 -22 1t-28 4.5t-27 10.5t-11 17q0 9 6.5 15t16.5 6q5 0 22.5 -4t30.5 -4q23 0 34 8q13 9 13 20q0 16 -25 22.5t-50 14.5 t-25 27q0 17 28 50q-86 17 -136.5 81t-50.5 159q0 126 80.5 212t208.5 86q97 0 132 -39q22 -25 22 -69q0 -71 -42 -71q-10 0 -18 5.5t-12 11t-12.5 18t-12.5 18.5q-13 17 -21 26t-24 18t-36 9q-51 0 -82.5 -45.5t-31.5 -114.5q0 -83 41.5 -146.5t118.5 -63.5q38 0 79.5 21.5 t48.5 21.5q8 0 14.5 -5.5t6.5 -15.5z" />
<glyph unicode="&#xe8;" horiz-adv-x="545" d="M185 354q-1 -6 -1 -9q0 -9 10 -9h116q31 0 47 9t16 35q0 30 -22.5 54t-58.5 24q-42 0 -70.5 -28t-36.5 -76zM489 132q9 0 15.5 -6t6.5 -15q0 -16 -18 -37t-42 -37q-72 -48 -165 -48q-111 0 -183.5 71t-72.5 187t76.5 201t190.5 85q89 0 156.5 -57t67.5 -147 q0 -41 -19 -54t-66 -13h-240q-11 0 -11 -9q0 -4 1 -12q4 -41 26 -75q48 -75 146 -75q34 0 61.5 10.5t44.5 20.5t25 10zM283 619l-141 86q-11 7 -11 12q0 9 14 9h148q29 0 45 -17l74 -82q10 -11 10 -15q0 -7 -10 -7h-79q-28 0 -50 14z" />
<glyph unicode="&#xe9;" horiz-adv-x="545" d="M185 354q-1 -6 -1 -9q0 -9 10 -9h116q31 0 47 9t16 35q0 30 -22.5 54t-58.5 24q-42 0 -70.5 -28t-36.5 -76zM489 132q9 0 15.5 -6t6.5 -15q0 -16 -18 -37t-42 -37q-72 -48 -165 -48q-111 0 -183.5 71t-72.5 187t76.5 201t190.5 85q89 0 156.5 -57t67.5 -147 q0 -41 -19 -54t-66 -13h-240q-11 0 -11 -9q0 -4 1 -12q4 -41 26 -75q48 -75 146 -75q34 0 61.5 10.5t44.5 20.5t25 10zM434 706l-138 -88q-21 -13 -50 -13h-79q-10 0 -10 7q0 3 8 13l71 83q15 18 44 18h148q14 0 14 -9q0 -6 -8 -11z" />
<glyph unicode="&#xea;" horiz-adv-x="545" d="M185 354q-1 -6 -1 -9q0 -9 10 -9h116q31 0 47 9t16 35q0 30 -22.5 54t-58.5 24q-42 0 -70.5 -28t-36.5 -76zM489 132q9 0 15.5 -6t6.5 -15q0 -16 -18 -37t-42 -37q-72 -48 -165 -48q-111 0 -183.5 71t-72.5 187t76.5 201t190.5 85q89 0 156.5 -57t67.5 -147 q0 -41 -19 -54t-66 -13h-240q-11 0 -11 -9q0 -4 1 -12q4 -41 26 -75q48 -75 146 -75q34 0 61.5 10.5t44.5 20.5t25 10zM275 664l-63 -56q-9 -8 -22 -8h-55q-7 0 -7 5q0 2 2 4l87 106q8 11 23 11h94q14 0 23 -11l83 -101q6 -8 6 -9q0 -5 -6 -5h-57q-11 0 -21 9l-64 55 q-10 8 -12 8t-11 -8z" />
<glyph unicode="&#xeb;" horiz-adv-x="545" d="M185 354q-1 -6 -1 -9q0 -9 10 -9h116q31 0 47 9t16 35q0 30 -22.5 54t-58.5 24q-42 0 -70.5 -28t-36.5 -76zM489 132q9 0 15.5 -6t6.5 -15q0 -16 -18 -37t-42 -37q-72 -48 -165 -48q-111 0 -183.5 71t-72.5 187t76.5 201t190.5 85q89 0 156.5 -57t67.5 -147 q0 -41 -19 -54t-66 -13h-240q-11 0 -11 -9q0 -4 1 -12q4 -41 26 -75q48 -75 146 -75q34 0 61.5 10.5t44.5 20.5t25 10zM444 713q12 -12 12 -52q0 -39 -12 -51q-13 -13 -52 -13q-40 0 -52 13q-12 12 -12 51t12 52q13 13 52 13q37 0 52 -13zM238 713q12 -12 12 -52 q0 -39 -12 -51q-13 -13 -52 -13q-40 0 -52 13q-12 12 -12 51t12 52q13 13 52 13q37 0 52 -13z" />
<glyph unicode="&#xec;" horiz-adv-x="351" d="M302 55q1 -1 5 -3.5t5.5 -3t4.5 -3t4.5 -4t3 -4t2 -5.5t0.5 -6q0 -26 -39 -26h-215q-39 0 -39 26q0 15 25 29q27 16 37 43q10 28 10 105v130q0 47 -7 66q-8 21 -37 33q-1 0 -7 2.5t-9 4.5t-7 5t-6 7t-2 9q0 18 33 27q84 20 139 40q18 6 26 6q26 0 26 -34v-296 q0 -77 10 -105q10 -27 37 -43zM183 619l-141 86q-11 7 -11 12q0 9 14 9h148q29 0 45 -17l74 -82q10 -11 10 -15q0 -7 -10 -7h-79q-28 0 -50 14z" />
<glyph unicode="&#xed;" horiz-adv-x="351" d="M302 55q1 -1 5 -3.5t5.5 -3t4.5 -3t4.5 -4t3 -4t2 -5.5t0.5 -6q0 -26 -39 -26h-215q-39 0 -39 26q0 15 25 29q27 16 37 43q10 28 10 105v130q0 47 -7 66q-8 21 -37 33q-1 0 -7 2.5t-9 4.5t-7 5t-6 7t-2 9q0 18 33 27q84 20 139 40q18 6 26 6q26 0 26 -34v-296 q0 -77 10 -105q10 -27 37 -43zM306 706l-138 -88q-21 -13 -50 -13h-79q-10 0 -10 7q0 3 8 13l71 83q15 18 44 18h148q14 0 14 -9q0 -6 -8 -11z" />
<glyph unicode="&#xee;" horiz-adv-x="351" d="M302 55q1 -1 5 -3.5t5.5 -3t4.5 -3t4.5 -4t3 -4t2 -5.5t0.5 -6q0 -26 -39 -26h-215q-39 0 -39 26q0 15 25 29q27 16 37 43q10 28 10 105v130q0 47 -7 66q-8 21 -37 33q-1 0 -7 2.5t-9 4.5t-7 5t-6 7t-2 9q0 18 33 27q84 20 139 40q18 6 26 6q26 0 26 -34v-296 q0 -77 10 -105q10 -27 37 -43zM161 664l-63 -56q-9 -8 -22 -8h-55q-7 0 -7 5q0 2 2 4l87 106q8 11 23 11h94q14 0 23 -11l83 -101q6 -8 6 -9q0 -5 -6 -5h-57q-11 0 -21 9l-64 55q-10 8 -12 8t-11 -8z" />
<glyph unicode="&#xef;" horiz-adv-x="351" d="M302 55q1 -1 5 -3.5t5.5 -3t4.5 -3t4.5 -4t3 -4t2 -5.5t0.5 -6q0 -26 -39 -26h-215q-39 0 -39 26q0 15 25 29q27 16 37 43q10 28 10 105v130q0 47 -7 66q-8 21 -37 33q-1 0 -7 2.5t-9 4.5t-7 5t-6 7t-2 9q0 18 33 27q84 20 139 40q18 6 26 6q26 0 26 -34v-296 q0 -77 10 -105q10 -27 37 -43zM323 713q12 -12 12 -52q0 -39 -12 -51q-13 -13 -52 -13q-40 0 -52 13q-12 12 -12 51t12 52q13 13 52 13q37 0 52 -13zM117 713q12 -12 12 -52q0 -39 -12 -51q-13 -13 -52 -13q-40 0 -52 13q-12 12 -12 51t12 52q13 13 52 13q37 0 52 -13z" />
<glyph unicode="&#xf0;" horiz-adv-x="579" d="M438 633q54 -65 82.5 -150.5t28.5 -173.5q0 -138 -73.5 -229t-199.5 -91q-108 0 -178 73.5t-70 181.5q0 110 81 179q66 56 153 56q53 0 94 -22q4 -2 5 -2q4 0 4 4q0 3 -3 10q-16 43 -61 97l-105 -51q-4 -2 -8 -2q-6 0 -11 8l-24 37q-4 5 -4 10q0 6 8 10l85 41 q-42 30 -87 30q-18 0 -38 -5t-30 -5q-12 0 -21 9t-9 22q0 25 58 51q55 26 109 26q84 0 158 -60l106 52q4 2 8 2q7 0 11 -6l23 -39q4 -7 4 -10q0 -7 -7 -10zM299 69q49 0 71.5 42.5t22.5 102.5q0 40 -8 79.5t-34 74.5t-66 35q-49 0 -72 -42t-23 -102q0 -29 5.5 -59t16.5 -61 t34 -50.5t53 -19.5z" />
<glyph unicode="&#xf1;" horiz-adv-x="685" d="M642 56q25 -14 25 -30q0 -26 -39 -26h-216q-39 0 -39 26q0 15 25 30q27 16 37 42q10 28 10 106v123q0 42 -20.5 67.5t-60.5 25.5q-39 0 -66 -27q-25 -24 -35 -67.5t-10 -121.5t10 -106q8 -26 37 -42q25 -15 25 -30q0 -26 -39 -26h-214q-38 0 -38 26q0 15 24 30 q29 16 37 42q10 28 10 106v128q0 47 -7 66q-8 22 -35 33q-1 1 -6 3l-7.5 3t-6.5 3.5t-6.5 5t-4 6t-1.5 7.5q0 21 34 28q70 17 133 40q16 6 29 6q26 0 26 -34v-48q0 -7 4 -7q3 0 6 5q59 84 162 84q93 0 140 -73q30 -44 30 -133v-123q0 -71 10 -106q8 -25 37 -42zM195 603 l-21 7q-8 3 -8 10q0 2 2 8q34 98 112 98q30 0 78 -19t68 -19q27 0 46 29q6 9 13 9q2 0 8 -2l17 -6q10 -3 10 -10q0 -2 -2 -7q-39 -99 -110 -99q-31 0 -79.5 19.5t-68.5 19.5q-29 0 -45 -31q-5 -9 -12 -9q-2 0 -8 2z" />
<glyph unicode="&#xf2;" horiz-adv-x="606" d="M417 236q0 32 -5.5 66t-17.5 71.5t-38 61.5t-62 24q-51 0 -78.5 -41.5t-27.5 -117.5q0 -31 5.5 -67t18.5 -75.5t39 -65.5t61 -26q51 0 78 47.5t27 122.5zM310 533q119 0 193 -75.5t74 -193.5q0 -114 -79.5 -194.5t-195.5 -80.5q-121 0 -197 73.5t-76 195.5 q0 114 81 194.5t200 80.5zM308 619l-141 86q-11 7 -11 12q0 9 14 9h148q29 0 45 -17l74 -82q10 -11 10 -15q0 -7 -10 -7h-79q-28 0 -50 14z" />
<glyph unicode="&#xf3;" horiz-adv-x="606" d="M417 236q0 32 -5.5 66t-17.5 71.5t-38 61.5t-62 24q-51 0 -78.5 -41.5t-27.5 -117.5q0 -31 5.5 -67t18.5 -75.5t39 -65.5t61 -26q51 0 78 47.5t27 122.5zM310 533q119 0 193 -75.5t74 -193.5q0 -114 -79.5 -194.5t-195.5 -80.5q-121 0 -197 73.5t-76 195.5 q0 114 81 194.5t200 80.5zM432 706l-138 -88q-21 -13 -50 -13h-79q-10 0 -10 7q0 3 8 13l71 83q15 18 44 18h148q14 0 14 -9q0 -6 -8 -11z" />
<glyph unicode="&#xf4;" horiz-adv-x="606" d="M417 236q0 32 -5.5 66t-17.5 71.5t-38 61.5t-62 24q-51 0 -78.5 -41.5t-27.5 -117.5q0 -31 5.5 -67t18.5 -75.5t39 -65.5t61 -26q51 0 78 47.5t27 122.5zM310 533q119 0 193 -75.5t74 -193.5q0 -114 -79.5 -194.5t-195.5 -80.5q-121 0 -197 73.5t-76 195.5 q0 114 81 194.5t200 80.5zM295 664l-63 -56q-9 -8 -22 -8h-55q-7 0 -7 5q0 2 2 4l87 106q8 11 23 11h94q14 0 23 -11l83 -101q6 -8 6 -9q0 -5 -6 -5h-57q-11 0 -21 9l-64 55q-10 8 -12 8t-11 -8z" />
<glyph unicode="&#xf5;" horiz-adv-x="606" d="M417 236q0 32 -5.5 66t-17.5 71.5t-38 61.5t-62 24q-51 0 -78.5 -41.5t-27.5 -117.5q0 -31 5.5 -67t18.5 -75.5t39 -65.5t61 -26q51 0 78 47.5t27 122.5zM310 533q119 0 193 -75.5t74 -193.5q0 -114 -79.5 -194.5t-195.5 -80.5q-121 0 -197 73.5t-76 195.5 q0 114 81 194.5t200 80.5zM156 603l-21 7q-8 3 -8 10q0 2 2 8q34 98 112 98q30 0 78 -19t68 -19q27 0 46 29q6 9 13 9q2 0 8 -2l17 -6q10 -3 10 -10q0 -2 -2 -7q-39 -99 -110 -99q-31 0 -79.5 19.5t-68.5 19.5q-29 0 -45 -31q-4 -9 -12 -9q-2 0 -8 2z" />
<glyph unicode="&#xf6;" horiz-adv-x="606" d="M417 236q0 32 -5.5 66t-17.5 71.5t-38 61.5t-62 24q-51 0 -78.5 -41.5t-27.5 -117.5q0 -31 5.5 -67t18.5 -75.5t39 -65.5t61 -26q51 0 78 47.5t27 122.5zM310 533q119 0 193 -75.5t74 -193.5q0 -114 -79.5 -194.5t-195.5 -80.5q-121 0 -197 73.5t-76 195.5 q0 114 81 194.5t200 80.5zM454 713q12 -12 12 -52q0 -39 -12 -51q-13 -13 -52 -13q-40 0 -52 13q-12 12 -12 51t12 52q13 13 52 13q37 0 52 -13zM248 713q12 -12 12 -52q0 -39 -12 -51q-13 -13 -52 -13q-40 0 -52 13q-12 12 -12 51t12 52q13 13 52 13q37 0 52 -13z" />
<glyph unicode="&#xf7;" horiz-adv-x="714" d="M430 196q0 -31 -21.5 -52t-51.5 -21t-51.5 21t-21.5 52q0 30 21.5 51t51.5 21t51.5 -21t21.5 -51zM430 524q0 -31 -21.5 -52t-51.5 -21t-51.5 21t-21.5 52q0 30 21.5 51t51.5 21t51.5 -21t21.5 -51zM96 335v45q0 15 15 15h492q6 0 10.5 -4.5t4.5 -10.5v-45q0 -15 -15 -15 h-492q-15 0 -15 15z" />
<glyph unicode="&#xf8;" horiz-adv-x="611" d="M316 66q37 0 61.5 28.5t33 64t8.5 74.5q0 38 -8 83q-2 8 -4 8t-4 -2l-170 -187q-4 -4 -4 -8q0 -2 2 -6q32 -55 85 -55zM200 204q1 -5 5 -5q3 0 6 3l169 187q4 4 4 7q0 2 -3 8q-30 55 -86 55t-80.5 -46.5t-24.5 -112.5q0 -43 10 -96zM520 441q59 -71 59 -177 q0 -113 -79 -193.5t-195 -81.5q-90 0 -156 41q-5 3 -6 3q-2 0 -4 -2l-22 -24q-7 -7 -15 -7h-64q-5 0 -5 4q0 2 2 4l55 62q3 3 3 5q0 1 -3 6q-59 72 -59 177q0 114 81 194.5t201 80.5q84 0 149 -41q4 -3 6 -3t7 5l18 20q7 8 18 8h60q7 0 7 -5q0 -2 -2 -4l-56 -62q-3 -3 -3 -5 t3 -5z" />
<glyph unicode="&#xf9;" horiz-adv-x="682" d="M627 90q1 0 7 -2.5t9 -4.5t7 -5t6 -7t2 -9q0 -18 -33 -27q-79 -19 -139 -40q-18 -6 -26 -6q-26 0 -26 34v50q0 5 -3 5t-5 -3q-60 -86 -163 -86q-93 0 -140 72q-29 46 -29 132v140q0 47 -7 66q-8 21 -37 33q-1 0 -7 2.5t-9 4.5t-7 5t-6 7t-2 9q0 18 33 27q81 19 138 40 q17 6 27 6q26 0 26 -34v-303q0 -41 20 -68t60 -27q39 0 66 27q25 24 35 68.5t10 122.5q0 61 -7 80q-8 21 -36 33q-1 0 -7 2.5t-9 4.5t-7 5t-6 7t-2 9q0 18 33 27q84 20 139 40q18 6 26 6q26 0 26 -34v-310q0 -50 6 -66q8 -21 37 -33zM319 619l-141 86q-11 7 -11 12q0 9 14 9 h148q29 0 45 -17l74 -82q10 -11 10 -15q0 -7 -10 -7h-79q-28 0 -50 14z" />
<glyph unicode="&#xfa;" horiz-adv-x="682" d="M627 90q1 0 7 -2.5t9 -4.5t7 -5t6 -7t2 -9q0 -18 -33 -27q-79 -19 -139 -40q-18 -6 -26 -6q-26 0 -26 34v50q0 5 -3 5t-5 -3q-60 -86 -163 -86q-93 0 -140 72q-29 46 -29 132v140q0 47 -7 66q-8 21 -37 33q-1 0 -7 2.5t-9 4.5t-7 5t-6 7t-2 9q0 18 33 27q81 19 138 40 q17 6 27 6q26 0 26 -34v-303q0 -41 20 -68t60 -27q39 0 66 27q25 24 35 68.5t10 122.5q0 61 -7 80q-8 21 -36 33q-1 0 -7 2.5t-9 4.5t-7 5t-6 7t-2 9q0 18 33 27q84 20 139 40q18 6 26 6q26 0 26 -34v-310q0 -50 6 -66q8 -21 37 -33zM486 706l-138 -88q-21 -13 -50 -13h-79 q-10 0 -10 7q0 3 8 13l71 83q15 18 44 18h148q14 0 14 -9q0 -6 -8 -11z" />
<glyph unicode="&#xfb;" horiz-adv-x="682" d="M627 90q1 0 7 -2.5t9 -4.5t7 -5t6 -7t2 -9q0 -18 -33 -27q-79 -19 -139 -40q-18 -6 -26 -6q-26 0 -26 34v50q0 5 -3 5t-5 -3q-60 -86 -163 -86q-93 0 -140 72q-29 46 -29 132v140q0 47 -7 66q-8 21 -37 33q-1 0 -7 2.5t-9 4.5t-7 5t-6 7t-2 9q0 18 33 27q81 19 138 40 q17 6 27 6q26 0 26 -34v-303q0 -41 20 -68t60 -27q39 0 66 27q25 24 35 68.5t10 122.5q0 61 -7 80q-8 21 -36 33q-1 0 -7 2.5t-9 4.5t-7 5t-6 7t-2 9q0 18 33 27q84 20 139 40q18 6 26 6q26 0 26 -34v-310q0 -50 6 -66q8 -21 37 -33zM316 664l-63 -56q-9 -8 -22 -8h-55 q-7 0 -7 5q0 2 2 4l87 106q8 11 23 11h94q14 0 23 -11l83 -101q6 -8 6 -9q0 -5 -6 -5h-57q-10 0 -21 9l-64 55q-10 8 -12 8t-11 -8z" />
<glyph unicode="&#xfc;" horiz-adv-x="682" d="M627 90q1 0 7 -2.5t9 -4.5t7 -5t6 -7t2 -9q0 -18 -33 -27q-79 -19 -139 -40q-18 -6 -26 -6q-26 0 -26 34v50q0 5 -3 5t-5 -3q-60 -86 -163 -86q-93 0 -140 72q-29 46 -29 132v140q0 47 -7 66q-8 21 -37 33q-1 0 -7 2.5t-9 4.5t-7 5t-6 7t-2 9q0 18 33 27q81 19 138 40 q17 6 27 6q26 0 26 -34v-303q0 -41 20 -68t60 -27q39 0 66 27q25 24 35 68.5t10 122.5q0 61 -7 80q-8 21 -36 33q-1 0 -7 2.5t-9 4.5t-7 5t-6 7t-2 9q0 18 33 27q84 20 139 40q18 6 26 6q26 0 26 -34v-310q0 -50 6 -66q8 -21 37 -33zM483 713q12 -12 12 -52q0 -39 -12 -51 q-13 -13 -52 -13q-40 0 -52 13q-12 12 -12 51t12 52q13 13 52 13q37 0 52 -13zM277 713q12 -12 12 -52q0 -39 -12 -51q-13 -13 -52 -13q-40 0 -52 13q-12 12 -12 51t12 52q13 13 52 13q37 0 52 -13z" />
<glyph unicode="&#xfd;" horiz-adv-x="617" d="M584 522q39 0 39 -26q0 -14 -15 -24l-12 -8t-15 -10.5t-16 -15t-19 -23.5q-21 -31 -53 -108q-22 -50 -65.5 -159t-50.5 -125q-89 -216 -237 -216q-50 0 -79.5 27.5t-29.5 73.5q0 27 11.5 47.5t38.5 20.5q12 0 24.5 -9.5t22 -20.5t26 -20.5t36.5 -9.5q37 0 64 42q5 8 5 13 q0 4 -2 9l-169 397q-24 57 -42 75q-6 6 -32 19q-18 9 -18 24q0 27 38 27h214q35 0 35 -25q0 -15 -23 -27q-27 -14 -27 -37q0 -11 11 -37l98 -222q2 -6 5 -6t5 6l61 146q24 57 24 93q0 26 -13.5 39.5t-26.5 22t-13 20.5q0 27 39 27h161zM482 706l-138 -88q-21 -13 -50 -13 h-79q-10 0 -10 7q0 3 8 13l71 83q15 18 44 18h148q14 0 14 -9q0 -6 -8 -11z" />
<glyph unicode="&#xfe;" horiz-adv-x="658" d="M421 533q93 0 151 -72t58 -174q0 -123 -75.5 -210.5t-197.5 -87.5q-29 0 -53 4.5t-37 9t-15 4.5q-5 0 -5 -7v-12q0 -56 9 -83q10 -27 38 -43q24 -13 24 -29q0 -26 -38 -26h-214q-38 0 -38 26q0 16 25 29q26 13 36 43q10 28 10 102v540q0 50 -6 66q-8 21 -37 33 q-1 0 -7 2.5t-9 4.5t-7 5t-6 7t-2 9q0 18 33 27q78 19 137 40q18 6 26 6q26 0 26 -34v-254q0 -11 7 -11q4 0 9 6q64 79 158 79zM362 65q55 0 83 51t28 132q0 76 -31.5 126t-81.5 50q-58 0 -86 -50.5t-28 -122.5q0 -88 32.5 -137t83.5 -49z" />
<glyph unicode="&#xff;" horiz-adv-x="617" d="M584 522q39 0 39 -26q0 -14 -15 -24l-12 -8t-15 -10.5t-16 -15t-19 -23.5q-21 -31 -53 -108q-22 -50 -65.5 -159t-50.5 -125q-89 -216 -237 -216q-50 0 -79.5 27.5t-29.5 73.5q0 27 11.5 47.5t38.5 20.5q12 0 24.5 -9.5t22 -20.5t26 -20.5t36.5 -9.5q37 0 64 42q5 8 5 13 q0 4 -2 9l-169 397q-24 57 -42 75q-6 6 -32 19q-18 9 -18 24q0 27 38 27h214q35 0 35 -25q0 -15 -23 -27q-27 -14 -27 -37q0 -11 11 -37l98 -222q2 -6 5 -6t5 6l61 146q24 57 24 93q0 26 -13.5 39.5t-26.5 22t-13 20.5q0 27 39 27h161zM486 713q12 -12 12 -52q0 -39 -12 -51 q-13 -13 -52 -13q-40 0 -52 13q-12 12 -12 51t12 52q13 13 52 13q37 0 52 -13zM280 713q12 -12 12 -52q0 -39 -12 -51q-13 -13 -52 -13q-40 0 -52 13q-12 12 -12 51t12 52q13 13 52 13q37 0 52 -13z" />
<glyph unicode="&#x152;" horiz-adv-x="1034" d="M211 369q0 -140 57 -216q59 -79 158 -79q23 0 33 10q18 18 18 118v378q0 43 -14 54t-50 11q-99 0 -150.5 -79t-51.5 -197zM964 224q17 0 30 -9.5t13 -26.5q0 -11 -7 -39q-5 -19 -9.5 -53t-8.5 -53t-19 -35t-43 -16q-6 0 -65 4t-122 4h-194q-31 0 -73 -6t-71 -6 q-166 0 -266 101t-100 263q0 156 104 264.5t261 108.5q31 0 69 -5.5t74 -5.5h175q60 0 134 3.5t84 3.5q20 0 30.5 -6.5t12.5 -27.5q1 -13 1.5 -49t0.5 -44q2 -44 2 -61q0 -36 -43 -36q-14 0 -21.5 8t-20.5 36q-24 55 -62 75q-36 18 -140 18h-21q-16 0 -21 -6t-5 -22v-162 q0 -18 5.5 -23.5t22.5 -5.5q48 0 99 3q14 0 42.5 3t39.5 3q35 0 35 -24q0 -1 -3 -28q-2 -28 -11.5 -37t-41.5 -9q-11 0 -23 0.5t-27.5 1.5t-23.5 1q-31 1 -99 1q-15 0 -15 -16v-147q0 -40 4 -56t17 -23q14 -6 45 -6q70 0 119 22t88 82q24 38 48 38z" />
<glyph unicode="&#x153;" horiz-adv-x="931" d="M584 262q-12 0 -12 -11q0 -43 27 -85q49 -75 145 -75q35 0 62.5 10.5t44 20.5t25.5 10t15.5 -6.5t6.5 -15.5q0 -16 -18 -36.5t-42 -36.5q-72 -48 -166 -48q-113 0 -184 71q-79 -71 -187 -71q-120 0 -196 73.5t-76 195.5q0 114 80.5 194.5t202.5 80.5q116 0 191 -75 q75 75 181 75q89 0 151 -52q72 -60 72 -151q0 -42 -18.5 -54.5t-66.5 -13.5h-238zM571 353q-1 -6 -1 -8q0 -9 11 -9h115q31 0 47 9t16 36q0 30 -22.5 53.5t-60.5 23.5q-39 0 -68.5 -28.5t-36.5 -76.5zM314 66q49 0 76 46.5t27 120.5q0 32 -5.5 66.5t-17.5 73t-38.5 62.5 t-62.5 24q-50 0 -77 -42t-27 -120q0 -33 5.5 -68.5t18.5 -74t39 -63.5t62 -25z" />
<glyph unicode="&#x178;" horiz-adv-x="732" d="M699 714q38 0 38 -25q0 -12 -15 -24q-34 -25 -58 -51q-24 -25 -73 -99q-92 -145 -142 -225q-3 -4 -3 -11v-77q0 -79 9 -104q9 -27 36 -42q26 -15 26 -30q0 -26 -39 -26h-230q-38 0 -38 26q0 16 24 29q27 15 37 43t10 104v40q0 8 -5 18q-148 271 -173 312q-34 58 -45 69 q-10 10 -36 23q-18 10 -18 23q0 27 37 27h232q34 0 34 -25q0 -14 -23 -27t-23 -29q0 -13 11 -32l123 -223q3 -5 6 -5t7 6q47 74 101 162q30 48 30 76q0 24 -25.5 41t-25.5 30q0 26 39 26h172zM552 893q12 -12 12 -52q0 -39 -12 -51q-13 -13 -52 -13q-40 0 -52 13 q-12 12 -12 51t12 52q13 13 52 13q37 0 52 -13zM346 893q12 -12 12 -52q0 -39 -12 -51q-13 -13 -52 -13q-40 0 -52 13q-12 12 -12 51t12 52q13 13 52 13q37 0 52 -13z" />
<glyph unicode="&#x2c6;" horiz-adv-x="555" d="M265 664l-63 -56q-9 -8 -22 -8h-55q-7 0 -7 5q0 2 2 4l87 106q8 11 23 11h94q14 0 23 -11l83 -101q6 -8 6 -9q0 -5 -6 -5h-57q-10 0 -21 9l-64 55q-10 8 -12 8t-11 -8z" />
<glyph unicode="&#x2dc;" horiz-adv-x="590" d="M147 603l-21 7q-8 3 -8 10q0 2 2 8q34 98 112 98q30 0 78 -19t68 -19q27 0 46 29q6 9 13 9q2 0 8 -2l17 -6q10 -3 10 -10q0 -2 -2 -7q-39 -99 -110 -99q-31 0 -79.5 19.5t-68.5 19.5q-29 0 -45 -31q-5 -9 -12 -9q-2 0 -8 2z" />
<glyph unicode="&#x2000;" horiz-adv-x="456" />
<glyph unicode="&#x2001;" horiz-adv-x="913" />
<glyph unicode="&#x2002;" horiz-adv-x="456" />
<glyph unicode="&#x2003;" horiz-adv-x="913" />
<glyph unicode="&#x2004;" horiz-adv-x="304" />
<glyph unicode="&#x2005;" horiz-adv-x="228" />
<glyph unicode="&#x2006;" horiz-adv-x="152" />
<glyph unicode="&#x2007;" horiz-adv-x="152" />
<glyph unicode="&#x2008;" horiz-adv-x="114" />
<glyph unicode="&#x2009;" horiz-adv-x="182" />
<glyph unicode="&#x200a;" horiz-adv-x="50" />
<glyph unicode="&#x2010;" horiz-adv-x="328" d="M29 232v81q0 15 15 15h240q15 0 15 -15v-81q0 -15 -15 -15h-240q-15 0 -15 15z" />
<glyph unicode="&#x2011;" horiz-adv-x="328" d="M29 232v81q0 15 15 15h240q15 0 15 -15v-81q0 -15 -15 -15h-240q-15 0 -15 15z" />
<glyph unicode="&#x2012;" horiz-adv-x="328" d="M29 232v81q0 15 15 15h240q15 0 15 -15v-81q0 -15 -15 -15h-240q-15 0 -15 15z" />
<glyph unicode="&#x2013;" horiz-adv-x="689" d="M35 232v81q0 15 15 15h589q15 0 15 -15v-81q0 -15 -15 -15h-589q-15 0 -15 15z" />
<glyph unicode="&#x2014;" horiz-adv-x="973" d="M35 232v81q0 15 15 15h873q15 0 15 -15v-81q0 -15 -15 -15h-873q-15 0 -15 15z" />
<glyph unicode="&#x2018;" horiz-adv-x="322" d="M83 416q-30 37 -30 75q0 60 93 159q73 76 108 76q12 0 20 -8.5t8 -20.5q0 -9 -6 -14.5t-21.5 -14.5t-28.5 -21q-42 -40 -42 -73q0 -23 27 -52q38 -43 38 -61q0 -23 -36 -59t-59 -36q-14 0 -36 16.5t-35 33.5z" />
<glyph unicode="&#x2019;" horiz-adv-x="322" d="M239 676q30 -37 30 -75q0 -64 -93 -159q-73 -76 -108 -76q-12 0 -20 8.5t-8 20.5q0 9 6 14.5t21.5 14.5t28.5 21q42 40 42 73q0 23 -27 52q-38 43 -38 61q0 23 36 59t59 36q14 0 36 -16.5t35 -33.5z" />
<glyph unicode="&#x201a;" horiz-adv-x="320" d="M238 131q30 -37 30 -75q0 -60 -93 -159q-73 -76 -108 -76q-12 0 -20 8.5t-8 20.5q0 9 6 14.5t21.5 14.5t28.5 21q42 40 42 73q0 23 -27 52q-38 43 -38 61q0 23 36 59t59 36q14 0 36 -16.5t35 -33.5z" />
<glyph unicode="&#x201c;" horiz-adv-x="569" d="M330 416q-30 37 -30 75q0 60 93 159q73 76 108 76q12 0 20 -8.5t8 -20.5q0 -9 -6 -14.5t-21.5 -14.5t-28.5 -21q-42 -40 -42 -73q0 -23 27 -52q38 -43 38 -61q0 -23 -36 -59t-59 -36q-14 0 -36 16.5t-35 33.5zM83 416q-30 37 -30 75q0 60 93 159q73 76 108 76 q12 0 20 -8.5t8 -20.5q0 -9 -6 -14.5t-21.5 -14.5t-28.5 -21q-42 -40 -42 -73q0 -23 27 -52q38 -43 38 -61q0 -23 -36 -59t-59 -36q-14 0 -36 16.5t-35 33.5z" />
<glyph unicode="&#x201d;" horiz-adv-x="569" d="M239 676q30 -37 30 -75q0 -64 -93 -159q-73 -76 -108 -76q-12 0 -20 8.5t-8 20.5q0 9 6 14.5t21.5 14.5t28.5 21q42 40 42 73q0 23 -27 52q-38 43 -38 61q0 23 36 59t59 36q14 0 36 -16.5t35 -33.5zM486 676q30 -37 30 -75q0 -64 -93 -159q-73 -76 -108 -76 q-12 0 -20 8.5t-8 20.5q0 9 6 14.5t21.5 14.5t28.5 21q42 40 42 73q0 23 -27 52q-38 43 -38 61q0 23 36 59t59 36q14 0 36 -16.5t35 -33.5z" />
<glyph unicode="&#x201e;" horiz-adv-x="569" d="M239 131q30 -37 30 -75q0 -64 -93 -159q-73 -76 -108 -76q-12 0 -20 8.5t-8 20.5q0 9 6 14.5t21.5 14.5t28.5 21q42 40 42 73q0 23 -27 52q-38 43 -38 61q0 23 36 59t59 36q14 0 36 -16.5t35 -33.5zM486 131q30 -37 30 -75q0 -64 -93 -159q-73 -76 -108 -76 q-12 0 -20 8.5t-8 20.5q0 9 6 14.5t21.5 14.5t28.5 21q42 40 42 73q0 23 -27 52q-38 43 -38 61q0 23 36 59t59 36q14 0 36 -16.5t35 -33.5z" />
<glyph unicode="&#x2022;" horiz-adv-x="482" d="M388 320q0 -35 -56 -91t-92 -56q-35 0 -91 56t-56 91t56 91.5t91 56.5q36 0 92 -56.5t56 -91.5z" />
<glyph unicode="&#x2026;" horiz-adv-x="878" d="M240 90q0 -24 -38 -62.5t-63 -38.5q-24 0 -62.5 38.5t-38.5 62.5t38.5 62.5t62.5 38.5q25 0 63 -38.5t38 -62.5zM542 90q0 -24 -38 -62.5t-63 -38.5q-24 0 -62.5 38.5t-38.5 62.5t38.5 62.5t62.5 38.5q25 0 63 -38.5t38 -62.5zM840 90q0 -24 -38 -62.5t-63 -38.5 q-24 0 -62.5 38.5t-38.5 62.5t38.5 62.5t62.5 38.5q25 0 63 -38.5t38 -62.5z" />
<glyph unicode="&#x202f;" horiz-adv-x="182" />
<glyph unicode="&#x2039;" horiz-adv-x="364" d="M152 274l139 -122q10 -9 10 -24v-74q0 -7 -4 -7q-2 0 -12 8l-248 218q-7 6 -7 11t7 11l253 223q3 3 6 3q5 0 5 -7v-73q0 -15 -11 -26q-139 -121 -140 -122q-6 -5 -6 -9q0 -2 8 -10z" />
<glyph unicode="&#x203a;" horiz-adv-x="364" d="M212 274q8 8 8 10q0 4 -6 9l-140 122q-11 11 -11 26v73q0 7 5 7q3 0 6 -3l253 -223q7 -6 7 -11t-7 -11l-248 -218q-10 -8 -12 -8q-4 0 -4 7v74q0 15 10 24q132 116 139 122z" />
<glyph unicode="&#x205f;" horiz-adv-x="228" />
<glyph unicode="&#x20ac;" horiz-adv-x="572" d="M456 169q38 0 38 -49q0 -72 -30 -103q-27 -28 -97 -28q-109 0 -184.5 61t-100.5 165q-1 5 -9 5h-45q-13 0 -13 11v38q0 11 13 11h38q7 0 7 6q0 2 -0.5 8.5t-0.5 9.5q0 10 2 26q0 5 -6 5h-41q-12 0 -12 12v36q0 12 12 12h49q7 0 8 5q22 99 94 161.5t180 62.5q74 0 103 -29 q21 -21 21 -81q0 -66 -43 -66q-15 0 -28.5 15.5t-22.5 34t-26.5 34t-40.5 15.5q-22 0 -39.5 -14t-28 -37.5t-16 -44.5t-8.5 -43q-1 -6 -1 -9q0 -4 5 -4h199q12 0 12 -9q0 -3 -1 -8l-7 -31q-2 -12 -16 -12h-190q-6 0 -6 -6v-42q0 -7 8 -7h177q11 0 11 -8q0 -2 -1 -7l-7 -33 q-3 -12 -16 -12h-159q-6 0 -6 -4q0 -2 1 -9q7 -51 33 -94.5t73 -43.5q22 0 39 15.5t26 34.5t23 34.5t30 15.5z" />
<glyph unicode="&#x2122;" horiz-adv-x="700" d="M290 627q0 -21 -23 -21q-12 0 -26 23q-13 24 -26 35q-12 10 -25 10q-6 0 -6 -7v-126q0 -42 6 -58q5 -16 19 -24q13 -7 13 -16q0 -15 -20 -15h-115q-20 0 -20 15q0 9 13 16q14 8 20 24q5 13 5 58v126q0 7 -6 7q-11 0 -24 -10q-14 -11 -27 -35q-14 -23 -26 -23 q-23 0 -23 21q0 39 2 71q2 20 24 20q5 0 41.5 -2t68.5 -2h20q32 0 68.5 2t40.5 2q22 0 24 -20q2 -32 2 -71zM668 459q14 -10 14 -16q0 -15 -21 -15h-114q-21 0 -21 15q0 9 13 16q15 8 20 24q5 13 5 58v105q0 3 -2 3t-4 -5l-57 -158q-4 -12 -14 -12h-28q-10 0 -15 12l-58 161 q-1 2 -3 2t-2 -3v-53q0 -56 1 -68q3 -45 29 -61q1 -1 6.5 -3.5t7.5 -4t4.5 -5t2.5 -7.5q0 -16 -23 -16h-85q-23 0 -23 14q0 7 9.5 15t12.5 12q14 20 15 89q0 21 0.5 43.5t1 34t0.5 16.5q0 13 -2 18q-3 7 -11 10q-1 1 -4 2l-4.5 1.5t-4 1.5t-4 2.5l-3 3t-2 3.5t-0.5 5 q0 15 22 15h99q19 0 23 -13l40 -109q2 -5 4 -5q3 0 6 8l38 106q4 13 18 13h105q18 0 18 -13q0 -5 -2 -8t-9 -6.5t-8 -4.5q-16 -11 -16 -48v-93q0 -42 6 -58q5 -16 19 -24z" />
<glyph unicode="&#x25fc;" horiz-adv-x="520" d="M0 520h520v-520h-520v520z" />
</font>
</defs>
</svg>
