<?xml version="1.0" standalone="no"?>
<!DOCTYPE svg PUBLIC "-//W3C//DTD SVG 1.1//EN" "http://www.w3.org/Graphics/SVG/1.1/DTD/svg11.dtd" >
<svg xmlns="http://www.w3.org/2000/svg" xmlns:xlink="http://www.w3.org/1999/xlink" version="1.1">
<metadata></metadata>
<defs>
<font id="p22_mackinac_probold_italic" horiz-adv-x="707" >
<font-face units-per-em="1000" ascent="800" descent="-200" />
<missing-glyph horiz-adv-x="213" />
<glyph unicode="&#xfb01;" horiz-adv-x="653" d="M595 101q6 0 11 -5t5 -12q0 -21 -37 -53q-48 -42 -101 -42q-37 0 -59 22.5t-22 67.5q0 25 32 181q28 132 28 150q0 17 -10.5 22t-38.5 5h-121q-12 0 -13 -8l-16 -112q-25 -183 -48.5 -270t-77.5 -149q-39 -46 -89.5 -68t-99.5 -22q-67 0 -67 29q0 2 2 11l6 30q2 13 14 13 q3 0 21 -7.5t43 -7.5q26 0 45 10q48 25 68 99.5t47 271.5q2 13 3 20q11 84 23 146q1 6 1 8q0 6 -10 6h-57q-12 0 -12 11q0 3 1 8l7 34q2 13 16 13h64q9 0 12 8q29 102 109.5 168.5t185.5 66.5q31 0 60 -8q66 -20 66 -83q0 -55 -36 -55q-20 0 -59 39q-38 38 -80 38 q-29 0 -51 -14t-36.5 -40t-22.5 -49.5t-16 -56.5q-1 -5 -1 -7q0 -7 9 -7q69 0 114 2q94 4 149 24q9 3 16 3q26 0 26 -24q0 -2 -1 -7l-59 -288q-20 -98 -20 -116q0 -25 18 -25q12 0 30.5 14.5t28.5 14.5z" />
<glyph unicode="&#xfb02;" horiz-adv-x="663" d="M644 717l-102 -506q-20 -97 -20 -113q0 -26 19 -26q11 0 29.5 14.5t28.5 14.5q6 0 11 -5t5 -12q0 -20 -36 -53q-48 -42 -101 -42q-39 0 -60.5 24t-21.5 66q0 19 6 51l93 454q5 28 5 34q0 18 -18 34q-30 26 -69 26q-30 0 -52 -13.5t-36 -39.5t-22 -49.5t-16 -57.5 q-1 -4 -1 -6q0 -7 8 -7q34 0 53 1q9 0 30 3t30 3q29 0 29 -16q0 -4 -1.5 -8t-4 -9t-3.5 -8q-12 -36 -45 -36q-2 0 -56 3q-17 1 -42 1q-13 0 -14 -9l-16 -112q-25 -182 -48.5 -269.5t-77.5 -150.5q-39 -45 -90.5 -67.5t-99.5 -22.5q-66 0 -66 32q0 2 1 8l6 30q2 13 14 13 q3 0 21 -7.5t43 -7.5q26 0 46 10q44 23 64 91.5t45 237.5l32 210q1 6 1 8q0 6 -10 6h-59q-11 0 -11 10q0 3 1 8l7 35q3 13 17 13h63q11 0 13 8q21 62 43 96q45 68 114.5 103t140.5 35q34 0 61 -8.5t29 -8.5q5 0 50 14q10 3 17 3q24 0 24 -22q0 -3 -1 -8z" />
<glyph unicode="&#xfb03;" horiz-adv-x="982" d="M495 729q40 -22 40 -77q0 -52 -33 -52q-8 0 -15.5 4t-11.5 7.5t-14.5 15t-14.5 16.5q-33 33 -62 33q-68 0 -97 -160q-1 -4 -1 -6q0 -7 9 -7h188q7 0 10 8q29 102 109.5 168.5t185.5 66.5q31 0 60 -8q66 -20 66 -83q0 -55 -36 -55q-20 0 -59 39q-38 38 -80 38 q-29 0 -51 -14t-36.5 -40t-22.5 -49.5t-16 -56.5q-1 -5 -1 -7q0 -7 9 -7q69 0 114 2q94 4 149 24q9 3 16 3q26 0 26 -24q0 -2 -1 -7l-59 -288q-20 -98 -20 -116q0 -25 18 -25q12 0 30.5 14.5t28.5 14.5q6 0 11 -5t5 -12q0 -21 -37 -53q-48 -42 -101 -42q-37 0 -59 22.5 t-22 67.5q0 25 32 181q28 132 28 150q0 17 -10.5 22t-38.5 5h-121q-12 0 -13 -8l-16 -112q-25 -183 -48.5 -270t-77.5 -149q-39 -46 -89.5 -68t-99.5 -22q-67 0 -67 29q0 2 2 11l6 30q2 13 14 13q3 0 21 -7.5t43 -7.5q26 0 45 10q48 25 68 99.5t47 271.5q1 4 1.5 6.5t1 6.5 t0.5 7q11 84 23 146q1 6 1 8q0 5 -7 6h-181q-12 0 -13 -9q-12 -79 -16 -112q-25 -183 -48.5 -270.5t-77.5 -149.5q-40 -46 -91 -68.5t-100 -22.5q-67 0 -67 29q0 3 3 17l5 25q3 13 14 13q5 0 24 -8t40 -8q26 0 46 11q49 25 70 104t48 278q1 7 1 10q13 102 22 147q1 4 1 6 q0 8 -10 8h-58q-11 0 -11 11q0 2 1 7l7 35q3 13 16 13h64q10 0 13 8q25 102 94.5 168t159.5 66q45 0 74 -16z" />
<glyph unicode="&#xfb04;" horiz-adv-x="990" d="M971 717l-102 -506q-20 -97 -20 -113q0 -26 19 -26q11 0 29.5 14.5t28.5 14.5q6 0 11 -5t5 -12q0 -20 -36 -53q-48 -42 -101 -42q-39 0 -60.5 24t-21.5 66q0 19 6 51l93 454q5 28 5 34q0 18 -18 34q-30 26 -69 26q-30 0 -52 -13.5t-36 -39.5t-22 -49.5t-16 -57.5 q-1 -4 -1 -6q0 -7 8 -7q34 0 53 1q9 0 30 3t30 3q29 0 29 -16q0 -4 -1.5 -8t-4 -9t-3.5 -8q-12 -36 -45 -36q-2 0 -56 3q-17 1 -42 1q-13 0 -14 -9l-16 -112q-25 -182 -48.5 -269.5t-77.5 -150.5q-39 -45 -90.5 -67.5t-99.5 -22.5q-66 0 -66 32q0 2 1 8l6 30q2 13 14 13 q3 0 21 -7.5t43 -7.5q26 0 46 10q44 23 64 91.5t45 237.5l32 210q1 6 1 8q0 6 -10 6h-178q-12 0 -13 -9q-12 -79 -16 -112q-25 -183 -48.5 -270.5t-77.5 -149.5q-40 -46 -91 -68.5t-100 -22.5q-67 0 -67 29q0 3 3 17l5 25q3 13 14 13q5 0 24 -8t40 -8q26 0 46 11 q49 25 70 104t48 278q1 7 1 10q13 102 22 147q1 4 1 6q0 8 -10 8h-58q-11 0 -11 11q0 2 1 7l7 35q3 13 16 13h64q10 0 13 8q25 102 94.5 168t159.5 66q45 0 74 -16q40 -22 40 -77q0 -52 -33 -52q-8 0 -15.5 4t-11.5 7.5t-14.5 15t-14.5 16.5q-33 33 -62 33q-68 0 -97 -160 q-1 -4 -1 -6q0 -7 9 -7h185q11 0 13 8q21 62 43 96q45 68 114.5 103t140.5 35q34 0 61 -8.5t29 -8.5q5 0 50 14q11 3 17 3q24 0 24 -22q0 -3 -1 -8z" />
<glyph horiz-adv-x="0" />
<glyph horiz-adv-x="333" />
<glyph unicode=" "  horiz-adv-x="213" />
<glyph unicode="&#x09;" horiz-adv-x="213" />
<glyph unicode="&#xa0;" horiz-adv-x="213" />
<glyph unicode="!" horiz-adv-x="331" d="M259 322q-2 -6 -5 -17l-4.5 -16.5t-4 -14.5t-5 -13.5t-6 -10.5t-7 -9.5t-8 -6.5t-10 -4.5t-12.5 -1.5q-21 0 -27.5 13t-6.5 39q0 2 4 42q5 49 10 125t7 99q7 69 16.5 105t32.5 55q23 20 62 20q65 0 65 -58q0 -33 -27 -122q-5 -16 -31.5 -94t-42.5 -130zM151 -11 q-21 0 -50 34t-29 57q0 22 39.5 55t60.5 33t50.5 -34t29.5 -57t-40 -55.5t-61 -32.5z" />
<glyph unicode="&#x22;" horiz-adv-x="404" d="M367 726q22 0 36 -9t14 -30q0 -44 -34.5 -138t-70.5 -94q-18 0 -24 23q-7 25 -7 65q0 131 32 164q18 19 54 19zM189 726q22 0 36 -9t14 -30q0 -44 -34.5 -138t-70.5 -94q-18 0 -24 23q-7 25 -7 65q0 131 32 164q18 19 54 19z" />
<glyph unicode="#" horiz-adv-x="658" d="M360 357l39 120h-102l-39 -120h102zM585 477h-108l-39 -120h108l-23 -69h-107l-63 -192h-78l63 192h-102l-63 -192h-78l63 192h-107l22 69h107l39 120h-107l23 69h106l59 180h78l-58 -180h101l59 180h78l-58 -180h107z" />
<glyph unicode="$" horiz-adv-x="567" d="M504 685q20 -20 20 -51q0 -36 -9 -64q-9 -29 -30 -29q-9 0 -16 5t-10 10t-9.5 18.5t-11.5 22.5q-39 65 -108 65q-40 0 -71.5 -24.5t-31.5 -64.5q0 -33 26.5 -56.5t63.5 -39.5t74.5 -35t64 -54t26.5 -85q0 -86 -73 -144t-165 -66l-16 -81q-3 -12 -15 -12h-33q-11 0 -11 10 q0 2 1 7l15 75q-26 1 -51.5 6.5t-53.5 16t-45.5 31.5t-17.5 49q0 10 2.5 29.5t2.5 28.5q0 47 32 47q13 0 20 -6.5t14.5 -25.5t11.5 -26q46 -84 138 -84q57 0 94 30t37 73q0 33 -26 56.5t-63.5 40t-75 35.5t-63.5 53.5t-26 83.5q0 75 62 129.5t141 63.5l17 81q1 12 14 12h33 q11 0 11 -10q0 -2 -1 -7l-14 -73q86 -4 126 -41z" />
<glyph unicode="%" horiz-adv-x="848" d="M665 714h76l-512 -714h-76zM309 597q0 36 -11.5 56.5t-31.5 20.5q-32 0 -56.5 -40.5t-33.5 -84.5t-9 -76q0 -36 11 -57t31 -21q26 0 46.5 24t31.5 58t16.5 66t5.5 54zM199 342q-67 0 -101.5 39t-34.5 102q0 101 67 172t146 71q64 0 100 -38t36 -103q0 -105 -66.5 -174 t-146.5 -69zM726 244q0 36 -11.5 56.5t-31.5 20.5q-32 0 -56.5 -40.5t-33.5 -84.5t-9 -76q0 -36 11 -57t31 -21q26 0 46.5 24t31.5 58t16.5 66t5.5 54zM616 -11q-67 0 -101.5 39t-34.5 102q0 101 67 172t146 71q64 0 100 -38t36 -103q0 -105 -66.5 -174t-146.5 -69z" />
<glyph unicode="&#x26;" horiz-adv-x="779" d="M166 206q0 -60 54 -103.5t132 -43.5q66 0 120 30q-31 30 -119.5 95.5t-128.5 114.5q-26 -11 -42 -37t-16 -56zM602 108q26 -48 26 -97q0 -81 -56 -139t-137 -58q-52 0 -81.5 26t-29.5 57q0 24 17.5 43t41.5 19q18 0 30 -10t12 -19q0 -5 -2 -10t-2 -9q0 -11 11 -20t29 -9 q29 0 52 24t23 64q0 37 -23 72q-96 -53 -209 -53q-116 0 -189 55.5t-73 134.5q0 61 42.5 107t106.5 63q-21 40 -21 78q0 52 20 92t50.5 61.5t62.5 32t61 10.5q62 0 105 -33.5t43 -83.5q0 -29 -18 -50.5t-50 -21.5q-23 0 -39.5 12t-16.5 25q0 7 10 17t10 23q0 20 -15.5 34.5 t-41.5 14.5q-33 0 -56.5 -25t-23.5 -62q0 -24 10 -47t33 -46t39 -37.5t51.5 -40.5t47.5 -36q66 -52 108 -100q32 42 32 86q0 30 -13.5 50.5t-36.5 20.5q-2 0 -6.5 -0.5t-5.5 -0.5q-9 0 -16 7.5t-7 21.5q0 24 20.5 43t52.5 19q44 0 73 -36t29 -91q0 -97 -80 -178z" />
<glyph unicode="'" horiz-adv-x="226" d="M189 726q22 0 36 -9t14 -30q0 -44 -34.5 -138t-70.5 -94q-18 0 -24 23q-7 25 -7 65q0 131 32 164q18 19 54 19z" />
<glyph unicode="(" horiz-adv-x="430" d="M337 -136q0 -20 -22 -20q-30 0 -73.5 34.5t-80.5 91.5q-76 119 -76 265q0 124 56.5 238t162.5 195q51 39 100 59t79 20t30 -20q0 -10 -15.5 -21t-38.5 -22t-58 -41t-66 -71q-56 -76 -91.5 -181.5t-35.5 -214.5q0 -91 25 -157t85 -126q19 -19 19 -29z" />
<glyph unicode=")" horiz-adv-x="431" d="M110 727q0 20 22 20q30 0 73.5 -34.5t80.5 -91.5q76 -119 76 -265q0 -124 -56.5 -238t-162.5 -195q-51 -39 -100 -59t-79 -20t-30 20q0 10 15.5 21t38.5 22t58 41t66 71q56 76 91.5 181.5t35.5 214.5q0 91 -25 157t-85 126q-19 19 -19 29z" />
<glyph unicode="*" horiz-adv-x="429" d="M196 621q-2 6 -16 38.5t-14 50.5q0 16 10 26q11 11 42 11q32 0 43 -11q10 -10 10 -25q0 -18 -14.5 -50.5t-16.5 -39.5q-2 -6 -3.5 -14t-2.5 -12.5t-3 -9.5t-5 -7t-8 -2q-4 0 -7 2t-5 7t-3.5 9.5t-3 12.5t-3.5 14zM151 560q-12 0 -32 -2t-30 -2q-51 0 -51 35 q0 21 10.5 45.5t33.5 24.5q12 0 31 -12q9 -5 28 -22.5t28 -24.5q5 -4 13.5 -8.5t13 -7.5t8 -7t3.5 -8q0 -14 -19 -14q-5 0 -17.5 1.5t-19.5 1.5zM201 503q-4 -11 -9 -36.5t-9 -34.5q-13 -34 -36 -34q-15 0 -38 16q-28 21 -28 39t22 37q8 7 30.5 20t31.5 19q5 4 13.5 11.5 t14 11t10.5 3.5q12 0 12 -12q0 -4 -2 -10t-6 -15t-6 -15zM269 529q9 -7 31.5 -20t30.5 -20q23 -19 23 -35q0 -17 -28 -40q-20 -16 -38 -16q-23 0 -36 34q-3 9 -9 34t-10 36q-13 35 -13 39q0 13 12 13q5 0 10.5 -3.5t13.5 -11t13 -10.5zM266 601q10 7 29 24.5t28 22.5 q19 12 32 12q23 0 38 -41q6 -16 6 -30q0 -34 -55 -34q-9 0 -30 2t-31 2q-8 0 -20 -1t-16 -1q-18 0 -18 13q0 6 4.5 10.5t15.5 10.5t17 10z" />
<glyph unicode="+" horiz-adv-x="690" d="M606 377v-39q0 -13 -13 -13h-207q-7 0 -7 -7v-209q0 -13 -13 -13h-43q-13 0 -13 13v209q0 7 -7 7h-206q-13 0 -13 13v39q0 13 13 13h206q7 0 7 7v208q0 13 13 13h43q13 0 13 -13v-208q0 -7 7 -7h207q13 0 13 -13z" />
<glyph unicode="," horiz-adv-x="304" d="M203 119q23 -32 23 -68q0 -70 -94 -157q-23 -21 -54.5 -41t-51.5 -20q-9 0 -17 7.5t-8 18.5q0 10 7.5 15t24.5 13.5t31 21.5q40 33 40 68q0 22 -24 54q-29 39 -29 59t35.5 49t58.5 29q11 0 29 -16t29 -33z" />
<glyph unicode="-" horiz-adv-x="378" d="M45 245l13 62q3 14 16 14h231q13 0 13 -12q0 -3 -1 -8l-13 -62q-3 -13 -16 -13l-232 -1q-12 0 -12 12q0 2 1 8z" />
<glyph unicode="." horiz-adv-x="274" d="M96 -11q-21 0 -50 34t-29 57q0 22 39.5 55t60.5 33t50.5 -34t29.5 -57t-40 -55.5t-61 -32.5z" />
<glyph unicode="/" horiz-adv-x="549" d="M565 747h58q6 0 6 -4q0 -1 -3 -6l-593 -827q-6 -7 -14 -7h-57q-5 0 -5 4q0 2 3 6l592 828q4 6 13 6z" />
<glyph unicode="0" horiz-adv-x="684" d="M518 477q0 85 -28.5 133.5t-78.5 48.5q-61 0 -107.5 -49t-70 -120.5t-35 -135.5t-11.5 -112q0 -85 28 -134.5t78 -49.5q58 0 104 46.5t71 115.5t37.5 136t12.5 121zM270 -11q-115 0 -172.5 69t-57.5 183q0 123 54 235t146.5 181t195.5 69q109 0 168.5 -67.5t59.5 -183.5 q0 -96 -33 -186t-86.5 -155.5t-126 -105t-148.5 -39.5z" />
<glyph unicode="1" horiz-adv-x="363" d="M339 692l-137 -672q-5 -20 -25 -20h-88q-19 0 -19 18q0 3 1 9l104 512q9 47 9 60q0 15 -8 20.5t-25 5.5q-12 0 -37 -1.5t-38 -1.5q-9 0 -13.5 1t-8 5.5t-3.5 13.5q0 26 12 37q8 7 37 9q70 7 154 26q53 12 58 12q28 0 28 -25q0 -4 -1 -9z" />
<glyph unicode="2" horiz-adv-x="597" d="M491 162q23 0 23 -23q0 -11 -20 -62q-2 -7 -7 -20.5t-6.5 -17.5t-6 -13t-7.5 -11.5l-9 -7.5t-13 -6t-17 -2.5t-23 -1.5q-16 0 -66.5 1.5t-79.5 1.5h-221q-24 0 -34 9t-10 28q0 62 37.5 122t100.5 108q39 30 109.5 72.5t106.5 71.5q87 71 87 145q0 43 -27 72t-72 29 q-55 0 -104 -55q-15 -18 -32.5 -44t-28 -35.5t-24.5 -9.5q-30 0 -30 39q0 29 11 63.5t35 55.5q28 24 79.5 39.5t106.5 15.5q105 0 167.5 -53.5t62.5 -133.5q0 -106 -109 -176q-50 -32 -151.5 -76.5t-154.5 -82.5q-24 -16 -45 -41t-21 -41q0 -12 17 -12h193q84 0 106 6 q21 6 42.5 26t34.5 20z" />
<glyph unicode="3" horiz-adv-x="588" d="M358 368q59 -12 98 -52.5t39 -100.5q0 -67 -46 -120.5t-112.5 -79.5t-135.5 -26q-128 0 -180 59q-27 31 -27 80q0 55 39 55q14 0 24 -9.5t23 -30.5t19 -29q51 -63 116 -63t103 51.5t38 119.5q0 53 -27.5 84.5t-80.5 32.5q-16 0 -37.5 -2t-27.5 -2q-27 0 -27 22q0 4 2 13 t2 12q5 31 33 31q5 0 26.5 -2.5t39.5 -2.5q77 0 113 47.5t36 105.5q0 45 -25.5 74.5t-72.5 29.5q-59 0 -112 -66q-11 -13 -25 -37t-24.5 -34.5t-23.5 -10.5q-33 0 -33 38q0 77 52 119q63 52 173 52q99 0 162 -48.5t63 -125.5q0 -60 -45.5 -108t-136.5 -66q-10 -2 -10 -5 q0 -4 8 -5z" />
<glyph unicode="4" horiz-adv-x="619" d="M558 278q14 0 14 -10q0 -3 -1 -8l-13 -64q-3 -16 -20 -16h-93q-13 0 -14 -11q-8 -48 -8 -68q0 -26 13 -39t26 -20t13 -19q0 -23 -38 -23h-203q-27 0 -27 21q0 5 1.5 8.5t3 6t5.5 5.5t6 4t8.5 4t8.5 4q45 23 62 111q1 5 1 8q0 8 -10 8h-271q-15 0 -15 11q0 3 2 12l9 43 q3 17 15 31q205 228 255 437q4 12 19 12h81q11 0 11 -7q0 -2 -1 -6q-26 -103 -100 -216.5t-174 -211.5q-2 -2 -2 -4q0 -3 5 -3h183q14 0 17 13l60 292q2 14 18 14h96q14 0 14 -11q0 -2 -1 -7l-58 -284q-1 -5 -1 -8q0 -9 11 -9h92z" />
<glyph unicode="5" horiz-adv-x="561" d="M196 479q56 -1 106 -13t95.5 -36.5t72 -69.5t26.5 -105q0 -106 -83 -186t-211 -80q-57 0 -106 17.5t-71 50.5q-18 26 -18 67q0 64 42 64q11 0 18 -5.5t17.5 -22.5t14.5 -23q17 -24 31.5 -39t45 -30t67.5 -15q62 0 107 42.5t45 103.5q0 162 -306 168q-10 0 -10 8q0 3 3 10 l125 317q5 12 19 12h149q87 0 109 7q19 6 36.5 22t29.5 16q19 0 19 -20q0 -7 -17 -51q-4 -10 -9.5 -27t-8 -24.5t-8 -16t-11.5 -12.5q-13 -10 -59 -10h-215q-8 0 -12 -8l-38 -96q-3 -7 -3 -10q0 -5 8 -5z" />
<glyph unicode="6" horiz-adv-x="624" d="M183 176q0 -59 25 -91.5t71 -32.5q66 0 108.5 76.5t42.5 155.5q0 57 -25 90t-70 33q-61 0 -106.5 -67t-45.5 -164zM554 572q-10 0 -20 5t-15.5 10.5t-17.5 19.5q-17 19 -26 27.5t-26.5 17t-38.5 8.5q-68 0 -117.5 -67.5t-78.5 -186.5l-2 -9q0 -3 3 -3q1 0 6 6 q30 43 75 67t95 24q83 0 132 -56.5t49 -136.5q0 -124 -87 -216.5t-206 -92.5q-108 0 -168 75.5t-60 188.5q0 109 47 217t136.5 182t197.5 74q45 0 84.5 -13.5t56.5 -28.5q19 -17 19 -48q0 -64 -38 -64z" />
<glyph unicode="7" horiz-adv-x="510" d="M570 698q-5 -39 -18 -75.5t-24 -60t-37.5 -57t-37 -45.5t-45 -47t-40.5 -41q-55 -57 -87 -91.5t-72.5 -95t-40.5 -97.5q0 -24 19.5 -40.5t19.5 -26.5q0 -21 -32 -21h-123q-32 0 -32 30q0 34 27.5 90t80.5 117q35 40 123 118t107 96q86 82 101 130q1 4 1 7q0 9 -11 9h-193 q-86 0 -109 -8q-18 -6 -35 -22t-26 -16q-8 0 -14.5 6t-6.5 15t18 60q2 7 5.5 17.5t5.5 15.5t5 12t5 11.5t5.5 8.5t7.5 7q16 10 61 10h379q14 0 14 -8q0 -2 -1 -8z" />
<glyph unicode="8" horiz-adv-x="632" d="M153 155q0 -48 30 -77t80 -29q73 0 121.5 59t48.5 127q0 49 -32.5 78t-74.5 29q-65 0 -119 -56.5t-54 -130.5zM475 582q0 41 -22.5 63t-58.5 22q-60 0 -98.5 -52t-38.5 -108q0 -42 25 -65.5t62 -23.5q52 0 91.5 50.5t39.5 113.5zM434 401q-10 -3 -10 -8t9 -8 q64 -16 99 -55.5t35 -93.5q0 -97 -90.5 -172t-230.5 -75q-102 0 -163.5 46.5t-61.5 118.5q0 81 63.5 137.5t146.5 71.5q9 1 9 6q0 4 -8 7q-107 38 -107 128q0 88 80.5 155t201.5 67q91 0 146 -40t55 -105q0 -70 -51.5 -117t-122.5 -63z" />
<glyph unicode="9" horiz-adv-x="616" d="M206 430q0 -53 23.5 -87.5t72.5 -34.5q66 0 108.5 71t42.5 158q0 59 -25.5 92.5t-68.5 33.5q-65 0 -109 -74t-44 -159zM69 179q7 0 13 -2.5t11.5 -9.5t9 -11.5t10 -15.5t9.5 -15q14 -21 24.5 -33.5t32.5 -24.5t48 -12q134 0 196 257l1 6q0 3 -3 3q-2 0 -5 -5 q-31 -44 -77 -68.5t-97 -24.5q-72 0 -125 52t-53 140q0 125 86.5 218t206.5 93q110 0 169 -74t59 -190q0 -82 -28 -165.5t-76 -152t-121 -112t-156 -43.5q-45 0 -85 13t-60 37q-28 32 -28 83q0 57 38 57z" />
<glyph unicode=":" horiz-adv-x="365" d="M126 -11q-21 0 -50 34t-29 57q0 22 39.5 55t60.5 33t50.5 -34t29.5 -57t-40 -55.5t-61 -32.5zM199 343q-21 0 -50 34t-29 57q0 22 39.5 55t60.5 33t50.5 -34t29.5 -57t-40 -55.5t-61 -32.5z" />
<glyph unicode=";" horiz-adv-x="368" d="M214 343q-20 0 -49.5 34.5t-29.5 57.5q0 21 40 54t61 33q20 0 49.5 -34.5t29.5 -57.5q0 -22 -39.5 -54.5t-61.5 -32.5zM217 119q23 -32 23 -68q0 -70 -94 -157q-23 -21 -54.5 -41t-51.5 -20q-9 0 -17 7.5t-8 18.5q0 10 7.5 15t24.5 13.5t31 21.5q40 33 40 68q0 22 -24 54 q-29 39 -29 59t35.5 49t58.5 29q11 0 29 -16t29 -33z" />
<glyph unicode="&#x3c;" horiz-adv-x="716" d="M225 328q-2 -1 -2 -3q0 -3 3 -4l372 -163q13 -6 13 -20v-68q0 -9 -6 -9q-1 0 -7 2l-485 213q-13 6 -13 20v57q0 14 13 20l485 214q6 2 7 2q6 0 6 -9v-68q0 -14 -13 -20q-364 -160 -373 -164z" />
<glyph unicode="=" horiz-adv-x="736" d="M107 421v40q0 13 13 13h496q13 0 13 -13v-40q0 -13 -13 -13h-496q-13 0 -13 13zM107 254v39q0 13 13 13h496q13 0 13 -13v-39q0 -13 -13 -13h-496q-13 0 -13 13z" />
<glyph unicode="&#x3e;" horiz-adv-x="716" d="M491 322q2 1 2 3q0 3 -3 4l-372 163q-13 6 -13 20v68q0 9 6 9q1 0 7 -2l485 -213q13 -6 13 -20v-57q0 -14 -13 -20l-485 -214q-6 -2 -7 -2q-6 0 -6 9v68q0 14 13 20q364 160 373 164z" />
<glyph unicode="?" horiz-adv-x="542" d="M267 511q0 -19 -24.5 -37.5t-59.5 -18.5q-39 0 -62 24t-23 63q0 71 68.5 127.5t180.5 56.5q100 0 156.5 -48.5t56.5 -115.5q0 -93 -113 -159q-28 -16 -78 -38.5t-71 -35.5q-51 -30 -51 -60q0 -14 21.5 -23t21.5 -21q0 -17 -21 -25t-46 -8q-35 0 -57.5 13.5t-22.5 40.5 q0 42 60 91q17 13 69.5 48.5t80.5 60.5q68 65 68 125q0 41 -27 66t-70 25q-44 0 -77.5 -25.5t-33.5 -64.5q0 -18 8.5 -27t18.5 -11t18.5 -7t8.5 -16zM181 -11q-21 0 -50 34t-29 57q0 22 39.5 55t60.5 33t50.5 -34t29.5 -57t-40 -55.5t-61 -32.5z" />
<glyph unicode="@" horiz-adv-x="1060" d="M552 241q64 100 64 152q0 30 -42 50q-22 9 -39 9q-27 0 -47 -21q-36 -38 -63 -126q-21 -67 -21 -119q0 -61 31 -61q41 0 117 116zM899 541q67 -104 67 -227q0 -118 -62 -202t-160 -84q-68 0 -112.5 42t-48.5 113q0 4 -4 4q-3 0 -4 -3q-38 -65 -92 -108q-47 -38 -96 -38 t-72.5 37t-23.5 91q0 114 72 221q79 119 184 119q34 -1 75.5 -14.5t48.5 -13.5q15 0 35 18q11 11 20 11q20 0 20 -21q0 -2 -2 -12q-13 -53 -41 -182q-16 -73 -16 -120q0 -87 70 -87q36 0 70.5 29t57.5 81q25 60 25 134q0 120 -72 211q-52 64 -131 100.5t-167 36.5 q-166 0 -283 -120t-117 -289q0 -170 117 -290t283 -120q94 0 176.5 41.5t139.5 116.5q10 13 24 13q10 0 17 -6.5t7 -16.5q0 -11 -7 -21q-56 -79 -152.5 -128.5t-204.5 -49.5q-189 0 -322 134t-133 327q0 192 133.5 326t321.5 134q112 0 206.5 -49t152.5 -138z" />
<glyph unicode="A" d="M215 292h193q9 0 9 7q0 2 -1 7l-42 237q-1 7 -4 7q-2 0 -5 -5q-64 -95 -154 -243q-2 -3 -2 -5q0 -5 6 -5zM616 65q7 -7 15.5 -12.5t14 -8.5t9.5 -8t4 -12q0 -24 -37 -24h-193q-29 0 -29 19q0 10 8 17t18 11t18 15t8 28q0 11 -5 44l-15 82q-2 9 -13 9h-243q-11 0 -17 -10 q-61 -103 -61 -137q0 -19 18.5 -32t18.5 -24q0 -22 -34 -22h-158q-30 0 -30 20q0 3 0.5 5.5t2.5 4.5t3.5 4t4.5 4t5 3t6.5 3.5t6.5 3.5q25 14 52 47t64 90l339 523q9 13 20 13h51q14 0 17 -13l102 -565q9 -39 14 -53.5t15 -24.5z" />
<glyph unicode="B" horiz-adv-x="671" d="M268 414h47q95 0 143 47q42 40 42 100q0 85 -125 87h-59q-16 0 -19 -15l-39 -196q-2 -9 -2 -12q0 -11 12 -11zM237 334l-33 -160q-13 -69 -13 -81q0 -16 10.5 -20t36.5 -4h22q91 0 147.5 44.5t56.5 127.5q0 103 -151 105q-14 0 -37 -0.5t-26 -0.5q-11 -1 -13 -11zM549 97 q-45 -49 -119 -73t-205 -24h-221q-30 0 -30 21q0 16 27 28q24 11 40 36q17 26 32 102l75 371q11 52 11 71q0 22 -23 36t-23 26q0 23 35 23h202q72 0 108 -1.5t80 -13t69 -35.5q36 -35 36 -91q0 -77 -57.5 -124t-137.5 -58q-7 -1 -7 -6t6 -5q73 -6 115.5 -42.5t42.5 -102.5 q0 -77 -56 -138z" />
<glyph unicode="C" horiz-adv-x="678" d="M352 62q41 0 80 23t56 42t40 49q18 23 29 31t27 8q30 0 30 -33q0 -25 -12 -61q-20 -57 -58 -84q-65 -48 -186 -48q-136 0 -229 84t-93 227q0 178 135 302t326 124q111 0 166 -37q27 -19 27 -59q0 -30 -12 -71q-7 -23 -16 -33.5t-24 -10.5q-19 0 -27 11t-17 36.5t-21 42.5 q-37 52 -114 52q-80 0 -145.5 -55.5t-99.5 -139.5t-34 -175q0 -105 49.5 -165t122.5 -60z" />
<glyph unicode="D" horiz-adv-x="773" d="M477 147q56 52 87 130.5t31 162.5q0 132 -85 177q-34 18 -75.5 23.5t-110.5 5.5q-14 0 -20 -5t-9 -19l-87 -433q-15 -72 -15 -86q0 -20 14.5 -26.5t43.5 -6.5h13q131 0 213 77zM635 654q50 -33 78 -90.5t28 -130.5q0 -67 -23 -135.5t-62 -120.5q-135 -177 -420 -177h-232 q-30 0 -30 21q0 7 3.5 12.5t7 8t12 6.5t10.5 5q22 11 34 31q16 25 32 103l75 371q11 59 11 72q0 18 -11.5 27.5t-23.5 16t-12 17.5q0 23 36 23h168q114 0 189 -12t130 -48z" />
<glyph unicode="E" horiz-adv-x="634" d="M541 212q14 0 22.5 -8t8.5 -22q0 -18 -11 -41q-8 -17 -17 -49t-15.5 -50.5t-24.5 -33.5t-47 -15q-8 0 -62 3.5t-112 3.5h-279q-30 0 -30 22q0 4 1.5 7.5t3 6t5.5 5t6 3.5t7.5 3.5t6.5 3.5q24 11 38 33q15 23 32 103q12 57 25 121.5t28.5 143.5t24.5 122q7 38 7 55 q0 15 -7 24.5t-16 12.5t-16 9.5t-7 15.5q0 23 39 23h261q59 0 124 4t74 4q37 0 37 -24q0 -7 -3 -26t-9 -51.5t-10 -57.5q-4 -28 -12 -39t-27 -11q-15 0 -22 8.5t-12 28.5q-14 56 -44 76q-32 20 -146 20h-38q-25 0 -29 -24l-37 -184q-2 -8 -2 -16q0 -13 21 -13q65 0 100 2 q19 1 52.5 4t43.5 3q29 0 29 -17q0 -6 -3.5 -17t-3.5 -12q-6 -25 -18.5 -32t-44.5 -7q-15 0 -45.5 1.5t-37.5 1.5q-23 1 -98 1q-14 0 -17 -14l-26 -130q-15 -75 -15 -88q0 -16 10 -24t22 -10t33 -3h12q62 0 106.5 15t66.5 36t37 42t28.5 36t31.5 15z" />
<glyph unicode="F" horiz-adv-x="607" d="M211 0h-209q-28 0 -28 21q0 17 28 29q26 11 40 34q17 30 32 104l77 379q9 45 9 61q0 20 -12 29.5t-23.5 16t-11.5 17.5q0 23 39 23h262q58 0 123 4t74 4q37 0 37 -26q0 -10 -2.5 -25t-8.5 -49t-12 -71q-6 -38 -37 -38q-18 0 -26.5 14t-11 32t-15 39.5t-35.5 32.5 q-31 15 -123 15h-52q-14 0 -20 -5t-9 -19l-44 -218q-1 -6 -1 -10q0 -14 22 -14q61 0 89 1q17 0 53 4t49 4q34 0 34 -17q0 -6 -4 -16t-4 -11q-6 -26 -18.5 -33.5t-49.5 -7.5q-15 0 -49 1.5t-39 1.5q-30 1 -87 1q-14 0 -17 -14l-22 -106q-12 -59 -12 -84q0 -22 8.5 -35.5 t18 -17.5t18 -10.5t8.5 -16.5q0 -24 -38 -24z" />
<glyph unicode="G" horiz-adv-x="732" d="M666 346q28 0 30 -21q0 -7 -4.5 -12.5t-8.5 -8t-14 -6.5t-13 -5q-19 -10 -28 -30t-20 -74l-20 -95q-7 -35 -34 -51q-85 -54 -202 -54q-137 0 -226.5 86t-89.5 226q0 177 132.5 301t325.5 124q116 0 169 -37q27 -19 27 -58q0 -30 -10 -66q-8 -27 -15.5 -38.5t-24.5 -11.5 q-16 0 -24 8.5t-16 28.5q-13 30 -26 49.5t-43 37.5t-71 18q-85 0 -151 -59t-97.5 -141.5t-31.5 -168.5q0 -95 48 -160t139 -65q31 0 59 8q15 5 20 9.5t8 17.5l19 91q9 49 9 61q0 19 -10.5 30.5t-22.5 14.5t-22.5 9.5t-10.5 16.5q0 25 36 25h214z" />
<glyph unicode="H" horiz-adv-x="793" d="M789 714q28 0 30 -21q0 -9 -5 -14t-18.5 -11t-15.5 -7q-19 -10 -27.5 -29.5t-19.5 -73.5l-75 -370q-12 -60 -12 -85q0 -22 8 -35.5t18 -17.5t18 -10.5t8 -16.5q0 -23 -38 -23h-210q-27 0 -27 21q0 17 27 29q27 11 40 34q18 28 33 104l28 140q1 5 1 7q0 10 -11 10h-289 q-10 0 -13 -9l-30 -148q-11 -55 -11 -86q0 -22 8 -35t18 -17t18 -10.5t8 -16.5q0 -23 -38 -23h-210q-28 0 -28 21q0 17 28 29q25 10 40 34q17 28 32 104l78 384q8 38 8 57t-12 28.5t-23.5 16t-11.5 17.5q0 23 36 23h192q29 0 29 -21q0 -7 -4 -12t-8.5 -7.5t-13.5 -6.5 t-13 -6q-18 -10 -26.5 -29t-20.5 -74l-26 -129q-1 -5 -1 -7q0 -10 13 -10h288q11 0 12 10l30 150q8 38 8 57q0 15 -7 24.5t-16 13t-16 9.5t-7 15q0 23 36 23h191z" />
<glyph unicode="I" horiz-adv-x="344" d="M197 102q0 -22 8 -35t18 -17t18 -10.5t8 -16.5q0 -23 -38 -23h-210q-27 0 -27 21q0 11 6.5 16.5t20.5 12.5q26 12 40 34q16 25 32 104l78 384q8 38 8 56q0 25 -17 35q-3 2 -10 5.5t-10 5.5t-6 6.5t-3 10.5q0 23 35 23h192q30 0 30 -21q0 -9 -5 -14t-18.5 -11t-15.5 -7 q-19 -10 -27.5 -29.5t-19.5 -73.5l-75 -370q-12 -60 -12 -86z" />
<glyph unicode="J" horiz-adv-x="402" d="M-163 -169q-32 25 -32 79q0 55 40 55q16 0 35.5 -20.5t43.5 -41t52 -20.5q37 0 64 35q37 47 78 252l72 355q15 72 15 100q0 16 -7 26.5t-16 14t-16 10t-7 15.5q0 23 36 23h193q29 0 29 -23q0 -14 -26 -24q-25 -10 -38 -34q-9 -17 -28 -108q-5 -25 -23 -122t-34.5 -176.5 t-29.5 -125.5q-28 -99 -70.5 -160t-101.5 -96q-65 -38 -140 -38q-58 0 -89 24z" />
<glyph unicode="K" horiz-adv-x="741" d="M762 714q31 0 31 -22q0 -10 -6.5 -14.5t-24 -10.5t-26.5 -10q-53 -24 -187 -131l-150 -121q-6 -5 -6 -7q0 -4 4 -4q1 0 7.5 3t14.5 3t15 -3.5t15.5 -14.5t15 -20.5t18 -32t19 -38.5t22.5 -50q49 -107 71 -140t48 -42q1 0 6 -2t6.5 -2.5t5.5 -2.5t6 -3.5t4 -4t3 -5.5t1 -7 q0 -17 -28 -25q-17 -5 -51 -12q-30 -6 -47 -6q-24 0 -43 14q-35 27 -105 185q-17 39 -25.5 56.5t-21 40.5t-22.5 32t-20 9q-6 0 -11 -3q-32 -21 -69 -54q-8 -7 -11 -18l-13 -63q-12 -60 -12 -85q0 -22 8.5 -35.5t18 -17.5t18 -10.5t8.5 -16.5q0 -23 -38 -23h-209 q-28 0 -28 21q0 11 6.5 16.5t20.5 12.5q29 14 41 34q17 30 32 104l75 370q11 57 11 70q0 24 -17 35q-3 2 -10 6l-10.5 6t-6.5 6.5t-3 9.5q0 23 36 23h191q29 0 29 -20q0 -7 -4 -12.5t-8.5 -8t-13.5 -6.5t-13 -6q-18 -10 -26.5 -29t-20.5 -74l-36 -177q-1 -5 -1 -7q0 -5 4 -5 q3 0 9 5q125 101 215 177q49 42 69 63.5t20 38.5q0 11 -11.5 20.5t-11.5 18.5q0 22 37 22h185z" />
<glyph unicode="L" horiz-adv-x="572" d="M507 212q13 0 22 -8.5t9 -22.5q0 -13 -12 -45q-6 -16 -13 -41t-12.5 -40t-14.5 -31t-24.5 -23.5t-37.5 -7.5q-7 0 -59 3.5t-106 3.5h-255q-30 0 -30 22q0 4 1.5 8t3 6t6 5l6 4t7 3.5t6.5 2.5q25 12 38 33q17 30 32 103l74 370q12 62 12 73q0 22 -23.5 35.5t-23.5 25.5 q0 23 36 23h190q29 0 29 -22q0 -6 -4 -11t-8.5 -7.5t-13 -6.5t-12.5 -6q-19 -10 -27.5 -30t-19.5 -74l-74 -364q-15 -75 -15 -88q0 -24 18 -31t49 -7q51 0 89.5 15t59.5 36t36 42.5t30 36.5t31 15z" />
<glyph unicode="M" horiz-adv-x="916" d="M768 102q0 -21 8 -34.5t18 -17t18 -10t8 -16.5q0 -24 -38 -24h-206q-31 0 -31 22q0 16 30 29q25 11 38 33q17 29 38 133l73 363l2 10q0 4 -4 4q-2 0 -5 -4l-290 -460q-9 -14 -24 -14h-34q-10 0 -14 3t-6 13l-103 458q-1 4 -4 4q-4 0 -5 -5q-16 -70 -49.5 -245t-33.5 -214 q0 -33 9.5 -48.5t30.5 -26.5q3 -1 8 -4t7 -4t5.5 -3.5t5 -5t3 -6t1.5 -7.5q0 -25 -38 -25h-174q-34 0 -34 23q0 10 7 16t19.5 12.5t20.5 13.5q22 19 37 56.5t32 119.5q42 191 79 375q2 12 2 17q0 18 -25.5 31.5t-25.5 26.5q0 23 38 23h161q17 0 24 -4t10 -16l90 -386 q2 -8 5 -8q2 0 6 6l247 388q13 20 37 20h168q31 0 31 -21q0 -5 -1.5 -9.5t-6.5 -7.5t-8 -5t-10.5 -5t-10.5 -4q-20 -9 -29 -30t-19 -68l-76 -377q-12 -60 -12 -85z" />
<glyph unicode="N" horiz-adv-x="803" d="M798 714q34 0 34 -22q0 -6 -2.5 -11t-7.5 -8.5t-9 -5.5t-12 -5.5t-10 -4.5q-27 -13 -42 -35.5t-28 -75.5q-14 -58 -113 -538q-2 -15 -20 -15h-56q-14 0 -21 13l-259 517q-2 4 -5 4t-4 -4q-69 -314 -69 -393q0 -53 39 -75l10 -5t9.5 -5t7.5 -5t5.5 -7.5t1.5 -9.5 q0 -23 -37 -23h-196q-34 0 -34 24q0 3 1 5.5t2 4.5t3 4t4 3.5t6 3.5t6.5 3t8 3t8.5 4q30 15 47.5 38t30.5 77q3 12 95 445q1 5 1 8q0 14 -31 32q-5 3 -13.5 7.5t-12.5 6.5t-8.5 5.5t-6 7.5t-1.5 9q0 23 33 23h124q29 0 39 -21l251 -501q2 -4 5 -4t5 5q54 270 63 324 q9 53 9 77q0 27 -10 43t-22.5 20.5t-22.5 12.5t-10 20q0 24 39 24h175z" />
<glyph unicode="O" horiz-adv-x="810" d="M625 431q0 104 -44.5 165t-124.5 61q-114 0 -193 -110.5t-79 -263.5q0 -104 44.5 -164t123.5 -60q116 0 194.5 110.5t78.5 261.5zM479 726q137 0 216 -81t79 -211q0 -183 -131.5 -314t-312.5 -131q-138 0 -216 80.5t-78 210.5q0 185 131 315.5t312 130.5z" />
<glyph unicode="P" horiz-adv-x="637" d="M472 427q34 44 34 110q0 33 -12 55q-30 55 -136 55h-40q-17 -1 -20 -17l-51 -252q-1 -6 -1 -8q0 -10 11 -10h40q125 0 175 67zM651 544q0 -91 -67 -160q-89 -92 -278 -92h-64q-13 0 -15 -13l-18 -90q-13 -64 -13 -87q0 -20 8.5 -33t18 -17.5t18 -11.5t8.5 -17 q0 -23 -37 -23h-209q-29 0 -29 21q0 4 1.5 7.5t3 6t5 5t5.5 3.5l7 3.5t6 3.5q25 12 39 33q15 23 32 106l75 369q11 50 11 70q0 15 -7 24.5t-16 13t-16 9.5t-7 15q0 24 35 24h204q110 0 173 -13t97 -60q29 -39 29 -97z" />
<glyph unicode="Q" horiz-adv-x="809" d="M351 59q64 0 117.5 35t86.5 90.5t51 120t18 126.5q0 104 -44 165t-125 61q-65 0 -118.5 -35t-86 -90.5t-50 -120t-17.5 -128.5q0 -104 44 -164t124 -60zM400 -5q-3 -1 -3 -3t4 -3q20 -6 69 -25t85 -29t66 -10q23 0 43.5 9t27.5 9q9 0 16.5 -6.5t7.5 -16.5q0 -7 -3.5 -14 t-12 -19.5t-13.5 -20.5q-16 -27 -32 -39.5t-43 -12.5q-45 0 -175 58t-179 58q-26 0 -44.5 -9.5t-25.5 -9.5t-12.5 5.5t-5.5 12.5q0 13 22 31q30 24 51 33q3 1 3 3t-4 3q-99 24 -153 99t-54 182q0 181 128.5 313.5t314.5 132.5q138 0 216.5 -81t78.5 -211q0 -161 -105 -286 t-268 -153z" />
<glyph unicode="R" horiz-adv-x="691" d="M266 399h53q79 0 130 40t51 117q0 91 -128 91h-51q-18 0 -21 -17l-44 -213q-1 -5 -1 -7q0 -11 11 -11zM617 51q1 -1 7 -5.5t8.5 -6.5t5 -6.5t2.5 -9.5q0 -23 -33 -23h-75q-47 0 -64 26q-6 9 -12.5 25.5t-10.5 32.5t-12.5 49.5t-14.5 56.5q-20 76 -44.5 106.5t-70.5 34.5 q-12 1 -28 1t-25 -1q-11 -1 -14 -15l-26 -127q-12 -61 -12 -86q0 -22 8 -35.5t18 -17.5t18 -10.5t8 -16.5q0 -23 -36 -23h-211q-29 0 -29 21q0 4 1 7t3 5.5t4 4.5t5.5 4t5.5 3l6 3t5 2q25 10 38 33q18 32 33 106l77 384q9 43 9 55q0 15 -7.5 24.5t-16 13t-16 10t-7.5 15.5 q0 23 35 23h244q52 0 84 -2t72.5 -13.5t62.5 -33.5q36 -36 36 -93q0 -86 -61 -138.5t-156 -61.5q-7 -1 -7 -6t5 -6q49 -9 75 -40.5t49 -115.5q23 -83 34.5 -111.5t29.5 -41.5z" />
<glyph unicode="S" horiz-adv-x="591" d="M550 679q23 -22 23 -60q0 -106 -43 -106q-11 0 -19 5.5t-11.5 12t-11.5 22t-13 24.5q-45 77 -124 77q-53 0 -87.5 -31t-34.5 -74q0 -38 30.5 -66t74 -47t87 -41t74 -62.5t30.5 -98.5q0 -92 -82 -165q-91 -80 -236 -80q-36 0 -71.5 6t-70 19t-56 38.5t-21.5 59.5 q0 11 3 32.5t3 32.5q2 54 38 54q17 0 27 -15.5t24 -46.5t34 -53q48 -52 125 -52q61 0 108.5 32.5t47.5 90.5q0 28 -16.5 50.5t-42.5 37.5t-57 29.5t-62.5 31.5t-57.5 37t-42.5 52.5t-16.5 73.5q0 95 91 165q80 62 196 62q53 0 96.5 -14t63.5 -33z" />
<glyph unicode="T" horiz-adv-x="617" d="M643 721q20 0 29 -4.5t9 -21.5q0 -6 -1 -13q-2 -13 -11 -63t-12 -70q-6 -36 -36 -36q-13 0 -21 7.5t-14 27.5q-1 2 -5 15t-6 18t-7 15.5t-11.5 17.5t-14.5 13q-28 20 -84 20q-20 0 -25 -21l-89 -438q-11 -55 -11 -86q0 -22 8 -35t18 -17t18 -10.5t8 -17.5q0 -22 -38 -22 h-210q-28 0 -28 21q0 17 27 29q26 10 41 34q17 30 32 104l88 434q2 10 2 12q0 13 -18 13q-55 0 -90 -20q-36 -19 -74 -78q-22 -37 -43 -37q-31 0 -31 29q0 8 3 20q6 24 16 67t15 61q5 19 16 25.5t35 6.5q13 0 75 -3.5t109 -3.5h143q49 0 112.5 3.5t75.5 3.5z" />
<glyph unicode="U" horiz-adv-x="748" d="M771 714q35 0 35 -23q0 -5 -2.5 -9t-7.5 -8t-8.5 -6t-12 -5.5t-11.5 -5.5q-26 -13 -40.5 -35t-28.5 -76q-15 -59 -62 -287q-17 -74 -40 -115q-40 -72 -116 -113.5t-173 -41.5q-65 0 -117.5 17t-89.5 61t-37 111q0 40 12 96l57 284q10 47 10 67q0 28 -17 38q-3 2 -8 4.5 t-8 4.5t-6.5 4.5t-5 6t-1.5 7.5q0 24 35 24h193q29 0 29 -21q0 -7 -4 -12t-8.5 -7.5t-13.5 -6.5t-13 -6q-18 -9 -26.5 -29t-20.5 -74q-54 -270 -55 -276q-9 -44 -9 -76q0 -61 39 -94t107 -33q176 0 218 191q36 162 52 263q6 36 6 61q0 27 -10 43.5t-22.5 21t-22.5 12 t-10 18.5q0 25 39 25h175z" />
<glyph unicode="V" horiz-adv-x="704" d="M766 714q29 0 29 -20q0 -12 -26 -27q-27 -15 -55 -48q-27 -33 -64 -90l-338 -523q-10 -13 -21 -13h-51q-14 0 -17 13l-102 565q-13 62 -29 78q-7 7 -18.5 13.5t-18 12.5t-6.5 15q0 24 37 24h193q29 0 29 -20q0 -9 -8 -16t-18 -10.5t-18 -14.5t-8 -28q0 -12 5 -45l73 -408 q1 -7 4 -7q2 0 7 7q95 142 209 334q57 97 57 129q0 20 -19.5 32.5t-19.5 24.5q0 22 34 22h160z" />
<glyph unicode="W" horiz-adv-x="1096" d="M1146 714q31 0 31 -21q0 -14 -26 -28q-33 -18 -59 -48q-23 -25 -62 -90q-111 -188 -299 -521q-8 -13 -21 -13h-48q-13 0 -16 13l-67 510q-2 10 -5 10q-2 0 -5 -5l-292 -515q-8 -13 -21 -13h-51q-16 0 -17 13l-63 565q-7 59 -23 78q-6 6 -24 17t-18 24q0 24 39 24h187 q30 0 30 -22q0 -9 -6 -14.5t-17.5 -11t-16.5 -9.5q-18 -14 -18 -52q0 -16 2 -37l35 -370q1 -13 4 -13q1 0 6 8l294 517q6 11 19 11h57q14 0 15 -10l62 -514q2 -11 4 -11t5 5q25 42 175 318q52 96 52 122q0 20 -22.5 34t-22.5 26q0 23 35 23h168z" />
<glyph unicode="X" horiz-adv-x="725" d="M616 49q2 -1 7 -4t7 -5t5.5 -4.5t4.5 -6t1 -7.5q0 -22 -34 -22h-193q-27 0 -27 18q0 12 20.5 24.5t20.5 29.5q0 18 -20 58q-16 35 -78 156q-6 12 -10 12q-2 0 -6 -4q-93 -103 -147 -182q-15 -23 -15 -40q0 -16 16.5 -28t16.5 -23q0 -21 -33 -21h-171q-29 0 -29 20 q0 8 4.5 13.5t19 14t17.5 10.5q43 28 98 85q91 95 189 214q7 8 7 14q0 3 -7 17l-98 196q-20 39 -30 53.5t-28 26.5q-3 2 -9 5.5t-9 5.5t-5.5 6.5t-2.5 9.5q0 23 34 23h193q27 0 27 -19q0 -12 -21 -24t-21 -28q0 -15 21 -59l71 -143q5 -10 8 -10t10 8q114 131 137 173 q10 17 10 31t-17 26t-17 22q0 23 34 23h171q28 0 28 -20q0 -5 -2 -9t-6.5 -7.5t-8.5 -6.5t-12 -7.5t-12 -7.5q-44 -28 -97 -85q-71 -75 -177 -200q-7 -8 -7 -14q0 -3 4 -11l97 -196q26 -52 38 -69.5t33 -31.5z" />
<glyph unicode="Y" horiz-adv-x="693" d="M734 714q30 0 30 -20q0 -13 -23 -26q-34 -19 -59 -43q-20 -18 -79 -89q-13 -15 -51.5 -61.5t-88 -106t-68.5 -82.5q-4 -5 -5 -12l-18 -86q-12 -60 -12 -85q0 -22 8 -35t18 -17t18 -11t8 -17q0 -23 -37 -23h-210q-28 0 -28 22q0 3 0.5 5.5t1.5 4.5t3 4t3.5 3l4.5 3l4.5 3 t5.5 2.5t5 2.5q28 13 40 34q17 30 32 104l10 51q2 10 2 12q0 3 -4 15l-106 306q-21 62 -34 77q-7 10 -24.5 20t-17.5 23q0 22 38 22h188q28 0 28 -20q0 -9 -8 -15.5t-18 -10.5t-18 -14t-8 -24q0 -16 9 -42l80 -228q3 -9 6 -9q2 0 9 8q44 52 136 169q64 85 64 109 q0 18 -18.5 31t-18.5 24q0 22 35 22h167z" />
<glyph unicode="Z" horiz-adv-x="651" d="M560 211q12 0 21.5 -7t9.5 -20t-14 -45q-6 -14 -15 -39t-15.5 -41t-17 -33t-25 -25.5t-34.5 -8.5q-9 0 -63.5 4t-113.5 4h-294q-23 0 -23 20q0 13 6 33q4 13 16 27l478 554q7 9 7 10q0 4 -9 4h-30q-96 0 -136.5 -3.5t-67.5 -17.5q-36 -19 -72 -81q-20 -34 -43 -34 q-31 0 -31 29q0 5 12 58q0 1 8 36.5t13 53.5q5 17 15.5 24.5t35.5 7.5q8 0 71 -3.5t122 -3.5h284q19 0 19 -17q0 -8 -4 -28q-3 -15 -21 -36l-477 -553q-5 -6 -5 -8q0 -4 6 -4h54q120 0 162 14q34 11 62.5 33.5t44 43t32.5 36.5t32 16z" />
<glyph unicode="[" horiz-adv-x="497" d="M491 683h-143q-17 0 -20 -17l-149 -736q-2 -10 -2 -13q0 -9 13 -9h144q15 0 15 -13q0 -3 -1 -9l-5 -27q-3 -15 -21 -15h-259q-15 0 -15 14q0 2 1 8l175 865q3 16 20 16h258q17 0 17 -13q0 -2 -1 -8l-6 -28q-3 -15 -21 -15z" />
<glyph unicode="\" horiz-adv-x="515" d="M11 747h69l424 -843h-69z" />
<glyph unicode="]" horiz-adv-x="478" d="M-7 -92h143q17 0 20 17l149 736q2 10 2 13q0 9 -13 9h-144q-15 0 -15 13q0 3 1 9l5 27q3 15 21 15h259q15 0 15 -14q0 -2 -1 -8l-175 -865q-3 -16 -20 -16h-258q-17 0 -17 13q0 2 1 8l6 28q3 15 21 15z" />
<glyph unicode="^" horiz-adv-x="489" d="M150 464h-88q-10 0 -10 6q0 3 6 10l187 234q11 12 28 12h78q19 0 23 -12l92 -233q2 -5 2 -8q0 -9 -12 -9h-72q-18 0 -22 12l-58 148q-2 3 -4 3q-3 0 -9 -8l-114 -143q-11 -12 -27 -12z" />
<glyph unicode="_" horiz-adv-x="630" d="M-12 -151l5 27q2 10 12 10h629q9 0 9 -7q0 -2 -1 -8l-6 -27q-1 -10 -11 -10h-630q-8 0 -8 8q0 2 1 7z" />
<glyph unicode="`" horiz-adv-x="500" d="M246 621l-125 88q-6 5 -6 9q0 8 13 8h117q26 0 37 -15l71 -85q5 -6 5 -9q0 -7 -9 -7h-64q-23 0 -39 11z" />
<glyph unicode="a" horiz-adv-x="614" d="M253 446q-41 -44 -68.5 -136.5t-27.5 -150.5q0 -73 42 -73q51 0 130 124q36 55 57 110t21 83q0 30 -33 49.5t-62 19.5q-33 0 -59 -26zM534 533q21 0 21 -22q0 -4 -42 -200q-39 -172 -39 -209q0 -28 18 -28q11 0 30 14.5t28 14.5q17 0 17 -18q0 -10 -9 -22 q-24 -33 -59.5 -53.5t-70.5 -20.5q-77 0 -77 88q0 35 8 75l1 6q0 2 -2 2q-1 0 -5 -6q-39 -68 -96 -116.5t-120 -48.5q-54 0 -83.5 39.5t-29.5 109.5q0 59 19.5 126.5t53.5 123.5q46 73 106 109t120 36q40 0 89.5 -16.5t55.5 -16.5q19 0 37 16.5t29 16.5z" />
<glyph unicode="b" horiz-adv-x="595" d="M330 76q38 38 67 130t29 158q0 71 -42 71q-52 0 -129 -122q-36 -56 -57.5 -110.5t-21.5 -82.5q0 -31 33.5 -50.5t61.5 -19.5q33 0 59 26zM446 533q58 0 85.5 -41t27.5 -108q0 -59 -19.5 -127t-53.5 -123q-45 -73 -105.5 -109t-119.5 -36q-42 0 -90 16.5t-55 16.5 q-18 0 -36 -16.5t-29 -16.5q-22 0 -22 22q0 4 2 15l109 539q10 50 10 60q0 23 -25 32q-3 1 -10 3.5t-11.5 4.5t-10 5t-8 7.5t-2.5 9.5q0 12 9 18t31 9q66 8 131 30q9 3 16 3q25 0 25 -22q0 -3 -2 -13l-69 -341l-1 -6q0 -2 3 -2q1 0 5 7q39 66 96 114.5t119 48.5z" />
<glyph unicode="c" horiz-adv-x="497" d="M458 387q-13 0 -24 7.5t-26.5 22.5t-27.5 24q-32 24 -67 24q-39 0 -71.5 -27.5t-51.5 -68t-29 -82t-10 -75.5q0 -60 28.5 -99.5t83.5 -39.5q33 0 63.5 15.5t53 31.5t35.5 16q9 0 16 -6.5t7 -14.5q0 -24 -41 -58q-81 -68 -180 -68q-89 0 -141.5 57t-52.5 145 q0 134 100 238t230 104q65 0 107 -22q36 -19 36 -61q0 -63 -38 -63z" />
<glyph unicode="d" horiz-adv-x="615" d="M329 209q36 56 57 110.5t21 84.5q0 25 -21 40q-37 28 -74 28q-33 0 -59 -26q-38 -40 -67 -132t-29 -155q0 -73 43 -73q51 0 129 123zM596 713l-101 -500q-20 -98 -20 -113q0 -25 18 -25q11 0 29.5 14t28.5 14q8 0 13 -5.5t5 -13.5q0 -20 -36 -53q-50 -42 -102 -42 q-41 0 -61 25.5t-20 69.5q0 24 7 62l1 6q0 2 -3 2q-2 0 -6 -6q-38 -63 -94 -111t-118 -48q-54 0 -83.5 40t-29.5 109q0 59 19.5 126.5t53.5 123.5q46 73 106 109t120 36q24 0 48 -5.5t39 -10.5t17 -5q6 0 7 7l10 49q9 47 9 56q0 19 -16 29q-5 3 -19.5 7.5t-23 10.5t-8.5 16 q0 22 39 27q58 7 125 28q15 5 23 5q24 0 24 -24q0 -5 -1 -10z" />
<glyph unicode="e" horiz-adv-x="520" d="M181 302q111 0 165 40q42 30 42 71q0 25 -17 40t-44 15q-50 0 -92 -46.5t-61 -102.5q-2 -6 -2 -10q0 -7 9 -7zM214 236q-32 0 -49 1q-7 0 -8 -9q-2 -14 -2 -33q0 -54 26.5 -89.5t77.5 -35.5q28 0 55.5 10.5t44.5 23t35 23t31 10.5q9 0 16 -6.5t7 -16.5q0 -23 -41 -60 q-75 -65 -182 -65q-90 0 -146 55.5t-56 146.5q0 79 43 158t118.5 131.5t159.5 52.5q72 0 115 -36.5t43 -92.5q0 -40 -27.5 -76t-82.5 -60q-73 -32 -178 -32z" />
<glyph unicode="f" horiz-adv-x="419" d="M519 734q53 -24 53 -80q0 -52 -36 -52q-5 0 -9.5 1t-9 3.5t-8 4.5t-9 6.5t-8 7.5t-9.5 9.5t-10 9.5q-36 34 -72 34q-26 0 -46.5 -14.5t-33.5 -43t-19.5 -49t-14.5 -53.5q-1 -4 -1 -6q0 -7 9 -7q39 0 60 1q10 0 32 3t33 3q32 0 32 -15q0 -7 -9 -27q-8 -20 -17.5 -27.5 t-31.5 -7.5q-12 0 -63 3q-17 1 -47 1q-12 0 -13 -9q-12 -79 -16 -112q-25 -183 -48.5 -270.5t-77.5 -149.5q-40 -46 -91 -68.5t-100 -22.5q-67 0 -67 29q0 3 3 17l5 25q3 13 14 13q5 0 24 -8t40 -8q26 0 46 11q49 25 70 104t48 278q1 7 1 10q13 102 22 147q1 4 1 6 q0 8 -10 8h-58q-11 0 -11 11q0 2 1 7l7 35q3 13 16 13h64q10 0 13 8q17 57 43 96q43 67 109.5 102.5t130.5 35.5q40 0 69 -13z" />
<glyph unicode="g" horiz-adv-x="565" d="M259 218q53 0 81 51.5t28 110.5q0 44 -18 69t-51 25q-54 0 -82 -51t-28 -112q0 -45 19 -69t51 -24zM547 534q39 0 39 -37q0 -29 -21 -47.5t-58 -18.5q-12 0 -19 1q10 -25 10 -53q0 -87 -67.5 -149t-164.5 -71q-91 -10 -91 -38q0 -23 56 -30q12 -1 69.5 -5.5t86.5 -10.5 q45 -9 68.5 -35.5t23.5 -60.5q0 -75 -80 -123.5t-197 -48.5q-64 0 -118 12.5t-90 41t-36 68.5q0 53 56 83q25 14 52 14q29 0 29 -20q0 -10 -15.5 -29t-15.5 -37q0 -34 42.5 -53t106.5 -19q66 0 111.5 19t45.5 54q0 34 -69 40q-13 1 -39 2.5t-41.5 2.5t-36.5 4t-37 7 q-39 9 -59 30.5t-20 49.5q0 61 78 92q6 3 6 5t-5 4q-40 17 -64 51.5t-24 81.5q0 91 77.5 156.5t175.5 65.5q46 0 79 -12t51.5 -23.5t29.5 -11.5q9 0 16.5 7.5t12 16.5t16.5 16.5t30 7.5z" />
<glyph unicode="h" horiz-adv-x="643" d="M582 102q16 0 16 -18t-37 -52q-47 -43 -101 -43q-39 0 -62 23t-23 65q0 26 26 143t26 156q0 57 -43 57q-30 0 -66.5 -35t-70.5 -99q-55 -105 -79 -216q-2 -12 -7 -34t-7 -31q-3 -15 -22 -18l-75 -10q-9 -1 -11 -1q-17 0 -17 15q0 3 1 8l113 552q9 45 9 59 q0 16 -10.5 25.5t-23 11.5t-23 8.5t-10.5 18.5q0 21 41 27q66 9 130 30q9 3 16 3q25 0 25 -22q0 -3 -1 -8l-67 -335q-1 -5 -1 -7q0 -3 2 -3t7 8q94 153 208 153q53 0 82.5 -31.5t29.5 -85.5q0 -41 -26 -167.5t-26 -150.5q0 -25 18 -25q11 0 30.5 14.5t28.5 14.5z" />
<glyph unicode="i" horiz-adv-x="328" d="M318 670q0 -20 -37 -51t-58 -31q-20 0 -47.5 33t-27.5 53q0 19 37.5 50.5t57.5 31.5t47.5 -32.5t27.5 -53.5zM259 102q7 0 12 -5t5 -12q0 -23 -36 -53q-50 -43 -103 -43q-38 0 -59 24t-21 66q0 19 6 52l44 219q9 41 9 58q0 25 -21 33q-4 2 -12 4.5t-13 4.5t-10.5 5 t-8 7.5t-2.5 10.5q0 23 41 27q68 9 130 30q9 3 17 3q25 0 25 -22q0 -3 -1 -8l-58 -290q-20 -98 -20 -115q0 -25 18 -25q11 0 30 14.5t28 14.5z" />
<glyph unicode="j" horiz-adv-x="368" d="M368 668q0 -19 -36.5 -50t-57.5 -31q-19 0 -46.5 32.5t-27.5 53.5q0 19 37 50.5t57 31.5q19 0 46.5 -32.5t27.5 -54.5zM141 501q66 8 127 28q11 4 19 4q25 0 25 -22q0 -2 -1 -8l-49 -259q-3 -18 -13.5 -73.5t-15 -74.5t-14 -56t-20.5 -61t-25 -47q-41 -63 -102 -93.5 t-124 -30.5q-35 0 -68 10q-63 20 -63 84q0 52 35 52q14 0 25 -8t32 -28l6 -6q33 -33 69 -33q20 0 35.5 7.5t27.5 25t20.5 33.5t16.5 45.5t11.5 47.5t10.5 52l49 248q11 60 11 71q0 24 -19 32q-5 2 -16 6t-16 6.5t-10 7.5t-5 11q0 13 9 19.5t32 9.5z" />
<glyph unicode="k" horiz-adv-x="584" d="M521 533q64 0 64 -72q0 -60 -40 -60q-15 0 -34 12.5t-36 12.5q-10 0 -19 -3q-63 -19 -156 -135q-3 -3 -3 -6q0 -5 5 -5q2 0 6 2q21 12 31 12q13 0 23 -9t25 -34q12 -20 37 -64.5t38 -66.5q19 -32 30 -42.5t25 -13.5q24 -5 24 -21q0 -13 -14 -22q-13 -9 -48 -21 q-33 -11 -50 -11q-37 0 -68 52q-14 23 -36.5 66t-33.5 63q-26 46 -38 46q-9 0 -19 -16q-62 -97 -78 -179q-2 -15 -22 -18l-77 -10q-8 -1 -10 -1q-17 0 -17 15q0 2 1 7l112 554q9 47 9 59q0 23 -22 32q-4 2 -14 5.5t-15 6t-10 7.5t-5 12q0 13 9 19t31 9q66 8 125 27 q15 5 23 5q24 0 24 -22q0 -2 -1 -8l-90 -448q-2 -10 -2 -12q0 -3 3 -3q2 0 6 6q35 57 85 116t113 108t109 49z" />
<glyph unicode="l" horiz-adv-x="306" d="M241 102q7 0 12 -5t5 -12q0 -20 -36 -53q-47 -43 -103 -43q-38 0 -59 24t-21 66q0 21 6 52l88 434q9 41 9 58q0 25 -21 33q-4 2 -12 4.5t-13 4.5t-10.5 5t-8 7.5t-2.5 10.5q0 23 41 27q68 9 130 30q9 3 17 3q25 0 25 -22q0 -3 -1 -8l-102 -505q-20 -98 -20 -115 q0 -25 18 -25q12 0 30.5 14.5t27.5 14.5z" />
<glyph unicode="m" horiz-adv-x="944" d="M883 102q16 0 16 -18q0 -21 -36 -52q-48 -43 -104 -43q-34 0 -57.5 20t-23.5 66q0 26 6 54l36 167q15 69 15 93q0 44 -36 44q-58 0 -129 -132q-51 -98 -78 -218l-14 -65q-4 -15 -21 -18l-76 -10q-9 -1 -11 -1q-16 0 -16 14q0 3 1 9l61 297q11 52 11 79q0 45 -36 45 q-59 0 -129 -132q-55 -103 -79 -218l-14 -65q-3 -15 -21 -18l-73 -10q-9 -1 -13 -1q-17 0 -17 14q0 5 3 17l67 331q10 52 10 61q0 15 -10.5 23.5t-23 11t-23 9t-10.5 17.5q0 21 41 27q68 10 129 30q9 3 17 3q24 0 24 -22q0 -2 -1 -8l-24 -121l-1 -6q0 -3 3 -3q2 0 5 5 q92 155 197 155q54 0 83 -36q23 -27 23 -81q0 -13 -2 -39q0 -5 3 -5q2 0 6 6q92 155 195 155q50 0 78.5 -29.5t28.5 -77.5q0 -38 -27 -169q-29 -140 -29 -160q0 -24 18 -24q11 0 30.5 14.5t27.5 14.5z" />
<glyph unicode="n" horiz-adv-x="659" d="M598 102q16 0 16 -18t-37 -52q-47 -43 -101 -43q-39 0 -62 23t-23 65q0 26 26 143t26 156q0 57 -43 57q-30 0 -66.5 -35t-70.5 -99q-55 -105 -79 -216q-2 -12 -7 -34t-7 -31q-3 -15 -22 -18l-75 -10q-9 -1 -11 -1q-17 0 -17 15q0 3 1 8l69 338q9 45 9 59q0 16 -10.5 25.5 t-23 11.5t-23 8.5t-10.5 18.5q0 21 41 27q68 9 131 30q9 3 16 3q25 0 25 -22q0 -3 -1 -8l-24 -121q-1 -5 -1 -7q0 -3 2 -3t7 8q94 153 208 153q53 0 82.5 -31.5t29.5 -85.5q0 -41 -26 -167.5t-26 -150.5q0 -25 18 -25q11 0 30.5 14.5t28.5 14.5z" />
<glyph unicode="o" horiz-adv-x="577" d="M256 53q69 0 114 77.5t45 186.5q0 75 -27 114t-72 39q-69 0 -114 -73t-45 -184q0 -74 26.5 -117t72.5 -43zM339 533q100 0 154.5 -58.5t54.5 -151.5q0 -130 -90.5 -232t-224.5 -102q-97 0 -153.5 58.5t-56.5 154.5q0 132 92.5 231.5t223.5 99.5z" />
<glyph unicode="p" horiz-adv-x="612" d="M347 76q39 41 67.5 133t28.5 155q0 72 -43 72q-49 0 -129 -123q-35 -55 -56.5 -110t-21.5 -85t32.5 -49t62.5 -19q33 0 59 26zM463 533q58 0 85.5 -42t27.5 -103q0 -58 -20.5 -127t-56.5 -127q-46 -77 -105 -111t-116 -34q-25 0 -49 5.5t-39.5 11t-17.5 5.5q-4 0 -5 -6 q-15 -70 -15 -97q0 -20 8 -33t17.5 -17t17.5 -10.5t8 -15.5q0 -25 -39 -25h-186q-33 0 -33 22q0 10 7.5 16t21 12t21.5 14q17 17 26 40.5t21 82.5l72 357q9 41 9 56q0 25 -19 34q-5 2 -15.5 6t-16 6t-10.5 7.5t-5 12.5q0 13 9.5 19t31.5 9q64 7 129 29q9 3 17 3q24 0 24 -22 q0 -2 -1 -8l-26 -132l-1 -6q0 -3 2 -3t6 6q36 65 93.5 115t121.5 50z" />
<glyph unicode="q" horiz-adv-x="590" d="M328 209q36 56 57.5 110t21.5 84q0 31 -33 50t-62 19q-33 0 -59 -26q-39 -39 -67.5 -132t-28.5 -156q0 -72 43 -72q51 0 128 123zM532 533q22 0 22 -21q0 -6 -2 -16l-103 -506q-11 -58 -11 -84q0 -20 8 -32.5t17 -16.5t17 -10.5t8 -16.5q0 -23 -39 -23h-186q-33 0 -33 20 q0 15 24 27t34 25q20 26 36 101l35 171q1 5 1 7l-2 2q-1 0 -6 -8q-50 -83 -113 -127q-52 -36 -102 -36q-49 0 -81 37t-32 112q0 59 19 126.5t54 123.5q45 73 105.5 109t119.5 36q42 0 90 -16.5t55 -16.5q17 0 35 16.5t30 16.5z" />
<glyph unicode="r" horiz-adv-x="465" d="M443 533q26 0 43.5 -16.5t17.5 -53.5q0 -63 -40 -63q-14 0 -31 12t-34 12q-63 0 -134 -126q-53 -95 -81 -219l-13 -61q-4 -15 -22 -18l-76 -10q-8 -1 -10 -1q-17 0 -17 15q0 3 1 8l69 339q10 54 10 62q0 14 -10.5 22.5t-23 11t-23 9t-10.5 17.5q0 22 41 28q65 7 129 29 q9 3 17 3q24 0 24 -22q0 -3 -1 -8l-24 -120q-1 -5 -1 -7q0 -3 3 -3t7 7q44 71 96 112t93 41z" />
<glyph unicode="s" horiz-adv-x="485" d="M7 114q0 70 39 70q4 0 7.5 -1t7.5 -4t6.5 -5.5t6.5 -8t6.5 -9.5t8 -12.5t8.5 -13.5q47 -73 115 -73q35 0 64 19.5t29 54.5q0 26 -24 44t-58.5 29.5t-69.5 26t-59 43.5t-24 71q0 45 29.5 88.5t83.5 71.5q56 28 124 28q82 0 120 -32q24 -20 24 -58q0 -77 -41 -77 q-21 0 -37 30q-13 23 -21.5 34.5t-30 25.5t-48.5 14q-32 0 -58.5 -20t-26.5 -52q0 -25 24.5 -42.5t59.5 -29.5t70 -26.5t59.5 -44.5t24.5 -74q0 -42 -25 -83.5t-73 -70.5q-65 -38 -146 -38q-49 0 -91 13.5t-61 32.5q-23 23 -23 79z" />
<glyph unicode="t" horiz-adv-x="406" d="M343 113q18 0 18 -16q0 -13 -17 -34q-27 -32 -68.5 -53t-88.5 -21q-57 0 -91.5 30.5t-34.5 89.5q0 35 8 76t27.5 117t29.5 122q1 5 1 7q0 7 -9 7h-60q-12 0 -12 12q0 2 1 7l7 33q3 11 17 14q65 12 93 44q17 19 42 81q5 13 17 13h53q12 0 12 -11q0 -1 -1 -7l-19 -94 q-2 -12 -2 -15q0 -11 21 -11q32 0 53 1q8 0 30.5 3t33.5 3q26 0 26 -15q0 -4 -9 -27q-7 -19 -17 -27t-31 -8q-8 0 -18.5 0.5t-23 1.5t-19.5 1q-18 1 -53 1q-11 0 -14 -11q-45 -190 -45 -279q0 -72 53 -72q24 0 52 18.5t38 18.5z" />
<glyph unicode="u" horiz-adv-x="658" d="M590 102q7 0 12 -5t5 -12q0 -20 -37 -52q-50 -44 -102 -44q-79 0 -79 96q0 22 6 54q1 5 1 7q0 3 -2 3t-4 -3q-95 -157 -210 -157q-53 0 -82.5 32t-29.5 86q0 40 26 162.5t26 142.5q0 14 -10.5 23t-22.5 11.5t-22.5 9t-10.5 16.5q0 23 41 29q65 7 129 29q9 3 17 3 q25 0 25 -22q0 -3 -1 -8l-57 -277q-11 -52 -11 -82q0 -55 45 -55q29 0 65 34.5t70 98.5q54 100 79 217l14 65q3 15 22 18l83 11l9 1q12 0 12 -11q0 -2 -1 -7l-65 -315q-17 -85 -17 -101q0 -26 18 -26q13 0 31 14t28 14z" />
<glyph unicode="v" horiz-adv-x="586" d="M497 533q62 0 62 -91q0 -109 -69 -237q-19 -36 -42.5 -70t-56.5 -69t-73.5 -56t-82.5 -21q-79 0 -113.5 55t-34.5 141q0 37 6 86q12 96 12 123q0 18 -7 26t-36 15.5t-29 24.5q0 21 39 29q67 14 123 39q11 5 22 5q25 0 25 -22q0 -4 -1 -13q-1 -14 -15 -120t-17 -145 q-2 -32 -2 -56q0 -106 64 -106q44 0 85.5 45t68.5 102q39 82 39 134q0 25 -7 42.5t-17.5 25.5t-21 14t-17.5 14.5t-7 20.5q0 26 36.5 45t66.5 19z" />
<glyph unicode="w" horiz-adv-x="870" d="M666 468q0 25 39.5 45t69.5 20q66 0 66 -101q0 -110 -60 -233q-48 -99 -113 -154.5t-125 -55.5q-65 0 -98 43t-33 114q0 11 2 35q0 4 -3 4q-2 0 -6 -8q-43 -84 -105 -136t-124 -52q-46 0 -76.5 28t-30.5 84q0 44 26 169.5t26 141.5q0 14 -10.5 23t-23 12t-23 9t-10.5 17 q0 23 41 27q69 10 127 29q12 4 20 4q24 0 24 -22q0 -3 -1 -8l-56 -276q-13 -65 -13 -89q0 -50 39 -50q27 0 61 34t67 98q50 94 77 220l14 64q3 15 22 18l75 10q8 1 10 1q17 0 17 -15q0 -2 -2 -12l-42 -211q-18 -90 -18 -133q0 -89 60 -89q34 0 71.5 35t67.5 103 q33 75 33 130q0 36 -13 58t-28 28t-28 16t-13 25z" />
<glyph unicode="x" horiz-adv-x="538" d="M492 533q20 0 34 -10.5t19.5 -26.5t7.5 -26.5t2 -17.5q0 -44 -38 -44q-10 0 -24 5t-24 5q-62 0 -135 -153l72 -147q17 -33 27 -44t25 -16q22 -7 22 -21t-14 -22q-18 -10 -47 -18t-47 -8q-24 0 -38 13.5t-28 41.5l-77 159q-15 -31 -32 -60t-44 -68t-59 -62.5t-62 -23.5 q-35 0 -49.5 29t-14.5 55q0 18 10 30t28 12q10 0 25 -5t25 -5q62 0 140 166l-66 133q-16 33 -26.5 44.5t-24.5 15.5q-23 6 -23 23q0 19 47 34q36 12 61 12t39 -13.5t27 -41.5l71 -146q102 201 191 201z" />
<glyph unicode="y" horiz-adv-x="544" d="M477 533q59 0 59 -63q0 -74 -65 -211t-171 -264q-75 -90 -153 -139t-145 -49q-46 0 -75 26t-29 75q0 47 36 47q13 0 30 -15.5t40.5 -31t51.5 -15.5q52 0 130 65q6 6 6 10q0 1 -0.5 2.5t-1 4.5t-0.5 5q-51 264 -94 401q-11 33 -20 44.5t-30 16.5q-2 1 -10.5 2.5t-12.5 3.5 t-8.5 7.5t-4.5 13.5q0 18 25 26q62 19 93 32q14 6 26 6q25 0 34 -27q20 -53 49.5 -181t47.5 -230q3 -5 5 -5q4 0 10 7q56 78 89.5 158.5t33.5 123.5q0 22 -9 35.5t-20 17.5t-20.5 12.5t-9.5 22.5q2 36 62 57q24 9 51 9z" />
<glyph unicode="z" horiz-adv-x="541" d="M479 126q10 0 17 -6.5t7 -16.5q0 -9 -3 -18t-8 -21.5t-8 -21.5q-13 -45 -37 -65.5t-73 -20.5q-59 0 -169.5 35t-143.5 35q-17 0 -31.5 -7.5t-23.5 -7.5t-16.5 6.5t-7.5 16.5q0 19 44 63q25 25 57 26h13l248 249q-20 5 -78.5 29.5t-85.5 24.5q-41 0 -67 -53 q-5 -11 -14 -11q-5 0 -14 3l-22 8q-9 4 -9 12q0 5 2 11q47 137 147 137q39 0 108 -28.5t99 -28.5q36 0 77 38q6 6 11 6t11 -6l23 -23q6 -6 6 -11q0 -4 -4 -8l-364 -363q11 -2 57.5 -12.5t77.5 -15.5t58 -5q47 0 83 32q20 18 33 18z" />
<glyph unicode="{" horiz-adv-x="509" d="M86 264q-13 4 -13 16q0 4 1 9l4 19q4 15 21 19q19 3 34 7t27 12t20 14t14.5 20t10.5 22.5t8 29.5t5.5 33t5.5 40t6 44q14 100 73 149t168 49q16 0 16 -11q0 -3 -1 -9l-6 -28q-3 -15 -19 -15q-55 -1 -78.5 -35.5t-34.5 -117.5q-15 -115 -41 -163.5t-105 -73.5q-6 -2 -6 -6 q0 -2 6 -5q73 -29 73 -101q0 -38 -19 -110t-19 -104q0 -30 15.5 -44t51.5 -17q13 -1 13 -13q0 -2 -1 -8l-6 -28q-3 -14 -23 -14q-170 0 -170 128q0 38 20.5 112t20.5 102q0 30 -16.5 48.5t-55.5 29.5z" />
<glyph unicode="|" horiz-adv-x="287" d="M171 -193h-55q-13 0 -13 13v1039q0 13 13 13h55q13 0 13 -13v-1039q0 -13 -13 -13z" />
<glyph unicode="}" horiz-adv-x="518" d="M424 327q13 -4 13 -16q0 -4 -1 -9l-4 -19q-4 -15 -21 -19q-19 -3 -34 -7t-27 -12t-20 -14t-14.5 -20t-10.5 -22.5t-8 -29.5t-5.5 -33t-5.5 -40t-6 -44q-14 -100 -73 -149t-168 -49q-16 0 -16 11q0 3 1 9l6 28q3 15 19 15q55 1 78.5 35.5t34.5 117.5q15 115 41 163.5 t105 73.5q6 2 6 6q0 2 -6 5q-73 29 -73 101q0 37 19 110t19 104q0 30 -15.5 44t-51.5 17q-13 1 -13 13q0 2 1 8l6 28q3 14 23 14q170 0 170 -128q0 -38 -20.5 -112t-20.5 -102q0 -30 16.5 -48.5t55.5 -29.5z" />
<glyph unicode="~" horiz-adv-x="617" d="M78 218l-30 9q-11 3 -11 12q0 5 3 12q51 142 160 142q45 0 103 -23q103 -41 139 -41q45 0 75 51q7 12 15 12q5 0 11 -2l26 -8q11 -4 11 -11q0 -3 -3 -11q-51 -141 -158 -141q-51 0 -136 34q-74 30 -108 30q-47 0 -74 -55q-6 -12 -13 -12q-4 0 -10 2z" />
<glyph unicode="&#xa1;" horiz-adv-x="333" d="M62 211q2 6 5 17l4.5 16.5t4 14.5t5 13.5t6 10.5t7 9.5t8 6.5t10 4.5t12.5 1.5q21 0 27.5 -13t6.5 -39q0 -2 -4 -42q-6 -49 -10 -125.5t-7 -98.5q-7 -69 -16.5 -105t-32.5 -55q-23 -20 -62 -20q-65 0 -65 58q0 33 27 122q5 16 31.5 94t42.5 130zM148 366q-21 0 -50 34 t-29 57q0 22 39.5 55t60.5 33t50.5 -34t29.5 -57t-40 -55.5t-61 -32.5z" />
<glyph unicode="&#xa2;" horiz-adv-x="515" d="M477 507q17 -11 23 -23t6 -33q0 -64 -39 -64q-12 0 -23 7.5t-26 22.5t-27 24q-33 24 -67 24q-49 0 -88 -44.5t-56.5 -101t-17.5 -107.5q0 -59 28.5 -98.5t83.5 -39.5q34 0 64.5 15.5t52.5 31t35 15.5q8 0 15 -6.5t7 -15.5q0 -22 -40 -56q-65 -56 -150 -67l-15 -76 q-3 -12 -15 -12h-33q-11 0 -11 10q0 1 1 6l14 72q-76 10 -120.5 65t-44.5 135q0 116 78.5 214t195.5 122l17 85q3 12 15 12h33q11 0 11 -10q0 -2 -1 -7l-15 -74q68 0 109 -26z" />
<glyph unicode="&#xa3;" horiz-adv-x="598" d="M507 602q21 -14 21 -50q0 -75 -37 -75q-16 0 -39 36q-32 49 -74 49q-32 0 -54 -23.5t-22 -59.5q0 -26 20 -79t22 -62h146q12 0 12 -10q0 -2 -1 -7l-5 -25q-3 -12 -15 -12h-127q1 -5 1 -14q0 -7 -2 -21q-8 -44 -38.5 -77t-71.5 -49q-7 -3 -7 -4q0 -3 7 -4q75 -16 126 -16 q36 0 61 13t40 26t28 13q10 0 17 -6t7 -17q0 -8 -4 -16.5t-10.5 -19t-9.5 -16.5q-1 -1 -5.5 -11t-6.5 -13.5t-7.5 -12.5t-10 -14t-12 -11t-15.5 -11q-24 -14 -65 -14q-64 0 -182.5 40t-144.5 40q-17 0 -34.5 -7.5t-21.5 -7.5q-6 0 -11.5 5t-5.5 12q0 21 53 56q25 16 57 16 q14 0 32 -2.5t21 -2.5q7 0 13 2q36 12 59 41t23 68q0 13 -5 35h-119q-12 0 -12 10q0 2 1 7l5 25q2 12 14 12h91q-25 66 -25 106q0 84 77 138q60 42 146 42q70 0 100 -22z" />
<glyph unicode="&#xa4;" horiz-adv-x="746" d="M371 168q50 0 85.5 36t35.5 86q0 51 -35.5 86.5t-85.5 35.5t-85 -35.5t-35 -86.5q0 -50 35.5 -86t84.5 -36zM551 151l113 -113q4 -4 4 -8q0 -3 -4 -7l-25 -25q-4 -4 -8 -4t-8 4l-114 113q-60 -46 -138 -46t-138 46l-113 -113q-4 -4 -8 -4t-8 4l-25 25q-4 4 -4 8t4 8 l113 112q-49 62 -49 139q0 79 49 139l-113 113q-4 4 -4 8t4 8l24 25q4 4 8 4t8 -4l114 -114q60 46 138 46t138 -46l114 114q4 4 8 4t8 -4l25 -25q4 -4 4 -8t-4 -8l-113 -113q49 -62 49 -139q0 -75 -49 -139z" />
<glyph unicode="&#xa5;" horiz-adv-x="746" d="M698 618q26 0 26 -18q0 -11 -20 -22q-28 -16 -52 -38q-22 -20 -70 -78l-68 -82q-5 -6 -5 -9q0 -4 6 -4h104q10 0 10 -8q0 -2 -1 -8l-4 -21q-2 -11 -13 -11h-137q-10 0 -16 -7l-41 -50q-6 -7 -6 -10q0 -4 7 -4h177q10 0 10 -9q0 -2 -1 -7l-4 -20q-3 -11 -14 -11h-182 q-12 0 -13 -9l-6 -28q-10 -47 -10 -73q0 -20 7 -32t16 -15.5t16 -9t7 -14.5q0 -20 -34 -20h-185q-24 0 -24 19q0 13 23 25q25 12 36 30q13 22 27 90l5 23q1 5 1 7q0 7 -10 7h-177q-10 0 -10 8q0 2 1 7l5 21q2 11 13 11h161q9 0 9 7q0 2 -1 5l-18 51q-2 8 -13 8h-123 q-10 0 -10 9q0 2 1 7l4 21q3 11 14 11h97q8 0 8 6q0 1 -3 10l-39 112q-20 54 -29 66q-7 8 -22 17t-15 19q0 21 34 21h165q26 0 26 -18q0 -10 -23 -22.5t-23 -32.5q0 -15 7 -35l70 -199q2 -5 4 -5t4 2q53 63 121 151q54 71 54 92q0 15 -16 26t-16 22q0 19 31 19h147z" />
<glyph unicode="&#xa6;" horiz-adv-x="287" d="M171 375h-55q-13 0 -13 13v471q0 13 13 13h55q13 0 13 -13v-471q0 -13 -13 -13zM171 -193h-55q-13 0 -13 13v471q0 13 13 13h55q13 0 13 -13v-471q0 -13 -13 -13z" />
<glyph unicode="&#xa7;" horiz-adv-x="594" d="M284 207q39 0 71.5 23.5t32.5 62.5q0 33 -28.5 54.5t-66.5 21.5q-40 0 -72.5 -24t-32.5 -61q0 -34 29 -55.5t67 -21.5zM343 149q84 -53 84 -139q0 -84 -68 -143.5t-168 -59.5q-56 0 -102.5 18.5t-63.5 44.5q-13 22 -13 56q0 84 37 84q21 0 37 -31q11 -23 20.5 -38.5 t24.5 -32t35 -25t45 -8.5q48 0 74.5 28.5t26.5 61.5q0 30 -24 54.5t-58 43.5t-67.5 40.5t-57.5 56t-24 79.5q0 59 41.5 108t100.5 68q7 2 7 5q0 2 -5 5q-35 21 -56 57t-21 78q0 81 67 134t152 53q87 0 135 -41q27 -22 27 -56q0 -20 -5 -43q-9 -43 -36 -43q-21 0 -36 33 q-10 24 -20 40t-31.5 30.5t-49.5 14.5q-37 0 -64 -22.5t-27 -58.5q0 -30 24 -53.5t58.5 -42t68.5 -39.5t58 -55t24 -79q0 -60 -43.5 -108t-105.5 -66q-6 -1 -6 -4q0 -2 5 -5z" />
<glyph unicode="&#xa8;" horiz-adv-x="505" d="M422 700q0 -18 -7 -40t-16 -29q-14 -11 -47 -11q-28 0 -39 7t-11 23q0 18 7.5 40t16.5 29q11 10 48 10q30 0 39 -6t9 -23zM234 700q0 -18 -7 -40t-16 -29q-14 -11 -47 -11q-28 0 -39 7t-11 23q0 18 7.5 40t16.5 29q11 10 48 10q30 0 39 -6t9 -23z" />
<glyph unicode="&#xa9;" horiz-adv-x="869" d="M120 357q0 -131 92.5 -224t222.5 -93t222.5 93t92.5 224t-92.5 224.5t-222.5 93.5t-222.5 -93.5t-92.5 -224.5zM66 357q0 153 108 261t261 108q152 0 260 -108t108 -261q0 -152 -108 -260t-260 -108q-153 0 -261 108t-108 260zM421 203q32 0 58 17t39 37t27.5 37t26.5 17 q22 0 22 -23q0 -15 -11 -50q-13 -41 -38 -57q-42 -27 -127 -27q-94 0 -148 49t-54 127q0 109 87 176.5t201 67.5q79 0 110 -24q14 -10 14 -36q0 -22 -6 -48q-5 -22 -11 -31.5t-19 -9.5t-19 9t-12 27t-13 29q-22 34 -71 34q-68 0 -113.5 -60t-45.5 -139q0 -57 28.5 -89.5 t74.5 -32.5z" />
<glyph unicode="&#xaa;" horiz-adv-x="477" d="M220 657q-24 -26 -42 -85.5t-18 -101.5q0 -45 27 -45q32 0 81 80q47 77 47 124q0 20 -19 32.5t-40 12.5t-36 -17zM417 726q15 0 15 -18q0 -7 -4 -26t-13 -58t-16 -73q-23 -108 -23 -128q0 -18 12 -18q8 0 20.5 9.5t20.5 9.5q13 0 13 -13q0 -18 -30.5 -43.5t-67.5 -25.5 q-60 0 -60 66q0 20 5 47q0 2 -2 2q-1 0 -3 -3q-33 -57 -79 -88q-37 -24 -70 -24q-37 0 -59.5 26.5t-22.5 78.5q0 93 52 178q64 101 162 101q28 0 62 -11.5t42 -11.5q10 0 23 11.5t23 11.5zM265 221q0 -18 -7 -40t-16 -29q-14 -11 -47 -11q-28 0 -39 7t-11 23q0 18 7.5 40 t16.5 29q11 10 48 10q30 0 39 -6t9 -23z" />
<glyph unicode="&#xab;" horiz-adv-x="561" d="M434 98l-11 -57q-1 -6 -6 -6q-2 0 -5 3l-206 222q-5 5 -5 9q0 5 9 11l292 218q5 4 8 4q5 0 5 -5q0 -2 -1 -7l-14 -65q-3 -13 -15 -22l-177 -132q-10 -7 -10 -10q0 -2 5 -7l126 -135q6 -6 6 -13q0 -2 -1 -8zM235 116l-12 -58q-1 -6 -5 -6q-2 0 -5 3l-172 186q-5 5 -5 10 q0 1 2 11l11 55q3 11 11 17l242 180q7 5 9 5q4 0 4 -5q0 -2 -1 -7l-13 -64q-3 -13 -15 -22l-181 -134q-6 -5 -6 -8q0 -2 5 -7l126 -135q6 -6 6 -13q0 -3 -1 -8z" />
<glyph unicode="&#xac;" horiz-adv-x="794" d="M691 522v-310h-81v229h-546v81h627z" />
<glyph unicode="&#xad;" horiz-adv-x="378" d="M45 245l13 62q3 14 16 14h231q13 0 13 -12q0 -3 -1 -8l-13 -62q-3 -13 -16 -13l-232 -1q-12 0 -12 12q0 2 1 8z" />
<glyph unicode="&#xae;" horiz-adv-x="554" d="M296 726q100 0 171.5 -71t71.5 -172t-71.5 -172t-171.5 -71t-171.5 71t-71.5 172t71.5 172t171.5 71zM296 285q80 0 137.5 58t57.5 140t-57.5 140t-137.5 58t-137.5 -58t-57.5 -140q0 -61 36 -115q2 2 8.5 5.5t12 7.5t9.5 11q7 10 16 52q18 88 19 92q6 26 6 38 q0 14 -12.5 21.5t-12.5 14.5q0 12 17 12h131q64 0 84 -21q14 -15 14 -36q0 -32 -26.5 -52.5t-63.5 -22.5q-4 0 -4 -3q0 -1 7 -3q18 -4 28.5 -14.5t19.5 -38.5q13 -41 25 -55q2 -2 6 -5.5t5.5 -6t1.5 -6.5q-1 -11 -19 -11h-34q-20 0 -29 8q-8 7 -24 60q-7 25 -15.5 36 t-22.5 15q-9 3 -24 3q-6 0 -7 -5l-3 -17q-6 -28 -6 -45q0 -19 12.5 -27.5t12.5 -14.5q0 -13 -19 -13h-95q59 -62 141 -62zM303 506q51 7 51 47q0 12 -6 19t-18.5 10t-21 3.5t-24.5 0.5q-6 0 -7 -6l-13 -65l-1 -5q0 -5 6 -5q25 0 34 1z" />
<glyph unicode="&#xaf;" horiz-adv-x="528" d="M109 666l7 36q3 12 15 12h320q12 0 12 -10q0 -3 -1 -8l-7 -37q-2 -11 -15 -11h-321q-11 0 -11 10q0 3 1 8z" />
<glyph unicode="&#xb0;" horiz-adv-x="294" d="M106 632q0 -27 19 -46t46 -19q26 0 45 19t19 46t-19 46t-45 19q-27 0 -46 -19t-19 -46zM54 632q0 48 34.5 81.5t82.5 33.5t82 -33.5t34 -81.5q0 -47 -34 -81t-82 -34q-49 0 -83 34t-34 81z" />
<glyph unicode="&#xb1;" horiz-adv-x="675" d="M579 424v-40q0 -13 -13 -13h-187q-7 0 -7 -6v-176q0 -13 -13 -13h-43q-13 0 -13 13v176q0 6 -7 6h-187q-13 0 -13 13v40q0 13 13 13h187q7 0 7 6v176q0 13 13 13h43q13 0 13 -13v-176q0 -6 7 -6h187q13 0 13 -13zM96 76v40q0 13 13 13h457q13 0 13 -13v-40q0 -13 -13 -13 h-457q-13 0 -13 13z" />
<glyph unicode="&#xb2;" horiz-adv-x="349" d="M89 877q35 29 107 29q55 0 90.5 -29.5t35.5 -70.5q0 -55 -55 -89q-29 -17 -79.5 -32t-69.5 -24q-36 -17 -36 -33q0 -6 7 -6h82q43 0 57 4q15 4 29 16t22 12q19 0 19 -19q0 -5 -14 -41q-2 -4 -5.5 -15.5t-5.5 -16t-6.5 -12.5t-10 -11t-14 -6t-19.5 -3q-6 0 -31 1.5 t-47 1.5h-117q-26 0 -26 25q0 75 62 123q22 18 60.5 36.5t48.5 25.5q51 35 51 72q0 17 -11 29.5t-30 12.5q-28 0 -53 -33q-3 -4 -13 -20t-17 -22t-15 -6q-23 0 -23 30q0 49 27 71z" />
<glyph unicode="&#xb3;" horiz-adv-x="343" d="M216 721q30 -4 54 -23t24 -51q0 -49 -51 -86.5t-125 -37.5q-71 0 -100 32q-19 20 -19 62q0 36 27 36q13 0 28 -25q32 -54 72 -54q33 0 50.5 25.5t17.5 53.5q0 45 -49 45q-9 0 -22 -1.5t-17 -1.5q-17 0 -17 15q0 1 3 19q4 24 24 24q4 0 17 -2t23 -2q32 0 46 22t14 46 q0 16 -9 27.5t-27 11.5q-37 0 -73 -44l-9 -12t-9 -11.5t-8.5 -7t-10.5 -3.5q-22 0 -22 23q0 47 29 72q39 33 109 33q59 0 95.5 -24t36.5 -62q0 -33 -29 -58.5t-75 -32.5q-9 -1 -9 -4t11 -4z" />
<glyph unicode="&#xb4;" horiz-adv-x="461" d="M517 711l-159 -90q-21 -11 -45 -11h-68q-7 0 -7 5q0 2 4 6l106 90q18 15 43 15h120q12 0 12 -7q0 -4 -6 -8z" />
<glyph unicode="&#xb5;" horiz-adv-x="782" d="M332 508l-63 -308q-10 -46 -10 -74q0 -53 40 -53q71 0 140 126q53 94 81 223l18 82q3 15 21 18l86 11q7 1 12 1q12 0 12 -11q0 -2 -2 -12l-65 -317q-14 -68 -14 -88q0 -27 19 -27q7 0 13.5 3.5t15.5 10.5t10 7q9 6 17 6q7 0 12.5 -5t5.5 -12q0 -21 -35 -53 q-51 -47 -105 -47q-79 0 -79 85q0 22 5 47q1 4 1 8t-4 4q-2 0 -5 -4q-97 -140 -201 -140q-55 0 -82 36q-3 3 -4 3q-2 0 -3 -4q-14 -59 -19 -88q-7 -34 -8 -66t-6 -42q-10 -21 -48 -21q-44 0 -44 30q0 11 3.5 23t12 35t14.5 42q35 114 69 277q14 68 35 173t23 116q3 15 23 18 l85 11q7 1 13 1q12 0 12 -12q0 -5 -2 -13z" />
<glyph unicode="&#xb6;" horiz-adv-x="792" d="M359 355q13 0 15 15q19 118 40 182.5t64 99.5h-62q-103 0 -157 -50q-49 -46 -49 -121q0 -124 149 -126zM425 -5q45 40 64.5 106.5t43.5 236.5q16 108 24 152t25 93.5t43 77.5q-33 0 -58 -9t-43.5 -30.5t-31 -45t-23 -66.5t-16.5 -79.5t-15 -98.5q-26 -184 -49 -260.5 t-73 -116.5q66 2 109 40zM726 714q28 0 41.5 -1t24 -7.5t10.5 -19.5q0 -8 -4 -24q-3 -11 -13 -11q-3 0 -20 6t-32 6q-24 0 -42.5 -14.5t-30.5 -39t-21.5 -63t-15.5 -79.5t-14 -96v-3t-0.5 -3t-0.5 -3q-8 -56 -13 -90.5t-13.5 -79t-16.5 -70.5t-20.5 -58.5t-27 -51t-34 -39.5 t-43.5 -32t-54.5 -21t-67.5 -14t-82 -4q-111 0 -111 32q0 2 1 8l5 26q3 12 13 12q2 0 23 -8.5t42 -8.5q66 0 95.5 68.5t53.5 241.5q1 7 1 9q0 9 -13 9q-97 1 -161 28t-92 93q-13 29 -13 66q0 100 86 169q37 30 93 45.5t98.5 18.5t108.5 3h260z" />
<glyph unicode="&#xb7;" horiz-adv-x="310" d="M144 193q-21 0 -50 34t-29 57q0 22 39.5 55t60.5 33t50.5 -34t29.5 -57t-40 -55.5t-61 -32.5z" />
<glyph unicode="&#xb8;" horiz-adv-x="428" d="M197 1h58q-35 -25 -35 -43q0 -8 16 -12.5t35.5 -7.5t35.5 -14.5t16 -31.5q0 -34 -40.5 -59.5t-97.5 -25.5q-23 0 -51 6.5t-28 22.5q0 10 7 16t17 6q6 0 19.5 -4t29.5 -4q23 0 37 9q14 10 14 23q0 10 -12 16.5t-27 9.5t-27 10.5t-12 18.5q0 24 45 64z" />
<glyph unicode="&#xb9;" horiz-adv-x="237" d="M209 880l-68 -334q-3 -12 -15 -12h-67q-12 0 -12 11q0 3 1 8l48 236q5 25 5 32q0 13 -21 13q-10 0 -21.5 -1t-15.5 -1q-18 0 -18 13q0 19 4 27q5 10 21 11q46 3 102 17q25 6 36 6q22 0 22 -19q0 -2 -1 -7z" />
<glyph unicode="&#xba;" horiz-adv-x="461" d="M219 396q48 0 75 52.5t27 124.5q0 99 -62 99q-45 0 -73 -49.5t-28 -123.5q0 -48 16.5 -75.5t44.5 -27.5zM277 726q71 0 110 -41.5t39 -107.5q0 -94 -63.5 -164.5t-159.5 -70.5q-69 0 -109.5 42t-40.5 111q0 100 70 165.5t154 65.5zM259 221q0 -18 -7 -40t-16 -29 q-14 -11 -47 -11q-28 0 -39 7t-11 23q0 18 7.5 40t16.5 29q11 10 48 10q30 0 39 -6t9 -23z" />
<glyph unicode="&#xbb;" horiz-adv-x="570" d="M117 456l11 57q2 6 6 6q2 0 5 -3l206 -222q5 -5 5 -9q0 -5 -9 -11l-292 -218q-5 -4 -8 -4q-5 0 -5 5q0 2 1 7l14 65q3 13 15 22l177 132q10 7 10 10q0 2 -5 7l-126 135q-6 6 -6 13q0 2 1 8zM316 438l12 58q2 6 5 6q2 0 5 -3l172 -186q5 -5 5 -10q0 -1 -2 -11l-11 -55 q-3 -11 -11 -17l-242 -180q-7 -5 -9 -5q-4 0 -4 5q0 2 1 7l13 64q3 13 15 22l181 134q6 5 6 8q0 2 -5 7l-126 135q-6 6 -6 13q0 3 1 8z" />
<glyph unicode="&#xbc;" horiz-adv-x="775" d="M551 618h82l-455 -522h-81zM318 700l-68 -334q-3 -12 -15 -12h-67q-12 0 -12 11q0 3 1 8l48 236q5 25 5 32q0 13 -21 13q-10 0 -21.5 -1t-15.5 -1q-18 0 -18 13q0 19 4 27q5 10 21 11q46 3 102 17q25 6 36 6q22 0 22 -19q0 -2 -1 -7zM658 142h33q11 0 11 -7q0 -1 -1 -6 l-8 -37q-3 -13 -16 -13h-32q-9 0 -11 -9l-12 -58q-3 -13 -16 -13h-67q-12 0 -12 11q0 3 1 9l9 46q1 5 1 7q0 7 -8 7h-159q-10 0 -10 8q0 2 2 12l7 35q5 23 20 35q52 42 81 84.5t43 106.5q3 12 16 12h60q11 0 11 -9q0 -2 -1 -7q-24 -115 -155 -207q-3 -2 -3 -4q0 -3 4 -3h98 q9 0 10 8l29 140q3 13 15 13h68q12 0 12 -10q0 -3 -1 -8l-26 -130l-1 -6q0 -7 8 -7z" />
<glyph unicode="&#xbd;" horiz-adv-x="774" d="M551 618h82l-455 -522h-81zM324 700l-68 -334q-3 -12 -15 -12h-67q-12 0 -12 11q0 3 1 8l48 236q5 25 5 32q0 13 -21 13q-10 0 -21.5 -1t-15.5 -1q-18 0 -18 13q0 19 4 27q5 10 21 11q46 3 102 17q26 6 36 6q22 0 22 -19q0 -2 -1 -7zM485 344q35 29 107 29 q55 0 90.5 -29.5t35.5 -70.5q0 -55 -55 -89q-29 -17 -79.5 -32t-69.5 -24q-36 -17 -36 -33q0 -6 7 -6h82q43 0 57 4q15 4 29 16t22 12q19 0 19 -19q0 -5 -14 -41q-2 -4 -5.5 -15.5t-5.5 -16t-6.5 -12.5t-10 -11t-14 -6t-19.5 -3q-6 0 -31 1.5t-47 1.5h-117q-26 0 -26 25 q0 75 62 123q22 18 60.5 36.5t48.5 25.5q51 35 51 72q0 17 -11 29.5t-30 12.5q-28 0 -53 -33q-3 -4 -13 -20t-17 -22t-15 -6q-23 0 -23 30q0 49 27 71z" />
<glyph unicode="&#xbe;" horiz-adv-x="830" d="M613 618h82l-455 -522h-81zM714 142h33q11 0 11 -7q0 -1 -1 -6l-8 -37q-3 -13 -16 -13h-32q-9 0 -11 -9l-12 -58q-3 -13 -16 -13h-67q-12 0 -12 11q0 3 1 9l9 46q1 5 1 7q0 7 -8 7h-159q-10 0 -10 8q0 2 2 12l7 35q5 23 20 35q52 42 81 84.5t43 106.5q3 12 16 12h60 q11 0 11 -9q0 -2 -1 -7q-24 -115 -155 -207q-3 -2 -3 -4q0 -3 4 -3h98q9 0 10 8l29 140q3 13 15 13h68q12 0 12 -10q0 -3 -1 -8l-26 -130l-1 -6q0 -7 8 -7zM289 542q30 -4 54 -23t24 -51q0 -49 -51 -86.5t-125 -37.5q-71 0 -100 32q-19 20 -19 62q0 36 27 36q13 0 28 -25 q32 -54 72 -54q33 0 50.5 25.5t17.5 53.5q0 45 -49 45q-10 0 -23 -1.5t-16 -1.5q-17 0 -17 15q0 1 3 19q4 24 24 24q4 0 17 -2t23 -2q32 0 46 22t14 46q0 16 -9 27.5t-27 11.5q-37 0 -73 -44l-9 -12t-9 -11.5t-8.5 -7t-10.5 -3.5q-22 0 -22 23q0 47 29 72q39 33 109 33 q59 0 95.5 -24t36.5 -62q0 -33 -29 -58.5t-75 -32.5q-9 -1 -9 -4t11 -4z" />
<glyph unicode="&#xbf;" horiz-adv-x="536" d="M275 22q0 19 24.5 37.5t59.5 18.5q39 0 62 -24t23 -63q0 -71 -68.5 -127.5t-180.5 -56.5q-100 0 -156.5 48.5t-56.5 115.5q0 93 113 159q28 16 78 38.5t71 35.5q51 30 51 60q0 14 -21.5 23t-21.5 21q0 17 21 25t46 8q35 0 57.5 -13.5t22.5 -40.5q0 -42 -60 -91 q-17 -13 -69.5 -48.5t-80.5 -60.5q-68 -65 -68 -125q0 -41 27 -66t70 -25q44 0 77.5 25.5t33.5 64.5q0 18 -8.5 27t-18.5 11t-18.5 7t-8.5 16zM338 366q-21 0 -50 34t-29 57q0 22 39.5 55t60.5 33t50.5 -34t29.5 -57t-40 -55.5t-61 -32.5z" />
<glyph unicode="&#xc0;" d="M215 292h193q9 0 9 7q0 2 -1 7l-42 237q-1 7 -4 7q-2 0 -5 -5q-64 -95 -154 -243q-2 -3 -2 -5q0 -5 6 -5zM616 65q7 -7 15.5 -12.5t14 -8.5t9.5 -8t4 -12q0 -24 -37 -24h-193q-29 0 -29 19q0 10 8 17t18 11t18 15t8 28q0 11 -5 44l-15 82q-2 9 -13 9h-243q-11 0 -17 -10 q-61 -103 -61 -137q0 -19 18.5 -32t18.5 -24q0 -22 -34 -22h-158q-30 0 -30 20q0 3 0.5 5.5t2.5 4.5t3.5 4t4.5 4t5 3t6.5 3.5t6.5 3.5q25 14 52 47t64 90l339 523q9 13 20 13h51q14 0 17 -13l102 -565q9 -39 14 -53.5t15 -24.5zM461 808l-125 88q-6 4 -6 9q0 8 13 8h117 q26 0 37 -15l71 -85q5 -6 5 -9q0 -7 -9 -7h-64q-23 0 -39 11z" />
<glyph unicode="&#xc1;" d="M215 292h193q9 0 9 7q0 2 -1 7l-42 237q-1 7 -4 7q-2 0 -5 -5q-64 -95 -154 -243q-2 -3 -2 -5q0 -5 6 -5zM616 65q7 -7 15.5 -12.5t14 -8.5t9.5 -8t4 -12q0 -24 -37 -24h-193q-29 0 -29 19q0 10 8 17t18 11t18 15t8 28q0 11 -5 44l-15 82q-2 9 -13 9h-243q-11 0 -17 -10 q-61 -103 -61 -137q0 -19 18.5 -32t18.5 -24q0 -22 -34 -22h-158q-30 0 -30 20q0 3 0.5 5.5t2.5 4.5t3.5 4t4.5 4t5 3t6.5 3.5t6.5 3.5q25 14 52 47t64 90l339 523q9 13 20 13h51q14 0 17 -13l102 -565q9 -39 14 -53.5t15 -24.5zM594 898l-159 -90q-21 -11 -45 -11h-68 q-7 0 -7 5q0 2 4 6l106 90q18 15 43 15h120q12 0 12 -7q0 -4 -6 -8z" />
<glyph unicode="&#xc2;" d="M215 292h193q9 0 9 7q0 2 -1 7l-42 237q-1 7 -4 7q-2 0 -5 -5q-64 -95 -154 -243q-2 -3 -2 -5q0 -5 6 -5zM616 65q7 -7 15.5 -12.5t14 -8.5t9.5 -8t4 -12q0 -24 -37 -24h-193q-29 0 -29 19q0 10 8 17t18 11t18 15t8 28q0 11 -5 44l-15 82q-2 9 -13 9h-243q-11 0 -17 -10 q-61 -103 -61 -137q0 -19 18.5 -32t18.5 -24q0 -22 -34 -22h-158q-30 0 -30 20q0 3 0.5 5.5t2.5 4.5t3.5 4t4.5 4t5 3t6.5 3.5t6.5 3.5q25 14 52 47t64 90l339 523q9 13 20 13h51q14 0 17 -13l102 -565q9 -39 14 -53.5t15 -24.5zM358 787h-55q-7 0 -7 4q0 2 2 4l111 108 q10 10 22 10h78q12 0 18 -10l65 -104q3 -5 3 -7q0 -5 -7 -5h-44q-9 0 -16 8l-59 67q-3 3 -5 3t-7 -4l-79 -67q-8 -7 -20 -7z" />
<glyph unicode="&#xc3;" d="M215 292h193q9 0 9 7q0 2 -1 7l-42 237q-1 7 -4 7q-2 0 -5 -5q-64 -95 -154 -243q-2 -3 -2 -5q0 -5 6 -5zM616 65q7 -7 15.5 -12.5t14 -8.5t9.5 -8t4 -12q0 -24 -37 -24h-193q-29 0 -29 19q0 10 8 17t18 11t18 15t8 28q0 11 -5 44l-15 82q-2 9 -13 9h-243q-11 0 -17 -10 q-61 -103 -61 -137q0 -19 18.5 -32t18.5 -24q0 -22 -34 -22h-158q-30 0 -30 20q0 3 0.5 5.5t2.5 4.5t3.5 4t4.5 4t5 3t6.5 3.5t6.5 3.5q25 14 52 47t64 90l339 523q9 13 20 13h51q14 0 17 -13l102 -565q9 -39 14 -53.5t15 -24.5zM302 810l-18 6q-7 3 -7 9q0 12 14 37 q32 62 92 62q30 0 70 -16q61 -24 83 -24q29 0 48 32q4 7 10 7q1 0 9 -2l14 -4q8 -2 8 -9q0 -8 -12 -32q-33 -66 -93 -66q-31 0 -85 21q-49 19 -69 19q-28 0 -45 -33q-5 -9 -11 -9q-2 0 -8 2z" />
<glyph unicode="&#xc4;" d="M215 292h193q9 0 9 7q0 2 -1 7l-42 237q-1 7 -4 7q-2 0 -5 -5q-64 -95 -154 -243q-2 -3 -2 -5q0 -5 6 -5zM616 65q7 -7 15.5 -12.5t14 -8.5t9.5 -8t4 -12q0 -24 -37 -24h-193q-29 0 -29 19q0 10 8 17t18 11t18 15t8 28q0 11 -5 44l-15 82q-2 9 -13 9h-243q-11 0 -17 -10 q-61 -103 -61 -137q0 -19 18.5 -32t18.5 -24q0 -22 -34 -22h-158q-30 0 -30 20q0 3 0.5 5.5t2.5 4.5t3.5 4t4.5 4t5 3t6.5 3.5t6.5 3.5q25 14 52 47t64 90l339 523q9 13 20 13h51q14 0 17 -13l102 -565q9 -39 14 -53.5t15 -24.5zM614 864q0 -18 -7 -40t-16 -29 q-14 -11 -47 -11q-28 0 -39 7t-11 23q0 18 7.5 40t16.5 29q11 10 48 10q30 0 39 -6t9 -23zM426 864q0 -18 -7 -40t-16 -29q-14 -11 -47 -11q-28 0 -39 7t-11 23q0 18 7.5 40t16.5 29q11 10 48 10q30 0 39 -6t9 -23z" />
<glyph unicode="&#xc5;" d="M215 292h193q9 0 9 7q0 2 -1 7l-42 237q-1 7 -4 7q-2 0 -5 -5q-64 -95 -154 -243q-2 -3 -2 -5q0 -5 6 -5zM616 65q7 -7 15.5 -12.5t14 -8.5t9.5 -8t4 -12q0 -24 -37 -24h-193q-29 0 -29 19q0 10 8 17t18 11t18 15t8 28q0 11 -5 44l-15 82q-2 9 -13 9h-243q-11 0 -17 -10 q-61 -103 -61 -137q0 -19 18.5 -32t18.5 -24q0 -22 -34 -22h-158q-30 0 -30 20q0 3 0.5 5.5t2.5 4.5t3.5 4t4.5 4t5 3t6.5 3.5t6.5 3.5q25 14 52 47t64 90l339 523q9 13 20 13h51q14 0 17 -13l102 -565q9 -39 14 -53.5t15 -24.5zM400 822q0 -20 14 -33.5t33 -13.5t33 13.5 t14 33.5t-13.5 34t-33.5 14t-33.5 -14t-13.5 -34zM356 822q0 37 26.5 63.5t64.5 26.5t64.5 -26.5t26.5 -63.5t-26.5 -63t-64.5 -26t-64.5 26t-26.5 63z" />
<glyph unicode="&#xc6;" horiz-adv-x="1014" d="M478 305l59 293q2 8 2 10q0 4 -4 4q-3 0 -6 -3q-145 -160 -267 -302q-7 -8 -7 -11q0 -5 8 -5h197q15 0 18 14zM991 722q37 0 37 -26q0 -8 -3 -25q-9 -49 -21 -120q-5 -38 -37 -38q-26 0 -34 37q-11 53 -44 76q-31 20 -145 20h-39q-25 0 -29 -24l-38 -189q-1 -6 -1 -8 q0 -16 21 -16q61 0 96 2q19 1 53 4t47 3q30 0 30 -18q0 -6 -3 -14t-4 -11q-6 -24 -17.5 -33t-40.5 -9q-15 0 -47.5 1.5t-37.5 1.5q-28 1 -101 1q-15 0 -17 -14l-31 -150q-10 -52 -10 -69q0 -24 17 -30.5t49 -6.5q66 0 113 15t69.5 36t37 42.5t28.5 36.5t32 15q31 0 31 -31 q0 -8 -14 -50q-5 -13 -12 -38.5t-12 -39t-14.5 -29.5t-24.5 -23.5t-37 -7.5q-8 0 -62.5 3.5t-112.5 3.5h-279q-30 0 -30 22q0 3 1 6t3 5.5t3.5 4.5t5.5 4t5.5 3t6.5 3t6 3q23 11 37 33q16 26 36 123q1 5 1 7q0 10 -12 10h-240q-14 0 -23 -10q-40 -49 -56 -69 q-40 -51 -40 -72q0 -16 18 -27.5t18 -23.5q0 -22 -33 -22h-175q-31 0 -31 21q0 5 2 9t7 8t8 6.5t11.5 7t12.5 6.5q41 24 106 95q151 161 421 474q7 8 7 16q0 12 -29 23.5t-29 26.5q0 21 32 21h359q59 0 124 4t74 4z" />
<glyph unicode="&#xc7;" horiz-adv-x="678" d="M352 62q41 0 80 23t56 42t40 49q18 23 29 31t27 8q30 0 30 -33q0 -25 -12 -61q-20 -57 -58 -84q-65 -48 -185 -48q-20 -18 -20 -31q0 -9 25.5 -13.5t51.5 -15.5t26 -37q0 -34 -40.5 -59.5t-97.5 -25.5q-23 0 -51 6.5t-28 22.5q0 10 7 16t17 6q6 0 19.5 -4t29.5 -4 q24 0 37 9q14 10 14 23q0 10 -12 16.5t-27 9.5t-27 10.5t-12 18.5q0 21 35 56q-118 15 -194 96.5t-76 210.5q0 178 135 302t326 124q111 0 166 -37q27 -19 27 -59q0 -30 -12 -71q-7 -23 -16 -33.5t-24 -10.5q-19 0 -27 11t-17 36.5t-21 42.5q-37 52 -114 52 q-80 0 -145.5 -55.5t-99.5 -139.5t-34 -175q0 -105 49.5 -165t122.5 -60z" />
<glyph unicode="&#xc8;" horiz-adv-x="634" d="M541 212q14 0 22.5 -8t8.5 -22q0 -18 -11 -41q-8 -17 -17 -49t-15.5 -50.5t-24.5 -33.5t-47 -15q-8 0 -62 3.5t-112 3.5h-279q-30 0 -30 22q0 4 1.5 7.5t3 6t5.5 5t6 3.5t7.5 3.5t6.5 3.5q24 11 38 33q15 23 32 103q12 57 25 121.5t28.5 143.5t24.5 122q7 38 7 55 q0 15 -7 24.5t-16 12.5t-16 9.5t-7 15.5q0 23 39 23h261q59 0 124 4t74 4q37 0 37 -24q0 -7 -3 -26t-9 -51.5t-10 -57.5q-4 -28 -12 -39t-27 -11q-15 0 -22 8.5t-12 28.5q-14 56 -44 76q-32 20 -146 20h-38q-25 0 -29 -24l-37 -184q-2 -8 -2 -16q0 -13 21 -13q65 0 100 2 q19 1 52.5 4t43.5 3q29 0 29 -17q0 -6 -3.5 -17t-3.5 -12q-6 -25 -18.5 -32t-44.5 -7q-15 0 -45.5 1.5t-37.5 1.5q-23 1 -98 1q-14 0 -17 -14l-26 -130q-15 -75 -15 -88q0 -16 10 -24t22 -10t33 -3h12q62 0 106.5 15t66.5 36t37 42t28.5 36t31.5 15zM384 808l-125 88 q-6 4 -6 9q0 8 13 8h117q26 0 37 -15l71 -85q5 -6 5 -9q0 -7 -9 -7h-64q-23 0 -39 11z" />
<glyph unicode="&#xc9;" horiz-adv-x="634" d="M541 212q14 0 22.5 -8t8.5 -22q0 -18 -11 -41q-8 -17 -17 -49t-15.5 -50.5t-24.5 -33.5t-47 -15q-8 0 -62 3.5t-112 3.5h-279q-30 0 -30 22q0 4 1.5 7.5t3 6t5.5 5t6 3.5t7.5 3.5t6.5 3.5q24 11 38 33q15 23 32 103q12 57 25 121.5t28.5 143.5t24.5 122q7 38 7 55 q0 15 -7 24.5t-16 12.5t-16 9.5t-7 15.5q0 23 39 23h261q59 0 124 4t74 4q37 0 37 -24q0 -7 -3 -26t-9 -51.5t-10 -57.5q-4 -28 -12 -39t-27 -11q-15 0 -22 8.5t-12 28.5q-14 56 -44 76q-32 20 -146 20h-38q-25 0 -29 -24l-37 -184q-2 -8 -2 -16q0 -13 21 -13q65 0 100 2 q19 1 52.5 4t43.5 3q29 0 29 -17q0 -6 -3.5 -17t-3.5 -12q-6 -25 -18.5 -32t-44.5 -7q-15 0 -45.5 1.5t-37.5 1.5q-23 1 -98 1q-14 0 -17 -14l-26 -130q-15 -75 -15 -88q0 -16 10 -24t22 -10t33 -3h12q62 0 106.5 15t66.5 36t37 42t28.5 36t31.5 15zM555 898l-159 -90 q-21 -11 -45 -11h-68q-7 0 -7 5q0 2 4 6l106 90q18 15 43 15h120q12 0 12 -7q0 -4 -6 -8z" />
<glyph unicode="&#xca;" horiz-adv-x="634" d="M541 212q14 0 22.5 -8t8.5 -22q0 -18 -11 -41q-8 -17 -17 -49t-15.5 -50.5t-24.5 -33.5t-47 -15q-8 0 -62 3.5t-112 3.5h-279q-30 0 -30 22q0 4 1.5 7.5t3 6t5.5 5t6 3.5t7.5 3.5t6.5 3.5q24 11 38 33q15 23 32 103q12 57 25 121.5t28.5 143.5t24.5 122q7 38 7 55 q0 15 -7 24.5t-16 12.5t-16 9.5t-7 15.5q0 23 39 23h261q59 0 124 4t74 4q37 0 37 -24q0 -7 -3 -26t-9 -51.5t-10 -57.5q-4 -28 -12 -39t-27 -11q-15 0 -22 8.5t-12 28.5q-14 56 -44 76q-32 20 -146 20h-38q-25 0 -29 -24l-37 -184q-2 -8 -2 -16q0 -13 21 -13q65 0 100 2 q19 1 52.5 4t43.5 3q29 0 29 -17q0 -6 -3.5 -17t-3.5 -12q-6 -25 -18.5 -32t-44.5 -7q-15 0 -45.5 1.5t-37.5 1.5q-23 1 -98 1q-14 0 -17 -14l-26 -130q-15 -75 -15 -88q0 -16 10 -24t22 -10t33 -3h12q62 0 106.5 15t66.5 36t37 42t28.5 36t31.5 15zM298 787h-55q-7 0 -7 4 q0 2 2 4l111 108q10 10 22 10h78q12 0 18 -10l65 -104q3 -5 3 -7q0 -5 -7 -5h-44q-9 0 -16 8l-59 67q-3 3 -5 3t-7 -4l-79 -67q-8 -7 -20 -7z" />
<glyph unicode="&#xcb;" horiz-adv-x="634" d="M541 212q14 0 22.5 -8t8.5 -22q0 -18 -11 -41q-8 -17 -17 -49t-15.5 -50.5t-24.5 -33.5t-47 -15q-8 0 -62 3.5t-112 3.5h-279q-30 0 -30 22q0 4 1.5 7.5t3 6t5.5 5t6 3.5t7.5 3.5t6.5 3.5q24 11 38 33q15 23 32 103q12 57 25 121.5t28.5 143.5t24.5 122q7 38 7 55 q0 15 -7 24.5t-16 12.5t-16 9.5t-7 15.5q0 23 39 23h261q59 0 124 4t74 4q37 0 37 -24q0 -7 -3 -26t-9 -51.5t-10 -57.5q-4 -28 -12 -39t-27 -11q-15 0 -22 8.5t-12 28.5q-14 56 -44 76q-32 20 -146 20h-38q-25 0 -29 -24l-37 -184q-2 -8 -2 -16q0 -13 21 -13q65 0 100 2 q19 1 52.5 4t43.5 3q29 0 29 -17q0 -6 -3.5 -17t-3.5 -12q-6 -25 -18.5 -32t-44.5 -7q-15 0 -45.5 1.5t-37.5 1.5q-23 1 -98 1q-14 0 -17 -14l-26 -130q-15 -75 -15 -88q0 -16 10 -24t22 -10t33 -3h12q62 0 106.5 15t66.5 36t37 42t28.5 36t31.5 15zM559 864q0 -18 -7 -40 t-16 -29q-14 -11 -47 -11q-28 0 -39 7t-11 23q0 18 7.5 40t16.5 29q11 10 48 10q30 0 39 -6t9 -23zM371 864q0 -18 -7 -40t-16 -29q-14 -11 -47 -11q-28 0 -39 7t-11 23q0 18 7.5 40t16.5 29q11 10 48 10q30 0 39 -6t9 -23z" />
<glyph unicode="&#xcc;" horiz-adv-x="344" d="M197 102q0 -22 8 -35t18 -17t18 -10.5t8 -16.5q0 -23 -38 -23h-210q-27 0 -27 21q0 11 6.5 16.5t20.5 12.5q26 12 40 34q16 25 32 104l78 384q8 38 8 56q0 25 -17 35q-3 2 -10 5.5t-10 5.5t-6 6.5t-3 10.5q0 23 35 23h192q30 0 30 -21q0 -9 -5 -14t-18.5 -11t-15.5 -7 q-19 -10 -27.5 -29.5t-19.5 -73.5l-75 -370q-12 -60 -12 -86zM264 808l-125 88q-6 4 -6 9q0 8 13 8h117q26 0 37 -15l71 -85q5 -6 5 -9q0 -7 -9 -7h-64q-23 0 -39 11z" />
<glyph unicode="&#xcd;" horiz-adv-x="344" d="M197 102q0 -22 8 -35t18 -17t18 -10.5t8 -16.5q0 -23 -38 -23h-210q-27 0 -27 21q0 11 6.5 16.5t20.5 12.5q26 12 40 34q16 25 32 104l78 384q8 38 8 56q0 25 -17 35q-3 2 -10 5.5t-10 5.5t-6 6.5t-3 10.5q0 23 35 23h192q30 0 30 -21q0 -9 -5 -14t-18.5 -11t-15.5 -7 q-19 -10 -27.5 -29.5t-19.5 -73.5l-75 -370q-12 -60 -12 -86zM415 898l-159 -90q-21 -11 -45 -11h-68q-7 0 -7 5q0 2 4 6l106 90q18 15 43 15h120q12 0 12 -7q0 -4 -6 -8z" />
<glyph unicode="&#xce;" horiz-adv-x="344" d="M197 102q0 -22 8 -35t18 -17t18 -10.5t8 -16.5q0 -23 -38 -23h-210q-27 0 -27 21q0 11 6.5 16.5t20.5 12.5q26 12 40 34q16 25 32 104l78 384q8 38 8 56q0 25 -17 35q-3 2 -10 5.5t-10 5.5t-6 6.5t-3 10.5q0 23 35 23h192q30 0 30 -21q0 -9 -5 -14t-18.5 -11t-15.5 -7 q-19 -10 -27.5 -29.5t-19.5 -73.5l-75 -370q-12 -60 -12 -86zM173 787h-55q-7 0 -7 4q0 2 2 4l111 108q10 10 22 10h78q12 0 18 -10l65 -104q3 -5 3 -7q0 -5 -7 -5h-44q-9 0 -16 8l-59 67q-3 3 -5 3t-7 -4l-79 -67q-8 -7 -20 -7z" />
<glyph unicode="&#xcf;" horiz-adv-x="344" d="M197 102q0 -22 8 -35t18 -17t18 -10.5t8 -16.5q0 -23 -38 -23h-210q-27 0 -27 21q0 11 6.5 16.5t20.5 12.5q26 12 40 34q16 25 32 104l78 384q8 38 8 56q0 25 -17 35q-3 2 -10 5.5t-10 5.5t-6 6.5t-3 10.5q0 23 35 23h192q30 0 30 -21q0 -9 -5 -14t-18.5 -11t-15.5 -7 q-19 -10 -27.5 -29.5t-19.5 -73.5l-75 -370q-12 -60 -12 -86zM418 864q0 -18 -7 -40t-16 -29q-14 -11 -47 -11q-28 0 -39 7t-11 23q0 18 7.5 40t16.5 29q11 10 48 10q30 0 39 -6t9 -23zM230 864q0 -18 -7 -40t-16 -29q-14 -11 -47 -11q-28 0 -39 7t-11 23q0 18 7.5 40 t16.5 29q11 10 48 10q30 0 39 -6t9 -23z" />
<glyph unicode="&#xd0;" horiz-adv-x="788" d="M497 147q56 53 87 130t31 163q0 133 -85 177q-57 29 -173 29h-13q-14 0 -20 -5t-9 -19l-41 -206q-1 -5 -1 -7q0 -9 10 -9q33 0 67 3t41 3q35 0 35 -20q0 -5 -2 -14t-2 -10q-3 -14 -5 -19.5t-10 -11t-24 -5.5q-13 0 -44.5 2t-69.5 2q-12 0 -15 -12l-26 -129 q-15 -72 -15 -86q0 -21 13 -27t47 -6h16q126 0 208 77zM654 654q107 -67 107 -221q0 -72 -28.5 -150t-85.5 -140q-133 -143 -393 -143h-230q-30 0 -30 22q0 5 2 9t6 7t7 5t9.5 5.5t8.5 4.5q21 10 34 31q16 25 32 103l26 126q1 5 1 7q0 10 -11 10q-23 0 -49.5 -3t-35.5 -3 q-34 0 -34 22q0 2 5 22q4 19 11 27.5t26 8.5q4 0 29 -2t62 -2q13 0 16 12l29 146q11 59 11 71q0 15 -7 24.5t-16 13t-16 9.5t-7 15q0 23 35 23h168q117 0 190 -12t128 -48z" />
<glyph unicode="&#xd1;" horiz-adv-x="803" d="M798 714q34 0 34 -22q0 -6 -2.5 -11t-7.5 -8.5t-9 -5.5t-12 -5.5t-10 -4.5q-27 -13 -42 -35.5t-28 -75.5q-14 -58 -113 -538q-2 -15 -20 -15h-56q-14 0 -21 13l-259 517q-2 4 -5 4t-4 -4q-69 -314 -69 -393q0 -53 39 -75l10 -5t9.5 -5t7.5 -5t5.5 -7.5t1.5 -9.5 q0 -23 -37 -23h-196q-34 0 -34 24q0 3 1 5.5t2 4.5t3 4t4 3.5t6 3.5t6.5 3t8 3t8.5 4q30 15 47.5 38t30.5 77q3 12 95 445q1 5 1 8q0 14 -31 32q-5 3 -13.5 7.5t-12.5 6.5t-8.5 5.5t-6 7.5t-1.5 9q0 23 33 23h124q29 0 39 -21l251 -501q2 -4 5 -4t5 5q54 270 63 324 q9 53 9 77q0 27 -10 43t-22.5 20.5t-22.5 12.5t-10 20q0 24 39 24h175zM344 810l-18 6q-7 3 -7 9q0 12 14 37q32 62 92 62q30 0 70 -16q61 -24 83 -24q29 0 48 32q4 7 10 7q1 0 9 -2l14 -4q8 -2 8 -9q0 -8 -12 -32q-33 -66 -93 -66q-31 0 -85 21q-49 19 -69 19 q-28 0 -45 -33q-5 -9 -11 -9q-2 0 -8 2z" />
<glyph unicode="&#xd2;" horiz-adv-x="810" d="M625 431q0 104 -44.5 165t-124.5 61q-114 0 -193 -110.5t-79 -263.5q0 -104 44.5 -164t123.5 -60q116 0 194.5 110.5t78.5 261.5zM479 726q137 0 216 -81t79 -211q0 -183 -131.5 -314t-312.5 -131q-138 0 -216 80.5t-78 210.5q0 185 131 315.5t312 130.5zM499 808 l-125 88q-6 4 -6 9q0 8 13 8h117q26 0 37 -15l71 -85q5 -6 5 -9q0 -7 -9 -7h-64q-23 0 -39 11z" />
<glyph unicode="&#xd3;" horiz-adv-x="810" d="M625 431q0 104 -44.5 165t-124.5 61q-114 0 -193 -110.5t-79 -263.5q0 -104 44.5 -164t123.5 -60q116 0 194.5 110.5t78.5 261.5zM479 726q137 0 216 -81t79 -211q0 -183 -131.5 -314t-312.5 -131q-138 0 -216 80.5t-78 210.5q0 185 131 315.5t312 130.5zM671 898 l-159 -90q-21 -11 -45 -11h-68q-7 0 -7 5q0 2 4 6l106 90q18 15 43 15h120q12 0 12 -7q0 -4 -6 -8z" />
<glyph unicode="&#xd4;" horiz-adv-x="810" d="M625 431q0 104 -44.5 165t-124.5 61q-114 0 -193 -110.5t-79 -263.5q0 -104 44.5 -164t123.5 -60q116 0 194.5 110.5t78.5 261.5zM479 726q137 0 216 -81t79 -211q0 -183 -131.5 -314t-312.5 -131q-138 0 -216 80.5t-78 210.5q0 185 131 315.5t312 130.5zM399 787h-55 q-7 0 -7 4q0 2 2 4l111 108q10 10 22 10h78q12 0 18 -10l65 -104q3 -5 3 -7q0 -5 -7 -5h-44q-9 0 -16 8l-59 67q-3 3 -5 3t-7 -4l-79 -67q-8 -7 -20 -7z" />
<glyph unicode="&#xd5;" horiz-adv-x="810" d="M625 431q0 104 -44.5 165t-124.5 61q-114 0 -193 -110.5t-79 -263.5q0 -104 44.5 -164t123.5 -60q116 0 194.5 110.5t78.5 261.5zM479 726q137 0 216 -81t79 -211q0 -183 -131.5 -314t-312.5 -131q-138 0 -216 80.5t-78 210.5q0 185 131 315.5t312 130.5zM345 810l-18 6 q-7 3 -7 9q0 12 14 37q32 62 92 62q30 0 70 -16q61 -24 83 -24q29 0 48 32q4 7 10 7q1 0 9 -2l14 -4q8 -2 8 -9q0 -8 -12 -32q-33 -66 -93 -66q-31 0 -85 21q-49 19 -69 19q-29 0 -45 -33q-4 -9 -11 -9q-2 0 -8 2z" />
<glyph unicode="&#xd6;" horiz-adv-x="810" d="M625 431q0 104 -44.5 165t-124.5 61q-114 0 -193 -110.5t-79 -263.5q0 -104 44.5 -164t123.5 -60q116 0 194.5 110.5t78.5 261.5zM479 726q137 0 216 -81t79 -211q0 -183 -131.5 -314t-312.5 -131q-138 0 -216 80.5t-78 210.5q0 185 131 315.5t312 130.5zM640 864 q0 -18 -7 -40t-16 -29q-14 -11 -47 -11q-28 0 -39 7t-11 23q0 18 7.5 40t16.5 29q11 10 48 10q30 0 39 -6t9 -23zM452 864q0 -18 -7 -40t-16 -29q-14 -11 -47 -11q-28 0 -39 7t-11 23q0 18 7.5 40t16.5 29q11 10 48 10q30 0 39 -6t9 -23z" />
<glyph unicode="&#xd7;" horiz-adv-x="611" d="M146 567l159 -160l160 160l50 -50l-160 -160l160 -159l-50 -50l-160 160l-159 -160l-50 50l160 159l-160 160z" />
<glyph unicode="&#xd8;" horiz-adv-x="831" d="M782 714h71q9 0 9 -6q0 -3 -4 -7l-109 -96q-5 -4 -5 -9q0 -3 2 -7q38 -67 38 -156q0 -115 -57 -216.5t-160.5 -164.5t-226.5 -63q-122 0 -200 67q-4 4 -7 4q-4 0 -10 -5l-52 -46q-10 -9 -25 -9h-68q-9 0 -9 7q0 3 4 7l107 93q6 6 6 10q0 3 -3 9q-37 68 -37 155t34 168 t91.5 142t141 98t176.5 37q120 0 200 -67q7 -5 9 -5t9 5l51 44q14 11 24 11zM202 227q2 -7 5 -7q2 0 5 3l385 340q7 7 7 10t-3 8q-44 76 -134 76q-61 0 -113.5 -33t-86.5 -85.5t-53 -115.5t-19 -124q0 -33 7 -72zM364 59q80 0 144 57.5t95 138.5t31 163q0 25 -6 69 q-2 6 -5 6t-8 -5l-383 -337q-6 -5 -6 -10q0 -2 2 -6q45 -76 136 -76z" />
<glyph unicode="&#xd9;" horiz-adv-x="748" d="M771 714q35 0 35 -23q0 -5 -2.5 -9t-7.5 -8t-8.5 -6t-12 -5.5t-11.5 -5.5q-26 -13 -40.5 -35t-28.5 -76q-15 -59 -62 -287q-17 -74 -40 -115q-40 -72 -116 -113.5t-173 -41.5q-65 0 -117.5 17t-89.5 61t-37 111q0 40 12 96l57 284q10 47 10 67q0 28 -17 38q-3 2 -8 4.5 t-8 4.5t-6.5 4.5t-5 6t-1.5 7.5q0 24 35 24h193q29 0 29 -21q0 -7 -4 -12t-8.5 -7.5t-13.5 -6.5t-13 -6q-18 -9 -26.5 -29t-20.5 -74q-54 -270 -55 -276q-9 -44 -9 -76q0 -61 39 -94t107 -33q176 0 218 191q36 162 52 263q6 36 6 61q0 27 -10 43.5t-22.5 21t-22.5 12 t-10 18.5q0 25 39 25h175zM464 808l-125 88q-6 4 -6 9q0 8 13 8h117q26 0 37 -15l71 -85q5 -6 5 -9q0 -7 -9 -7h-64q-23 0 -39 11z" />
<glyph unicode="&#xda;" horiz-adv-x="748" d="M771 714q35 0 35 -23q0 -5 -2.5 -9t-7.5 -8t-8.5 -6t-12 -5.5t-11.5 -5.5q-26 -13 -40.5 -35t-28.5 -76q-15 -59 -62 -287q-17 -74 -40 -115q-40 -72 -116 -113.5t-173 -41.5q-65 0 -117.5 17t-89.5 61t-37 111q0 40 12 96l57 284q10 47 10 67q0 28 -17 38q-3 2 -8 4.5 t-8 4.5t-6.5 4.5t-5 6t-1.5 7.5q0 24 35 24h193q29 0 29 -21q0 -7 -4 -12t-8.5 -7.5t-13.5 -6.5t-13 -6q-18 -9 -26.5 -29t-20.5 -74q-54 -270 -55 -276q-9 -44 -9 -76q0 -61 39 -94t107 -33q176 0 218 191q36 162 52 263q6 36 6 61q0 27 -10 43.5t-22.5 21t-22.5 12 t-10 18.5q0 25 39 25h175zM639 898l-159 -90q-21 -11 -45 -11h-68q-7 0 -7 5q0 2 4 6l106 90q18 15 43 15h120q12 0 12 -7q0 -4 -6 -8z" />
<glyph unicode="&#xdb;" horiz-adv-x="748" d="M771 714q35 0 35 -23q0 -5 -2.5 -9t-7.5 -8t-8.5 -6t-12 -5.5t-11.5 -5.5q-26 -13 -40.5 -35t-28.5 -76q-15 -59 -62 -287q-17 -74 -40 -115q-40 -72 -116 -113.5t-173 -41.5q-65 0 -117.5 17t-89.5 61t-37 111q0 40 12 96l57 284q10 47 10 67q0 28 -17 38q-3 2 -8 4.5 t-8 4.5t-6.5 4.5t-5 6t-1.5 7.5q0 24 35 24h193q29 0 29 -21q0 -7 -4 -12t-8.5 -7.5t-13.5 -6.5t-13 -6q-18 -9 -26.5 -29t-20.5 -74q-54 -270 -55 -276q-9 -44 -9 -76q0 -61 39 -94t107 -33q176 0 218 191q36 162 52 263q6 36 6 61q0 27 -10 43.5t-22.5 21t-22.5 12 t-10 18.5q0 25 39 25h175zM376 787h-55q-7 0 -7 4q0 2 2 4l111 108q10 10 22 10h78q12 0 18 -10l65 -104q3 -5 3 -7q0 -5 -7 -5h-44q-9 0 -16 8l-59 67q-3 3 -5 3t-7 -4l-79 -67q-8 -7 -20 -7z" />
<glyph unicode="&#xdc;" horiz-adv-x="748" d="M771 714q35 0 35 -23q0 -5 -2.5 -9t-7.5 -8t-8.5 -6t-12 -5.5t-11.5 -5.5q-26 -13 -40.5 -35t-28.5 -76q-15 -59 -62 -287q-17 -74 -40 -115q-40 -72 -116 -113.5t-173 -41.5q-65 0 -117.5 17t-89.5 61t-37 111q0 40 12 96l57 284q10 47 10 67q0 28 -17 38q-3 2 -8 4.5 t-8 4.5t-6.5 4.5t-5 6t-1.5 7.5q0 24 35 24h193q29 0 29 -21q0 -7 -4 -12t-8.5 -7.5t-13.5 -6.5t-13 -6q-18 -9 -26.5 -29t-20.5 -74q-54 -270 -55 -276q-9 -44 -9 -76q0 -61 39 -94t107 -33q176 0 218 191q36 162 52 263q6 36 6 61q0 27 -10 43.5t-22.5 21t-22.5 12 t-10 18.5q0 25 39 25h175zM633 864q0 -18 -7 -40t-16 -29q-14 -11 -47 -11q-28 0 -39 7t-11 23q0 18 7.5 40t16.5 29q11 10 48 10q30 0 39 -6t9 -23zM445 864q0 -18 -7 -40t-16 -29q-14 -11 -47 -11q-28 0 -39 7t-11 23q0 18 7.5 40t16.5 29q11 10 48 10q30 0 39 -6t9 -23z " />
<glyph unicode="&#xdd;" horiz-adv-x="693" d="M734 714q30 0 30 -20q0 -13 -23 -26q-34 -19 -59 -43q-20 -18 -79 -89q-13 -15 -51.5 -61.5t-88 -106t-68.5 -82.5q-4 -5 -5 -12l-18 -86q-12 -60 -12 -85q0 -22 8 -35t18 -17t18 -11t8 -17q0 -23 -37 -23h-210q-28 0 -28 22q0 3 0.5 5.5t1.5 4.5t3 4t3.5 3l4.5 3l4.5 3 t5.5 2.5t5 2.5q28 13 40 34q17 30 32 104l10 51q2 10 2 12q0 3 -4 15l-106 306q-21 62 -34 77q-7 10 -24.5 20t-17.5 23q0 22 38 22h188q28 0 28 -20q0 -9 -8 -15.5t-18 -10.5t-18 -14t-8 -24q0 -16 9 -42l80 -228q3 -9 6 -9q2 0 9 8q44 52 136 169q64 85 64 109 q0 18 -18.5 31t-18.5 24q0 22 35 22h167zM590 898l-159 -90q-21 -11 -45 -11h-68q-7 0 -7 5q0 2 4 6l106 90q18 15 43 15h120q12 0 12 -7q0 -4 -6 -8z" />
<glyph unicode="&#xde;" horiz-adv-x="644" d="M444 284q34 44 34 110q0 32 -12 55q-30 55 -137 55h-39q-17 -1 -20 -17l-51 -253q-1 -5 -1 -7q0 -11 13 -11h37q63 1 105.5 16.5t70.5 51.5zM304 571h25q49 0 81 -1.5t76.5 -11t71 -26t46 -50t19.5 -80.5q0 -65 -36 -123q-83 -128 -310 -130h-64q-12 0 -14 -13 q-4 -16 -4 -32q0 -21 8.5 -34.5t19 -18t19 -11.5t8.5 -17q0 -23 -38 -23h-209q-29 0 -29 22q0 4 1.5 7t3 5t5.5 5t5.5 4t7 3.5t6.5 3.5q23 12 39 33q14 18 32 106l77 383q9 43 9 56q0 24 -18 35q-3 2 -10 5.5t-10 5.5t-6 6.5t-3 10.5q0 23 35 23h192q28 0 30 -21 q0 -9 -5 -14t-18.5 -11t-15.5 -7q-29 -15 -40 -71q-1 -6 -1 -9q0 -10 14 -10z" />
<glyph unicode="&#xdf;" horiz-adv-x="646" d="M537 519q-4 -3 -21 -14.5t-28 -20.5t-24.5 -22t-21 -26t-7.5 -26q0 -7 2 -13t7.5 -13t10 -12.5t14.5 -14t17 -13.5t21 -15.5t22 -17.5q39 -30 56.5 -57t17.5 -61q0 -48 -30.5 -91t-78.5 -73q-67 -40 -151 -40q-96 0 -96 58q0 23 11.5 41t32.5 18q14 0 26.5 -13t31 -26.5 t45.5 -13.5q36 0 63.5 24.5t27.5 60.5q0 26 -19 48t-63 54q-46 34 -67 61.5t-21 56.5q0 13 3.5 25t11.5 25t14 21.5t19.5 21.5t19 18.5t21 18.5t17.5 15q25 22 37 34t27 36.5t15 48.5q0 58 -70 58q-50 0 -88 -32q-47 -41 -69 -139q-13 -55 -39 -253q-20 -143 -42 -220 t-75 -138q-39 -45 -89.5 -67.5t-98.5 -22.5q-70 0 -70 28q0 4 2 12l7 30q3 13 13 13q3 0 23 -8t42 -8q25 0 45 11q51 26 73 103t48 279q22 173 42 238q25 82 74 135q100 106 245 106q68 0 112 -27.5t44 -77.5q0 -58 -92 -123z" />
<glyph unicode="&#xe0;" horiz-adv-x="614" d="M253 446q-41 -44 -68.5 -136.5t-27.5 -150.5q0 -73 42 -73q51 0 130 124q36 55 57 110t21 83q0 30 -33 49.5t-62 19.5q-33 0 -59 -26zM534 533q21 0 21 -22q0 -4 -42 -200q-39 -172 -39 -209q0 -28 18 -28q11 0 30 14.5t28 14.5q17 0 17 -18q0 -10 -9 -22 q-24 -33 -59.5 -53.5t-70.5 -20.5q-77 0 -77 88q0 35 8 75l1 6q0 2 -2 2q-1 0 -5 -6q-39 -68 -96 -116.5t-120 -48.5q-54 0 -83.5 39.5t-29.5 109.5q0 59 19.5 126.5t53.5 123.5q46 73 106 109t120 36q40 0 89.5 -16.5t55.5 -16.5q19 0 37 16.5t29 16.5zM364 621l-125 88 q-6 5 -6 9q0 8 13 8h117q26 0 37 -15l71 -85q5 -6 5 -9q0 -7 -9 -7h-64q-23 0 -39 11z" />
<glyph unicode="&#xe1;" horiz-adv-x="614" d="M253 446q-41 -44 -68.5 -136.5t-27.5 -150.5q0 -73 42 -73q51 0 130 124q36 55 57 110t21 83q0 30 -33 49.5t-62 19.5q-33 0 -59 -26zM534 533q21 0 21 -22q0 -4 -42 -200q-39 -172 -39 -209q0 -28 18 -28q11 0 30 14.5t28 14.5q17 0 17 -18q0 -10 -9 -22 q-24 -33 -59.5 -53.5t-70.5 -20.5q-77 0 -77 88q0 35 8 75l1 6q0 2 -2 2q-1 0 -5 -6q-39 -68 -96 -116.5t-120 -48.5q-54 0 -83.5 39.5t-29.5 109.5q0 59 19.5 126.5t53.5 123.5q46 73 106 109t120 36q40 0 89.5 -16.5t55.5 -16.5q19 0 37 16.5t29 16.5zM512 711l-159 -90 q-21 -11 -45 -11h-68q-7 0 -7 5q0 2 4 6l106 90q18 15 43 15h120q12 0 12 -7q0 -4 -6 -8z" />
<glyph unicode="&#xe2;" horiz-adv-x="614" d="M253 446q-41 -44 -68.5 -136.5t-27.5 -150.5q0 -73 42 -73q51 0 130 124q36 55 57 110t21 83q0 30 -33 49.5t-62 19.5q-33 0 -59 -26zM534 533q21 0 21 -22q0 -4 -42 -200q-39 -172 -39 -209q0 -28 18 -28q11 0 30 14.5t28 14.5q17 0 17 -18q0 -10 -9 -22 q-24 -33 -59.5 -53.5t-70.5 -20.5q-77 0 -77 88q0 35 8 75l1 6q0 2 -2 2q-1 0 -5 -6q-39 -68 -96 -116.5t-120 -48.5q-54 0 -83.5 39.5t-29.5 109.5q0 59 19.5 126.5t53.5 123.5q46 73 106 109t120 36q40 0 89.5 -16.5t55.5 -16.5q19 0 37 16.5t29 16.5zM272 600h-55 q-7 0 -7 4q0 2 2 4l111 108q10 10 22 10h78q12 0 18 -10l65 -104q3 -4 3 -7q0 -5 -7 -5h-44q-9 0 -16 8l-59 67q-3 3 -5 3t-7 -4l-79 -67q-8 -7 -20 -7z" />
<glyph unicode="&#xe3;" horiz-adv-x="614" d="M253 446q-41 -44 -68.5 -136.5t-27.5 -150.5q0 -73 42 -73q51 0 130 124q36 55 57 110t21 83q0 30 -33 49.5t-62 19.5q-33 0 -59 -26zM534 533q21 0 21 -22q0 -4 -42 -200q-39 -172 -39 -209q0 -28 18 -28q11 0 30 14.5t28 14.5q17 0 17 -18q0 -10 -9 -22 q-24 -33 -59.5 -53.5t-70.5 -20.5q-77 0 -77 88q0 35 8 75l1 6q0 2 -2 2q-1 0 -5 -6q-39 -68 -96 -116.5t-120 -48.5q-54 0 -83.5 39.5t-29.5 109.5q0 59 19.5 126.5t53.5 123.5q46 73 106 109t120 36q40 0 89.5 -16.5t55.5 -16.5q19 0 37 16.5t29 16.5zM211 624l-18 6 q-7 3 -7 9q0 12 14 37q32 62 92 62q30 0 70 -16q61 -24 83 -24q29 0 48 32q4 7 10 7q1 0 9 -2l14 -4q8 -2 8 -9q0 -8 -12 -32q-33 -66 -93 -66q-31 0 -85 21q-49 19 -69 19q-29 0 -45 -33q-4 -9 -11 -9q-2 0 -8 2z" />
<glyph unicode="&#xe4;" horiz-adv-x="614" d="M253 446q-41 -44 -68.5 -136.5t-27.5 -150.5q0 -73 42 -73q51 0 130 124q36 55 57 110t21 83q0 30 -33 49.5t-62 19.5q-33 0 -59 -26zM534 533q21 0 21 -22q0 -4 -42 -200q-39 -172 -39 -209q0 -28 18 -28q11 0 30 14.5t28 14.5q17 0 17 -18q0 -10 -9 -22 q-24 -33 -59.5 -53.5t-70.5 -20.5q-77 0 -77 88q0 35 8 75l1 6q0 2 -2 2q-1 0 -5 -6q-39 -68 -96 -116.5t-120 -48.5q-54 0 -83.5 39.5t-29.5 109.5q0 59 19.5 126.5t53.5 123.5q46 73 106 109t120 36q40 0 89.5 -16.5t55.5 -16.5q19 0 37 16.5t29 16.5zM525 700 q0 -18 -7 -40t-16 -29q-14 -11 -47 -11q-28 0 -39 7t-11 23q0 18 7.5 40t16.5 29q11 10 48 10q30 0 39 -6t9 -23zM337 700q0 -18 -7 -40t-16 -29q-14 -11 -47 -11q-28 0 -39 7t-11 23q0 18 7.5 40t16.5 29q11 10 48 10q30 0 39 -6t9 -23z" />
<glyph unicode="&#xe5;" horiz-adv-x="614" d="M253 446q-41 -44 -68.5 -136.5t-27.5 -150.5q0 -73 42 -73q51 0 130 124q36 55 57 110t21 83q0 30 -33 49.5t-62 19.5q-33 0 -59 -26zM534 533q21 0 21 -22q0 -4 -42 -200q-39 -172 -39 -209q0 -28 18 -28q11 0 30 14.5t28 14.5q17 0 17 -18q0 -10 -9 -22 q-24 -33 -59.5 -53.5t-70.5 -20.5q-77 0 -77 88q0 35 8 75l1 6q0 2 -2 2q-1 0 -5 -6q-39 -68 -96 -116.5t-120 -48.5q-54 0 -83.5 39.5t-29.5 109.5q0 59 19.5 126.5t53.5 123.5q46 73 106 109t120 36q40 0 89.5 -16.5t55.5 -16.5q19 0 37 16.5t29 16.5zM313 657 q0 -19 13.5 -33t33.5 -14t33.5 14t13.5 33q0 20 -13.5 34t-33.5 14t-33.5 -14t-13.5 -34zM269 657q0 37 26.5 63.5t64.5 26.5t64.5 -26.5t26.5 -63.5t-26.5 -63t-64.5 -26t-64.5 26t-26.5 63z" />
<glyph unicode="&#xe6;" horiz-adv-x="834" d="M300 124q17 26 26 55.5t21 91.5q0 3 -3 3q-1 0 -8 -4q-19 -12 -68.5 -29.5t-72.5 -31.5q-57 -32 -57 -83q0 -27 18.5 -44.5t46.5 -17.5q58 0 97 60zM582 449q-65 -44 -95 -133q-1 -4 -1 -7q0 -7 9 -7q111 0 165 40q42 30 42 71q0 25 -17 40t-43 15q-31 0 -60 -19z M484 237q-13 0 -14 -11q-1 -9 -1 -26q0 -66 28.5 -98.5t75.5 -32.5q34 0 67.5 17t59 34t40.5 17q10 0 16.5 -7t6.5 -17q0 -24 -42 -59q-74 -65 -179 -65q-58 0 -106.5 25t-74.5 75q-2 4 -5 4q-2 0 -5 -4q-32 -43 -83.5 -71.5t-113.5 -28.5t-105 33t-43 90q0 38 24 73t70 58 q33 16 94.5 36.5t78.5 26.5q101 38 101 106q0 27 -19.5 42.5t-48.5 15.5q-56 0 -110 -59l-15 -17.5t-14.5 -17t-12.5 -13t-13 -9.5t-12 -3q-32 0 -32 29q0 21 10 53.5t26 48.5q26 25 78 38t101 13q110 0 159 -63q5 -6 7 -6q1 0 7 4q86 65 177 65q61 0 108 -34t47 -93 q0 -89 -110 -138q-73 -32 -179 -32q-30 0 -44 1z" />
<glyph unicode="&#xe7;" horiz-adv-x="497" d="M458 387q-13 0 -24 7.5t-26.5 22.5t-27.5 24q-32 24 -67 24q-39 0 -71.5 -27.5t-51.5 -68t-29 -82t-10 -75.5q0 -60 28.5 -99.5t83.5 -39.5q33 0 63.5 15.5t53 31.5t35.5 16q9 0 16 -6.5t7 -14.5q0 -24 -41 -58q-70 -59 -161 -67q-21 -17 -21 -32q0 -9 25.5 -13.5 t51.5 -15.5t26 -37q0 -34 -40.5 -59.5t-97.5 -25.5q-23 0 -51 6.5t-28 22.5q0 10 7 16t17 6q6 0 19.5 -4t29.5 -4q24 0 37 9q14 10 14 23q0 10 -12 16.5t-27 9.5t-27 10.5t-12 18.5q0 21 34 55q-73 11 -115.5 65.5t-42.5 133.5q0 134 100 238t230 104q65 0 107 -22 q36 -19 36 -61q0 -63 -38 -63z" />
<glyph unicode="&#xe8;" horiz-adv-x="520" d="M181 302q111 0 165 40q42 30 42 71q0 25 -17 40t-44 15q-50 0 -92 -46.5t-61 -102.5q-2 -6 -2 -10q0 -7 9 -7zM214 236q-32 0 -49 1q-7 0 -8 -9q-2 -14 -2 -33q0 -54 26.5 -89.5t77.5 -35.5q28 0 55.5 10.5t44.5 23t35 23t31 10.5q9 0 16 -6.5t7 -16.5q0 -23 -41 -60 q-75 -65 -182 -65q-90 0 -146 55.5t-56 146.5q0 79 43 158t118.5 131.5t159.5 52.5q72 0 115 -36.5t43 -92.5q0 -40 -27.5 -76t-82.5 -60q-73 -32 -178 -32zM322 621l-125 88q-6 5 -6 9q0 8 13 8h117q26 0 37 -15l71 -85q5 -6 5 -9q0 -7 -9 -7h-64q-23 0 -39 11z" />
<glyph unicode="&#xe9;" horiz-adv-x="520" d="M181 302q111 0 165 40q42 30 42 71q0 25 -17 40t-44 15q-50 0 -92 -46.5t-61 -102.5q-2 -6 -2 -10q0 -7 9 -7zM214 236q-32 0 -49 1q-7 0 -8 -9q-2 -14 -2 -33q0 -54 26.5 -89.5t77.5 -35.5q28 0 55.5 10.5t44.5 23t35 23t31 10.5q9 0 16 -6.5t7 -16.5q0 -23 -41 -60 q-75 -65 -182 -65q-90 0 -146 55.5t-56 146.5q0 79 43 158t118.5 131.5t159.5 52.5q72 0 115 -36.5t43 -92.5q0 -40 -27.5 -76t-82.5 -60q-73 -32 -178 -32zM487 711l-159 -90q-21 -11 -45 -11h-68q-7 0 -7 5q0 2 4 6l106 90q18 15 43 15h120q12 0 12 -7q0 -4 -6 -8z" />
<glyph unicode="&#xea;" horiz-adv-x="520" d="M181 302q111 0 165 40q42 30 42 71q0 25 -17 40t-44 15q-50 0 -92 -46.5t-61 -102.5q-2 -6 -2 -10q0 -7 9 -7zM214 236q-32 0 -49 1q-7 0 -8 -9q-2 -14 -2 -33q0 -54 26.5 -89.5t77.5 -35.5q28 0 55.5 10.5t44.5 23t35 23t31 10.5q9 0 16 -6.5t7 -16.5q0 -23 -41 -60 q-75 -65 -182 -65q-90 0 -146 55.5t-56 146.5q0 79 43 158t118.5 131.5t159.5 52.5q72 0 115 -36.5t43 -92.5q0 -40 -27.5 -76t-82.5 -60q-73 -32 -178 -32zM231 600h-55q-7 0 -7 4q0 2 2 4l111 108q10 10 22 10h78q12 0 18 -10l65 -104q3 -4 3 -7q0 -5 -7 -5h-44 q-9 0 -16 8l-59 67q-3 3 -5 3t-7 -4l-79 -67q-8 -7 -20 -7z" />
<glyph unicode="&#xeb;" horiz-adv-x="520" d="M181 302q111 0 165 40q42 30 42 71q0 25 -17 40t-44 15q-50 0 -92 -46.5t-61 -102.5q-2 -6 -2 -10q0 -7 9 -7zM214 236q-32 0 -49 1q-7 0 -8 -9q-2 -14 -2 -33q0 -54 26.5 -89.5t77.5 -35.5q28 0 55.5 10.5t44.5 23t35 23t31 10.5q9 0 16 -6.5t7 -16.5q0 -23 -41 -60 q-75 -65 -182 -65q-90 0 -146 55.5t-56 146.5q0 79 43 158t118.5 131.5t159.5 52.5q72 0 115 -36.5t43 -92.5q0 -40 -27.5 -76t-82.5 -60q-73 -32 -178 -32zM480 700q0 -18 -7 -40t-16 -29q-14 -11 -47 -11q-28 0 -39 7t-11 23q0 18 7.5 40t16.5 29q11 10 48 10q30 0 39 -6 t9 -23zM292 700q0 -18 -7 -40t-16 -29q-14 -11 -47 -11q-28 0 -39 7t-11 23q0 18 7.5 40t16.5 29q11 10 48 10q30 0 39 -6t9 -23z" />
<glyph unicode="&#xec;" horiz-adv-x="317" d="M258 102q7 0 12 -5t5 -12q0 -23 -36 -53q-50 -43 -103 -43q-38 0 -59 24t-21 66q0 19 6 52l44 219q9 41 9 58q0 25 -21 33q-4 2 -12 4.5t-13 4.5t-10.5 5t-8 7.5t-2.5 10.5q0 23 41 27q68 9 130 30q9 3 17 3q25 0 25 -22q0 -3 -1 -8l-58 -290q-20 -98 -20 -115 q0 -25 18 -25q12 0 31 14.5t27 14.5zM202 621l-125 88q-6 5 -6 9q0 8 13 8h117q26 0 37 -15l71 -85q5 -6 5 -9q0 -7 -9 -7h-64q-23 0 -39 11z" />
<glyph unicode="&#xed;" horiz-adv-x="317" d="M258 102q7 0 12 -5t5 -12q0 -23 -36 -53q-50 -43 -103 -43q-38 0 -59 24t-21 66q0 19 6 52l44 219q9 41 9 58q0 25 -21 33q-4 2 -12 4.5t-13 4.5t-10.5 5t-8 7.5t-2.5 10.5q0 23 41 27q68 9 130 30q9 3 17 3q25 0 25 -22q0 -3 -1 -8l-58 -290q-20 -98 -20 -115 q0 -25 18 -25q12 0 31 14.5t27 14.5zM332 711l-159 -90q-21 -11 -45 -11h-68q-7 0 -7 5q0 2 4 6l106 90q18 15 43 15h120q12 0 12 -7q0 -4 -6 -8z" />
<glyph unicode="&#xee;" horiz-adv-x="317" d="M258 102q7 0 12 -5t5 -12q0 -23 -36 -53q-50 -43 -103 -43q-38 0 -59 24t-21 66q0 19 6 52l44 219q9 41 9 58q0 25 -21 33q-4 2 -12 4.5t-13 4.5t-10.5 5t-8 7.5t-2.5 10.5q0 23 41 27q68 9 130 30q9 3 17 3q25 0 25 -22q0 -3 -1 -8l-58 -290q-20 -98 -20 -115 q0 -25 18 -25q12 0 31 14.5t27 14.5zM109 600h-55q-7 0 -7 4q0 2 2 4l111 108q10 10 22 10h78q12 0 18 -10l65 -104q3 -4 3 -7q0 -5 -7 -5h-44q-9 0 -16 8l-59 67q-3 3 -5 3t-7 -4l-79 -67q-8 -7 -20 -7z" />
<glyph unicode="&#xef;" horiz-adv-x="317" d="M258 102q7 0 12 -5t5 -12q0 -23 -36 -53q-50 -43 -103 -43q-38 0 -59 24t-21 66q0 19 6 52l44 219q9 41 9 58q0 25 -21 33q-4 2 -12 4.5t-13 4.5t-10.5 5t-8 7.5t-2.5 10.5q0 23 41 27q68 9 130 30q9 3 17 3q25 0 25 -22q0 -3 -1 -8l-58 -290q-20 -98 -20 -115 q0 -25 18 -25q12 0 31 14.5t27 14.5zM361 700q0 -18 -7 -40t-16 -29q-14 -11 -47 -11q-28 0 -39 7t-11 23q0 18 7.5 40t16.5 29q11 10 48 10q30 0 39 -6t9 -23zM173 700q0 -18 -7 -40t-16 -29q-14 -11 -47 -11q-28 0 -39 7t-11 23q0 18 7.5 40t16.5 29q11 10 48 10 q30 0 39 -6t9 -23z" />
<glyph unicode="&#xf0;" horiz-adv-x="559" d="M242 54q64 0 105 65t41 158q0 60 -24 94t-69 34q-49 0 -83 -37.5t-47 -85t-13 -98.5q0 -60 24.5 -95t65.5 -35zM521 683q5 -5 5 -9q0 -5 -8 -10l-76 -44q-6 -3 -6 -8q0 -2 4 -9q76 -110 76 -254q0 -166 -90 -263t-212 -97q-88 0 -141 53.5t-53 138.5q0 113 79.5 199 t191.5 86q23 0 42.5 -5t30 -10t12.5 -5q4 0 4 4q0 2 -1 6q-13 48 -45 91q-5 6 -8 6q-2 0 -8 -3l-78 -45q-8 -4 -12 -4q-7 0 -14 7l-22 21q-5 5 -5 10t8 10l73 43q4 3 4 5t-4 6q-33 27 -68 27q-9 0 -23 -1.5t-23 -1.5t-16 6t-7 16q0 19 42 46q45 28 82 28q64 0 128 -57 q4 -4 9 -4q3 0 8 3l73 43q6 3 11 3q8 0 15 -7z" />
<glyph unicode="&#xf1;" horiz-adv-x="659" d="M598 102q16 0 16 -18t-37 -52q-47 -43 -101 -43q-39 0 -62 23t-23 65q0 26 26 143t26 156q0 57 -43 57q-30 0 -66.5 -35t-70.5 -99q-55 -105 -79 -216q-2 -12 -7 -34t-7 -31q-3 -15 -22 -18l-75 -10q-9 -1 -11 -1q-17 0 -17 15q0 3 1 8l69 338q9 45 9 59q0 16 -10.5 25.5 t-23 11.5t-23 8.5t-10.5 18.5q0 21 41 27q68 9 131 30q9 3 16 3q25 0 25 -22q0 -3 -1 -8l-24 -121q-1 -5 -1 -7q0 -3 2 -3t7 8q94 153 208 153q53 0 82.5 -31.5t29.5 -85.5q0 -41 -26 -167.5t-26 -150.5q0 -25 18 -25q11 0 30.5 14.5t28.5 14.5zM207 624l-18 6q-7 3 -7 9 q0 12 14 37q32 62 92 62q30 0 70 -16q61 -24 83 -24q29 0 48 32q4 7 10 7q1 0 9 -2l14 -4q8 -2 8 -9q0 -8 -12 -32q-33 -66 -93 -66q-31 0 -85 21q-49 19 -69 19q-29 0 -45 -33q-4 -9 -11 -9q-2 0 -8 2z" />
<glyph unicode="&#xf2;" horiz-adv-x="577" d="M256 53q69 0 114 77.5t45 186.5q0 75 -27 114t-72 39q-69 0 -114 -73t-45 -184q0 -74 26.5 -117t72.5 -43zM339 533q100 0 154.5 -58.5t54.5 -151.5q0 -130 -90.5 -232t-224.5 -102q-97 0 -153.5 58.5t-56.5 154.5q0 132 92.5 231.5t223.5 99.5zM350 621l-125 88 q-6 5 -6 9q0 8 13 8h117q26 0 37 -15l71 -85q5 -6 5 -9q0 -7 -9 -7h-64q-23 0 -39 11z" />
<glyph unicode="&#xf3;" horiz-adv-x="577" d="M256 53q69 0 114 77.5t45 186.5q0 75 -27 114t-72 39q-69 0 -114 -73t-45 -184q0 -74 26.5 -117t72.5 -43zM339 533q100 0 154.5 -58.5t54.5 -151.5q0 -130 -90.5 -232t-224.5 -102q-97 0 -153.5 58.5t-56.5 154.5q0 132 92.5 231.5t223.5 99.5zM470 711l-159 -90 q-21 -11 -45 -11h-68q-7 0 -7 5q0 2 4 6l106 90q18 15 43 15h120q12 0 12 -7q0 -4 -6 -8z" />
<glyph unicode="&#xf4;" horiz-adv-x="577" d="M256 53q69 0 114 77.5t45 186.5q0 75 -27 114t-72 39q-69 0 -114 -73t-45 -184q0 -74 26.5 -117t72.5 -43zM339 533q100 0 154.5 -58.5t54.5 -151.5q0 -130 -90.5 -232t-224.5 -102q-97 0 -153.5 58.5t-56.5 154.5q0 132 92.5 231.5t223.5 99.5zM249 600h-55q-7 0 -7 4 q0 2 2 4l111 108q10 10 22 10h78q12 0 18 -10l65 -104q3 -4 3 -7q0 -5 -7 -5h-44q-9 0 -16 8l-59 67q-3 3 -5 3t-7 -4l-79 -67q-8 -7 -20 -7z" />
<glyph unicode="&#xf5;" horiz-adv-x="577" d="M256 53q69 0 114 77.5t45 186.5q0 75 -27 114t-72 39q-69 0 -114 -73t-45 -184q0 -74 26.5 -117t72.5 -43zM339 533q100 0 154.5 -58.5t54.5 -151.5q0 -130 -90.5 -232t-224.5 -102q-97 0 -153.5 58.5t-56.5 154.5q0 132 92.5 231.5t223.5 99.5zM199 624l-18 6q-7 3 -7 9 q0 12 14 37q32 62 92 62q30 0 70 -16q61 -24 83 -24q29 0 48 32q4 7 10 7q1 0 9 -2l14 -4q8 -2 8 -9q0 -8 -12 -32q-33 -66 -93 -66q-31 0 -85 21q-49 19 -69 19q-29 0 -45 -33q-4 -9 -11 -9q-2 0 -8 2z" />
<glyph unicode="&#xf6;" horiz-adv-x="577" d="M256 53q69 0 114 77.5t45 186.5q0 75 -27 114t-72 39q-69 0 -114 -73t-45 -184q0 -74 26.5 -117t72.5 -43zM339 533q100 0 154.5 -58.5t54.5 -151.5q0 -130 -90.5 -232t-224.5 -102q-97 0 -153.5 58.5t-56.5 154.5q0 132 92.5 231.5t223.5 99.5zM492 700q0 -18 -7 -40 t-16 -29q-14 -11 -47 -11q-28 0 -39 7t-11 23q0 18 7.5 40t16.5 29q11 10 48 10q30 0 39 -6t9 -23zM304 700q0 -18 -7 -40t-16 -29q-14 -11 -47 -11q-28 0 -39 7t-11 23q0 18 7.5 40t16.5 29q11 10 48 10q30 0 39 -6t9 -23z" />
<glyph unicode="&#xf7;" horiz-adv-x="714" d="M423 199q0 -27 -19 -46.5t-47 -19.5q-27 0 -46.5 19.5t-19.5 46.5q0 28 19.5 47.5t46.5 19.5q28 0 47 -19.5t19 -47.5zM424 518q0 -28 -19.5 -47t-47.5 -19q-27 0 -46.5 19t-19.5 47q0 27 19.5 46.5t46.5 19.5q28 0 47.5 -19.5t19.5 -46.5zM96 337v40q0 13 13 13h496 q13 0 13 -13v-40q0 -13 -13 -13h-496q-13 0 -13 13z" />
<glyph unicode="&#xf8;" horiz-adv-x="600" d="M327 470q-49 0 -86.5 -38t-55 -94t-17.5 -117q0 -14 2 -38l239 230q-25 57 -82 57zM267 53q69 0 113 77.5t44 176.5q0 23 -2 33l-237 -229q27 -58 82 -58zM596 522q7 0 7 -5q0 -2 -3 -5l-72 -70q30 -50 30 -119q0 -136 -91 -235t-224 -99q-82 0 -137 45l-27 -25 q-9 -9 -22 -9h-62q-7 0 -7 5q0 2 3 5l74 71q-31 53 -31 121q0 138 94.5 234.5t220.5 96.5q84 0 138 -44l26 24q9 9 22 9h61z" />
<glyph unicode="&#xf9;" horiz-adv-x="658" d="M590 102q7 0 12 -5t5 -12q0 -20 -37 -52q-50 -44 -102 -44q-79 0 -79 96q0 22 6 54q1 5 1 7q0 3 -2 3t-4 -3q-95 -157 -210 -157q-53 0 -82.5 32t-29.5 86q0 40 26 162.5t26 142.5q0 14 -10.5 23t-22.5 11.5t-22.5 9t-10.5 16.5q0 23 41 29q65 7 129 29q9 3 17 3 q25 0 25 -22q0 -3 -1 -8l-57 -277q-11 -52 -11 -82q0 -55 45 -55q29 0 65 34.5t70 98.5q54 100 79 217l14 65q3 15 22 18l83 11l9 1q12 0 12 -11q0 -2 -1 -7l-65 -315q-17 -85 -17 -101q0 -26 18 -26q13 0 31 14t28 14zM363 621l-125 88q-6 5 -6 9q0 8 13 8h117q26 0 37 -15 l71 -85q5 -6 5 -9q0 -7 -9 -7h-64q-23 0 -39 11z" />
<glyph unicode="&#xfa;" horiz-adv-x="658" d="M590 102q7 0 12 -5t5 -12q0 -20 -37 -52q-50 -44 -102 -44q-79 0 -79 96q0 22 6 54q1 5 1 7q0 3 -2 3t-4 -3q-95 -157 -210 -157q-53 0 -82.5 32t-29.5 86q0 40 26 162.5t26 142.5q0 14 -10.5 23t-22.5 11.5t-22.5 9t-10.5 16.5q0 23 41 29q65 7 129 29q9 3 17 3 q25 0 25 -22q0 -3 -1 -8l-57 -277q-11 -52 -11 -82q0 -55 45 -55q29 0 65 34.5t70 98.5q54 100 79 217l14 65q3 15 22 18l83 11l9 1q12 0 12 -11q0 -2 -1 -7l-65 -315q-17 -85 -17 -101q0 -26 18 -26q13 0 31 14t28 14zM523 711l-159 -90q-21 -11 -45 -11h-68q-7 0 -7 5 q0 2 4 6l106 90q18 15 43 15h120q12 0 12 -7q0 -4 -6 -8z" />
<glyph unicode="&#xfb;" horiz-adv-x="658" d="M590 102q7 0 12 -5t5 -12q0 -20 -37 -52q-50 -44 -102 -44q-79 0 -79 96q0 22 6 54q1 5 1 7q0 3 -2 3t-4 -3q-95 -157 -210 -157q-53 0 -82.5 32t-29.5 86q0 40 26 162.5t26 142.5q0 14 -10.5 23t-22.5 11.5t-22.5 9t-10.5 16.5q0 23 41 29q65 7 129 29q9 3 17 3 q25 0 25 -22q0 -3 -1 -8l-57 -277q-11 -52 -11 -82q0 -55 45 -55q29 0 65 34.5t70 98.5q54 100 79 217l14 65q3 15 22 18l83 11l9 1q12 0 12 -11q0 -2 -1 -7l-65 -315q-17 -85 -17 -101q0 -26 18 -26q13 0 31 14t28 14zM283 600h-55q-7 0 -7 4q0 2 2 4l111 108q10 10 22 10 h78q12 0 18 -10l65 -104q3 -4 3 -7q0 -5 -7 -5h-44q-9 0 -16 8l-59 67q-3 3 -5 3t-7 -4l-79 -67q-8 -7 -20 -7z" />
<glyph unicode="&#xfc;" horiz-adv-x="658" d="M590 102q7 0 12 -5t5 -12q0 -20 -37 -52q-50 -44 -102 -44q-79 0 -79 96q0 22 6 54q1 5 1 7q0 3 -2 3t-4 -3q-95 -157 -210 -157q-53 0 -82.5 32t-29.5 86q0 40 26 162.5t26 142.5q0 14 -10.5 23t-22.5 11.5t-22.5 9t-10.5 16.5q0 23 41 29q65 7 129 29q9 3 17 3 q25 0 25 -22q0 -3 -1 -8l-57 -277q-11 -52 -11 -82q0 -55 45 -55q29 0 65 34.5t70 98.5q54 100 79 217l14 65q3 15 22 18l83 11l9 1q12 0 12 -11q0 -2 -1 -7l-65 -315q-17 -85 -17 -101q0 -26 18 -26q13 0 31 14t28 14zM528 700q0 -18 -7 -40t-16 -29q-14 -11 -47 -11 q-28 0 -39 7t-11 23q0 18 7.5 40t16.5 29q11 10 48 10q30 0 39 -6t9 -23zM340 700q0 -18 -7 -40t-16 -29q-14 -11 -47 -11q-28 0 -39 7t-11 23q0 18 7.5 40t16.5 29q11 10 48 10q30 0 39 -6t9 -23z" />
<glyph unicode="&#xfd;" horiz-adv-x="544" d="M477 533q59 0 59 -63q0 -74 -65 -211t-171 -264q-75 -90 -153 -139t-145 -49q-46 0 -75 26t-29 75q0 47 36 47q13 0 30 -15.5t40.5 -31t51.5 -15.5q52 0 130 65q6 6 6 10q0 1 -0.5 2.5t-1 4.5t-0.5 5q-51 264 -94 401q-11 33 -20 44.5t-30 16.5q-2 1 -10.5 2.5t-12.5 3.5 t-8.5 7.5t-4.5 13.5q0 18 25 26q62 19 93 32q14 6 26 6q25 0 34 -27q20 -53 49.5 -181t47.5 -230q3 -5 5 -5q4 0 10 7q56 78 89.5 158.5t33.5 123.5q0 22 -9 35.5t-20 17.5t-20.5 12.5t-9.5 22.5q2 36 62 57q24 9 51 9zM468 711l-159 -90q-21 -11 -45 -11h-68q-7 0 -7 5 q0 2 4 6l106 90q18 15 43 15h120q12 0 12 -7q0 -4 -6 -8z" />
<glyph unicode="&#xfe;" horiz-adv-x="622" d="M356 76q39 39 68 131t29 158q0 71 -43 71q-49 0 -129 -123q-35 -54 -57 -110.5t-22 -84.5q0 -30 33.5 -49t62.5 -19q34 0 58 26zM473 533q58 0 85 -41.5t27 -103.5q0 -59 -20.5 -128t-55.5 -127q-89 -144 -222 -144q-24 0 -48 5.5t-39.5 11t-17.5 5.5q-4 0 -5 -6 q-15 -72 -15 -98q0 -21 8 -33.5t17 -16t17 -10.5t8 -18q0 -22 -39 -22h-186q-33 0 -33 20q0 11 8 17t22.5 13t24.5 18q24 28 42 118l116 572q9 41 9 60q0 15 -10.5 24t-22.5 11.5t-22.5 9t-10.5 17.5q0 22 41 28q65 7 129 29q9 3 17 3q24 0 24 -22q0 -3 -1 -8l-69 -341 q-2 -10 -2 -11q0 -3 2 -3t5 5q49 84 114 130q52 36 103 36z" />
<glyph unicode="&#xff;" horiz-adv-x="544" d="M477 533q59 0 59 -63q0 -74 -65 -211t-171 -264q-75 -90 -153 -139t-145 -49q-46 0 -75 26t-29 75q0 47 36 47q13 0 30 -15.5t40.5 -31t51.5 -15.5q52 0 130 65q6 6 6 10q0 1 -0.5 2.5t-1 4.5t-0.5 5q-51 264 -94 401q-11 33 -20 44.5t-30 16.5q-2 1 -10.5 2.5t-12.5 3.5 t-8.5 7.5t-4.5 13.5q0 18 25 26q62 19 93 32q14 6 26 6q25 0 34 -27q20 -53 49.5 -181t47.5 -230q3 -5 5 -5q4 0 10 7q56 78 89.5 158.5t33.5 123.5q0 22 -9 35.5t-20 17.5t-20.5 12.5t-9.5 22.5q2 36 62 57q24 9 51 9zM463 700q0 -18 -7 -40t-16 -29q-14 -11 -47 -11 q-28 0 -39 7t-11 23q0 18 7.5 40t16.5 29q11 10 48 10q30 0 39 -6t9 -23zM275 700q0 -18 -7 -40t-16 -29q-14 -11 -47 -11q-28 0 -39 7t-11 23q0 18 7.5 40t16.5 29q11 10 48 10q30 0 39 -6t9 -23z" />
<glyph unicode="&#x152;" horiz-adv-x="1015" d="M440 114l99 490q1 5 1 9q0 44 -78 44q-115 0 -199.5 -110t-84.5 -261q0 -105 48.5 -165t128.5 -60q75 0 85 53zM992 722q20 0 28.5 -5.5t8.5 -22.5q0 -5 -1 -12q-2 -12 -11 -60t-12 -71q-5 -38 -37 -38q-14 0 -21.5 8.5t-12.5 28.5q-14 56 -44 76q-31 20 -145 20h-39 q-14 0 -20.5 -5.5t-8.5 -18.5l-38 -189q-1 -5 -1 -9q0 -15 22 -15q64 0 99 2q17 1 48 4t42 3q36 0 36 -18q0 -5 -1.5 -9.5t-4 -10.5t-3.5 -9q-6 -23 -18 -30.5t-46 -7.5q-20 0 -86 3q-35 1 -92 1q-15 0 -17 -14l-28 -136q-13 -69 -13 -82q0 -22 15 -30t51 -8q54 0 93 8 t65 26t36.5 28.5t28.5 34.5q3 4 10 13.5t9.5 12.5t8 9t9 7.5t9 3.5t11.5 2q13 0 22 -9t9 -22q0 -16 -10 -40q-9 -22 -19 -58t-19.5 -54.5t-28.5 -27.5q-16 -8 -39 -8q-6 0 -60.5 3.5t-112.5 3.5h-192q-8 0 -45 -5.5t-80 -5.5q-132 0 -222 85.5t-90 224.5q0 81 34.5 158.5 t93 136.5t143.5 95t180 36q38 0 76.5 -5.5t56.5 -5.5h176q58 0 123.5 4t73.5 4z" />
<glyph unicode="&#x153;" horiz-adv-x="899" d="M339 533q119 0 178 -96q96 96 207 96q72 0 115 -36.5t43 -92.5q0 -40 -27.5 -76t-82.5 -60q-73 -32 -178 -32q-32 0 -49 1q-7 0 -8 -9q-2 -14 -2 -33q0 -54 26.5 -89.5t77.5 -35.5q28 0 55.5 10.5t44.5 23t35 23t31 10.5q9 0 16 -6.5t7 -16.5q0 -23 -41 -60 q-75 -65 -182 -65q-49 0 -93 22.5t-72 63.5q-89 -86 -207 -86q-97 0 -153.5 58.5t-56.5 154.5q0 132 92.5 231.5t223.5 99.5zM256 53q69 0 114 77.5t45 186.5q0 75 -27 114t-72 39q-69 0 -114 -73t-45 -184q0 -74 26.5 -117t72.5 -43zM561 302q111 0 165 40q42 30 42 71 q0 25 -17 40t-44 15q-50 0 -92 -46.5t-61 -102.5q-2 -6 -2 -10q0 -7 9 -7z" />
<glyph unicode="&#x178;" horiz-adv-x="693" d="M734 714q30 0 30 -20q0 -13 -23 -26q-34 -19 -59 -43q-20 -18 -79 -89q-13 -15 -51.5 -61.5t-88 -106t-68.5 -82.5q-4 -5 -5 -12l-18 -86q-12 -60 -12 -85q0 -22 8 -35t18 -17t18 -11t8 -17q0 -23 -37 -23h-210q-28 0 -28 22q0 3 0.5 5.5t1.5 4.5t3 4t3.5 3l4.5 3l4.5 3 t5.5 2.5t5 2.5q28 13 40 34q17 30 32 104l10 51q2 10 2 12q0 3 -4 15l-106 306q-21 62 -34 77q-7 10 -24.5 20t-17.5 23q0 22 38 22h188q28 0 28 -20q0 -9 -8 -15.5t-18 -10.5t-18 -14t-8 -24q0 -16 9 -42l80 -228q3 -9 6 -9q2 0 9 8q44 52 136 169q64 85 64 109 q0 18 -18.5 31t-18.5 24q0 22 35 22h167zM600 864q0 -18 -7 -40t-16 -29q-14 -11 -47 -11q-28 0 -39 7t-11 23q0 18 7.5 40t16.5 29q11 10 48 10q30 0 39 -6t9 -23zM412 864q0 -18 -7 -40t-16 -29q-14 -11 -47 -11q-28 0 -39 7t-11 23q0 18 7.5 40t16.5 29q11 10 48 10 q30 0 39 -6t9 -23z" />
<glyph unicode="&#x2c6;" horiz-adv-x="520" d="M173 600h-55q-7 0 -7 4q0 2 2 4l111 108q10 10 22 10h78q12 0 18 -10l65 -104q3 -4 3 -7q0 -5 -7 -5h-44q-9 0 -16 8l-59 67q-3 3 -5 3t-7 -4l-79 -67q-8 -7 -20 -7z" />
<glyph unicode="&#x2dc;" horiz-adv-x="590" d="M327 624l-18 6q-7 3 -7 9q0 12 14 37q32 62 92 62q30 0 70 -16q61 -24 83 -24q29 0 48 32q4 7 10 7q1 0 9 -2l14 -4q8 -2 8 -9q0 -8 -12 -32q-33 -66 -93 -66q-31 0 -85 21q-49 19 -69 19q-29 0 -45 -33q-4 -9 -11 -9q-2 0 -8 2z" />
<glyph unicode="&#x2000;" horiz-adv-x="462" />
<glyph unicode="&#x2001;" horiz-adv-x="924" />
<glyph unicode="&#x2002;" horiz-adv-x="462" />
<glyph unicode="&#x2003;" horiz-adv-x="924" />
<glyph unicode="&#x2004;" horiz-adv-x="308" />
<glyph unicode="&#x2005;" horiz-adv-x="231" />
<glyph unicode="&#x2006;" horiz-adv-x="154" />
<glyph unicode="&#x2007;" horiz-adv-x="154" />
<glyph unicode="&#x2008;" horiz-adv-x="115" />
<glyph unicode="&#x2009;" horiz-adv-x="184" />
<glyph unicode="&#x200a;" horiz-adv-x="51" />
<glyph unicode="&#x2010;" horiz-adv-x="378" d="M45 245l13 62q3 14 16 14h231q13 0 13 -12q0 -3 -1 -8l-13 -62q-3 -13 -16 -13l-232 -1q-12 0 -12 12q0 2 1 8z" />
<glyph unicode="&#x2011;" horiz-adv-x="378" d="M45 245l13 62q3 14 16 14h231q13 0 13 -12q0 -3 -1 -8l-13 -62q-3 -13 -16 -13l-232 -1q-12 0 -12 12q0 2 1 8z" />
<glyph unicode="&#x2012;" horiz-adv-x="378" d="M45 245l13 62q3 14 16 14h231q13 0 13 -12q0 -3 -1 -8l-13 -62q-3 -13 -16 -13l-232 -1q-12 0 -12 12q0 2 1 8z" />
<glyph unicode="&#x2013;" horiz-adv-x="739" d="M45 245l13 62q3 14 16 14h592q13 0 13 -12q0 -3 -1 -8l-13 -62q-3 -13 -16 -13l-593 -1q-12 0 -12 12q0 2 1 8z" />
<glyph unicode="&#x2014;" horiz-adv-x="1022" d="M45 245l13 62q3 14 16 14h875q13 0 13 -12q0 -3 -1 -8l-13 -62q-3 -13 -16 -13l-876 -1q-12 0 -12 12q0 2 1 8z" />
<glyph unicode="&#x2018;" horiz-adv-x="281" d="M106 440q-23 32 -23 68q0 70 94 157q23 21 54.5 41t51.5 20q9 0 17 -7.5t8 -18.5q0 -10 -7.5 -15t-24.5 -13.5t-31 -21.5q-40 -33 -40 -68q0 -22 24 -54q29 -39 29 -59t-35.5 -49t-58.5 -29q-11 0 -29 16t-29 33z" />
<glyph unicode="&#x2019;" horiz-adv-x="317" d="M277 677q23 -32 23 -68q0 -70 -94 -157q-23 -21 -54.5 -41t-51.5 -20q-9 0 -17 7.5t-8 18.5q0 10 7.5 15t24.5 13.5t31 21.5q40 33 40 68q0 22 -24 54q-29 39 -29 59t35.5 49t58.5 29q11 0 29 -16t29 -33z" />
<glyph unicode="&#x201a;" horiz-adv-x="304" d="M203 119q23 -32 23 -68q0 -70 -94 -157q-23 -21 -54.5 -41t-51.5 -20q-9 0 -17 7.5t-8 18.5q0 10 7.5 15t24.5 13.5t31 21.5q40 33 40 68q0 22 -24 54q-29 39 -29 59t35.5 49t58.5 29q11 0 29 -16t29 -33z" />
<glyph unicode="&#x201c;" horiz-adv-x="520" d="M345 440q-23 32 -23 68q0 70 94 157q23 21 54.5 41t51.5 20q9 0 17 -7.5t8 -18.5q0 -10 -7.5 -15t-24.5 -13.5t-31 -21.5q-40 -33 -40 -68q0 -22 24 -54q29 -39 29 -59t-35.5 -49t-58.5 -29q-11 0 -29 16t-29 33zM106 440q-23 32 -23 68q0 70 94 157q23 21 54.5 41 t51.5 20q9 0 17 -7.5t8 -18.5q0 -10 -7.5 -15t-24.5 -13.5t-31 -21.5q-40 -33 -40 -68q0 -22 24 -54q29 -39 29 -59t-35.5 -49t-58.5 -29q-11 0 -29 16t-29 33z" />
<glyph unicode="&#x201d;" horiz-adv-x="556" d="M516 677q23 -32 23 -68q0 -70 -94 -157q-23 -21 -54.5 -41t-51.5 -20q-9 0 -17 7.5t-8 18.5q0 10 7.5 15t24.5 13.5t31 21.5q40 33 40 68q0 22 -24 54q-29 39 -29 59t35.5 49t58.5 29q11 0 29 -16t29 -33zM277 677q23 -32 23 -68q0 -70 -94 -157q-23 -21 -54.5 -41 t-51.5 -20q-9 0 -17 7.5t-8 18.5q0 10 7.5 15t24.5 13.5t31 21.5q40 33 40 68q0 22 -24 54q-29 39 -29 59t35.5 49t58.5 29q11 0 29 -16t29 -33z" />
<glyph unicode="&#x201e;" horiz-adv-x="543" d="M442 119q23 -32 23 -68q0 -70 -94 -157q-23 -21 -54.5 -41t-51.5 -20q-9 0 -17 7.5t-8 18.5q0 10 7.5 15t24.5 13.5t31 21.5q40 33 40 68q0 22 -24 54q-29 39 -29 59t35.5 49t58.5 29q11 0 29 -16t29 -33zM203 119q23 -32 23 -68q0 -70 -94 -157q-23 -21 -54.5 -41 t-51.5 -20q-9 0 -17 7.5t-8 18.5q0 10 7.5 15t24.5 13.5t31 21.5q40 33 40 68q0 22 -24 54q-29 39 -29 59t35.5 49t58.5 29q11 0 29 -16t29 -33z" />
<glyph unicode="&#x2022;" horiz-adv-x="442" d="M202 155q-31 0 -75.5 51.5t-44.5 85.5q0 31 58.5 80t91.5 49q31 0 75.5 -51t44.5 -86q0 -31 -58.5 -80t-91.5 -49z" />
<glyph unicode="&#x2026;" horiz-adv-x="823" d="M96 -11q-21 0 -50 34t-29 57q0 22 39.5 55t60.5 33t50.5 -34t29.5 -57t-40 -55.5t-61 -32.5zM643 -11q-21 0 -50 34t-29 57q0 22 39.5 55t60.5 33t50.5 -34t29.5 -57t-40 -55.5t-61 -32.5zM371 -11q-21 0 -50 34t-29 57q0 22 39.5 55t60.5 33t50.5 -34t29.5 -57 t-40 -55.5t-61 -32.5z" />
<glyph unicode="&#x202f;" horiz-adv-x="184" />
<glyph unicode="&#x2039;" horiz-adv-x="396" d="M269 107l-11 -57q-2 -6 -6 -6q-2 0 -5 3l-206 222q-5 5 -5 9q0 5 9 11l292 218q5 4 8 4q5 0 5 -5q0 -2 -1 -7l-14 -65q-3 -13 -15 -22l-177 -132q-10 -7 -10 -10q0 -2 5 -7l126 -135q6 -6 6 -13q0 -2 -1 -8z" />
<glyph unicode="&#x203a;" horiz-adv-x="383" d="M111 448l11 57q2 6 6 6q2 0 5 -3l206 -222q5 -5 5 -9q0 -5 -9 -11l-292 -218q-5 -4 -8 -4q-5 0 -5 5q0 2 1 7l14 65q3 13 15 22l177 132q10 7 10 10q0 2 -5 7l-126 135q-6 6 -6 13q0 2 1 8z" />
<glyph unicode="&#x205f;" horiz-adv-x="231" />
<glyph unicode="&#x20ac;" horiz-adv-x="622" d="M561 596q12 -13 12 -42q0 -27 -8 -51q-10 -33 -36 -33q-14 0 -24.5 13t-17.5 28.5t-24.5 28.5t-43.5 13q-87 0 -146 -149q-1 -3 -1 -5q0 -5 8 -5h195q9 0 9 -7q0 -1 -1 -4l-13 -30q-5 -11 -16 -11h-190q-9 0 -12 -10q-6 -20 -8 -38q-1 -8 -1 -10q0 -7 8 -7h175q9 0 9 -7 q0 -2 -3 -9l-10 -25q-4 -11 -17 -11h-159q-12 0 -12 -10v-16q0 -24 3.5 -46.5t12 -45.5t26.5 -37t43 -14q33 0 61 22.5t49 45.5t37 23q28 0 28 -29q0 -22 -14.5 -55t-35.5 -50q-30 -24 -92 -24q-105 0 -171.5 58.5t-74.5 166.5q0 11 -12 11h-50q-11 0 -11 10q0 2 1 7l5 23 q3 12 15 12h43q11 0 12 11q4 25 9 44l1 5q0 5 -8 5h-43q-11 0 -11 9q0 2 1 8l5 23q1 12 14 12h52q9 0 14 9q49 102 137.5 161.5t187.5 59.5q67 0 93 -28z" />
<glyph unicode="&#x2122;" horiz-adv-x="731" d="M733 714q16 0 16 -12q0 -3 -1 -5t-3 -4t-4 -3l-6 -3l-6 -3q-14 -7 -19 -18t-11 -40l-18 -92q-6 -34 -6 -50q0 -17 13 -26.5t13 -15.5q0 -14 -20 -14h-110q-17 0 -17 13q0 6 4 9t12 7.5t14 9.5q15 14 25 64l21 108l1 5q0 2 -2 2t-5 -5l-99 -159q-6 -8 -15 -8h-18 q-10 0 -13 9l-33 157q-2 6 -3 6q-3 0 -4 -7q-22 -110 -22 -139q0 -17 5.5 -27.5t11.5 -13t11.5 -7t5.5 -10.5q0 -14 -21 -14h-86q-21 0 -21 13q0 5 3.5 8.5t11 8t12.5 9.5q21 20 37 95l20 95q1 6 1 10q0 13 -14.5 19t-14.5 14q0 14 22 14h85q16 0 19 -13l27 -126q1 -5 3 -5 t4 3l83 129q8 12 20 12h91zM337 718q22 0 22 -17q0 -5 -1.5 -14.5t-4.5 -25.5t-5 -29q-3 -21 -21 -21q-9 0 -14 6t-7 14t-7 19t-12 18q-12 12 -27 12q-7 0 -8 -7l-28 -139q-7 -35 -7 -47q0 -19 13.5 -29t13.5 -16q0 -14 -21 -14h-109q-18 0 -18 13q0 5 5 9t13.5 8.5 t13.5 9.5q14 14 24 63l27 137q1 5 1 7q0 5 -5 5q-21 0 -37 -13q-11 -9 -20 -23.5t-15.5 -23.5t-16.5 -9q-20 0 -20 19q0 4 5 34q4 27 7 36q5 18 26 18q4 0 37 -2t65 -2h36q31 0 61.5 2t33.5 2z" />
<glyph unicode="&#x25fc;" horiz-adv-x="535" d="M0 535h535v-535h-535v535z" />
</font>
</defs>
</svg>
