<?xml version="1.0" standalone="no"?>
<!DOCTYPE svg PUBLIC "-//W3C//DTD SVG 1.1//EN" "http://www.w3.org/Graphics/SVG/1.1/DTD/svg11.dtd" >
<svg xmlns="http://www.w3.org/2000/svg" xmlns:xlink="http://www.w3.org/1999/xlink" version="1.1">
<metadata></metadata>
<defs>
<font id="p22_mackinac_probold" horiz-adv-x="741" >
<font-face units-per-em="1000" ascent="800" descent="-200" />
<missing-glyph horiz-adv-x="225" />
<glyph unicode="&#xfb01;" horiz-adv-x="662" d="M610 48q21 -13 21 -25q0 -23 -33 -23h-191q-34 0 -34 23q0 2 0.5 4t1 3.5t2 3.5t2.5 3t3.5 3t4 2.5t4.5 2.5t4 3q24 15 34 36q12 24 12 106v153q0 55 -9 73q-8 16 -34 27q-24 11 -27 17q-2 -13 -12 -20q-8 -6 -28 -6q-7 0 -22.5 1.5t-25.5 1.5q-16 1 -39 1q-12 0 -12 -12 v-237q0 -81 12 -105q11 -22 34 -36q21 -12 21 -25q0 -23 -33 -23h-192q-33 0 -33 23q0 12 21 25q24 15 34 36q12 24 12 105v241q0 8 -9 8h-62q-14 0 -14 13v40q0 13 13 13h64q8 0 9 9q8 82 59 142q77 92 215 92q57 0 82 -19q28 -21 28 -75q0 -55 -32 -55q-15 0 -21.5 5.5 t-20.5 25.5q-36 51 -85 51q-41 0 -68 -30q-35 -38 -35 -137q0 -9 10 -9q32 0 52 2q48 5 54 5q31 0 31 -19v-6l-1 -4q4 6 23 10q59 14 115 35q16 6 24 6q25 0 25 -30v-313q0 -78 12 -106q8 -20 34 -36z" />
<glyph unicode="&#xfb02;" horiz-adv-x="664" d="M611 47q21 -12 21 -25q0 -22 -33 -22h-189q-33 0 -33 22q0 13 21 25q24 14 34 36q12 28 12 106v433q0 13 -12 27q-26 31 -76 31q-42 0 -72 -26q-52 -44 -52 -140q0 -11 11 -11q39 0 59 2q45 5 47 5q28 0 28 -19q0 -3 -4 -21q-4 -23 -15 -31q-9 -6 -26 -6q-7 0 -20 1.5 t-21 1.5q-18 1 -47 1q-12 0 -12 -12v-236q0 -82 11 -106q9 -19 35 -35q21 -12 21 -26q0 -22 -33 -22h-192q-33 0 -33 22q0 13 21 26q25 15 34 35q12 26 12 106v240q0 8 -10 8h-61q-14 0 -14 13v40q0 13 14 13h65q10 0 12 9q10 71 50 127q38 51 95 79.5t123 28.5q31 0 84 -12 q13 -3 22 -3q8 0 32 10q12 5 20 5q25 0 25 -30v-528q0 -82 12 -106q11 -22 34 -36z" />
<glyph unicode="&#xfb03;" horiz-adv-x="999" d="M947 48q21 -12 21 -25q0 -23 -33 -23h-192q-33 0 -33 23q0 12 21 25q24 14 34 36q12 24 12 106v152q0 58 -8 74q-10 18 -35 27q-22 8 -26 17q-6 -25 -38 -25q-9 0 -26.5 1.5t-23.5 1.5q-15 1 -40 1q-12 0 -12 -13v-237q0 -77 12 -105q9 -21 34 -36q21 -12 21 -26 q0 -22 -33 -22h-192q-33 0 -33 22q0 13 21 26q25 16 34 36q12 28 12 105q0 31 -0.5 124t-0.5 118q0 8 -9 8h-191q-12 0 -12 -13v-237q0 -77 12 -105q9 -21 34 -36q22 -14 22 -26q0 -22 -34 -22h-192q-33 0 -33 22q0 12 22 26q25 16 34 36q11 26 11 105v242q0 8 -9 8h-62 q-13 0 -13 12v40q0 13 13 13h63q9 0 10 9q6 75 39 128q31 50 88 78t121 28q49 0 73 -18q28 -22 28 -73q0 -57 -33 -57q-13 0 -20 6t-22 25q-38 49 -75 49q-30 0 -51 -29q-26 -38 -27 -137q0 -9 11 -9h194q9 0 10 9q8 82 60 143q77 91 210 91q60 0 87 -18q28 -19 28 -73 q0 -57 -34 -57q-12 0 -19.5 6.5t-21.5 25.5q-37 50 -86 50q-42 0 -67 -29q-35 -38 -35 -138q0 -9 10 -9q32 0 52 2q48 5 53 5q32 0 32 -20q0 -7 -1 -10q5 5 24 10q68 16 116 35q15 6 24 6q24 0 24 -30v-313q0 -82 12 -106q11 -21 34 -36z" />
<glyph unicode="&#xfb04;" horiz-adv-x="1000" d="M947 47q21 -12 21 -25q0 -22 -33 -22h-190q-33 0 -33 22q0 13 21 25q23 13 34 36q12 26 12 106v433q0 14 -11 27q-29 31 -76 31q-41 0 -73 -26q-51 -43 -51 -141q0 -10 10 -10q44 0 72 3.5t36 3.5q27 0 27 -20q0 -3 -4 -19q-7 -27 -15 -32t-25 -5q-10 0 -42 2 q-19 1 -48 1q-12 0 -12 -12v-236q0 -80 12 -106q9 -20 34 -35q21 -13 21 -26q0 -22 -33 -22h-191q-34 0 -34 22q0 14 22 26q25 14 34 35q11 27 11 106v240q0 8 -10 8h-190q-12 0 -12 -12v-236q0 -80 12 -106q9 -20 34 -35q21 -13 21 -26q0 -22 -33 -22h-191q-33 0 -33 22 q0 13 21 26q25 15 34 35q12 26 12 106q0 31 -0.5 123t-0.5 118q0 8 -9 8h-61q-14 0 -14 12v40q0 13 14 13h62q9 0 10 9q6 74 40 126q32 51 87 80t120 29q50 0 74 -18q28 -21 28 -75q0 -57 -34 -57q-4 0 -7 0.5t-5 1.5t-5 3l-4.5 3t-4.5 5t-4.5 5t-5 6.5t-5.5 7.5 q-37 49 -75 49q-32 0 -52 -30q-25 -36 -26 -136q0 -9 11 -9h197q10 0 11 9q10 72 50 126q38 52 96 80t124 28q34 0 82 -12q12 -3 19 -3q6 0 19 5q30 11 38 11q24 0 24 -30v-528q0 -78 12 -106q11 -23 34 -36z" />
<glyph horiz-adv-x="0" />
<glyph horiz-adv-x="333" />
<glyph unicode=" "  horiz-adv-x="225" />
<glyph unicode="&#x09;" horiz-adv-x="225" />
<glyph unicode="&#xa0;" horiz-adv-x="225" />
<glyph unicode="!" horiz-adv-x="350" d="M279 79q0 -22 -34 -56t-55 -34q-22 0 -56 34t-34 56q0 21 34 55t56 34q21 0 55 -34t34 -55zM143 323q-4 61 -18.5 157.5t-14.5 152.5q0 51 22 74q18 19 57 19t58 -19q21 -22 21 -73q0 -58 -14.5 -158t-18.5 -153q-1 -6 -1.5 -18t-1 -17t-2 -14t-2.5 -13t-3.5 -11 t-5.5 -9.5t-7.5 -6t-10 -4.5t-12.5 -1t-12.5 1t-9.5 4.5t-7 6.5t-5.5 9t-4 10.5t-2.5 13.5t-1.5 14.5l-1.5 16.5t-2 18z" />
<glyph unicode="&#x22;" horiz-adv-x="385" d="M329 696q11 -15 11 -52q0 -77 -22 -152q-15 -49 -38 -49t-38 49q-22 75 -22 152q0 37 11 52q14 18 49 18q36 0 49 -18zM154 696q11 -15 11 -52q0 -77 -22 -152q-15 -49 -38 -49t-38 49q-22 75 -22 152q0 37 11 52q14 18 49 18q36 0 49 -18z" />
<glyph unicode="#" horiz-adv-x="658" d="M360 357l39 120h-102l-39 -120h102zM585 477h-108l-39 -120h108l-23 -69h-107l-63 -192h-78l63 192h-102l-63 -192h-78l63 192h-107l22 69h107l39 120h-107l23 69h106l59 180h78l-58 -180h101l59 180h78l-58 -180h107z" />
<glyph unicode="$" horiz-adv-x="558" d="M451 398q42 -45 42 -108q0 -76 -55.5 -130.5t-134.5 -66.5v-82q0 -11 -11 -11h-35q-12 0 -12 11v77q-65 0 -119 18.5t-74 50.5q-14 23 -18 74q-2 22 -2 34q0 34 29 34q17 0 28 -16q2 -3 9.5 -14t17 -24t21.5 -26q62 -68 132 -68q47 0 80 28t33 70q0 49 -44 77 q-29 18 -94.5 39.5t-98.5 39.5q-87 48 -87 137q0 71 56.5 123t130.5 60v86q0 11 12 11h35q11 0 11 -11v-84q101 -5 141 -47q22 -22 22 -83q0 -56 -30 -56q-12 0 -20 5t-12.5 12t-15 23.5t-21.5 30.5q-42 55 -105 55q-39 0 -66 -24t-27 -58q0 -54 62 -81q25 -11 75.5 -28 t85 -34t59.5 -44z" />
<glyph unicode="%" horiz-adv-x="858" d="M291 534q0 63 -18 102t-47 39q-63 0 -63 -141q0 -60 18 -100.5t47 -40.5q63 0 63 141zM394 534q0 -85 -48.5 -138.5t-118.5 -53.5q-81 0 -124 55t-43 137q0 81 48.5 136.5t118.5 55.5q76 0 121.5 -53.5t45.5 -138.5zM707 181q0 63 -18 102t-47 39q-63 0 -63 -141 q0 -60 18 -100.5t47 -40.5q63 0 63 141zM810 181q0 -85 -48.5 -138.5t-118.5 -53.5q-81 0 -124 55t-43 137q0 81 48.5 136.5t118.5 55.5q76 0 121.5 -53.5t45.5 -138.5zM182 0l437 714h72l-436 -714h-73z" />
<glyph unicode="&#x26;" horiz-adv-x="739" d="M469 108q2 2 2 4t-2 4q-24 18 -83.5 56.5t-107 74.5t-76.5 70q-2 2 -4 2q-3 0 -5 -3q-27 -37 -27 -82q0 -70 54 -120.5t128 -50.5q70 0 121 45zM674 416q30 0 30 -22q0 -4 -1 -7t-4 -5.5t-5 -4t-7.5 -5t-7.5 -4.5q-30 -18 -46 -60q-1 -2 -16.5 -51t-28.5 -74q-2 -4 -2 -5 t4 -5q20 -16 34 -33q53 -61 53 -124q0 -16 -18 -16h-81q-17 0 -20 15q-7 32 -34 59q-2 2 -4 2t-4 -2q-77 -84 -216 -84q-105 0 -181.5 58.5t-76.5 151.5q0 57 34 103t92 64q-22 46 -22 89q0 79 56.5 126t131.5 47q86 0 122 -40q17 -20 17 -70q0 -35 -6.5 -53t-28.5 -18 q-21 0 -32 19q-2 4 -8 17t-13.5 26.5t-15.5 23.5q-24 31 -61 31q-27 0 -48 -21.5t-21 -57.5q0 -45 39.5 -85.5t123.5 -94.5q65 -42 130 -88l5 -3q17 28 17 70q0 54 -54 84q-24 12 -24 26q0 21 33 21h165z" />
<glyph unicode="'" horiz-adv-x="210" d="M154 696q11 -15 11 -52q0 -77 -22 -152q-15 -49 -38 -49t-38 49q-22 75 -22 152q0 37 11 52q14 18 49 18q36 0 49 -18z" />
<glyph unicode="(" horiz-adv-x="383" d="M364 -138q0 -18 -27 -18t-73 26.5t-90 73.5q-64 70 -101 161.5t-37 189.5q0 99 36.5 190.5t101.5 161.5q44 47 90 73.5t73 26.5t27 -19q0 -13 -23 -29q-75 -53 -121 -149q-54 -112 -54 -255q0 -139 54 -254q44 -94 121 -149q23 -17 23 -30z" />
<glyph unicode=")" horiz-adv-x="383" d="M19 729q0 18 27 18t73 -26.5t90 -73.5q64 -70 101 -161.5t37 -189.5q0 -99 -36.5 -190.5t-101.5 -161.5q-44 -47 -90 -73.5t-73 -26.5t-27 19q0 13 23 29q75 53 121 149q54 112 54 255q0 138 -54 254q-44 94 -121 149q-23 17 -23 30z" />
<glyph unicode="*" horiz-adv-x="429" d="M188 621q-2 6 -16 38.5t-14 50.5q0 16 10 26q11 11 42 11q32 0 43 -11q10 -10 10 -25q0 -18 -14.5 -50.5t-16.5 -39.5q-2 -6 -3.5 -14t-2.5 -12.5t-3 -9.5t-5 -7t-8 -2q-4 0 -7 2t-5 7t-3.5 9.5t-3 12.5t-3.5 14zM143 560q-12 0 -32 -2t-30 -2q-51 0 -51 35 q0 21 10.5 45.5t33.5 24.5q12 0 31 -12q9 -5 28 -22.5t28 -24.5q5 -4 13.5 -8.5t13 -7.5t8 -7t3.5 -8q0 -14 -19 -14q-5 0 -17.5 1.5t-19.5 1.5zM193 503q-4 -11 -9 -36.5t-9 -34.5q-13 -34 -36 -34q-15 0 -38 16q-28 21 -28 39t22 37q8 7 30.5 20t31.5 19q5 4 13.5 11.5 t14 11t10.5 3.5q12 0 12 -12q0 -4 -2 -10t-6 -15t-6 -15zM261 529q9 -7 31.5 -20t30.5 -20q23 -19 23 -35q0 -17 -28 -40q-20 -16 -38 -16q-23 0 -36 34q-3 9 -9 34t-10 36q-13 35 -13 39q0 13 12 13q5 0 10.5 -3.5t13.5 -11t13 -10.5zM258 601q10 7 29 24.5t28 22.5 q19 12 32 12q23 0 38 -41q6 -16 6 -30q0 -34 -55 -34q-9 0 -30 2t-31 2q-8 0 -20 -1t-16 -1q-18 0 -18 13q0 6 4.5 10.5t15.5 10.5t17 10z" />
<glyph unicode="+" horiz-adv-x="690" d="M606 377v-39q0 -13 -13 -13h-207q-7 0 -7 -7v-209q0 -13 -13 -13h-43q-13 0 -13 13v209q0 7 -7 7h-206q-13 0 -13 13v39q0 13 13 13h206q7 0 7 7v208q0 13 13 13h43q13 0 13 -13v-208q0 -7 7 -7h207q13 0 13 -13z" />
<glyph unicode="," horiz-adv-x="283" d="M208 117q30 -37 30 -75q0 -66 -72 -147q-26 -31 -53.5 -51t-42.5 -20q-10 0 -17.5 7t-7.5 17q0 8 6 14q1 1 18 13t30 27q31 34 31 61q0 24 -30 56q-35 37 -35 55q0 20 31.5 51.5t51.5 31.5q12 0 30 -12.5t30 -27.5z" />
<glyph unicode="-" horiz-adv-x="332" d="M36 239v69q0 13 13 13h234q13 0 13 -13v-69q0 -13 -13 -13h-234q-13 0 -13 13z" />
<glyph unicode="." horiz-adv-x="268" d="M223 78q0 -21 -33.5 -55t-55.5 -34t-55.5 34t-33.5 55t33.5 55t55.5 34t55.5 -33.5t33.5 -55.5z" />
<glyph unicode="/" horiz-adv-x="493" d="M-43 -96l515 843h73l-516 -843h-72z" />
<glyph unicode="0" horiz-adv-x="716" d="M512 352q0 137 -43.5 222t-113.5 85q-72 0 -111 -76t-39 -219q0 -134 43.5 -220t112.5 -86q71 0 111 73t40 221zM656 361q0 -165 -88.5 -268.5t-216.5 -103.5q-97 0 -164 51t-97 131t-30 182q0 155 88.5 264t216.5 109q137 0 214 -98.5t77 -266.5z" />
<glyph unicode="1" horiz-adv-x="406" d="M297 696v-676q0 -20 -22 -20h-89q-22 0 -22 20v519q0 59 -6 71q-8 15 -34 15q-11 0 -35.5 -2t-36.5 -2q-21 0 -27 8q-8 10 -8 32q0 20 22 24q9 2 36.5 5t39.5 5q30 4 89 18q56 13 63 13q30 0 30 -30z" />
<glyph unicode="2" horiz-adv-x="582" d="M105 675q65 51 178 51q98 0 168.5 -55t70.5 -144q0 -90 -77 -158q-40 -36 -136.5 -86.5t-129.5 -83.5q-36 -35 -36 -66q0 -16 19 -16h179q79 0 104 6q20 5 39 28q14 17 26 17q21 0 21 -26q0 -13 -8 -58q-1 -7 -4 -27.5t-5 -26.5t-8.5 -17t-19 -14.5t-32.5 -3.5 q-15 0 -68 2.5t-83 2.5h-201q-30 0 -41.5 15.5t-11.5 48.5q0 102 98 197q28 27 93 79.5t92 82.5q51 56 51 119q0 47 -28.5 82t-78.5 35q-48 0 -83 -35q-13 -13 -22.5 -26.5t-22 -36t-13.5 -23.5q-10 -16 -16 -20.5t-20 -4.5q-31 0 -31 65q0 69 37 97z" />
<glyph unicode="3" horiz-adv-x="599" d="M487 330q60 -48 60 -127q0 -68 -43 -118t-106 -73t-134 -23q-68 0 -124 19.5t-77 54.5q-18 29 -18 95q0 22 2 34t10.5 20.5t24.5 8.5q20 0 30 -18q3 -5 12.5 -24t19 -34.5t21.5 -30.5q48 -59 114 -59q58 0 90 39.5t32 109.5q0 67 -37 102.5t-101 35.5q-17 0 -37.5 -2 t-26.5 -2q-32 0 -32 22q0 2 0.5 8t0.5 9t-0.5 8t-0.5 8q0 23 31 23q7 0 29 -2.5t40 -2.5q57 1 86.5 36t29.5 95q0 55 -31 87t-77 32q-52 0 -88 -40q-12 -13 -21 -26.5t-20 -34t-13 -23.5q-14 -24 -37 -24q-31 0 -31 61q0 76 41 108q59 44 177 44q94 0 167.5 -49t73.5 -133 q0 -55 -40 -99t-118 -63q-4 -1 -4 -4t4 -3q75 -9 121 -45z" />
<glyph unicode="4" horiz-adv-x="630" d="M476 278h88q20 0 20 -19v-59q0 -20 -20 -20h-89q-6 0 -7.5 -2t-1.5 -9q1 -62 12 -84q12 -24 34 -37t22 -25q0 -23 -34 -23h-192q-34 0 -34 23q0 13 21 25q23 13 35 37q11 22 12 84q0 11 -9 11h-273q-18 0 -18 19v44q0 18 11 33q85 119 124 221.5t44 212.5q0 16 18 16h75 q17 0 17 -16q0 -74 -50 -190.5t-138 -230.5q-5 -7 -5 -8q0 -3 6 -3h189q9 0 9 9v294q0 16 16 16h91q17 0 17 -15v-294q0 -10 10 -10z" />
<glyph unicode="5" horiz-adv-x="571" d="M448 392q73 -64 73 -162q0 -107 -77.5 -174t-187.5 -67q-61 0 -113 18t-74 51q-21 31 -21 115q0 48 38 48q20 0 30 -18q4 -6 12.5 -24t20 -37t26.5 -36q47 -53 117 -53q55 0 93.5 36t38.5 93q0 67 -55 112q-90 74 -266 74h-17q-12 0 -12 10q0 2 2 12l63 313q3 11 15 11 h150q82 0 103 6t36 21q16 17 29 17q20 0 20 -25q0 -3 -6 -45q-1 -4 -2 -13t-1.5 -12.5l-1.5 -10.5t-2 -10t-2 -8t-2.5 -8t-3 -6.5t-4 -6.5t-4.5 -5q-11 -10 -58 -10h-217q-9 0 -10 -7l-19 -97q-1 -5 -1 -8q0 -6 7 -6q192 -3 283 -88z" />
<glyph unicode="6" horiz-adv-x="623" d="M200 232q0 -86 33.5 -132t90.5 -46q55 0 88 47.5t33 123.5q0 80 -32.5 127.5t-90.5 47.5q-53 0 -87.5 -43.5t-34.5 -124.5zM528 606q0 -41 -7.5 -58t-27.5 -17q-22 0 -36 23q-4 6 -12 20.5t-13.5 23.5t-14.5 20.5t-17 19.5q-26 25 -65 25q-63 0 -102 -74.5t-40 -206.5 q0 -4 3 -4q2 0 3 3q23 48 68 75t101 27q85 0 145.5 -60t60.5 -164q0 -118 -73.5 -194t-181.5 -76q-86 0 -146.5 49t-86.5 122t-26 162q0 132 47 232q41 87 106 129.5t143 42.5q50 0 94 -15t61 -35q17 -22 17 -70z" />
<glyph unicode="7" horiz-adv-x="556" d="M525 699q0 -54 -7.5 -94t-28.5 -79.5t-39 -64.5t-60 -76q-77 -96 -112.5 -159.5t-35.5 -114.5q0 -42 30 -68q14 -11 14 -23q0 -20 -29 -20h-116q-23 0 -30 10.5t-7 34.5q0 89 72 192q31 44 102 125t80 92q62 76 76 129l1 7q0 8 -14 8h-194q-82 0 -103 -5t-36 -22 q-16 -18 -28 -18q-21 0 -21 26q0 7 6 45q1 5 2 13l1.5 12t1.5 11t2 10.5t2 8.5t2.5 8t3 6.5t4 6l4.5 4.5q12 10 58 10h381q18 0 18 -15z" />
<glyph unicode="8" horiz-adv-x="662" d="M438 541q0 55 -28 87t-76 32t-78.5 -32t-30.5 -90q0 -54 32.5 -86.5t75.5 -32.5t74 33t31 89zM194 185q0 -54 39 -92t100 -38q53 0 94 37t41 108q0 68 -42 105.5t-91 37.5q-55 0 -98 -41t-43 -117zM578 553q0 -62 -42.5 -99t-102.5 -51q-12 -3 -12 -8t12 -8 q83 -19 130.5 -70t47.5 -120q0 -88 -77.5 -148t-201.5 -60q-123 0 -201 55t-78 142q0 65 45 111.5t130 61.5q10 1 10 8q0 5 -8 8q-61 19 -104 61t-43 105q0 82 69.5 133.5t179.5 51.5q107 0 176.5 -45.5t69.5 -127.5z" />
<glyph unicode="9" horiz-adv-x="628" d="M424 484q0 85 -33 131.5t-88 46.5q-56 0 -90 -46t-34 -125t33 -127t89 -48q53 0 88 42.5t35 125.5zM79 136q0 56 37 56q18 0 32 -22q1 -1 10.5 -17.5t20 -31t21.5 -25.5q41 -41 87 -41q141 0 145 279q0 4 -3 4t-4 -3q-23 -47 -67 -74.5t-99 -27.5q-86 0 -147 61t-61 164 q0 117 74 192.5t182 75.5q89 0 149.5 -51.5t86 -127.5t25.5 -170q0 -117 -42 -214q-38 -87 -108.5 -130.5t-158.5 -43.5q-50 0 -93.5 13.5t-63.5 36.5q-23 27 -23 97z" />
<glyph unicode=":" horiz-adv-x="369" d="M271 433q0 -22 -33.5 -55.5t-55.5 -33.5t-55.5 34t-33.5 55t33.5 55t55.5 34t55.5 -34t33.5 -55zM271 78q0 -21 -33.5 -55t-55.5 -34t-55.5 34t-33.5 55t33.5 55t55.5 34t55.5 -33.5t33.5 -55.5z" />
<glyph unicode=";" horiz-adv-x="387" d="M289 433q0 -22 -34 -55.5t-55 -33.5q-22 0 -56 34t-34 55t34 55t56 34q21 0 55 -34t34 -55zM256 117q30 -37 30 -75q0 -66 -72 -147q-26 -31 -53.5 -51t-42.5 -20q-10 0 -17.5 7t-7.5 17q0 8 6 14q1 1 18 13t30 27q31 34 31 61q0 24 -30 56q-35 37 -35 55q0 20 31.5 51.5 t51.5 31.5q12 0 30 -12.5t30 -27.5z" />
<glyph unicode="&#x3c;" horiz-adv-x="712" d="M223 328q-2 -1 -2 -3q0 -3 3 -4l372 -163q13 -6 13 -20v-68q0 -9 -6 -9q-1 0 -7 2l-485 213q-13 6 -13 20v57q0 14 13 20l485 214q6 2 7 2q6 0 6 -9v-68q0 -14 -13 -20q-364 -160 -373 -164z" />
<glyph unicode="=" horiz-adv-x="736" d="M107 421v40q0 13 13 13h496q13 0 13 -13v-40q0 -13 -13 -13h-496q-13 0 -13 13zM107 254v39q0 13 13 13h496q13 0 13 -13v-39q0 -13 -13 -13h-496q-13 0 -13 13z" />
<glyph unicode="&#x3e;" horiz-adv-x="712" d="M489 328l-373 164q-13 6 -13 20v68q0 9 6 9q1 0 7 -2l485 -214q13 -6 13 -20v-57q0 -14 -13 -20l-485 -213q-6 -2 -7 -2q-6 0 -6 9v68q0 14 13 20q363 159 372 163q3 1 3 4q0 2 -2 3z" />
<glyph unicode="?" horiz-adv-x="536" d="M427 406q-23 -17 -70 -40t-65 -34q-40 -25 -40 -54q0 -23 31 -32q20 -6 20 -20q0 -30 -68 -30q-41 0 -62.5 17.5t-21.5 48.5q0 39 39 78q14 14 58 48t66 58q42 46 42 98q0 48 -26.5 82.5t-77.5 34.5q-45 0 -72.5 -25.5t-27.5 -57.5q0 -31 36 -44q1 0 8.5 -2.5t10 -3.5 t7 -4t6 -7t1.5 -10q0 -23 -25 -39.5t-55 -16.5q-42 0 -69 28.5t-27 75.5q0 68 62.5 119.5t163.5 51.5q108 0 167.5 -55t59.5 -125q0 -86 -71 -140zM234 -11q-22 0 -56 34t-34 55q0 22 34 56t56 34t55.5 -34t33.5 -56q0 -21 -33.5 -55t-55.5 -34z" />
<glyph unicode="@" horiz-adv-x="1060" d="M552 241q64 100 64 152q0 30 -42 50q-22 9 -39 9q-27 0 -47 -21q-36 -38 -63 -126q-21 -67 -21 -119q0 -61 31 -61q41 0 117 116zM899 541q67 -104 67 -227q0 -118 -62 -202t-160 -84q-68 0 -112.5 42t-48.5 113q0 4 -4 4q-3 0 -4 -3q-38 -65 -92 -108q-47 -38 -96 -38 t-72.5 37t-23.5 91q0 114 72 221q79 119 184 119q34 -1 75.5 -14.5t48.5 -13.5q15 0 35 18q11 11 20 11q20 0 20 -21q0 -2 -2 -12q-13 -53 -41 -182q-16 -73 -16 -120q0 -87 70 -87q36 0 70.5 29t57.5 81q25 60 25 134q0 120 -72 211q-52 64 -131 100.5t-167 36.5 q-166 0 -283 -120t-117 -289q0 -170 117 -290t283 -120q94 0 176.5 41.5t139.5 116.5q10 13 24 13q10 0 17 -6.5t7 -16.5q0 -11 -7 -21q-56 -79 -152.5 -128.5t-204.5 -49.5q-189 0 -322 134t-133 327q0 192 133.5 326t321.5 134q112 0 206.5 -49t152.5 -138z" />
<glyph unicode="A" d="M345 550l-99 -236q-6 -14 -6 -16q0 -6 9 -6h191q8 0 8 5q0 2 -2 8l-93 245q-1 3 -4 3t-4 -3zM724 43q16 -9 16 -21q0 -22 -33 -22h-196q-30 0 -30 20q0 12 15 21q19 12 22 15q9 9 9 21q0 16 -13 49l-32 84q-6 15 -24 15h-239q-11 0 -16 -13q-33 -80 -33 -118q0 -14 5 -24 q3 -6 7.5 -11.5t7.5 -7.5t9 -5.5t7 -4.5q13 -9 13 -20q0 -21 -34 -21h-153q-34 0 -34 22q0 11 17 23q31 22 51 52q25 38 47 88l233 523q6 14 19 14h49q15 0 19 -13q210 -550 217 -566q27 -65 44 -81q5 -5 30 -19z" />
<glyph unicode="B" horiz-adv-x="674" d="M601 102q-77 -102 -304 -102h-220q-35 0 -35 23q0 13 22 25q23 12 33 36q11 28 11 104v381q0 46 -4 64t-23 29q-3 2 -15 8t-15.5 10.5t-3.5 12.5q0 21 30 21h236q59 0 91.5 -2t73 -12t67.5 -31q58 -42 58 -117q0 -45 -23 -80q-21 -33 -59.5 -53.5t-76.5 -26.5 q-7 -1 -7 -6t6 -5q84 -9 134 -52q57 -48 57 -125q0 -58 -33 -102zM241 335v-161q0 -81 9 -93q6 -8 18.5 -10t49.5 -2q173 0 173 144q0 133 -176 133q-48 0 -63 -1q-11 0 -11 -10zM256 414h47q69 0 113.5 29t44.5 93v5q-2 107 -153 107h-51q-15 0 -15 -15v-205q0 -14 14 -14z " />
<glyph unicode="C" horiz-adv-x="687" d="M517 110q23 24 50 69q13 21 22 28.5t21 7.5q21 0 28.5 -13.5t7.5 -42.5v-7q-1 -48 -11 -74t-33 -43q-28 -20 -81.5 -33t-113.5 -13q-87 0 -159 31t-117.5 83t-70 116.5t-24.5 134.5q0 71 25.5 137t72.5 118.5t122 84.5t167 32q111 0 169 -36q29 -18 35.5 -36.5t6.5 -60.5 v-10q0 -38 -7 -53t-27 -15q-16 0 -24 6.5t-18 23.5q-1 1 -8 13t-11 17.5t-11.5 16t-16.5 19t-20 16.5q-41 30 -94 30q-93 0 -153.5 -82t-60.5 -207q0 -22 1 -33q9 -132 73 -202t148 -70q67 0 112 47z" />
<glyph unicode="D" horiz-adv-x="768" d="M520 147q67 74 67 210q0 193 -127 260q-58 31 -193 31q-15 0 -20 -5.5t-5 -18.5v-435v-12q0 -52 2.5 -70.5t12.5 -26.5q13 -11 55 -11q138 0 208 78zM580 649q73 -44 112 -119.5t39 -164.5q0 -71 -24 -134t-72.5 -116t-132 -84t-193.5 -31h-232q-35 0 -35 22q0 13 22 26 q25 15 34 36q11 26 11 103v386q0 44 -4.5 61t-23.5 29q-2 2 -14 7.5t-15.5 10t-3.5 12.5q0 21 30 21h167q126 0 202 -15.5t133 -49.5z" />
<glyph unicode="E" horiz-adv-x="649" d="M595 207q19 -7 19 -29q0 -9 -5 -31q-5 -19 -11 -57t-13 -59t-22 -31q-12 -8 -33 -8q-6 0 -62 4t-116 4h-275q-35 0 -35 22q0 13 22 26q24 14 34 36q12 28 12 103v387q0 28 -1 40.5t-7.5 26t-20.5 22.5q-3 2 -11 6t-11 6t-6.5 7t-3.5 11q0 21 30 21h262q66 0 134.5 3.5 t69.5 3.5q34 0 36 -32q1 -16 1 -69q0 -9 1.5 -37t1.5 -38q0 -32 -32 -32q-17 0 -24.5 7t-18.5 32q-1 2 -5 12t-7.5 16.5t-9.5 15.5t-14.5 17t-18.5 14q-36 21 -144 21h-44q-14 0 -19 -5.5t-5 -18.5v-189q0 -17 10.5 -21.5t33.5 -4.5h6q37 0 75 3q88 6 95 6q33 0 33 -22 q0 -6 -2 -20q0 -2 -1 -9.5t-1.5 -10.5t-3 -7.5t-7.5 -8.5q-10 -7 -40 -7q-19 0 -59.5 2.5t-72.5 2.5q-37 0 -52 -1q-14 -2 -14 -14v-161q0 -43 3.5 -61t15.5 -26q13 -8 57 -8q51 0 84 7q48 10 74.5 32t58.5 71q22 33 43 33q9 0 16 -3z" />
<glyph unicode="F" horiz-adv-x="611" d="M585 549q0 -21 -9 -28.5t-27 -7.5q-12 0 -20 7.5t-16 28.5q-8 19 -12.5 29t-17 25t-28.5 24q-18 10 -47 15t-53.5 5.5t-76.5 0.5h-11q-14 0 -19 -5.5t-5 -18.5v-216q0 -15 5.5 -21.5t20.5 -6.5q64 0 99 2q18 1 39 3t34.5 3t22.5 1q16 0 24 -5t8 -17q0 -6 -2 -20 q-4 -30 -13 -36q-9 -7 -41 -7q-18 0 -59 2.5t-72 2.5q-36 0 -52 -1q-14 -2 -14 -14v-107q0 -77 11 -103q9 -21 34 -36q22 -13 22 -26q0 -22 -35 -22h-198q-35 0 -35 22q0 13 22 26q25 15 34 36q12 28 12 103v398q0 35 -5 51t-24 27q-3 2 -11 6t-11 6t-6.5 7t-3.5 11 q0 21 30 21h262q60 0 126 3.5t74 3.5q38 0 39 -32l3 -70q2 -44 2 -70z" />
<glyph unicode="G" horiz-adv-x="736" d="M666 346q31 0 31 -20q0 -6 -3.5 -11t-7 -7t-11.5 -6.5t-12 -7.5q-19 -13 -23 -32.5t-4 -72.5v-91q0 -26 -20 -42q-89 -67 -215 -67q-164 1 -264.5 104t-100.5 265q0 153 108 260.5t273 107.5q115 0 175 -36q41 -25 41 -100v-22q-3 -54 -34 -54q-14 0 -22 7t-18 24 q-32 55 -65 80q-43 32 -97 32q-94 0 -154 -76t-60 -195q0 -138 63 -231.5t168 -93.5q41 0 65 11q23 10 23 34v83q0 53 -8 73.5t-37 31.5q-2 1 -6.5 2.5t-7 2t-6 2t-5.5 2.5t-5 3t-4.5 3.5t-3 4t-2 5.5t-0.5 6q2 20 32 20z" />
<glyph unicode="H" horiz-adv-x="799" d="M735 48q22 -13 22 -26q0 -22 -35 -22h-198q-35 0 -35 22q0 13 22 26q24 14 34 36q11 26 11 103v145q0 13 -14 13h-290q-10 0 -10 -9v-149q0 -75 12 -103q10 -23 33 -36q22 -13 22 -26q0 -22 -34 -22h-198q-35 0 -35 22q0 13 22 26q25 15 34 36q11 26 11 103v371 q0 53 -4 73t-23 32q-4 3 -10 6t-9.5 5t-7.5 4.5t-5.5 6.5t-1.5 9q0 20 30 20h195q30 0 30 -20q0 -6 -3 -11t-6.5 -7t-11.5 -6t-13 -7q-19 -12 -23 -32t-4 -73v-133q0 -12 15 -12h290q9 0 9 8v149q0 45 -4.5 63.5t-22.5 29.5q-5 3 -12.5 7t-11.5 6t-7 7t-3 11q0 20 30 20h195 q30 0 30 -20q0 -8 -3.5 -12.5t-15 -10.5t-14.5 -8q-18 -11 -22.5 -29.5t-4.5 -63.5v-383q0 -77 11 -103q10 -22 34 -36z" />
<glyph unicode="I" horiz-adv-x="351" d="M287 48q1 -1 4 -2.5t4 -2.5t3.5 -2.5t3.5 -3t2.5 -3t2.5 -3.5t1.5 -4t0.5 -5q0 -22 -35 -22h-197q-35 0 -35 22q0 3 0.5 5.5t2 4.5t2.5 3.5t4 3.5t4 3t4.5 3t4.5 3q26 17 34 36q11 27 11 104v391q0 39 -4.5 56t-22.5 28q-5 3 -12.5 7t-11.5 6t-7 7t-3 11q0 20 30 20h194 q31 0 31 -20q0 -8 -4 -12.5t-15 -10.5t-15 -8q-18 -11 -22.5 -28t-4.5 -56v-391q0 -76 11 -104q9 -20 34 -36z" />
<glyph unicode="J" horiz-adv-x="483" d="M30 15q-30 26 -30 98q0 54 35 54q21 0 38 -27q1 -1 14 -21.5t19.5 -28t22.5 -17.5t33 -10q33 0 56 26q30 36 30 151v285q0 87 -7 108q-7 23 -35 36q-13 7 -17.5 11.5t-4.5 13.5q0 20 34 20h194q32 0 32 -21q0 -13 -23 -25q-25 -13 -33 -36q-7 -24 -7 -107q0 -15 0.5 -73 t0.5 -91q0 -67 -1.5 -103t-13 -85.5t-34.5 -81.5q-35 -49 -90 -75.5t-115 -26.5q-68 0 -98 26z" />
<glyph unicode="K" horiz-adv-x="763" d="M734 22q0 -22 -29 -22h-77q-58 0 -83 18q-16 11 -36 39t-86 129q-54 82 -74.5 107.5t-34.5 25.5q-12 0 -31 -17l-31 -29q-10 -10 -10 -22v-64q0 -75 12 -103q8 -20 33 -36q1 -1 4 -3t4.5 -2.5t4 -2.5t3.5 -3t2.5 -3t2 -3.5t1 -4t0.5 -4.5q0 -22 -34 -22h-198 q-35 0 -35 22q0 13 22 26q23 14 33 36q12 28 12 103v371q0 53 -4 73t-23 32q-4 3 -10 6t-9.5 5t-7.5 4.5t-5.5 6.5t-1.5 9q0 20 30 20h195q30 0 30 -20q0 -6 -3 -11t-6.5 -7t-11.5 -6t-13 -7q-18 -11 -22.5 -29.5t-4.5 -63.5v-201q0 -5 4 -5q3 0 5 2q127 122 186 186 q67 70 67 96q0 12 -14.5 23.5t-14.5 21.5q0 21 32 21h189q29 0 29 -21q0 -8 -6 -13.5t-22.5 -12.5t-21.5 -9q-63 -32 -164 -130q-99 -96 -111 -108q-13 -13 -13 -17q0 -5 6 -5q2 0 7 2.5t12 2.5q22 0 49 -33t92 -133q46 -70 77.5 -111.5t44 -53t28.5 -21.5q3 -2 8.5 -5 t8.5 -5.5t7 -5.5t5.5 -6t1.5 -7z" />
<glyph unicode="L" horiz-adv-x="582" d="M545 211q15 0 25.5 -8.5t10.5 -22.5q0 -11 -5 -33q-5 -20 -11 -57.5t-13.5 -58.5t-22.5 -31q-12 -8 -33 -8q-5 0 -61.5 4t-116.5 4h-241q-35 0 -35 22q0 13 22 26q24 13 34 36q11 27 11 104v376q0 49 -4 68t-23 31q-4 3 -10 6t-9.5 5t-7.5 4.5t-5.5 6.5t-1.5 9 q0 20 30 20h195q31 0 31 -20q0 -8 -4 -12.5t-15 -10.5t-15 -8q-18 -11 -22.5 -29.5t-4.5 -63.5v-418q0 -36 3.5 -52.5t15.5 -24.5q13 -8 43 -8q27 0 64 7q48 11 75.5 33t58.5 70q22 34 42 34z" />
<glyph unicode="M" horiz-adv-x="912" d="M848 48q22 -13 22 -26q0 -22 -34 -22h-199q-34 0 -34 22q0 13 22 26q25 13 33 36q12 28 12 133v372q0 5 -4 5t-5 -4l-197 -456q-5 -12 -9.5 -15t-13.5 -3h-35q-10 0 -15 3.5t-9 14.5l-196 457q-2 3 -4 3q-5 0 -5 -5q0 -310 3 -409q1 -43 11 -70t21 -36.5t31 -19.5 q2 -1 8.5 -4t8.5 -4t7 -4t7 -5.5t3.5 -6t1.5 -7.5q0 -23 -36 -23h-171q-38 0 -38 22q0 11 17 24t22 19q32 39 33 176q1 86 1 375q0 20 -4 27q-6 10 -23 17q-2 1 -6.5 2.5t-6.5 2.5l-6 3t-6.5 3.5t-5 4t-4 4.5t-2.5 5.5t-1 6.5q0 22 35 22h166q30 0 38 -20l170 -387 q2 -4 5 -4q4 0 5 3l168 387q10 21 31 21h174q30 0 30 -20q0 -6 -3 -11t-6.5 -7t-11.5 -6t-13 -7q-19 -12 -23 -32t-4 -73v-371q0 -75 12 -103q8 -22 33 -36z" />
<glyph unicode="N" horiz-adv-x="800" d="M559 714h176q35 0 35 -22q0 -6 -4 -11.5t-7.5 -7.5t-12 -6t-10.5 -5q-16 -8 -24 -16.5t-16 -33t-10 -66.5q-5 -84 -5 -540q0 -14 -16 -14h-67q-19 0 -28 14l-364 518q-2 3 -5 3q-4 0 -4 -5q0 -306 3 -352q2 -39 13 -64t22 -34.5t28 -17.5q2 -1 7.5 -3.5t7 -3.5t6 -3t6 -4 t4 -4.5t3.5 -5.5t1 -7q0 -23 -35 -23h-194q-36 0 -36 22q0 5 2 9t6 7.5t7.5 5t10 4.5t8.5 4q24 12 38.5 36t17.5 82q5 65 5 445q0 10 -6 16q-12 13 -32 23q-7 3 -18 8l-16.5 7.5t-10.5 8.5t-5 14q0 22 36 22h134q29 0 43 -19l351 -500q2 -3 5 -3q4 0 4 5q0 284 -4 349 q-3 57 -14.5 79t-34.5 34q-4 2 -13 6t-13 6.5t-8 7.5t-4 12q0 23 37 23z" />
<glyph unicode="O" horiz-adv-x="798" d="M390 657q-92 0 -149.5 -75.5t-57.5 -198.5q0 -137 61.5 -230t163.5 -93q94 0 150 78t56 195q0 136 -61 230t-163 94zM761 360q-2 -156 -105 -263.5t-257 -107.5q-166 0 -264 100t-98 262q0 157 102 266t260 109q165 0 263.5 -102t98.5 -264z" />
<glyph unicode="P" horiz-adv-x="628" d="M455 427q20 33 20 78q0 53 -29 88q-44 54 -148 54h-38q-17 0 -17 -17v-256q0 -13 14 -13h38q120 2 160 66zM596 425q-62 -133 -277 -133h-65q-11 0 -11 -13v-90q0 -80 12 -106q8 -18 34 -35q21 -14 21 -26q0 -22 -33 -22h-201q-34 0 -34 22q0 12 22 26q25 15 34 35 q11 24 11 106v402q0 32 -5 47t-23 25q-3 2 -11.5 6t-11.5 6t-6.5 7t-3.5 11q0 21 31 21h201q77 0 115 -2t86.5 -17t79.5 -46q53 -52 53 -137q0 -48 -18 -87z" />
<glyph unicode="Q" horiz-adv-x="805" d="M184 383q0 -83 24.5 -155.5t77 -121t123.5 -48.5q95 0 151 78t56 196q0 132 -61 228.5t-165 96.5q-95 0 -150.5 -77.5t-55.5 -196.5zM763 359q-1 -119 -63 -212.5t-165 -133.5q14 -7 35 -22q100 -75 148 -81q3 0 9.5 -1t11 -1.5t9.5 -3t8 -6.5t3 -11q0 -13 -19 -23 l-79 -40q-24 -12 -46 -12q-21 0 -39 11q-29 18 -117 92q-85 71 -133 79q-138 21 -213.5 118t-75.5 244q0 153 103.5 261.5t259.5 108.5q166 0 264.5 -102.5t98.5 -264.5z" />
<glyph unicode="R" horiz-adv-x="720" d="M310 399q63 0 107 30.5t44 98.5q0 38 -12.5 63t-35.5 36.5t-46 15.5t-54 4h-52q-18 0 -18 -16v-219q0 -13 14 -13h53zM677 51q2 -2 9 -5.5t10.5 -6t6.5 -7.5t3 -11q0 -21 -29 -21h-85q-50 0 -73 36q-6 9 -14 26t-15 34t-19.5 46.5t-20.5 49.5q-27 62 -56 95t-70 41 q-18 3 -43 3q-20 0 -26 -1q-12 -2 -12 -14v-127q0 -82 12 -106q10 -21 34 -35q21 -13 21 -26q0 -22 -33 -22h-201q-33 0 -33 22q0 13 21 26q25 16 34 35q12 26 12 106v380q0 46 -4.5 64t-24.5 30q-3 2 -14 7.5t-14.5 10t-3.5 12.5q0 21 30 21h164q19 0 56 0.5t49 0.5 q143 0 201 -48q58 -47 58 -124q0 -41 -16 -71q-41 -83 -147 -97q-9 -1 -9 -6t9 -6q54 -7 85.5 -44t68.5 -126q34 -80 48.5 -105.5t30.5 -36.5z" />
<glyph unicode="S" horiz-adv-x="601" d="M501 672q26 -26 26 -98q0 -19 -1.5 -30t-9.5 -21t-23 -10q-16 0 -29 16q-5 6 -17.5 24t-25 33.5t-26.5 28.5q-46 44 -101 44q-47 0 -79 -28t-32 -69q0 -63 74 -96q28 -12 86.5 -31t98 -39t67.5 -50q49 -53 49 -125q0 -47 -21 -89q-34 -69 -102 -105.5t-163 -36.5 q-74 0 -135 21t-84 58q-13 20 -18 80q0 5 -1.5 20.5t-1.5 21.5q0 19 9 29t23 10q18 0 31 -19q37 -54 53 -71q72 -80 154 -80q57 0 94.5 32t37.5 82q0 59 -52 92q-33 21 -108.5 45.5t-112.5 44.5q-101 54 -101 156q0 75 54.5 133t132.5 74q32 7 72 7q57 0 107 -14.5t75 -39.5 z" />
<glyph unicode="T" horiz-adv-x="621" d="M617 548q0 -19 -8.5 -27t-27.5 -8q-21 0 -36 35q-26 58 -58 79q-30 19 -89 19q-21 0 -21 -21v-436q0 -82 12 -106q10 -21 34 -35q21 -12 21 -26q0 -22 -33 -22h-202q-33 0 -33 22q0 13 21 26q28 17 35 35q11 27 11 106v436q0 21 -20 21q-58 0 -89 -19q-10 -6 -18.5 -13.5 t-15 -18.5t-9.5 -16t-9 -18l-6 -13q-9 -20 -16 -28t-20 -8q-37 0 -37 36q0 8 1.5 28t1.5 27q0 14 0.5 45t1.5 41q1 32 42 32q12 0 76 -3.5t113 -3.5h143q50 0 114 3.5t75 3.5q41 0 42 -32q1 -10 1.5 -41t0.5 -45q0 -11 1 -29.5t1 -25.5z" />
<glyph unicode="U" horiz-adv-x="758" d="M708 714q36 0 36 -22q0 -4 -1 -7t-3.5 -5.5l-4.5 -4.5t-6 -4t-6.5 -3t-7 -3t-5.5 -3q-22 -11 -34 -33.5t-16 -81.5q-2 -19 -2 -138.5t-1 -150.5q-2 -68 -17 -113q-27 -76 -95 -116t-166 -40q-214 0 -268 144q-17 44 -17 126v310q0 46 -4.5 64t-23.5 30q-2 2 -14 7.5 t-15.5 10t-3.5 12.5q0 21 30 21h195q30 0 30 -21q0 -8 -3.5 -12.5t-15.5 -10t-14 -7.5q-19 -12 -23.5 -30t-4.5 -64l1 -287q0 -66 15 -106q38 -97 163 -97q84 0 130.5 48t48.5 143q1 35 1 130q0 116 -2 147q-3 56 -15 78.5t-34 33.5q-4 2 -13 6t-13 6.5t-8 7.5t-4 12 q0 23 37 23h174z" />
<glyph unicode="V" horiz-adv-x="742" d="M710 714q34 0 34 -22q0 -11 -17 -23q-32 -22 -51 -52q-22 -31 -47 -88l-233 -524q-6 -13 -18 -13h-50q-15 0 -19 13l-217 566q-25 63 -43 80q-8 7 -31 20q-16 8 -16 21q0 22 34 22h195q30 0 30 -21q0 -8 -4 -12.5t-14 -10t-14 -8.5q-13 -10 -13 -25q0 -17 11 -48 l162 -425q1 -3 4 -3t4 3q115 269 144 342q31 76 31 113q0 15 -5 25q-7 13 -25.5 24t-18.5 24q0 22 34 22h153z" />
<glyph unicode="W" horiz-adv-x="1118" d="M1084 714q33 0 33 -22q0 -13 -18 -24q-32 -21 -52 -51q-22 -31 -44 -90l-193 -521q-4 -13 -16 -13h-51q-11 0 -16 12l-173 518q-2 3 -4 3t-4 -3l-189 -517q-5 -13 -17 -13h-56q-12 0 -16 12l-177 566q-17 58 -39 78q-9 8 -32 21q-16 9 -16 21q0 23 35 23h196q30 0 30 -21 q0 -12 -14 -20q-20 -12 -23 -16q-8 -10 -8 -25q0 -17 8 -44l116 -391q2 -4 4 -4q3 0 6 9l185 508q4 11 17 11h64q13 0 16 -11l166 -513q2 -5 4 -5q1 0 3 5l111 309q26 74 26 109q0 33 -36 56q-14 9 -14 21q0 22 34 22h154z" />
<glyph unicode="X" horiz-adv-x="752" d="M697 49q3 -2 10.5 -6t10.5 -6t6 -6t3 -10q0 -21 -30 -21h-206q-30 0 -30 20q0 9 15 21.5t15 24.5q0 17 -32 64l-120 172q-3 3 -5 3q-3 0 -6 -4q-96 -137 -119 -199q-4 -11 -4 -21q0 -20 16 -32q3 -2 12 -7t12.5 -9.5t3.5 -11.5q0 -21 -31 -21h-160q-32 0 -32 20 q0 5 1.5 9t5.5 8t7.5 6.5t10 7.5t9.5 7q39 30 80 85q53 72 145 214q4 7 4 12t-4 11l-137 196q-33 47 -46.5 62t-34.5 27q-3 1 -9 4t-8.5 5t-6.5 4.5t-5.5 6t-1.5 8.5q0 21 30 21h205q30 0 30 -20q0 -6 -2.5 -10t-10 -9.5t-8.5 -6.5q-9 -8 -9 -21q0 -18 31 -63l110 -157 q3 -4 5 -4q3 0 6 4q93 140 109 185q4 11 4 22q0 19 -16 30l-9 6t-9.5 6t-6.5 6.5t-3 10.5q0 21 32 21h160q32 0 32 -20q0 -6 -3.5 -12t-6.5 -8.5t-12 -9t-12 -8.5q-38 -29 -80 -85q-57 -75 -137 -200q-4 -7 -4 -11t4 -10q128 -184 140 -200q6 -9 17.5 -24t15.5 -20.5 t11.5 -15.5t11.5 -14t10.5 -10t12.5 -9.5t13 -7.5z" />
<glyph unicode="Y" horiz-adv-x="712" d="M674 714q35 0 35 -21q0 -13 -17 -23q-28 -19 -50 -44q-27 -31 -65 -90l-156 -249q-3 -5 -3 -12v-86q0 -80 12 -106q9 -20 34 -35q21 -12 21 -26q0 -22 -33 -22h-201q-33 0 -33 22q0 14 21 26q25 15 34 35q12 26 12 106v55q0 8 -4 16q-157 285 -171 312q-29 57 -49 77 q-8 8 -33 22q-16 9 -16 21q0 22 34 22h200q30 0 30 -20q0 -12 -17 -22.5t-21 -14.5q-6 -7 -6 -18q0 -18 18 -51l127 -232q1 -3 4 -3t5 3l105 172q42 68 42 99q0 25 -32 43q-16 9 -16 21q0 23 32 23h157z" />
<glyph unicode="Z" horiz-adv-x="635" d="M572 210q36 0 36 -32q0 -12 -6 -31q-6 -20 -11.5 -57.5t-12.5 -58.5t-22 -31q-12 -8 -33 -8q-5 0 -61.5 4t-116.5 4h-283q-15 0 -19.5 5t-4.5 21q0 38 11 54l369 558q2 4 2 5q0 4 -7 4h-77q-120 0 -156 -20q-16 -9 -28.5 -24t-17 -25t-12.5 -29q-8 -21 -16 -28.5 t-20 -7.5q-11 0 -17 1.5t-12.5 10t-6.5 24.5q0 1 3 70q0 9 0.5 32.5t1.5 37.5q1 19 11.5 25.5t31.5 6.5q9 0 74 -3.5t122 -3.5h268q15 0 20 -4.5t5 -19.5q0 -36 -14 -57l-366 -555l-3 -6q0 -4 6 -4q151 0 186 7q48 10 75.5 32t57.5 69q22 34 43 34z" />
<glyph unicode="[" horiz-adv-x="378" d="M341 683h-145q-17 0 -17 -17v-741q0 -10 3.5 -13.5t13.5 -3.5h146q17 0 17 -16v-32q0 -16 -18 -16h-260q-17 0 -17 17v869q0 17 17 17h260q18 0 18 -16v-32q0 -16 -18 -16z" />
<glyph unicode="\" horiz-adv-x="493" d="M21 747l515 -843h-72l-516 843h73z" />
<glyph unicode="]" horiz-adv-x="378" d="M37 -92h145q17 0 17 17v741q0 10 -3.5 13.5t-13.5 3.5h-146q-17 0 -17 16v32q0 16 18 16h260q17 0 17 -17v-869q0 -17 -17 -17h-260q-18 0 -18 16v32q0 16 18 16z" />
<glyph unicode="^" horiz-adv-x="517" d="M142 464h-80q-10 0 -10 7q0 3 4 10l139 233q7 12 24 12h79q18 0 25 -12l142 -238q2 -4 2 -6q0 -6 -10 -6h-81q-18 0 -25 12q-84 143 -87 148q-2 4 -5 4q-2 0 -5 -4l-87 -148q-8 -12 -25 -12z" />
<glyph unicode="_" horiz-adv-x="498" d="M511 -103v-40q0 -13 -13 -13h-498q-13 0 -13 13v40q0 13 13 13h498q13 0 13 -13z" />
<glyph unicode="`" horiz-adv-x="485" d="M262 617l-151 93q-6 4 -6 8q0 8 13 8h120q27 0 42 -15l99 -94q3 -3 3 -6q0 -6 -9 -6h-67q-25 0 -44 12z" />
<glyph unicode="a" horiz-adv-x="550" d="M335 252v20q0 3 -3 3l-3 -1q-16 -12 -62 -32t-68 -35q-44 -30 -44 -75q0 -31 20 -49t50 -18q28 0 53.5 15.5t39.5 44.5q17 36 17 127zM507 71q20 0 20 -20q0 -11 -7 -21q-12 -18 -35.5 -29.5t-50.5 -11.5q-32 0 -56.5 20t-31.5 61l-4 1q-27 -40 -71.5 -61t-92.5 -21 q-64 0 -110.5 35.5t-46.5 95.5q0 74 67 116q29 18 90.5 40t76.5 29q80 38 80 93q0 23 -13 41.5t-39 25.5q-12 3 -25 3q-40 0 -73 -27q-19 -16 -39 -45t-21 -30q-11 -14 -31 -14q-33 0 -33 56q0 53 18 75q20 25 79 39q46 11 100 11q92 0 150 -47t58 -124q0 -37 -2 -109.5 t-2 -102.5q0 -80 28 -80q2 0 8 0.5t9 0.5z" />
<glyph unicode="b" horiz-adv-x="619" d="M201 253q0 -96 35.5 -148.5t96.5 -52.5q57 0 90 54t33 141q0 85 -35.5 140.5t-94.5 55.5q-55 0 -89.5 -48.5t-35.5 -141.5zM547 131q-39 -74 -98.5 -108t-126.5 -34q-74 0 -130 34q-23 14 -33 14q-15 0 -25 -21q-13 -27 -29 -27q-25 0 -25 38v530q0 53 -9 74 q-8 17 -34 27q-28 11 -28 24q0 10 6.5 15.5t23.5 9.5q67 16 117 35q13 5 22 5q24 0 24 -30v-261q0 -9 6 -9q4 0 8 5q66 81 162 81q95 0 150 -72t55 -173q0 -85 -36 -157z" />
<glyph unicode="c" horiz-adv-x="522" d="M472 83q-30 -44 -83 -69t-116 -25q-74 0 -134.5 38t-86.5 113q-15 42 -15 93q0 79 37 151.5t108 113.5q59 35 137 35q92 0 127 -38q20 -20 20 -67q0 -26 -3 -39q-6 -28 -33 -28q-15 0 -27 17q-2 3 -14.5 23.5t-21.5 31.5q-32 37 -77 37q-57 0 -91.5 -50t-34.5 -126 q0 -68 18 -111q43 -107 146 -107q52 0 107 41q18 13 27 13q8 0 14 -6t6 -14q0 -12 -10 -27z" />
<glyph unicode="d" horiz-adv-x="635" d="M292 79q54 0 89.5 47.5t35.5 142.5q0 94 -35 147t-93 53q-60 0 -93.5 -52t-33.5 -142q0 -85 36 -140.5t94 -55.5zM581 78q28 -11 28 -24q0 -10 -6.5 -15.5t-24.5 -9.5q-71 -17 -116 -35q-15 -5 -22 -5q-23 0 -23 30v47q0 9 -7 9q-4 0 -8 -5q-66 -81 -161 -81 q-45 0 -89 22q-59 30 -88 89.5t-29 132.5q0 123 70.5 211.5t179.5 88.5q63 0 124 -32q2 -1 4 -1q4 0 4 5v52q0 56 -9 74t-34 27q-28 10 -28 24q0 10 6.5 15.5t23.5 9.5q63 15 105 31q25 9 34 9q23 0 23 -30v-538q0 -59 8 -74q9 -16 35 -27z" />
<glyph unicode="e" horiz-adv-x="543" d="M165 341q0 -10 10 -10h139q39 0 56.5 11t17.5 38q0 35 -27 63t-73 28q-32 0 -58 -16.5t-39 -40t-19.5 -43t-6.5 -30.5zM482 131q10 0 15.5 -6.5t5.5 -14.5q0 -15 -19 -37t-45 -39q-68 -44 -155 -44q-76 0 -138 37.5t-91 113.5q-19 52 -19 105q0 78 37.5 148t107.5 109 q54 30 118 30q83 0 141 -48q37 -31 55 -71t18 -76q0 -37 -16.5 -53t-65.5 -16h-255q-12 0 -12 -11q0 -65 35 -114q46 -64 130 -64q41 0 73 13t51.5 25.5t28.5 12.5z" />
<glyph unicode="f" horiz-adv-x="420" d="M431 729q28 -23 28 -75q0 -56 -33 -56q-12 0 -20 6.5t-22 25.5q-36 48 -76 48q-31 0 -51 -28q-26 -40 -26 -137q0 -9 10 -9q43 0 64 2q9 1 21.5 2t21.5 2t17 1q36 0 36 -19q0 -3 -4 -21q-5 -25 -15 -31q-9 -5 -30 -5q-12 0 -40 2t-41 2q-17 0 -27 -1q-12 -1 -12 -12v-237 q0 -80 12 -106q9 -20 34 -35q21 -12 21 -26q0 -22 -33 -22h-193q-33 0 -33 22q0 13 21 26q25 16 34 35q12 26 12 106v242q0 7 -9 7h-61q-14 0 -14 13v40q0 13 14 13h63q9 0 9 9q8 81 40 128q70 105 210 105q49 0 72 -17z" />
<glyph unicode="g" horiz-adv-x="557" d="M254 473q-40 0 -60.5 -31t-20.5 -77q0 -68 28 -107.5t64 -39.5q38 0 59 31.5t21 80.5q0 57 -24 100t-67 43zM531 487q0 -25 -17.5 -39.5t-48.5 -14.5q-8 0 -14 1q21 -37 21 -89q0 -79 -58.5 -132t-144.5 -57q-6 0 -22.5 -0.5t-21.5 -1.5q-43 -5 -43 -30q0 -27 64 -31 q19 -2 73 -2t83 -4q58 -7 89 -38t31 -75q0 -20 -6 -39q-18 -58 -82.5 -93t-179.5 -35q-138 0 -201 50q-38 30 -38 74q0 23 11 42q27 46 74 46q28 0 28 -18q0 -6 -6 -20.5t-6 -28.5q0 -38 40.5 -61.5t112.5 -23.5q68 0 109.5 21.5t41.5 52.5q0 41 -75 44q-14 1 -49 1.5 t-61.5 1.5t-48.5 5q-51 8 -79.5 33.5t-28.5 58.5q0 28 20 52t51 36q3 1 3 3t-3 4q-48 23 -76 65t-28 97q0 79 61.5 134.5t151.5 56.5q64 0 122 -31q32 -17 38 -17q10 0 17 8t11 17t13.5 17t24.5 8q47 0 47 -48z" />
<glyph unicode="h" horiz-adv-x="656" d="M609 48q22 -13 22 -25q0 -23 -34 -23h-192q-33 0 -33 23q0 12 21 25q25 15 35 36q12 24 12 106v140q0 52 -24.5 80t-69.5 28t-75 -30q-27 -27 -36.5 -74t-9.5 -144q0 -82 12 -106q10 -22 34 -36q21 -13 21 -25q0 -23 -33 -23h-190q-33 0 -33 23q0 12 21 25q26 17 35 36 q11 26 11 106v367q0 58 -8 74q-9 18 -35 27q-28 11 -28 24q0 18 31 25q63 14 115 35q13 5 22 5q25 0 25 -30v-271q0 -4 4 -4q2 0 3 2q59 89 164 89q90 0 136 -67q31 -47 31 -135v-141q0 -82 12 -106q12 -23 34 -36z" />
<glyph unicode="i" horiz-adv-x="329" d="M252 671q0 -20 -32 -51.5t-52 -31.5t-51.5 31.5t-31.5 51.5t31.5 52t51.5 32t52 -32t32 -52zM277 48q21 -14 21 -26q0 -22 -33 -22h-192q-33 0 -33 22q0 14 21 26q26 15 35 35q12 26 12 106v154q0 58 -8 73q-10 18 -35 28q-27 11 -27 24q0 18 30 25q55 11 99 28 q33 12 40 12q24 0 24 -30v-314q0 -81 12 -105q10 -20 34 -36z" />
<glyph unicode="j" horiz-adv-x="338" d="M254 503q0 -309 -1 -362v-30t-0.5 -35l-2 -32t-4 -36.5t-6.5 -31.5t-10.5 -34t-15.5 -28q-32 -49 -90 -78t-122 -29q-48 0 -71 18q-29 22 -29 76q0 60 35 60q14 0 34 -25q2 -3 8.5 -11t9.5 -11.5t9 -10t10.5 -10t11 -7.5t13.5 -5.5t14 -1.5q39 0 60 34q23 38 23 171v259 q0 58 -8 73q-10 18 -35 28q-2 1 -5.5 2.5t-5.5 2t-5 2t-5 3t-3.5 4t-2.5 5t-1 5.5q0 16 31 24q56 13 102 30q28 10 38 10q24 0 24 -29zM273 671q0 -20 -32 -52t-52 -32t-51.5 31.5t-31.5 51.5t31.5 52t51.5 32t52 -31.5t32 -51.5z" />
<glyph unicode="k" horiz-adv-x="649" d="M605 52q2 -1 8 -4.5t8 -5t6 -4t5.5 -4.5t3 -5.5t1.5 -6.5q0 -22 -29 -22h-74q-50 0 -73 14q-17 10 -35 34.5t-53 82.5q-36 60 -51.5 79.5t-28.5 19.5q-11 0 -26 -15l-31 -29q-5 -5 -5 -14q0 -63 11 -87q10 -23 35 -37q22 -13 22 -25q0 -23 -34 -23h-195q-34 0 -34 23 q0 12 22 25q24 15 34 37q12 26 12 108v361q0 58 -8 74q-10 19 -35 28q-29 11 -29 25q0 18 31 25q71 17 109 32q22 9 35 9q23 0 23 -30v-436q0 -4 3 -4q2 0 4 2q58 54 90 86q66 66 66 90q0 11 -15 22.5t-15 22.5q0 22 33 22h193q30 0 30 -22q0 -6 -3 -10.5t-8.5 -7.5t-10 -5 t-13 -4.5t-12.5 -4.5q-42 -16 -83.5 -49.5t-119.5 -106.5q-4 -4 -4 -7q0 -4 5 -4q2 0 8 2.5t12 2.5q7 0 13.5 -2.5t13.5 -8.5t12.5 -11.5t14 -17.5t14.5 -21t17 -26t19 -29q49 -74 70 -100.5t41 -37.5z" />
<glyph unicode="l" horiz-adv-x="323" d="M270 48q21 -14 21 -26q0 -22 -33 -22h-192q-33 0 -33 22q0 14 21 26q26 15 35 35q12 26 12 106v368q0 58 -8 73q-10 18 -35 28q-27 11 -27 24q0 18 30 25q55 11 99 28q33 12 40 12q24 0 24 -30v-528q0 -81 12 -105q10 -20 34 -36z" />
<glyph unicode="m" horiz-adv-x="978" d="M932 48q21 -13 21 -26q0 -22 -33 -22h-191q-33 0 -33 22q0 13 21 26q25 15 34 35q12 26 12 106v140q0 51 -24 80t-68 29q-47 0 -75 -30q-25 -25 -31 -69t-6 -150q0 -87 9 -110q7 -18 25 -30q22 -15 22 -27q0 -22 -33 -22h-168q-33 0 -33 22q0 4 1 7t4 6.5t4.5 4.5 t6.5 4.5t6 4.5q19 13 25 30q8 21 8 110v133q0 116 -90 116q-41 0 -69 -28q-26 -26 -35.5 -73.5t-9.5 -147.5q0 -80 12 -106q9 -19 34 -35q21 -13 21 -26q0 -22 -33 -22h-191q-33 0 -33 22q0 14 21 26q25 15 34 35q12 26 12 106v154q0 58 -8 74q-10 18 -35 27q-28 9 -28 23 q0 20 31 26q69 15 114 34q14 6 25 6q24 0 24 -30v-56q0 -5 3 -5q2 0 4 3q59 88 163 88q55 0 92.5 -26t53.5 -62q2 -4 4 -4t5 4q59 88 163 88q87 0 135 -68q31 -45 31 -134v-142q0 -80 12 -106q9 -19 34 -35z" />
<glyph unicode="n" horiz-adv-x="662" d="M615 48q22 -12 22 -25q0 -23 -34 -23h-192q-33 0 -33 23q0 12 21 25q25 15 35 36q12 24 12 106v140q0 51 -25 79.5t-69 28.5q-45 0 -75 -30q-27 -27 -36.5 -74t-9.5 -144q0 -82 12 -106q10 -22 34 -36q21 -13 21 -25q0 -23 -33 -23h-190q-33 0 -33 23q0 12 21 25 q26 17 35 36q11 26 11 106v153q0 58 -8 74q-9 18 -35 27q-28 11 -28 24q0 18 31 25q62 13 98 28q30 12 39 12q25 0 25 -30v-56q0 -5 4 -5q2 0 5 5q58 86 162 86q90 0 136 -67q31 -47 31 -135v-141q0 -82 12 -106q12 -23 34 -36z" />
<glyph unicode="o" horiz-adv-x="601" d="M434 232q0 94 -36.5 166.5t-105.5 72.5q-56 0 -90 -46t-34 -128q0 -101 38 -172.5t105 -71.5q58 0 90.5 50t32.5 129zM302 533q121 0 192 -75.5t71 -193.5q0 -114 -76 -194.5t-189 -80.5q-118 0 -191 73t-73 195q0 114 76 194.5t190 81.5z" />
<glyph unicode="p" horiz-adv-x="636" d="M348 52q61 0 93 55.5t32 139.5q0 85 -35.5 140.5t-94.5 55.5q-55 0 -90 -48.5t-35 -141.5q1 -95 36.5 -148t93.5 -53zM484 511q58 -31 87 -90t29 -132q0 -123 -70.5 -211.5t-178.5 -88.5q-63 0 -124 32q-2 1 -4 1q-4 0 -4 -5v-28q0 -72 12 -98q10 -22 34 -36 q21 -12 21 -26q0 -22 -33 -22h-190q-33 0 -33 22q0 13 21 26q24 14 34 36q12 28 12 104v348q0 58 -8 74q-9 18 -35 27q-28 10 -28 24q0 18 31 25q61 13 111 33q17 7 27 7q24 0 24 -30v-47q0 -9 6 -9q4 0 8 5q64 81 162 81q48 0 89 -22z" />
<glyph unicode="q" horiz-adv-x="614" d="M294 79q56 0 90 49.5t34 140.5q0 94 -35 147.5t-96 53.5q-58 0 -91 -55t-33 -148q0 -80 36.5 -134t94.5 -54zM586 -145q21 -12 21 -26q0 -22 -33 -22h-190q-33 0 -33 22q0 13 21 26q26 15 34 36q12 28 12 105v70q0 10 -6 10q-4 0 -8 -5q-65 -82 -161 -82 q-98 0 -152.5 71.5t-54.5 173.5q0 85 38 159q73 140 223 140q58 0 134 -38q20 -10 30 -10q13 0 24 21q13 27 29 27q26 0 26 -38v-499q0 -77 12 -105q9 -22 34 -36z" />
<glyph unicode="r" horiz-adv-x="437" d="M422 512q20 -21 20 -61q0 -24 -10.5 -38.5t-29.5 -14.5q-15 0 -38 13q-21 12 -37 12q-23 0 -44 -21q-51 -51 -51 -213q0 -80 12 -106q9 -20 34 -35q21 -13 21 -26q0 -22 -33 -22h-191q-33 0 -33 22q0 14 21 26q25 15 34 35q12 26 12 106v155q0 54 -10 73q-9 17 -34 27 q-28 10 -28 24q0 19 30 26q66 15 106 33q13 6 24 6q26 0 26 -30v-78q0 -4 2 -4q1 0 2 3q19 41 58.5 75t82.5 34q35 0 54 -21z" />
<glyph unicode="s" horiz-adv-x="482" d="M32 138q0 44 32 44q5 0 10 -2t8.5 -4t9 -8t8.5 -9.5t10 -13.5t12 -16q56 -74 119 -74q42 0 67 20t25 49q0 42 -55 64q-13 5 -55 17.5t-75 27t-56 34.5q-42 36 -42 96q0 41 22.5 79t65.5 62q52 29 125 29q79 0 120 -26q39 -23 39 -83t-31 -60q-22 0 -36 23 q-15 24 -24.5 36.5t-34.5 29t-54 16.5q-36 0 -58 -18.5t-22 -45.5q0 -44 76 -68q9 -3 37 -11.5t40.5 -13t33 -13.5t35.5 -19.5t27 -23.5q37 -39 37 -94q0 -83 -75 -132q-60 -41 -148 -41q-51 0 -96 13.5t-66 32.5q-31 30 -31 103z" />
<glyph unicode="t" horiz-adv-x="431" d="M391 112q18 0 18 -18q0 -13 -12 -30q-21 -33 -60.5 -54t-85.5 -21q-90 0 -129 69q-23 42 -23 123q0 39 4 125.5t4 121.5q0 10 -10 10h-62q-14 0 -14 14v37q0 12 14 15q70 13 92 55q7 14 18 69q3 14 15 14h54q13 0 13 -13v-99q0 -17 4.5 -21.5t20.5 -4.5q28 0 61 3.5 t50 3.5q34 0 34 -19q0 -4 -2 -11.5t-2 -11.5q-3 -21 -13 -28t-33 -7q-11 0 -45 2t-65 2q-11 0 -11 -11q-2 -76 -2 -120q0 -138 15 -179q19 -50 69 -50q25 0 50 17t33 17z" />
<glyph unicode="u" horiz-adv-x="658" d="M600 77q23 -10 26 -17q1 -3 1 -6q0 -19 -30 -26q-67 -15 -117 -35q-10 -4 -20 -4q-26 0 -26 30v57q0 4 -3 4q-2 0 -4 -3q-59 -88 -164 -88q-87 0 -133 64q-33 46 -33 137v154q0 57 -8 73q-9 18 -35 27q-28 10 -28 24q0 18 31 25q66 16 114 34q16 6 25 6q24 0 24 -30v-312 q0 -52 24.5 -79.5t68.5 -27.5q45 0 74 29q26 26 36.5 75t10.5 144q0 67 -9 85q-8 17 -35 27t-27 24q0 18 30 25q68 16 115 34q16 6 24 6q24 0 24 -30v-325q0 -54 9 -73q8 -18 35 -28z" />
<glyph unicode="v" horiz-adv-x="608" d="M572 522q36 0 36 -22q0 -13 -18 -24q-32 -20 -53 -53q-20 -30 -48 -93l-145 -327q-4 -10 -17 -10h-72q-12 0 -16 10l-143 371q-26 68 -44 84q-5 5 -31 19q-17 9 -17 22q0 23 35 23h192q31 0 31 -22q0 -12 -15 -21q-1 -1 -6 -3.5t-6.5 -3.5t-5.5 -4t-5.5 -4.5t-4 -4.5 t-3.5 -6t-2 -7t-1 -8q0 -16 11 -46t55.5 -145t45.5 -117q1 -3 3 -3t4 3l71 177q31 78 31 116q0 34 -30 52q-20 12 -20 25q0 22 35 22h153z" />
<glyph unicode="w" horiz-adv-x="951" d="M948 500q0 -13 -18 -24q-1 -1 -6.5 -4t-8 -5t-8.5 -6t-10 -8t-9.5 -10.5t-11.5 -14.5q-24 -36 -48 -97q-32 -80 -122 -328q-4 -10 -15 -10h-82q-11 0 -14 9l-127 373q-1 3 -3 3t-3 -3l-134 -372q-4 -10 -15 -10h-84q-13 0 -17 10l-116 371q-21 67 -40 83q-4 4 -34 20 q-18 10 -18 23q0 22 36 22h191q31 0 31 -21q0 -12 -16 -22q-31 -20 -31 -48q0 -18 11 -56l74 -237q2 -3 3 -3q3 0 4 3l136 382q3 9 16 9h76q13 0 16 -9l130 -382q1 -4 4 -4t4 4l59 169q28 80 28 114q0 22 -8.5 33.5t-28.5 24.5q-14 9 -14 21q0 22 35 22h153q35 0 35 -22z " />
<glyph unicode="x" horiz-adv-x="611" d="M556 56q5 -3 15 -8t14 -7.5t8 -8t4 -11.5q0 -21 -31 -21h-204q-32 0 -32 20q0 7 3.5 11.5t10.5 9.5t9 7q8 8 8 19q0 18 -24 50l-65 90q-2 3 -5 3t-5 -3q-35 -52 -54 -85q-14 -24 -14 -40q0 -19 17 -32q2 -2 11.5 -7.5t13.5 -10t4 -11.5q0 -21 -32 -21h-161q-33 0 -33 21 q0 5 1.5 8.5t5 7t7 6t10 7t10.5 7.5q43 30 101 106q30 37 70 95q4 5 4 10q0 4 -4 9l-72 96q-32 43 -50.5 62.5t-41.5 31.5q-5 3 -12.5 6.5t-11.5 5.5t-8 5.5t-6 7.5t-2 9q0 21 31 21h203q32 0 32 -21q0 -10 -15 -22t-15 -25q0 -16 24 -49l63 -90q2 -3 5 -3q4 0 6 3 q38 54 57 91q10 20 10 35q0 19 -17 31q-3 2 -12 7t-13 9.5t-4 11.5q0 22 32 22h161q33 0 33 -22q0 -6 -3.5 -11t-6 -7.5t-12 -8.5t-12.5 -8q-38 -27 -101 -106q-19 -24 -70 -96q-3 -5 -3 -8t3 -8l74 -98q33 -43 51 -61.5t40 -31.5z" />
<glyph unicode="y" horiz-adv-x="597" d="M562 522q35 0 35 -22q0 -11 -18 -24q-1 -1 -9 -6t-11 -7.5t-10 -8.5t-12.5 -13t-11.5 -16q-19 -29 -47 -93q-17 -40 -65 -157.5t-62 -150.5q-32 -77 -64.5 -123.5t-83.5 -73.5q-37 -20 -79 -20q-47 0 -72 28q-20 23 -20 59q0 24 10 42t31 18q13 0 29 -14q1 -1 12.5 -11 t16 -13t15 -7.5t21.5 -4.5q23 0 45 17q21 17 38 49q4 8 4 11t-2 9l-158 387q-26 65 -44 82q-6 6 -30 19q-17 8 -17 21q0 23 35 23h188q31 0 31 -22q0 -12 -15 -21q-2 -1 -6.5 -3.5t-7 -4t-6 -4.5t-6 -5.5t-4.5 -6t-3 -8t-1 -9.5q0 -16 11 -44q8 -21 32 -77t47.5 -111 t24.5 -58t3 -3t4 3l68 166q30 72 30 109q0 35 -37 56q-14 9 -14 21q0 22 35 22h150z" />
<glyph unicode="z" horiz-adv-x="514" d="M455 197q33 0 33 -29q0 -13 -5 -31q-5 -17 -10 -52t-12 -55t-22 -30q-12 -8 -33 -8q-4 0 -61 4t-118 4h-179q-14 0 -19 5.5t-5 23.5q0 38 14 56l275 358q4 5 4 8q0 6 -7 6h-69q-46 0 -71 -10q-32 -12 -61 -73q-15 -32 -38 -32q-36 0 -36 38q0 17 2 53q0 8 0.5 29.5 t1.5 34.5q2 32 44 32q9 0 75.5 -3.5t125.5 -3.5h167q15 0 20.5 -4.5t5.5 -17.5q0 -41 -18 -64l-272 -355q-5 -7 -5 -9q0 -4 5 -4q64 0 100 5q46 6 72.5 24.5t52.5 64.5q20 35 43 35z" />
<glyph unicode="{" horiz-adv-x="376" d="M42 264q-17 4 -17 19v24q0 17 17 20q55 11 74.5 37t19.5 75q0 18 -4 63.5t-4 64.5q0 90 48.5 133.5t152.5 46.5q19 0 19 -15v-33q0 -14 -16 -15q-47 -4 -66.5 -31t-19.5 -86q0 -21 3.5 -66t3.5 -61q0 -51 -19 -85t-72 -55q-6 -2 -6 -5q0 -2 6 -4q53 -21 72 -55t19 -85 q0 -20 -3.5 -61.5t-3.5 -65.5q0 -59 19.5 -86t66.5 -31q16 -1 16 -16v-32q0 -15 -20 -15q-103 3 -151 46t-48 131q0 21 3.5 67t3.5 64q0 48 -19.5 74t-74.5 38z" />
<glyph unicode="|" horiz-adv-x="287" d="M171 -193h-55q-13 0 -13 13v1039q0 13 13 13h55q13 0 13 -13v-1039q0 -13 -13 -13z" />
<glyph unicode="}" horiz-adv-x="376" d="M334 327q17 -4 17 -19v-24q0 -17 -17 -20q-55 -11 -74.5 -37t-19.5 -75q0 -18 4 -63.5t4 -64.5q0 -90 -48.5 -133.5t-152.5 -46.5q-19 0 -19 15v33q0 14 16 15q47 4 66.5 31t19.5 86q0 22 -3.5 66.5t-3.5 60.5q0 51 19 85t72 55q6 2 6 5q0 2 -6 4q-53 21 -72 55t-19 85 q0 20 3.5 61.5t3.5 65.5q0 59 -19.5 86t-66.5 31q-16 1 -16 16v32q0 15 20 15q103 -3 151 -46t48 -131q0 -21 -3.5 -67t-3.5 -64q0 -48 19.5 -74t74.5 -38z" />
<glyph unicode="~" horiz-adv-x="635" d="M87 218l-30 9q-11 3 -11 12q0 5 3 12q51 142 160 142q45 0 103 -23q103 -41 139 -41q45 0 75 51q7 12 15 12q5 0 11 -2l26 -8q11 -4 11 -11q0 -3 -3 -11q-51 -141 -158 -141q-51 0 -136 34q-74 30 -108 30q-46 0 -74 -55q-6 -12 -13 -12q-4 0 -10 2z" />
<glyph unicode="&#xa1;" horiz-adv-x="350" d="M71 454q0 22 34 56t55 34q22 0 56 -34t34 -56q0 -21 -34 -55t-56 -34q-21 0 -55 34t-34 55zM207 210q4 -61 18.5 -157.5t14.5 -152.5q0 -51 -22 -74q-18 -19 -57 -19t-58 19q-21 22 -21 73q0 58 14.5 158t18.5 153q1 6 1.5 18t1 17t2 14t2.5 13t3.5 11t5.5 9.5t7.5 6 t10 4.5t12.5 1t12.5 -1t9.5 -4.5t7 -6.5t5.5 -9t4 -10.5t2.5 -13.5t1.5 -14.5l1.5 -16.5t2 -18z" />
<glyph unicode="&#xa2;" horiz-adv-x="531" d="M474 130q19 0 19 -19q0 -10 -10 -27q-21 -35 -70 -62.5t-93 -30.5v-76q0 -11 -11 -11h-36q-11 0 -11 11v75q-35 3 -69 16.5t-68 40.5t-55 75t-21 111q0 79 37 151t107 114q36 20 69 27v88q0 11 11 11h36q11 0 11 -11v-80h15q90 -2 123 -38q20 -23 20 -68q0 -35 -7 -50.5 t-29 -15.5q-16 0 -27 17q-1 2 -14.5 23.5t-22.5 31.5q-32 36 -76 36q-42 0 -75.5 -31.5t-45.5 -84.5q-6 -30 -6 -62q0 -97 45.5 -156t119.5 -59q52 0 107 41q18 13 27 13z" />
<glyph unicode="&#xa3;" horiz-adv-x="626" d="M529 149q13 0 19.5 -7.5t6.5 -16.5q0 -8 -2 -16t-6.5 -20t-6.5 -18q-1 -2 -2.5 -10.5t-4 -15t-6.5 -15.5t-11 -16.5t-16 -12.5q-21 -12 -66 -12q-17 0 -35.5 2t-40.5 6.5t-37 7.5t-40.5 11t-36 11t-39 12.5l-34.5 11.5q-50 16 -77 16q-16 0 -39 -10q-10 -4 -14 -4 q-8 0 -14 6t-6 13t6 16q21 29 54 46q14 7 37 7q16 0 38 -3l22 -4q3 0 7 2q59 28 59 87q0 28 -14 59h-128q-11 0 -11 11v30q0 11 11 11h96q-53 84 -53 133q0 75 64.5 116t142.5 41q63 0 97 -18q31 -17 31 -70q0 -62 -34 -62q-15 0 -22 5t-17 21.5t-18 26.5q-32 39 -70 39 q-25 0 -43.5 -18t-18.5 -46q0 -34 29 -81q4 -6 24.5 -37.5t29.5 -49.5h147q11 0 11 -11v-30q0 -11 -11 -11h-129q3 -14 3 -30q0 -89 -96 -131q-2 -1 -2 -3t3 -3q88 -18 139 -18q11 0 20.5 0.5t17.5 3.5t13 4t12.5 6t10 6.5t11.5 9t11 9.5q16 13 28 13z" />
<glyph unicode="&#xa4;" horiz-adv-x="732" d="M364 168q50 0 85.5 36t35.5 86q0 51 -35.5 86.5t-85.5 35.5t-85 -35.5t-35 -86.5q0 -50 35.5 -86t84.5 -36zM544 151l113 -113q4 -4 4 -8q0 -3 -4 -7l-25 -25q-4 -4 -8 -4t-8 4l-114 113q-60 -46 -138 -46t-138 46l-113 -113q-4 -4 -8 -4t-8 4l-25 25q-4 4 -4 8t4 8 l113 112q-49 62 -49 139q0 79 49 139l-113 113q-4 4 -4 8t4 8l24 25q4 4 8 4t8 -4l114 -114q60 46 138 46t138 -46l114 114q4 4 8 4t8 -4l25 -25q4 -4 4 -8t-4 -8l-113 -113q49 -62 49 -139q0 -75 -49 -139z" />
<glyph unicode="&#xa5;" horiz-adv-x="718" d="M618 618q30 0 30 -18q0 -11 -15 -20q-27 -17 -44 -38q-17 -20 -55 -78l-57 -90q-2 -3 -2 -5q0 -3 5 -3h110q8 0 8 -7v-31q0 -8 -9 -8h-139q-7 0 -11 -6l-37 -58q-3 -4 -3 -6q0 -3 4 -3h186q9 0 9 -7v-31q0 -8 -9 -8h-188q-6 0 -6 -5v-33q0 -71 10 -91q8 -18 30 -31 q18 -11 18 -22q0 -19 -28 -19h-176q-29 0 -29 19q0 12 19 22q22 12 29 31q10 24 10 91v33q0 5 -6 5h-182q-10 0 -10 9v29q0 8 8 8h166q6 0 6 4q0 2 -2 6l-31 57q-4 6 -12 6h-127q-8 0 -8 8v31q0 7 8 7h103q5 0 5 3q0 1 -2 5l-67 121q-31 56 -42 67q-7 6 -29 19q-14 7 -14 18 q0 19 29 19h171q26 0 26 -17q0 -11 -13 -18q-25 -13 -25 -31q0 -14 15 -43q8 -16 34.5 -63.5t52.5 -95.5l26 -47q3 -4 5 -4t5 5q50 78 93 153q35 61 35 86q0 22 -27 39q-13 8 -13 18q0 18 28 18h134z" />
<glyph unicode="&#xa6;" horiz-adv-x="287" d="M171 375h-55q-13 0 -13 13v471q0 13 13 13h55q13 0 13 -13v-471q0 -13 -13 -13zM171 -193h-55q-13 0 -13 13v471q0 13 13 13h55q13 0 13 -13v-471q0 -13 -13 -13z" />
<glyph unicode="&#xa7;" horiz-adv-x="529" d="M351 285q0 34 -28.5 58.5t-72.5 24.5q-39 0 -68.5 -21.5t-29.5 -55.5q0 -36 30 -59.5t71 -23.5t69.5 22t28.5 55zM334 157q39 -19 66 -43q53 -48 53 -120q0 -82 -65.5 -134.5t-157.5 -52.5q-51 0 -96.5 15.5t-67.5 38.5q-23 26 -23 91q0 32 8 43.5t26 11.5q13 0 19.5 -6 t15.5 -23q17 -30 31 -49t41 -37t59 -18q42 0 70.5 25t28.5 61q0 41 -39 67q-18 12 -64 30.5t-88 42t-66 53.5q-35 44 -35 99q0 49 30 92.5t78 64.5q3 1 3 3t-3 3q-41 20 -64 49q-38 44 -38 104q0 79 61.5 129t143.5 50q67 0 122 -31q25 -14 33 -35.5t8 -57.5q0 -33 -6 -45 t-22 -12q-20 0 -37 28q-26 44 -49.5 65t-61.5 21q-37 0 -62 -20.5t-25 -53.5t24.5 -54.5t76.5 -41.5q93 -36 140.5 -77t47.5 -113q0 -71 -55 -118q-31 -26 -60 -38q-4 -1 -4 -4q0 -2 3 -3z" />
<glyph unicode="&#xa8;" horiz-adv-x="542" d="M413 703q10 -11 10 -46t-10 -45q-13 -11 -46 -11q-34 0 -45 11t-11 45q0 33 11 46q10 10 45 10t46 -10zM220 703q11 -13 11 -46q0 -34 -11 -45q-13 -11 -46 -11q-34 0 -45 11t-11 45q0 33 11 46q10 10 46 10q35 0 45 -10z" />
<glyph unicode="&#xa9;" horiz-adv-x="915" d="M143 358q0 -131 92.5 -224.5t222.5 -93.5t222.5 93.5t92.5 224.5t-92.5 224t-222.5 93t-222.5 -93t-92.5 -224zM89 358q0 152 108.5 260t260.5 108t260 -108t108 -260q0 -153 -108 -261t-260 -108t-260.5 108t-108.5 261zM547 228q12 11 35 53q10 19 16 24.5t17 5.5 q14 0 19.5 -9t5.5 -30q0 -69 -30 -91q-37 -27 -126 -27q-106 0 -171 58.5t-65 148.5q0 92 71 152.5t176 60.5q66 0 108 -21q19 -10 24 -27.5t5 -54.5q0 -46 -24 -46q-12 0 -18 4.5t-15 21.5q-21 41 -40 55q-24 19 -59 19q-55 0 -90.5 -43.5t-35.5 -112.5q0 -74 38.5 -120 t92.5 -46q40 0 66 25z" />
<glyph unicode="&#xaa;" horiz-adv-x="409" d="M238 529v10q0 3 -2 3t-4 -2q-9 -7 -36.5 -19.5t-40.5 -21.5q-25 -18 -25 -45q0 -19 12.5 -30.5t31.5 -11.5q37 0 54 35q10 19 10 82zM384 390q0 -10 -7 -20q-19 -28 -58 -28q-51 0 -67 57q-1 3 -3 3q-1 0 -3 -3q-16 -25 -45 -41t-63 -16q-45 0 -79.5 27.5t-34.5 71.5 q0 50 46 80q20 14 63.5 30.5t49.5 19.5q56 25 56 59q0 20 -13 32t-36 12q-27 0 -48 -18q-10 -8 -41 -50q-10 -12 -24 -12q-18 0 -25 9t-7 36q0 34 13 51q29 36 131 36q73 0 111.5 -33t38.5 -109q0 -22 -1.5 -73t-1.5 -71q0 -34 31 -34q17 0 17 -16zM239 243q11 -13 11 -46 q0 -34 -11 -45q-13 -11 -46 -11q-34 0 -45 11t-11 45q0 33 11 46q10 10 46 10q35 0 45 -10z" />
<glyph unicode="&#xab;" horiz-adv-x="537" d="M467 121v-64q0 -7 -4 -7q-3 0 -6 3l-252 222q-6 6 -6 10t6 10l252 222q2 2 5 2q5 0 5 -6v-63q0 -14 -10 -23q-150 -131 -158 -138q-2 -2 -2 -4t2 -4l159 -139q9 -8 9 -21zM264 121v-64q0 -6 -5 -6q-3 0 -5 2l-211 186q-7 7 -7 16v60q0 10 7 17q202 178 210 185q2 2 5 2 q6 0 6 -6v-63q0 -13 -11 -23q-150 -131 -158 -138q-2 -2 -2 -4t2 -4l159 -139q10 -9 10 -21z" />
<glyph unicode="&#xac;" horiz-adv-x="794" d="M691 522v-310h-81v229h-546v81h627z" />
<glyph unicode="&#xad;" horiz-adv-x="332" d="M36 239v69q0 13 13 13h234q13 0 13 -13v-69q0 -13 -13 -13h-234q-13 0 -13 13z" />
<glyph unicode="&#xae;" horiz-adv-x="528" d="M58 483q0 -85 59.5 -145t142.5 -60q84 0 143 60t59 145t-59.5 145.5t-142.5 60.5t-142.5 -60.5t-59.5 -145.5zM17 483q0 101 71.5 172t171.5 71t171.5 -71t71.5 -172t-71.5 -172t-171.5 -71t-171.5 71t-71.5 172zM253 506q50 0 50 42q0 37 -50 37h-23q-6 0 -6 -6v-68 q0 -5 6 -5h23zM397 376q2 -2 6.5 -5.5t7 -6t2.5 -6.5q0 -11 -16 -11h-37q-21 0 -31 10q-8 8 -33 60q-20 41 -41 49q-9 3 -26 3q-5 0 -5 -5v-23q0 -38 5 -50t18 -19q11 -6 11 -13q0 -12 -18 -12h-95q-17 0 -17 12q0 7 11 13q12 6 17 19q5 12 5 48v121q0 27 -14 36 q-1 1 -7 3.5t-7.5 5t-1.5 6.5q0 11 15 11h129q99 0 99 -67q0 -56 -71 -63q-3 0 -3 -3q0 -2 2 -2q22 -4 36 -16.5t29 -42.5q21 -43 30 -52z" />
<glyph unicode="&#xaf;" horiz-adv-x="584" d="M118 659v44q0 11 11 11h326q11 0 11 -11v-44q0 -11 -11 -11h-326q-11 0 -11 11z" />
<glyph unicode="&#xb0;" horiz-adv-x="283" d="M73 632q0 -27 19 -46t46 -19q26 0 45 19t19 46t-19 46t-45 19q-27 0 -46 -19t-19 -46zM21 632q0 48 34.5 81.5t82.5 33.5t82 -33.5t34 -81.5q0 -47 -34 -81t-82 -34q-49 0 -83 34t-34 81z" />
<glyph unicode="&#xb1;" horiz-adv-x="675" d="M579 424v-40q0 -13 -13 -13h-187q-7 0 -7 -6v-176q0 -13 -13 -13h-43q-13 0 -13 13v176q0 6 -7 6h-187q-13 0 -13 13v40q0 13 13 13h187q7 0 7 6v176q0 13 13 13h43q13 0 13 -13v-176q0 -6 7 -6h187q13 0 13 -13zM96 76v40q0 13 13 13h457q13 0 13 -13v-40q0 -13 -13 -13 h-457q-13 0 -13 13z" />
<glyph unicode="&#xb2;" horiz-adv-x="345" d="M58 876q29 29 103 29q71 0 111 -36q32 -29 32 -71q0 -44 -36 -74q-24 -20 -75.5 -38.5t-69.5 -31.5q-19 -13 -19 -24q0 -7 8 -7h76q44 0 57 3q15 3 26 14q13 13 23 13q18 0 18 -20q0 -7 -6 -39q-1 -5 -3 -16.5t-3 -16t-4.5 -12t-8 -11t-13 -6t-20.5 -2.5q-6 0 -29.5 1.5 t-44.5 1.5h-116q-15 0 -22.5 6t-9 14t-1.5 23q0 68 51 111q16 14 45.5 31t38.5 24q35 27 35 63q0 22 -12 36.5t-31 14.5q-23 0 -40 -19q-6 -7 -27 -43q-11 -18 -26 -18q-24 0 -24 44q0 40 17 56z" />
<glyph unicode="&#xb3;" horiz-adv-x="355" d="M287 699q34 -24 34 -65q0 -50 -47 -81t-115 -31q-91 0 -118 38q-11 16 -11 55q0 42 25 42q12 0 23 -17q22 -35 31 -44q24 -24 54 -24q24 0 40 16.5t16 48.5q0 60 -60 60q-8 0 -19.5 -1.5t-18.5 -1.5q-21 0 -21 16v26q0 16 19 16q5 0 18 -2t23 -2q47 1 47 57 q0 23 -13 36.5t-34 13.5q-18 0 -32 -11q-18 -12 -34 -43q-13 -24 -29 -24q-24 0 -24 47q0 41 22 56q41 26 107 26q64 0 106 -32q32 -26 32 -61q0 -29 -23.5 -52.5t-68.5 -32.5q-3 0 -3 -3t3 -3q47 -6 71 -23z" />
<glyph unicode="&#xb4;" horiz-adv-x="472" d="M366 710l-146 -93q-19 -12 -44 -12h-67q-9 0 -9 6q0 3 3 6l93 93q15 16 42 16h120q13 0 13 -8q0 -5 -5 -8z" />
<glyph unicode="&#xb5;" horiz-adv-x="777" d="M330 508l-63 -308q-10 -46 -10 -74q0 -53 40 -53q71 0 140 126q53 94 81 223l18 82q3 15 21 18l86 11q7 1 12 1q12 0 12 -11q0 -2 -2 -12l-65 -317q-14 -68 -14 -88q0 -27 19 -27q7 0 13.5 3.5t15.5 10.5l10 7q9 6 17 6q7 0 12.5 -5t5.5 -12q0 -21 -35 -53 q-51 -47 -105 -47q-79 0 -79 85q0 22 5 47q1 4 1 8t-4 4q-2 0 -5 -4q-97 -140 -201 -140q-55 0 -82 36q-3 3 -4 3q-2 0 -3 -4q-14 -59 -19 -88q-7 -34 -8 -66t-6 -42q-10 -21 -48 -21q-44 0 -44 30q0 11 3.5 23t12 35t14.5 42q35 114 69 277q14 68 35 173t23 116q3 15 23 18 l85 11q7 1 13 1q12 0 12 -12q0 -5 -2 -13z" />
<glyph unicode="&#xb6;" horiz-adv-x="696" d="M319 359h4q13 0 13 11v269q0 9 -14 9q-64 0 -108.5 -40t-44.5 -103q0 -64 42 -104t108 -42zM600 714q33 0 33 -26q0 -3 -1.5 -6.5t-3 -5.5t-5 -5t-5.5 -4.5t-7 -4.5t-7 -4q-20 -12 -25 -30t-5 -69v-643q0 -12 -13 -12h-47q-12 0 -12 12v716q0 17 -19 17h-64 q-11 0 -11 -11v-722q0 -12 -13 -12h-48q-11 0 -11 12v362q0 9 -3 12t-13 3q-198 4 -259 113q-24 41 -24 96q0 87 59 142q48 44 118 57t173 13h213z" />
<glyph unicode="&#xb7;" horiz-adv-x="296" d="M237 301q0 -21 -33.5 -55t-55.5 -34t-55.5 34t-33.5 55t33.5 55t55.5 34t55.5 -33.5t33.5 -55.5z" />
<glyph unicode="&#xb8;" horiz-adv-x="445" d="M177 0h59q-28 -24 -28 -39q0 -9 10.5 -13t32 -7.5t32.5 -7.5q43 -14 43 -51q0 -40 -53 -62q-32 -13 -71 -13q-44 0 -71 15q-12 7 -12 17q0 18 20 18q7 0 23.5 -4t28.5 -4q20 0 32 8q12 9 12 21q0 16 -24 24q-5 2 -18 5t-22.5 6.5t-16.5 8.5q-10 7 -10 19q0 24 33 59z" />
<glyph unicode="&#xb9;" horiz-adv-x="269" d="M193 883v-333q0 -17 -17 -17h-59q-17 0 -17 17v236q0 33 -4 41q-5 8 -19 8q-5 0 -19.5 -1t-18.5 -1q-13 0 -17.5 4.5t-5.5 24.5q0 15 13 19q6 1 15.5 2.5t21 2.5t16.5 2q17 2 48 10q32 8 40 8q23 0 23 -23z" />
<glyph unicode="&#xba;" horiz-adv-x="449" d="M307 515q0 72 -24.5 115t-63.5 43q-37 0 -57.5 -31t-20.5 -86q0 -68 25 -114t66 -46q36 0 55.5 33.5t19.5 85.5zM228 726q83 0 133 -53.5t50 -136.5q0 -81 -53.5 -137.5t-134.5 -56.5q-82 0 -133.5 52t-51.5 137q0 80 55 137.5t135 57.5zM271 243q11 -13 11 -46 q0 -34 -11 -45q-13 -11 -46 -11q-34 0 -45 11t-11 45q0 33 11 46q10 10 46 10q35 0 45 -10z" />
<glyph unicode="&#xbb;" horiz-adv-x="537" d="M70 448v64q0 7 4 7q3 0 6 -3l252 -222q6 -6 6 -10t-6 -10l-252 -222q-2 -2 -5 -2q-5 0 -5 6v63q0 14 10 23q150 131 158 138q2 2 2 4t-2 4l-159 139q-9 8 -9 21zM273 448v64q0 6 5 6q3 0 5 -2l211 -186q7 -7 7 -16v-60q0 -10 -7 -17q-202 -178 -210 -185q-2 -2 -5 -2 q-6 0 -6 6v63q0 13 11 23q150 131 158 138q2 2 2 4t-2 4l-159 139q-10 9 -10 21z" />
<glyph unicode="&#xbc;" horiz-adv-x="752" d="M526 618h77l-399 -522h-78zM250 703v-333q0 -17 -17 -17h-59q-17 0 -17 17v236q0 33 -4 41q-5 8 -19 8q-5 0 -19.5 -1t-18.5 -1q-13 0 -17.5 4.5t-5.5 24.5q0 15 13 19q6 1 15.5 2.5t21 2.5t16.5 2q17 2 48 10q32 8 40 8q23 0 23 -23zM666 142h32q14 0 14 -12v-38 q0 -13 -13 -13h-33q-9 0 -9 -8v-58q0 -13 -13 -13h-67q-13 0 -13 13v58q0 8 -9 8h-153q-15 0 -15 15v47q0 17 12 29q43 42 62.5 84.5t20.5 106.5q0 11 13 11h61q12 0 12 -11q0 -121 -109 -211q-3 -3 -3 -5q0 -3 4 -3h95q9 0 9 9v140q0 13 13 13h66q14 0 14 -13v-140 q0 -9 9 -9z" />
<glyph unicode="&#xbd;" horiz-adv-x="758" d="M511 618h77l-399 -522h-78zM250 705v-333q0 -17 -17 -17h-59q-17 0 -17 17v236q0 33 -4 41q-5 8 -19 8q-5 0 -19.5 -1t-18.5 -1q-13 0 -17.5 4.5t-5.5 24.5q0 15 13 19q6 1 15.5 2.5t21 2.5t16.5 2q17 2 48 10q32 8 40 8q23 0 23 -23zM459 343q29 29 103 29q70 0 111 -36 q32 -29 32 -71q0 -44 -36 -74q-24 -20 -75.5 -38.5t-69.5 -31.5q-19 -13 -19 -24q0 -7 8 -7h76q44 0 57 3q15 3 26 14q13 13 23 13q18 0 18 -20q0 -7 -6 -39q-1 -5 -3 -16.5t-3 -16t-4.5 -12t-8 -11t-13 -6t-20.5 -2.5q-6 0 -29.5 1.5t-44.5 1.5h-116q-15 0 -22.5 6t-9 14 t-1.5 23q0 68 51 111q16 14 45.5 31t38.5 24q35 27 35 63q0 22 -12 36.5t-31 14.5q-23 0 -40 -19q-6 -7 -27 -43q-11 -18 -26 -18q-24 0 -24 44q0 40 17 56z" />
<glyph unicode="&#xbe;" horiz-adv-x="791" d="M577 618h77l-399 -522h-78zM705 142h32q14 0 14 -12v-38q0 -13 -13 -13h-33q-9 0 -9 -8v-58q0 -13 -13 -13h-67q-13 0 -13 13v58q0 8 -9 8h-153q-15 0 -15 15v47q0 17 12 29q43 42 62.5 84.5t20.5 106.5q0 11 13 11h61q12 0 12 -11q0 -121 -109 -211q-3 -3 -3 -5 q0 -3 4 -3h95q9 0 9 9v140q0 13 13 13h66q14 0 14 -13v-140q0 -9 9 -9zM317 519q34 -24 34 -65q0 -50 -47 -81t-115 -31q-91 0 -118 38q-11 16 -11 55q0 42 25 42q12 0 23 -17q22 -35 31 -44q24 -24 54 -24q24 0 40 16.5t16 48.5q0 60 -60 60q-8 0 -19.5 -1.5t-18.5 -1.5 q-21 0 -21 16v26q0 16 19 16q5 0 18 -2t23 -2q47 1 47 57q0 23 -13 36.5t-34 13.5q-18 0 -32 -11q-18 -12 -34 -43q-13 -24 -29 -24q-24 0 -24 47q0 41 22 56q41 26 107 26q64 0 106 -32q32 -26 32 -61q0 -29 -23.5 -52.5t-68.5 -32.5q-3 0 -3 -3t3 -3q47 -6 71 -23z" />
<glyph unicode="&#xbf;" horiz-adv-x="536" d="M109 127q23 17 70 40t65 34q40 25 40 54q0 23 -31 32q-20 6 -20 20q0 30 68 30q41 0 62.5 -17.5t21.5 -48.5q0 -39 -39 -78q-14 -14 -58 -48t-66 -58q-42 -46 -42 -98q0 -48 26.5 -82.5t77.5 -34.5q45 0 72.5 25.5t27.5 57.5q0 31 -36 44q-1 0 -8.5 2.5t-10 3.5t-7 4 t-6 7t-1.5 10q0 23 25 39.5t55 16.5q42 0 69 -28.5t27 -75.5q0 -68 -62.5 -119.5t-163.5 -51.5q-108 0 -167.5 55t-59.5 125q0 86 71 140zM302 544q22 0 56 -34t34 -55q0 -22 -34 -56t-56 -34t-55.5 34t-33.5 56q0 21 33.5 55t55.5 34z" />
<glyph unicode="&#xc0;" d="M345 550l-99 -236q-6 -14 -6 -16q0 -6 9 -6h191q8 0 8 5q0 2 -2 8l-93 245q-1 3 -4 3t-4 -3zM724 43q16 -9 16 -21q0 -22 -33 -22h-196q-30 0 -30 20q0 12 15 21q19 12 22 15q9 9 9 21q0 16 -13 49l-32 84q-6 15 -24 15h-239q-11 0 -16 -13q-33 -80 -33 -118q0 -14 5 -24 q3 -6 7.5 -11.5t7.5 -7.5t9 -5.5t7 -4.5q13 -9 13 -20q0 -21 -34 -21h-153q-34 0 -34 22q0 11 17 23q31 22 51 52q25 38 47 88l233 523q6 14 19 14h49q15 0 19 -13q210 -550 217 -566q27 -65 44 -81q5 -5 30 -19zM405 804l-151 93q-6 4 -6 8q0 8 13 8h120q27 0 42 -15 l99 -94q3 -3 3 -6q0 -6 -9 -6h-67q-25 0 -44 12z" />
<glyph unicode="&#xc1;" d="M345 550l-99 -236q-6 -14 -6 -16q0 -6 9 -6h191q8 0 8 5q0 2 -2 8l-93 245q-1 3 -4 3t-4 -3zM724 43q16 -9 16 -21q0 -22 -33 -22h-196q-30 0 -30 20q0 12 15 21q19 12 22 15q9 9 9 21q0 16 -13 49l-32 84q-6 15 -24 15h-239q-11 0 -16 -13q-33 -80 -33 -118q0 -14 5 -24 q3 -6 7.5 -11.5t7.5 -7.5t9 -5.5t7 -4.5q13 -9 13 -20q0 -21 -34 -21h-153q-34 0 -34 22q0 11 17 23q31 22 51 52q25 38 47 88l233 523q6 14 19 14h49q15 0 19 -13q210 -550 217 -566q27 -65 44 -81q5 -5 30 -19zM516 897l-146 -93q-19 -12 -44 -12h-67q-9 0 -9 6q0 3 5 8 l91 91q15 16 42 16h120q13 0 13 -8q0 -5 -5 -8z" />
<glyph unicode="&#xc2;" d="M345 550l-99 -236q-6 -14 -6 -16q0 -6 9 -6h191q8 0 8 5q0 2 -2 8l-93 245q-1 3 -4 3t-4 -3zM724 43q16 -9 16 -21q0 -22 -33 -22h-196q-30 0 -30 20q0 12 15 21q19 12 22 15q9 9 9 21q0 16 -13 49l-32 84q-6 15 -24 15h-239q-11 0 -16 -13q-33 -80 -33 -118q0 -14 5 -24 q3 -6 7.5 -11.5t7.5 -7.5t9 -5.5t7 -4.5q13 -9 13 -20q0 -21 -34 -21h-153q-34 0 -34 22q0 11 17 23q31 22 51 52q25 38 47 88l233 523q6 14 19 14h49q15 0 19 -13q210 -550 217 -566q27 -65 44 -81q5 -5 30 -19zM293 787h-49q-6 0 -6 4q0 1 15 20l75 92q9 10 21 10h78 q12 0 20 -10l83 -101q8 -9 8 -11q0 -4 -6 -4h-50q-10 0 -18 8l-73 68q-2 2 -3 2t-3 -2l-74 -69q-7 -7 -18 -7z" />
<glyph unicode="&#xc3;" d="M345 550l-99 -236q-6 -14 -6 -16q0 -6 9 -6h191q8 0 8 5q0 2 -2 8l-93 245q-1 3 -4 3t-4 -3zM724 43q16 -9 16 -21q0 -22 -33 -22h-196q-30 0 -30 20q0 12 15 21q19 12 22 15q9 9 9 21q0 16 -13 49l-32 84q-6 15 -24 15h-239q-11 0 -16 -13q-33 -80 -33 -118q0 -14 5 -24 q3 -6 7.5 -11.5t7.5 -7.5t9 -5.5t7 -4.5q13 -9 13 -20q0 -21 -34 -21h-153q-34 0 -34 22q0 11 17 23q31 22 51 52q25 38 47 88l233 523q6 14 19 14h49q15 0 19 -13q210 -550 217 -566q27 -65 44 -81q5 -5 30 -19zM238 789l-18 6q-7 3 -7 9q0 12 14 37q32 62 92 62 q30 0 70 -16q61 -24 83 -24q29 0 48 32q4 7 10 7q1 0 9 -2l14 -4q8 -2 8 -9q0 -8 -12 -32q-33 -66 -93 -66q-31 0 -85 21q-49 19 -69 19q-28 0 -45 -33q-5 -9 -11 -9q-2 0 -8 2z" />
<glyph unicode="&#xc4;" d="M345 550l-99 -236q-6 -14 -6 -16q0 -6 9 -6h191q8 0 8 5q0 2 -2 8l-93 245q-1 3 -4 3t-4 -3zM724 43q16 -9 16 -21q0 -22 -33 -22h-196q-30 0 -30 20q0 12 15 21q19 12 22 15q9 9 9 21q0 16 -13 49l-32 84q-6 15 -24 15h-239q-11 0 -16 -13q-33 -80 -33 -118q0 -14 5 -24 q3 -6 7.5 -11.5t7.5 -7.5t9 -5.5t7 -4.5q13 -9 13 -20q0 -21 -34 -21h-153q-34 0 -34 22q0 11 17 23q31 22 51 52q25 38 47 88l233 523q6 14 19 14h49q15 0 19 -13q210 -550 217 -566q27 -65 44 -81q5 -5 30 -19zM530 883q10 -11 10 -46t-10 -45q-13 -11 -46 -11 q-34 0 -45 11t-11 45q0 33 11 46q10 10 45 10t46 -10zM337 883q11 -13 11 -46q0 -34 -11 -45q-13 -11 -46 -11q-34 0 -45 11t-11 45q0 33 11 46q10 10 46 10q35 0 45 -10z" />
<glyph unicode="&#xc5;" d="M345 550l-99 -236q-6 -14 -6 -16q0 -6 9 -6h191q8 0 8 5q0 2 -2 8l-93 245q-1 3 -4 3t-4 -3zM724 43q16 -9 16 -21q0 -22 -33 -22h-196q-30 0 -30 20q0 12 15 21q19 12 22 15q9 9 9 21q0 16 -13 49l-32 84q-6 15 -24 15h-239q-11 0 -16 -13q-33 -80 -33 -118q0 -14 5 -24 q3 -6 7.5 -11.5t7.5 -7.5t9 -5.5t7 -4.5q13 -9 13 -20q0 -21 -34 -21h-153q-34 0 -34 22q0 11 17 23q31 22 51 52q25 38 47 88l233 523q6 14 19 14h49q15 0 19 -13q210 -550 217 -566q27 -65 44 -81q5 -5 30 -19zM341 822q0 -20 13.5 -33.5t33.5 -13.5t33.5 13.5t13.5 33.5 t-13.5 34t-33.5 14t-33.5 -14t-13.5 -34zM297 822q0 37 26.5 63.5t64.5 26.5t64.5 -26.5t26.5 -63.5t-26.5 -63t-64.5 -26t-64.5 26t-26.5 63z" />
<glyph unicode="&#xc6;" horiz-adv-x="1028" d="M270 290h209q9 0 9 10v305q0 6 -4 6q-3 0 -6 -4l-212 -308q-2 -4 -2 -5q0 -4 6 -4zM959 209q34 0 34 -33q0 -10 -5 -30q-5 -19 -11 -57t-13 -59t-22 -31q-12 -8 -33 -8q-5 0 -62 4t-116 4h-275q-35 0 -35 22q0 13 22 25q24 13 34 36q11 26 11 73v59q0 9 -10 9h-252 q-10 0 -14 -6q-51 -78 -66 -113q-7 -15 -7 -28q0 -17 16 -29q3 -2 11.5 -7t12 -9t3.5 -11q0 -21 -31 -21h-161q-32 0 -32 20q0 4 1.5 8t3 6.5t5.5 6t6.5 5t8.5 5.5l9 6q37 24 81 87q173 247 329 473q11 16 11 23q0 3 -1 5.5t-3.5 5t-5 4.5t-7 4t-7.5 3t-9 3.5t-9 3.5 q-19 7 -19 22q0 23 32 23h336q62 0 127 3.5t72 3.5q40 0 41 -32q1 -22 1 -70q0 -11 1.5 -34.5t1.5 -35.5q0 -21 -8.5 -28.5t-26.5 -7.5q-12 0 -20.5 7t-16.5 29q-8 19 -12.5 29t-17 25t-28.5 24q-17 10 -46 15t-54 5.5t-77 0.5h-11q-14 0 -19 -5.5t-5 -19.5v-187 q0 -15 5.5 -21t20.5 -6h24q19 0 75 2q23 1 54.5 4t41.5 3q32 0 32 -21q0 -1 -3 -22q0 -3 -0.5 -9.5t-1 -10t-3 -8.5t-7.5 -8q-11 -7 -40 -7q-21 0 -68.5 3t-73.5 3q-30 0 -42 -1q-14 -2 -14 -14v-147q0 -52 3 -72.5t16 -28.5t57 -8q48 0 83 7q49 11 76 32.5t58 69.5 q22 34 44 34z" />
<glyph unicode="&#xc7;" horiz-adv-x="687" d="M517 110q23 24 50 69q13 21 22 28.5t21 7.5q21 0 28.5 -13.5t7.5 -42.5v-7q-1 -48 -11 -74t-33 -43q-28 -20 -81.5 -33t-113.5 -13h-6q-16 -16 -16 -28q0 -9 10.5 -13t32 -7.5t32.5 -7.5q43 -14 43 -51q0 -40 -53 -62q-32 -13 -71 -13q-44 0 -71 15q-12 7 -12 17 q0 18 20 18q7 0 23.5 -4t28.5 -4q20 0 32 8q12 9 12 21q0 16 -24 24q-5 2 -18 5t-22.5 6.5t-16.5 8.5q-10 7 -10 19q0 21 27 52q-98 13 -170 68t-107 131t-35 162q0 71 25.5 137t72.5 118.5t122 84.5t167 32q111 0 169 -36q29 -18 35.5 -36.5t6.5 -60.5v-10q0 -38 -7 -53 t-27 -15q-16 0 -24 6.5t-18 23.5q-1 1 -8 13t-11 17.5t-11.5 16t-16.5 19t-20 16.5q-41 30 -94 30q-93 0 -153.5 -82t-60.5 -207q0 -22 1 -33q9 -132 73 -202t148 -70q67 0 112 47z" />
<glyph unicode="&#xc8;" horiz-adv-x="649" d="M595 207q19 -7 19 -29q0 -9 -5 -31q-5 -19 -11 -57t-13 -59t-22 -31q-12 -8 -33 -8q-6 0 -62 4t-116 4h-275q-35 0 -35 22q0 13 22 26q24 14 34 36q12 28 12 103v387q0 28 -1 40.5t-7.5 26t-20.5 22.5q-3 2 -11 6t-11 6t-6.5 7t-3.5 11q0 21 30 21h262q66 0 134.5 3.5 t69.5 3.5q34 0 36 -32q1 -16 1 -69q0 -9 1.5 -37t1.5 -38q0 -32 -32 -32q-17 0 -24.5 7t-18.5 32q-1 2 -5 12t-7.5 16.5t-9.5 15.5t-14.5 17t-18.5 14q-36 21 -144 21h-44q-14 0 -19 -5.5t-5 -18.5v-189q0 -17 10.5 -21.5t33.5 -4.5h6q37 0 75 3q88 6 95 6q33 0 33 -22 q0 -6 -2 -20q0 -2 -1 -9.5t-1.5 -10.5t-3 -7.5t-7.5 -8.5q-10 -7 -40 -7q-19 0 -59.5 2.5t-72.5 2.5q-37 0 -52 -1q-14 -2 -14 -14v-161q0 -43 3.5 -61t15.5 -26q13 -8 57 -8q51 0 84 7q48 10 74.5 32t58.5 71q22 33 43 33q9 0 16 -3zM336 804l-151 93q-6 4 -6 8q0 8 13 8 h120q27 0 42 -15l99 -94q3 -3 3 -6q0 -6 -9 -6h-67q-25 0 -44 12z" />
<glyph unicode="&#xc9;" horiz-adv-x="649" d="M595 207q19 -7 19 -29q0 -9 -5 -31q-5 -19 -11 -57t-13 -59t-22 -31q-12 -8 -33 -8q-6 0 -62 4t-116 4h-275q-35 0 -35 22q0 13 22 26q24 14 34 36q12 28 12 103v387q0 28 -1 40.5t-7.5 26t-20.5 22.5q-3 2 -11 6t-11 6t-6.5 7t-3.5 11q0 21 30 21h262q66 0 134.5 3.5 t69.5 3.5q34 0 36 -32q1 -16 1 -69q0 -9 1.5 -37t1.5 -38q0 -32 -32 -32q-17 0 -24.5 7t-18.5 32q-1 2 -5 12t-7.5 16.5t-9.5 15.5t-14.5 17t-18.5 14q-36 21 -144 21h-44q-14 0 -19 -5.5t-5 -18.5v-189q0 -17 10.5 -21.5t33.5 -4.5h6q37 0 75 3q88 6 95 6q33 0 33 -22 q0 -6 -2 -20q0 -2 -1 -9.5t-1.5 -10.5t-3 -7.5t-7.5 -8.5q-10 -7 -40 -7q-19 0 -59.5 2.5t-72.5 2.5q-37 0 -52 -1q-14 -2 -14 -14v-161q0 -43 3.5 -61t15.5 -26q13 -8 57 -8q51 0 84 7q48 10 74.5 32t58.5 71q22 33 43 33q9 0 16 -3zM462 897l-146 -93q-19 -12 -44 -12h-67 q-9 0 -9 6q0 3 5 8l91 91q15 16 42 16h120q13 0 13 -8q0 -5 -5 -8z" />
<glyph unicode="&#xca;" horiz-adv-x="649" d="M595 207q19 -7 19 -29q0 -9 -5 -31q-5 -19 -11 -57t-13 -59t-22 -31q-12 -8 -33 -8q-6 0 -62 4t-116 4h-275q-35 0 -35 22q0 13 22 26q24 14 34 36q12 28 12 103v387q0 28 -1 40.5t-7.5 26t-20.5 22.5q-3 2 -11 6t-11 6t-6.5 7t-3.5 11q0 21 30 21h262q66 0 134.5 3.5 t69.5 3.5q34 0 36 -32q1 -16 1 -69q0 -9 1.5 -37t1.5 -38q0 -32 -32 -32q-17 0 -24.5 7t-18.5 32q-1 2 -5 12t-7.5 16.5t-9.5 15.5t-14.5 17t-18.5 14q-36 21 -144 21h-44q-14 0 -19 -5.5t-5 -18.5v-189q0 -17 10.5 -21.5t33.5 -4.5h6q37 0 75 3q88 6 95 6q33 0 33 -22 q0 -6 -2 -20q0 -2 -1 -9.5t-1.5 -10.5t-3 -7.5t-7.5 -8.5q-10 -7 -40 -7q-19 0 -59.5 2.5t-72.5 2.5q-37 0 -52 -1q-14 -2 -14 -14v-161q0 -43 3.5 -61t15.5 -26q13 -8 57 -8q51 0 84 7q48 10 74.5 32t58.5 71q22 33 43 33q9 0 16 -3zM228 787h-49q-6 0 -6 4q0 1 15 20 l75 92q9 10 21 10h78q12 0 20 -10l83 -101q8 -9 8 -11q0 -4 -6 -4h-50q-10 0 -18 8l-73 68q-2 2 -3 2t-3 -2l-74 -69q-7 -7 -18 -7z" />
<glyph unicode="&#xcb;" horiz-adv-x="649" d="M595 207q19 -7 19 -29q0 -9 -5 -31q-5 -19 -11 -57t-13 -59t-22 -31q-12 -8 -33 -8q-6 0 -62 4t-116 4h-275q-35 0 -35 22q0 13 22 26q24 14 34 36q12 28 12 103v387q0 28 -1 40.5t-7.5 26t-20.5 22.5q-3 2 -11 6t-11 6t-6.5 7t-3.5 11q0 21 30 21h262q66 0 134.5 3.5 t69.5 3.5q34 0 36 -32q1 -16 1 -69q0 -9 1.5 -37t1.5 -38q0 -32 -32 -32q-17 0 -24.5 7t-18.5 32q-1 2 -5 12t-7.5 16.5t-9.5 15.5t-14.5 17t-18.5 14q-36 21 -144 21h-44q-14 0 -19 -5.5t-5 -18.5v-189q0 -17 10.5 -21.5t33.5 -4.5h6q37 0 75 3q88 6 95 6q33 0 33 -22 q0 -6 -2 -20q0 -2 -1 -9.5t-1.5 -10.5t-3 -7.5t-7.5 -8.5q-10 -7 -40 -7q-19 0 -59.5 2.5t-72.5 2.5q-37 0 -52 -1q-14 -2 -14 -14v-161q0 -43 3.5 -61t15.5 -26q13 -8 57 -8q51 0 84 7q48 10 74.5 32t58.5 71q22 33 43 33q9 0 16 -3zM464 883q10 -11 10 -46t-10 -45 q-13 -11 -46 -11q-34 0 -45 11t-11 45q0 33 11 46q10 10 45 10t46 -10zM271 883q11 -13 11 -46q0 -34 -11 -45q-13 -11 -46 -11q-34 0 -45 11t-11 45q0 33 11 46q10 10 46 10q35 0 45 -10z" />
<glyph unicode="&#xcc;" horiz-adv-x="351" d="M287 48q1 -1 4 -2.5t4 -2.5t3.5 -2.5t3.5 -3t2.5 -3t2.5 -3.5t1.5 -4t0.5 -5q0 -22 -35 -22h-197q-35 0 -35 22q0 3 0.5 5.5t2 4.5t2.5 3.5t4 3.5t4 3t4.5 3t4.5 3q26 17 34 36q11 27 11 104v391q0 39 -4.5 56t-22.5 28q-5 3 -12.5 7t-11.5 6t-7 7t-3 11q0 20 30 20h194 q31 0 31 -20q0 -8 -4 -12.5t-15 -10.5t-15 -8q-18 -11 -22.5 -28t-4.5 -56v-391q0 -76 11 -104q9 -20 34 -36zM193 804l-151 93q-6 4 -6 8q0 8 13 8h120q27 0 42 -15l99 -94q3 -3 3 -6q0 -6 -9 -6h-67q-25 0 -44 12z" />
<glyph unicode="&#xcd;" horiz-adv-x="351" d="M287 48q1 -1 4 -2.5t4 -2.5t3.5 -2.5t3.5 -3t2.5 -3t2.5 -3.5t1.5 -4t0.5 -5q0 -22 -35 -22h-197q-35 0 -35 22q0 3 0.5 5.5t2 4.5t2.5 3.5t4 3.5t4 3t4.5 3t4.5 3q26 17 34 36q11 27 11 104v391q0 39 -4.5 56t-22.5 28q-5 3 -12.5 7t-11.5 6t-7 7t-3 11q0 20 30 20h194 q31 0 31 -20q0 -8 -4 -12.5t-15 -10.5t-15 -8q-18 -11 -22.5 -28t-4.5 -56v-391q0 -76 11 -104q9 -20 34 -36zM307 897l-146 -93q-19 -12 -44 -12h-67q-9 0 -9 6q0 3 5 8l91 91q15 16 42 16h120q13 0 13 -8q0 -5 -5 -8z" />
<glyph unicode="&#xce;" horiz-adv-x="351" d="M287 48q1 -1 4 -2.5t4 -2.5t3.5 -2.5t3.5 -3t2.5 -3t2.5 -3.5t1.5 -4t0.5 -5q0 -22 -35 -22h-197q-35 0 -35 22q0 3 0.5 5.5t2 4.5t2.5 3.5t4 3.5t4 3t4.5 3t4.5 3q26 17 34 36q11 27 11 104v391q0 39 -4.5 56t-22.5 28q-5 3 -12.5 7t-11.5 6t-7 7t-3 11q0 20 30 20h194 q31 0 31 -20q0 -8 -4 -12.5t-15 -10.5t-15 -8q-18 -11 -22.5 -28t-4.5 -56v-391q0 -76 11 -104q9 -20 34 -36zM80 787h-49q-6 0 -6 4q0 1 15 20l75 92q9 10 21 10h78q12 0 20 -10l83 -101q8 -9 8 -11q0 -4 -6 -4h-50q-10 0 -18 8l-73 68q-2 2 -3 2t-3 -2l-74 -69 q-7 -7 -18 -7z" />
<glyph unicode="&#xcf;" horiz-adv-x="351" d="M287 48q1 -1 4 -2.5t4 -2.5t3.5 -2.5t3.5 -3t2.5 -3t2.5 -3.5t1.5 -4t0.5 -5q0 -22 -35 -22h-197q-35 0 -35 22q0 3 0.5 5.5t2 4.5t2.5 3.5t4 3.5t4 3t4.5 3t4.5 3q26 17 34 36q11 27 11 104v391q0 39 -4.5 56t-22.5 28q-5 3 -12.5 7t-11.5 6t-7 7t-3 11q0 20 30 20h194 q31 0 31 -20q0 -8 -4 -12.5t-15 -10.5t-15 -8q-18 -11 -22.5 -28t-4.5 -56v-391q0 -76 11 -104q9 -20 34 -36zM318 883q10 -11 10 -46t-10 -45q-13 -11 -46 -11q-34 0 -45 11t-11 45q0 33 11 46q10 10 45 10t46 -10zM125 883q11 -13 11 -46q0 -34 -11 -45q-13 -11 -46 -11 q-34 0 -45 11t-11 45q0 33 11 46q10 10 46 10q35 0 45 -10z" />
<glyph unicode="&#xd0;" horiz-adv-x="819" d="M571 147q67 74 67 208q0 196 -127 262q-58 31 -193 31q-14 0 -19 -5.5t-5 -18.5v-211q0 -13 13 -13q20 0 68 2q51 3 54 3q34 0 34 -19q0 -5 -4 -21q-5 -27 -14 -34q-7 -6 -27 -6q-9 0 -30.5 2t-30.5 2q-24 1 -50 1q-13 0 -13 -12v-166q0 -61 14 -72q13 -11 59 -11 q140 0 204 78zM631 649q72 -42 111.5 -116.5t39.5 -174.5q0 -70 -25 -132.5t-74.5 -114t-132.5 -81.5t-190 -30h-232q-35 0 -35 22q0 14 22 26q24 13 34 36q11 26 11 103v131q0 12 -13 12q-25 0 -60 -3q-4 0 -17.5 -1.5t-20.5 -1.5q-33 0 -33 19q0 5 4 23q6 26 13 32t25 6 q7 0 21.5 -1.5t21.5 -1.5q19 -1 46 -1q13 0 13 13v156q0 46 -4.5 64t-23.5 30q-2 2 -14 7.5t-15.5 10t-3.5 12.5q0 21 30 21h167q125 0 201 -16t134 -49z" />
<glyph unicode="&#xd1;" horiz-adv-x="800" d="M559 714h176q35 0 35 -22q0 -6 -4 -11.5t-7.5 -7.5t-12 -6t-10.5 -5q-16 -8 -24 -16.5t-16 -33t-10 -66.5q-5 -84 -5 -540q0 -14 -16 -14h-67q-19 0 -28 14l-364 518q-2 3 -5 3q-4 0 -4 -5q0 -306 3 -352q2 -39 13 -64t22 -34.5t28 -17.5q2 -1 7.5 -3.5t7 -3.5t6 -3t6 -4 t4 -4.5t3.5 -5.5t1 -7q0 -23 -35 -23h-194q-36 0 -36 22q0 5 2 9t6 7.5t7.5 5t10 4.5t8.5 4q24 12 38.5 36t17.5 82q5 65 5 445q0 10 -6 16q-12 13 -32 23q-7 3 -18 8l-16.5 7.5t-10.5 8.5t-5 14q0 22 36 22h134q29 0 43 -19l351 -500q2 -3 5 -3q4 0 4 5q0 284 -4 349 q-3 57 -14.5 79t-34.5 34q-4 2 -13 6t-13 6.5t-8 7.5t-4 12q0 23 37 23zM259 789l-18 6q-7 3 -7 9q0 12 14 37q32 62 92 62q30 0 70 -16q61 -24 83 -24q29 0 48 32q4 7 10 7q1 0 9 -2l14 -4q8 -2 8 -9q0 -8 -12 -32q-33 -66 -93 -66q-31 0 -85 21q-49 19 -69 19 q-29 0 -45 -33q-4 -9 -11 -9q-2 0 -8 2z" />
<glyph unicode="&#xd2;" horiz-adv-x="798" d="M390 657q-92 0 -149.5 -75.5t-57.5 -198.5q0 -137 61.5 -230t163.5 -93q94 0 150 78t56 195q0 136 -61 230t-163 94zM761 360q-2 -156 -105 -263.5t-257 -107.5q-166 0 -264 100t-98 262q0 157 102 266t260 109q165 0 263.5 -102t98.5 -264zM427 804l-151 93q-6 4 -6 8 q0 8 13 8h120q27 0 42 -15l99 -94q3 -3 3 -6q0 -6 -9 -6h-67q-25 0 -44 12z" />
<glyph unicode="&#xd3;" horiz-adv-x="798" d="M390 657q-92 0 -149.5 -75.5t-57.5 -198.5q0 -137 61.5 -230t163.5 -93q94 0 150 78t56 195q0 136 -61 230t-163 94zM761 360q-2 -156 -105 -263.5t-257 -107.5q-166 0 -264 100t-98 262q0 157 102 266t260 109q165 0 263.5 -102t98.5 -264zM537 897l-146 -93 q-19 -12 -44 -12h-67q-9 0 -9 6q0 3 5 8l91 91q15 16 42 16h120q13 0 13 -8q0 -5 -5 -8z" />
<glyph unicode="&#xd4;" horiz-adv-x="798" d="M390 657q-92 0 -149.5 -75.5t-57.5 -198.5q0 -137 61.5 -230t163.5 -93q94 0 150 78t56 195q0 136 -61 230t-163 94zM761 360q-2 -156 -105 -263.5t-257 -107.5q-166 0 -264 100t-98 262q0 157 102 266t260 109q165 0 263.5 -102t98.5 -264zM311 787h-49q-6 0 -6 4 q0 1 15 20l75 92q9 10 21 10h78q12 0 20 -10l83 -101q8 -9 8 -11q0 -4 -6 -4h-50q-10 0 -18 8l-73 68q-2 2 -3 2t-3 -2l-74 -69q-7 -7 -18 -7z" />
<glyph unicode="&#xd5;" horiz-adv-x="798" d="M390 657q-92 0 -149.5 -75.5t-57.5 -198.5q0 -137 61.5 -230t163.5 -93q94 0 150 78t56 195q0 136 -61 230t-163 94zM761 360q-2 -156 -105 -263.5t-257 -107.5q-166 0 -264 100t-98 262q0 157 102 266t260 109q165 0 263.5 -102t98.5 -264zM258 789l-18 6q-7 3 -7 9 q0 12 14 37q32 62 92 62q30 0 70 -16q61 -24 83 -24q29 0 48 32q4 7 10 7q1 0 9 -2l14 -4q8 -2 8 -9q0 -8 -12 -32q-33 -66 -93 -66q-31 0 -85 21q-49 19 -69 19q-28 0 -45 -33q-5 -9 -11 -9q-2 0 -8 2z" />
<glyph unicode="&#xd6;" horiz-adv-x="798" d="M390 657q-92 0 -149.5 -75.5t-57.5 -198.5q0 -137 61.5 -230t163.5 -93q94 0 150 78t56 195q0 136 -61 230t-163 94zM761 360q-2 -156 -105 -263.5t-257 -107.5q-166 0 -264 100t-98 262q0 157 102 266t260 109q165 0 263.5 -102t98.5 -264zM550 883q10 -11 10 -46 t-10 -45q-13 -11 -46 -11q-34 0 -45 11t-11 45q0 33 11 46q10 10 45 10t46 -10zM357 883q11 -13 11 -46q0 -34 -11 -45q-13 -11 -46 -11q-34 0 -45 11t-11 45q0 33 11 46q10 10 46 10q35 0 45 -10z" />
<glyph unicode="&#xd7;" horiz-adv-x="611" d="M146 567l159 -160l160 160l50 -50l-160 -160l160 -159l-50 -50l-160 160l-159 -160l-50 50l160 159l-160 160z" />
<glyph unicode="&#xd8;" horiz-adv-x="807" d="M221 212q3 -5 4 -5q2 0 4 2l321 348q4 4 4 7q0 2 -3 6q-61 86 -157 86q-95 0 -150.5 -77t-55.5 -196q0 -86 33 -171zM412 60q69 0 117.5 42.5t69 102t20.5 128.5q0 82 -34 171q-1 3 -4 3q-2 0 -4 -2q-199 -217 -321 -348q-3 -3 -3 -7q0 -3 2 -5q61 -85 157 -85zM681 608 q84 -98 84 -251q-1 -154 -104.5 -261t-257.5 -107q-134 0 -227 69q-3 2 -6 2t-6 -3l-47 -51q-6 -6 -14 -6h-55q-6 0 -6 4q0 2 4 6l78 85q3 3 3 5t-3 5q-82 98 -82 243q0 158 101.5 267.5t259.5 109.5q133 0 228 -70q4 -2 5 -2q2 0 5 3l48 52q6 6 15 6h53q6 0 6 -4 q0 -3 -3 -6l-77 -84q-4 -4 -4 -7t2 -5z" />
<glyph unicode="&#xd9;" horiz-adv-x="758" d="M708 714q36 0 36 -22q0 -4 -1 -7t-3.5 -5.5l-4.5 -4.5t-6 -4t-6.5 -3t-7 -3t-5.5 -3q-22 -11 -34 -33.5t-16 -81.5q-2 -19 -2 -138.5t-1 -150.5q-2 -68 -17 -113q-27 -76 -95 -116t-166 -40q-214 0 -268 144q-17 44 -17 126v310q0 46 -4.5 64t-23.5 30q-2 2 -14 7.5 t-15.5 10t-3.5 12.5q0 21 30 21h195q30 0 30 -21q0 -8 -3.5 -12.5t-15.5 -10t-14 -7.5q-19 -12 -23.5 -30t-4.5 -64l1 -287q0 -66 15 -106q38 -97 163 -97q84 0 130.5 48t48.5 143q1 35 1 130q0 116 -2 147q-3 56 -15 78.5t-34 33.5q-4 2 -13 6t-13 6.5t-8 7.5t-4 12 q0 23 37 23h174zM409 804l-151 93q-6 4 -6 8q0 8 13 8h120q27 0 42 -15l99 -94q3 -3 3 -6q0 -6 -9 -6h-67q-25 0 -44 12z" />
<glyph unicode="&#xda;" horiz-adv-x="758" d="M708 714q36 0 36 -22q0 -4 -1 -7t-3.5 -5.5l-4.5 -4.5t-6 -4t-6.5 -3t-7 -3t-5.5 -3q-22 -11 -34 -33.5t-16 -81.5q-2 -19 -2 -138.5t-1 -150.5q-2 -68 -17 -113q-27 -76 -95 -116t-166 -40q-214 0 -268 144q-17 44 -17 126v310q0 46 -4.5 64t-23.5 30q-2 2 -14 7.5 t-15.5 10t-3.5 12.5q0 21 30 21h195q30 0 30 -21q0 -8 -3.5 -12.5t-15.5 -10t-14 -7.5q-19 -12 -23.5 -30t-4.5 -64l1 -287q0 -66 15 -106q38 -97 163 -97q84 0 130.5 48t48.5 143q1 35 1 130q0 116 -2 147q-3 56 -15 78.5t-34 33.5q-4 2 -13 6t-13 6.5t-8 7.5t-4 12 q0 23 37 23h174zM528 897l-146 -93q-19 -12 -44 -12h-67q-9 0 -9 6q0 3 5 8l91 91q15 16 42 16h120q13 0 13 -8q0 -5 -5 -8z" />
<glyph unicode="&#xdb;" horiz-adv-x="758" d="M708 714q36 0 36 -22q0 -4 -1 -7t-3.5 -5.5l-4.5 -4.5t-6 -4t-6.5 -3t-7 -3t-5.5 -3q-22 -11 -34 -33.5t-16 -81.5q-2 -19 -2 -138.5t-1 -150.5q-2 -68 -17 -113q-27 -76 -95 -116t-166 -40q-214 0 -268 144q-17 44 -17 126v310q0 46 -4.5 64t-23.5 30q-2 2 -14 7.5 t-15.5 10t-3.5 12.5q0 21 30 21h195q30 0 30 -21q0 -8 -3.5 -12.5t-15.5 -10t-14 -7.5q-19 -12 -23.5 -30t-4.5 -64l1 -287q0 -66 15 -106q38 -97 163 -97q84 0 130.5 48t48.5 143q1 35 1 130q0 116 -2 147q-3 56 -15 78.5t-34 33.5q-4 2 -13 6t-13 6.5t-8 7.5t-4 12 q0 23 37 23h174zM299 787h-49q-6 0 -6 4q0 1 15 20l75 92q9 10 21 10h78q12 0 20 -10l83 -101q8 -9 8 -11q0 -4 -6 -4h-50q-10 0 -18 8l-73 68q-2 2 -3 2t-3 -2l-74 -69q-7 -7 -18 -7z" />
<glyph unicode="&#xdc;" horiz-adv-x="758" d="M708 714q36 0 36 -22q0 -4 -1 -7t-3.5 -5.5l-4.5 -4.5t-6 -4t-6.5 -3t-7 -3t-5.5 -3q-22 -11 -34 -33.5t-16 -81.5q-2 -19 -2 -138.5t-1 -150.5q-2 -68 -17 -113q-27 -76 -95 -116t-166 -40q-214 0 -268 144q-17 44 -17 126v310q0 46 -4.5 64t-23.5 30q-2 2 -14 7.5 t-15.5 10t-3.5 12.5q0 21 30 21h195q30 0 30 -21q0 -8 -3.5 -12.5t-15.5 -10t-14 -7.5q-19 -12 -23.5 -30t-4.5 -64l1 -287q0 -66 15 -106q38 -97 163 -97q84 0 130.5 48t48.5 143q1 35 1 130q0 116 -2 147q-3 56 -15 78.5t-34 33.5q-4 2 -13 6t-13 6.5t-8 7.5t-4 12 q0 23 37 23h174zM542 883q10 -11 10 -46t-10 -45q-13 -11 -46 -11q-34 0 -45 11t-11 45q0 33 11 46q10 10 45 10t46 -10zM349 883q11 -13 11 -46q0 -34 -11 -45q-13 -11 -46 -11q-34 0 -45 11t-11 45q0 33 11 46q10 10 46 10q35 0 45 -10z" />
<glyph unicode="&#xdd;" horiz-adv-x="712" d="M674 714q35 0 35 -21q0 -13 -17 -23q-28 -19 -50 -44q-27 -31 -65 -90l-156 -249q-3 -5 -3 -12v-86q0 -80 12 -106q9 -20 34 -35q21 -12 21 -26q0 -22 -33 -22h-201q-33 0 -33 22q0 14 21 26q25 15 34 35q12 26 12 106v55q0 8 -4 16q-157 285 -171 312q-29 57 -49 77 q-8 8 -33 22q-16 9 -16 21q0 22 34 22h200q30 0 30 -20q0 -12 -17 -22.5t-21 -14.5q-6 -7 -6 -18q0 -18 18 -51l127 -232q1 -3 4 -3t5 3l105 172q42 68 42 99q0 25 -32 43q-16 9 -16 21q0 23 32 23h157zM518 897l-146 -93q-19 -12 -44 -12h-67q-9 0 -9 6q0 3 5 8l91 91 q15 16 42 16h120q13 0 13 -8q0 -5 -5 -8z" />
<glyph unicode="&#xde;" horiz-adv-x="649" d="M453 290q20 31 20 78q0 53 -28 88q-43 53 -148 53h-42q-13 0 -13 -12v-261q0 -13 14 -13h38q118 1 159 67zM560 511q53 -52 53 -137q0 -48 -18 -87q-61 -132 -277 -132h-65q-10 0 -10 -10q1 -41 10 -61q10 -22 34 -36q22 -12 22 -26q0 -22 -35 -22h-197q-35 0 -35 22 q0 2 0.5 4.5t1 4t2 3.5t2.5 3t3.5 3t4 2.5t4.5 2.5t4 3q26 17 34 36q11 24 11 104v376q0 50 -4 69t-23 30q-5 3 -12.5 7t-11.5 6t-7 7t-3 11q0 20 30 20h197q28 0 28 -20q0 -8 -4 -12.5t-15 -10.5t-15 -8q-16 -10 -21.5 -26t-5.5 -49q0 -12 14 -12h31q73 0 111 -2.5 t84.5 -17.5t77.5 -45z" />
<glyph unicode="&#xdf;" horiz-adv-x="654" d="M631 176q0 -91 -80 -145q-61 -41 -145 -41q-108 0 -108 74q0 18 9 30.5t26 12.5q16 0 36 -18q39 -35 73 -35q33 0 55.5 20t22.5 50t-23.5 53.5t-80.5 59.5q-61 39 -87 69t-26 67q0 28 17.5 57t59.5 73q58 61 58 106q0 35 -24 54.5t-58 19.5q-51 0 -83 -34 q-21 -23 -31 -56t-10 -97v-307q0 -78 12 -106q8 -19 34 -35q21 -12 21 -26q0 -22 -33 -22h-192q-33 0 -33 22q0 14 21 26q25 15 34 35q12 28 12 106q0 31 -0.5 121t-0.5 115q0 9 -9 9h-61q-14 0 -14 12v41q0 12 14 12h68q8 0 8 8q13 88 51 137q80 102 215 102 q80 0 132.5 -31t52.5 -84q0 -31 -17.5 -56.5t-52.5 -55.5q-43 -35 -60.5 -54t-17.5 -37q0 -12 3.5 -21.5t16 -20.5t21.5 -18t34 -24t41 -28q99 -69 99 -140z" />
<glyph unicode="&#xe0;" horiz-adv-x="550" d="M335 252v20q0 3 -3 3l-3 -1q-16 -12 -62 -32t-68 -35q-44 -30 -44 -75q0 -31 20 -49t50 -18q28 0 53.5 15.5t39.5 44.5q17 36 17 127zM507 71q20 0 20 -20q0 -11 -7 -21q-12 -18 -35.5 -29.5t-50.5 -11.5q-32 0 -56.5 20t-31.5 61l-4 1q-27 -40 -71.5 -61t-92.5 -21 q-64 0 -110.5 35.5t-46.5 95.5q0 74 67 116q29 18 90.5 40t76.5 29q80 38 80 93q0 23 -13 41.5t-39 25.5q-12 3 -25 3q-40 0 -73 -27q-19 -16 -39 -45t-21 -30q-11 -14 -31 -14q-33 0 -33 56q0 53 18 75q20 25 79 39q46 11 100 11q92 0 150 -47t58 -124q0 -37 -2 -109.5 t-2 -102.5q0 -80 28 -80q2 0 8 0.5t9 0.5zM277 617l-151 93q-6 4 -6 8q0 8 13 8h120q27 0 42 -15l99 -94q3 -3 3 -6q0 -6 -9 -6h-67q-25 0 -44 12z" />
<glyph unicode="&#xe1;" horiz-adv-x="550" d="M335 252v20q0 3 -3 3l-3 -1q-16 -12 -62 -32t-68 -35q-44 -30 -44 -75q0 -31 20 -49t50 -18q28 0 53.5 15.5t39.5 44.5q17 36 17 127zM507 71q20 0 20 -20q0 -11 -7 -21q-12 -18 -35.5 -29.5t-50.5 -11.5q-32 0 -56.5 20t-31.5 61l-4 1q-27 -40 -71.5 -61t-92.5 -21 q-64 0 -110.5 35.5t-46.5 95.5q0 74 67 116q29 18 90.5 40t76.5 29q80 38 80 93q0 23 -13 41.5t-39 25.5q-12 3 -25 3q-40 0 -73 -27q-19 -16 -39 -45t-21 -30q-11 -14 -31 -14q-33 0 -33 56q0 53 18 75q20 25 79 39q46 11 100 11q92 0 150 -47t58 -124q0 -37 -2 -109.5 t-2 -102.5q0 -80 28 -80q2 0 8 0.5t9 0.5zM414 710l-146 -93q-19 -12 -44 -12h-67q-9 0 -9 6q0 3 3 6l93 93q15 16 42 16h120q13 0 13 -8q0 -5 -5 -8z" />
<glyph unicode="&#xe2;" horiz-adv-x="550" d="M335 252v20q0 3 -3 3l-3 -1q-16 -12 -62 -32t-68 -35q-44 -30 -44 -75q0 -31 20 -49t50 -18q28 0 53.5 15.5t39.5 44.5q17 36 17 127zM507 71q20 0 20 -20q0 -11 -7 -21q-12 -18 -35.5 -29.5t-50.5 -11.5q-32 0 -56.5 20t-31.5 61l-4 1q-27 -40 -71.5 -61t-92.5 -21 q-64 0 -110.5 35.5t-46.5 95.5q0 74 67 116q29 18 90.5 40t76.5 29q80 38 80 93q0 23 -13 41.5t-39 25.5q-12 3 -25 3q-40 0 -73 -27q-19 -16 -39 -45t-21 -30q-11 -14 -31 -14q-33 0 -33 56q0 53 18 75q20 25 79 39q46 11 100 11q92 0 150 -47t58 -124q0 -37 -2 -109.5 t-2 -102.5q0 -80 28 -80q2 0 8 0.5t9 0.5zM168 600h-49q-6 0 -6 4q0 1 15 20l75 92q9 10 21 10h78q12 0 20 -10l83 -101q8 -9 8 -11q0 -4 -6 -4h-50q-10 0 -18 8l-73 68q-2 2 -3 2t-3 -2l-74 -69q-7 -7 -18 -7z" />
<glyph unicode="&#xe3;" horiz-adv-x="550" d="M335 252v20q0 3 -3 3l-3 -1q-16 -12 -62 -32t-68 -35q-44 -30 -44 -75q0 -31 20 -49t50 -18q28 0 53.5 15.5t39.5 44.5q17 36 17 127zM507 71q20 0 20 -20q0 -11 -7 -21q-12 -18 -35.5 -29.5t-50.5 -11.5q-32 0 -56.5 20t-31.5 61l-4 1q-27 -40 -71.5 -61t-92.5 -21 q-64 0 -110.5 35.5t-46.5 95.5q0 74 67 116q29 18 90.5 40t76.5 29q80 38 80 93q0 23 -13 41.5t-39 25.5q-12 3 -25 3q-40 0 -73 -27q-19 -16 -39 -45t-21 -30q-11 -14 -31 -14q-33 0 -33 56q0 53 18 75q20 25 79 39q46 11 100 11q92 0 150 -47t58 -124q0 -37 -2 -109.5 t-2 -102.5q0 -80 28 -80q2 0 8 0.5t9 0.5zM116 612l-18 6q-7 3 -7 9q0 12 14 37q32 62 92 62q30 0 70 -16q61 -24 83 -24q29 0 48 32q4 7 10 7q1 0 9 -2l14 -4q8 -2 8 -9q0 -8 -12 -32q-33 -66 -93 -66q-31 0 -85 21q-49 19 -69 19q-28 0 -45 -33q-5 -9 -11 -9q-2 0 -8 2z " />
<glyph unicode="&#xe4;" horiz-adv-x="550" d="M335 252v20q0 3 -3 3l-3 -1q-16 -12 -62 -32t-68 -35q-44 -30 -44 -75q0 -31 20 -49t50 -18q28 0 53.5 15.5t39.5 44.5q17 36 17 127zM507 71q20 0 20 -20q0 -11 -7 -21q-12 -18 -35.5 -29.5t-50.5 -11.5q-32 0 -56.5 20t-31.5 61l-4 1q-27 -40 -71.5 -61t-92.5 -21 q-64 0 -110.5 35.5t-46.5 95.5q0 74 67 116q29 18 90.5 40t76.5 29q80 38 80 93q0 23 -13 41.5t-39 25.5q-12 3 -25 3q-40 0 -73 -27q-19 -16 -39 -45t-21 -30q-11 -14 -31 -14q-33 0 -33 56q0 53 18 75q20 25 79 39q46 11 100 11q92 0 150 -47t58 -124q0 -37 -2 -109.5 t-2 -102.5q0 -80 28 -80q2 0 8 0.5t9 0.5zM413 703q10 -11 10 -46t-10 -45q-13 -11 -46 -11q-34 0 -45 11t-11 45q0 33 11 46q10 10 45 10t46 -10zM220 703q11 -13 11 -46q0 -34 -11 -45q-13 -11 -46 -11q-34 0 -45 11t-11 45q0 33 11 46q10 10 46 10q35 0 45 -10z" />
<glyph unicode="&#xe5;" horiz-adv-x="550" d="M335 252v20q0 3 -3 3l-3 -1q-16 -12 -62 -32t-68 -35q-44 -30 -44 -75q0 -31 20 -49t50 -18q28 0 53.5 15.5t39.5 44.5q17 36 17 127zM507 71q20 0 20 -20q0 -11 -7 -21q-12 -18 -35.5 -29.5t-50.5 -11.5q-32 0 -56.5 20t-31.5 61l-4 1q-27 -40 -71.5 -61t-92.5 -21 q-64 0 -110.5 35.5t-46.5 95.5q0 74 67 116q29 18 90.5 40t76.5 29q80 38 80 93q0 23 -13 41.5t-39 25.5q-12 3 -25 3q-40 0 -73 -27q-19 -16 -39 -45t-21 -30q-11 -14 -31 -14q-33 0 -33 56q0 53 18 75q20 25 79 39q46 11 100 11q92 0 150 -47t58 -124q0 -37 -2 -109.5 t-2 -102.5q0 -80 28 -80q2 0 8 0.5t9 0.5zM213 657q0 -19 13.5 -33t33.5 -14t33.5 14t13.5 33q0 20 -13.5 34t-33.5 14t-33.5 -14t-13.5 -34zM169 657q0 37 26.5 63.5t64.5 26.5t64.5 -26.5t26.5 -63.5t-26.5 -63t-64.5 -26t-64.5 26t-26.5 63z" />
<glyph unicode="&#xe6;" horiz-adv-x="839" d="M316 125q12 25 15 55t3 92q0 3 -3 3q-2 0 -3 -1q-16 -11 -62 -31t-68 -36q-44 -30 -44 -75q0 -31 20.5 -49t50.5 -18q27 0 52 15.5t39 44.5zM462 341q0 -10 10 -10h139q39 0 55.5 11t16.5 40q0 35 -26 62t-73 27q-41 0 -71 -29t-40.5 -57t-10.5 -44zM473 269 q-12 0 -12 -11q0 -65 35 -114q46 -64 129 -64q42 0 74 13t51 25.5t28 12.5q8 0 14.5 -6t6.5 -15q0 -32 -63 -75q-68 -45 -155 -45q-64 0 -119.5 27.5t-89.5 84.5q-23 -54 -75.5 -83.5t-112.5 -29.5q-68 0 -115.5 35t-47.5 97q0 74 66 115q29 18 90.5 40t76.5 29q80 38 80 93 q0 30 -21 50t-56 20q-40 0 -73 -27q-19 -16 -38.5 -44t-21.5 -31q-12 -13 -29 -13q-22 0 -28.5 14.5t-6.5 40.5q0 53 18 74q20 26 79 40q49 11 100 11q112 0 169 -68q74 68 170 68q82 0 141 -48q72 -60 72 -147q0 -40 -17 -54.5t-65 -14.5h-254z" />
<glyph unicode="&#xe7;" horiz-adv-x="522" d="M472 83q-56 -82 -173 -93q-17 -17 -17 -29q0 -9 10.5 -13t32 -7.5t32.5 -7.5q43 -14 43 -51q0 -40 -53 -62q-32 -13 -71 -13q-44 0 -71 15q-12 7 -12 17q0 18 20 18q7 0 23.5 -4t28.5 -4q20 0 32 8q12 9 12 21q0 16 -24 24q-5 2 -18 5t-22.5 6.5t-16.5 8.5q-10 7 -10 19 q0 18 24 50q-65 7 -115.5 44t-74.5 105q-15 42 -15 93q0 79 37 151.5t108 113.5q59 35 137 35q92 0 127 -38q20 -20 20 -67q0 -26 -3 -39q-6 -28 -33 -28q-15 0 -27 17q-2 3 -14.5 23.5t-21.5 31.5q-32 37 -77 37q-57 0 -91.5 -50t-34.5 -126q0 -68 18 -111 q43 -107 146 -107q52 0 107 41q18 13 27 13q8 0 14 -6t6 -14q0 -12 -10 -27z" />
<glyph unicode="&#xe8;" horiz-adv-x="543" d="M165 341q0 -10 10 -10h139q39 0 56.5 11t17.5 38q0 35 -27 63t-73 28q-32 0 -58 -16.5t-39 -40t-19.5 -43t-6.5 -30.5zM482 131q10 0 15.5 -6.5t5.5 -14.5q0 -15 -19 -37t-45 -39q-68 -44 -155 -44q-76 0 -138 37.5t-91 113.5q-19 52 -19 105q0 78 37.5 148t107.5 109 q54 30 118 30q83 0 141 -48q37 -31 55 -71t18 -76q0 -37 -16.5 -53t-65.5 -16h-255q-12 0 -12 -11q0 -65 35 -114q46 -64 130 -64q41 0 73 13t51.5 25.5t28.5 12.5zM306 617l-151 93q-6 4 -6 8q0 8 13 8h120q27 0 42 -15l99 -94q3 -3 3 -6q0 -6 -9 -6h-67q-25 0 -44 12z" />
<glyph unicode="&#xe9;" horiz-adv-x="543" d="M165 341q0 -10 10 -10h139q39 0 56.5 11t17.5 38q0 35 -27 63t-73 28q-32 0 -58 -16.5t-39 -40t-19.5 -43t-6.5 -30.5zM482 131q10 0 15.5 -6.5t5.5 -14.5q0 -15 -19 -37t-45 -39q-68 -44 -155 -44q-76 0 -138 37.5t-91 113.5q-19 52 -19 105q0 78 37.5 148t107.5 109 q54 30 118 30q83 0 141 -48q37 -31 55 -71t18 -76q0 -37 -16.5 -53t-65.5 -16h-255q-12 0 -12 -11q0 -65 35 -114q46 -64 130 -64q41 0 73 13t51.5 25.5t28.5 12.5zM424 710l-146 -93q-19 -12 -44 -12h-67q-9 0 -9 6q0 3 3 6l93 93q15 16 42 16h120q13 0 13 -8q0 -5 -5 -8z " />
<glyph unicode="&#xea;" horiz-adv-x="543" d="M165 341q0 -10 10 -10h139q39 0 56.5 11t17.5 38q0 35 -27 63t-73 28q-32 0 -58 -16.5t-39 -40t-19.5 -43t-6.5 -30.5zM482 131q10 0 15.5 -6.5t5.5 -14.5q0 -15 -19 -37t-45 -39q-68 -44 -155 -44q-76 0 -138 37.5t-91 113.5q-19 52 -19 105q0 78 37.5 148t107.5 109 q54 30 118 30q83 0 141 -48q37 -31 55 -71t18 -76q0 -37 -16.5 -53t-65.5 -16h-255q-12 0 -12 -11q0 -65 35 -114q46 -64 130 -64q41 0 73 13t51.5 25.5t28.5 12.5zM191 600h-49q-6 0 -6 4q0 1 15 20l75 92q9 10 21 10h78q12 0 20 -10l83 -101q8 -9 8 -11q0 -4 -6 -4h-50 q-10 0 -18 8l-73 68q-2 2 -3 2t-3 -2l-74 -69q-7 -7 -18 -7z" />
<glyph unicode="&#xeb;" horiz-adv-x="543" d="M165 341q0 -10 10 -10h139q39 0 56.5 11t17.5 38q0 35 -27 63t-73 28q-32 0 -58 -16.5t-39 -40t-19.5 -43t-6.5 -30.5zM482 131q10 0 15.5 -6.5t5.5 -14.5q0 -15 -19 -37t-45 -39q-68 -44 -155 -44q-76 0 -138 37.5t-91 113.5q-19 52 -19 105q0 78 37.5 148t107.5 109 q54 30 118 30q83 0 141 -48q37 -31 55 -71t18 -76q0 -37 -16.5 -53t-65.5 -16h-255q-12 0 -12 -11q0 -65 35 -114q46 -64 130 -64q41 0 73 13t51.5 25.5t28.5 12.5zM429 703q10 -11 10 -46t-10 -45q-13 -11 -46 -11q-34 0 -45 11t-11 45q0 33 11 46q10 10 45 10t46 -10z M236 703q11 -13 11 -46q0 -34 -11 -45q-13 -11 -46 -11q-34 0 -45 11t-11 45q0 33 11 46q10 10 46 10q35 0 45 -10z" />
<glyph unicode="&#xec;" horiz-adv-x="330" d="M278 48q21 -14 21 -26q0 -22 -33 -22h-192q-33 0 -33 22q0 14 21 26q26 15 35 35q12 26 12 106v154q0 58 -8 73q-10 18 -35 28q-27 11 -27 24q0 18 30 25q55 11 99 28q33 12 40 12q24 0 24 -30v-314q0 -81 12 -105q10 -20 34 -36zM181 617l-151 93q-6 4 -6 8q0 8 13 8 h120q27 0 42 -15l99 -94q3 -3 3 -6q0 -6 -9 -6h-67q-25 0 -44 12z" />
<glyph unicode="&#xed;" horiz-adv-x="330" d="M278 48q21 -14 21 -26q0 -22 -33 -22h-192q-33 0 -33 22q0 14 21 26q26 15 35 35q12 26 12 106v154q0 58 -8 73q-10 18 -35 28q-27 11 -27 24q0 18 30 25q55 11 99 28q33 12 40 12q24 0 24 -30v-314q0 -81 12 -105q10 -20 34 -36zM296 710l-146 -93q-19 -12 -44 -12h-67 q-9 0 -9 6q0 3 3 6l93 93q15 16 42 16h120q13 0 13 -8q0 -5 -5 -8z" />
<glyph unicode="&#xee;" horiz-adv-x="330" d="M278 48q21 -14 21 -26q0 -22 -33 -22h-192q-33 0 -33 22q0 14 21 26q26 15 35 35q12 26 12 106v154q0 58 -8 73q-10 18 -35 28q-27 11 -27 24q0 18 30 25q55 11 99 28q33 12 40 12q24 0 24 -30v-314q0 -81 12 -105q10 -20 34 -36zM67 600h-49q-6 0 -6 4q0 1 15 20l75 92 q9 10 21 10h78q12 0 20 -10l83 -101q8 -9 8 -11q0 -4 -6 -4h-50q-10 0 -18 8l-73 68q-2 2 -3 2t-3 -2l-74 -69q-7 -7 -18 -7z" />
<glyph unicode="&#xef;" horiz-adv-x="330" d="M278 48q21 -14 21 -26q0 -22 -33 -22h-192q-33 0 -33 22q0 14 21 26q26 15 35 35q12 26 12 106v154q0 58 -8 73q-10 18 -35 28q-27 11 -27 24q0 18 30 25q55 11 99 28q33 12 40 12q24 0 24 -30v-314q0 -81 12 -105q10 -20 34 -36zM305 703q10 -11 10 -46t-10 -45 q-13 -11 -46 -11q-34 0 -45 11t-11 45q0 33 11 46q10 10 45 10t46 -10zM112 703q11 -13 11 -46q0 -34 -11 -45q-13 -11 -46 -11q-34 0 -45 11t-11 45q0 33 11 46q10 10 46 10q35 0 45 -10z" />
<glyph unicode="&#xf0;" horiz-adv-x="572" d="M298 56q52 0 81.5 46.5t29.5 118.5q0 88 -37 140.5t-90 52.5q-50 0 -81.5 -43t-31.5 -116q0 -84 35 -141.5t94 -57.5zM420 636q54 -65 85 -154.5t31 -186.5q-1 -136 -72 -221t-188 -85q-105 0 -173 71.5t-68 180.5q0 106 69 172.5t156 66.5q71 0 120 -44q3 -3 5 -3 q3 0 3 5q0 16 -24.5 63t-53.5 79l-111 -58q-4 -2 -7 -2q-4 0 -9 6l-21 34q-2 4 -2 6q0 6 7 9l95 50q-51 39 -98 39q-9 0 -28.5 -3.5t-27.5 -3.5q-26 0 -26 23q0 14 15 26q19 15 51.5 28t64.5 13q87 0 160 -65l114 59q4 2 8 2q5 0 8 -6l20 -33q2 -4 2 -7q0 -5 -6 -9z" />
<glyph unicode="&#xf1;" horiz-adv-x="662" d="M615 48q22 -12 22 -25q0 -23 -34 -23h-192q-33 0 -33 23q0 12 21 25q25 15 35 36q12 24 12 106v140q0 51 -25 79.5t-69 28.5q-45 0 -75 -30q-27 -27 -36.5 -74t-9.5 -144q0 -82 12 -106q10 -22 34 -36q21 -13 21 -25q0 -23 -33 -23h-190q-33 0 -33 23q0 12 21 25 q26 17 35 36q11 26 11 106v153q0 58 -8 74q-9 18 -35 27q-28 11 -28 24q0 18 31 25q62 13 98 28q30 12 39 12q25 0 25 -30v-56q0 -5 4 -5q2 0 5 5q58 86 162 86q90 0 136 -67q31 -47 31 -135v-141q0 -82 12 -106q12 -23 34 -36zM191 612l-18 6q-7 3 -7 9q0 12 14 37 q32 62 92 62q30 0 70 -16q61 -24 83 -24q29 0 48 32q4 7 10 7q1 0 9 -2l14 -4q8 -2 8 -9q0 -8 -12 -32q-33 -66 -93 -66q-31 0 -85 21q-49 19 -69 19q-29 0 -45 -33q-4 -9 -11 -9q-2 0 -8 2z" />
<glyph unicode="&#xf2;" horiz-adv-x="601" d="M434 232q0 94 -36.5 166.5t-105.5 72.5q-56 0 -90 -46t-34 -128q0 -101 38 -172.5t105 -71.5q58 0 90.5 50t32.5 129zM302 533q121 0 192 -75.5t71 -193.5q0 -114 -76 -194.5t-189 -80.5q-118 0 -191 73t-73 195q0 114 76 194.5t190 81.5zM324 617l-151 93q-6 4 -6 8 q0 8 13 8h120q27 0 42 -15l99 -94q3 -3 3 -6q0 -6 -9 -6h-67q-25 0 -44 12z" />
<glyph unicode="&#xf3;" horiz-adv-x="601" d="M434 232q0 94 -36.5 166.5t-105.5 72.5q-56 0 -90 -46t-34 -128q0 -101 38 -172.5t105 -71.5q58 0 90.5 50t32.5 129zM302 533q121 0 192 -75.5t71 -193.5q0 -114 -76 -194.5t-189 -80.5q-118 0 -191 73t-73 195q0 114 76 194.5t190 81.5zM435 710l-146 -93 q-19 -12 -44 -12h-67q-9 0 -9 6q0 3 3 6l93 93q15 16 42 16h120q13 0 13 -8q0 -5 -5 -8z" />
<glyph unicode="&#xf4;" horiz-adv-x="601" d="M434 232q0 94 -36.5 166.5t-105.5 72.5q-56 0 -90 -46t-34 -128q0 -101 38 -172.5t105 -71.5q58 0 90.5 50t32.5 129zM302 533q121 0 192 -75.5t71 -193.5q0 -114 -76 -194.5t-189 -80.5q-118 0 -191 73t-73 195q0 114 76 194.5t190 81.5zM211 600h-49q-6 0 -6 4 q0 1 15 20l75 92q9 10 21 10h78q12 0 20 -10l83 -101q8 -9 8 -11q0 -4 -6 -4h-50q-10 0 -18 8l-73 68q-2 2 -3 2t-3 -2l-74 -69q-7 -7 -18 -7z" />
<glyph unicode="&#xf5;" horiz-adv-x="601" d="M434 232q0 94 -36.5 166.5t-105.5 72.5q-56 0 -90 -46t-34 -128q0 -101 38 -172.5t105 -71.5q58 0 90.5 50t32.5 129zM302 533q121 0 192 -75.5t71 -193.5q0 -114 -76 -194.5t-189 -80.5q-118 0 -191 73t-73 195q0 114 76 194.5t190 81.5zM151 612l-18 6q-7 3 -7 9 q0 12 14 37q32 62 92 62q30 0 70 -16q61 -24 83 -24q29 0 48 32q4 7 10 7q1 0 9 -2l14 -4q8 -2 8 -9q0 -8 -12 -32q-33 -66 -93 -66q-31 0 -85 21q-49 19 -69 19q-29 0 -45 -33q-4 -9 -11 -9q-2 0 -8 2z" />
<glyph unicode="&#xf6;" horiz-adv-x="601" d="M434 232q0 94 -36.5 166.5t-105.5 72.5q-56 0 -90 -46t-34 -128q0 -101 38 -172.5t105 -71.5q58 0 90.5 50t32.5 129zM302 533q121 0 192 -75.5t71 -193.5q0 -114 -76 -194.5t-189 -80.5q-118 0 -191 73t-73 195q0 114 76 194.5t190 81.5zM445 700q10 -11 10 -46t-10 -45 q-13 -11 -46 -11q-34 0 -45 11t-11 45q0 33 11 46q10 10 45 10t46 -10zM252 700q11 -13 11 -46q0 -34 -11 -45q-13 -11 -46 -11q-34 0 -45 11t-11 45q0 33 11 46q10 10 46 10q35 0 45 -10z" />
<glyph unicode="&#xf7;" horiz-adv-x="714" d="M423 199q0 -27 -19 -46.5t-47 -19.5q-27 0 -46.5 19.5t-19.5 46.5q0 28 19.5 47.5t46.5 19.5q28 0 47 -19.5t19 -47.5zM424 518q0 -28 -19.5 -47t-47.5 -19q-27 0 -46.5 19t-19.5 47q0 27 19.5 46.5t46.5 19.5q28 0 47.5 -19.5t19.5 -46.5zM96 337v40q0 13 13 13h496 q13 0 13 -13v-40q0 -13 -13 -13h-496q-13 0 -13 13z" />
<glyph unicode="&#xf8;" horiz-adv-x="627" d="M198 182q1 -4 5 -4q2 0 4 2l194 220q3 3 3 7q0 3 -2 6q-38 58 -100 58q-56 0 -88 -47.5t-32 -131.5q0 -62 16 -110zM326 53q56 0 88.5 51t32.5 130q0 52 -17 109q-1 3 -3 3q-1 0 -4 -3l-194 -218q-4 -5 -4 -8q0 -2 2 -5q39 -59 99 -59zM520 443q58 -72 58 -179 q0 -114 -75.5 -194t-188.5 -81q-92 0 -156 44q-5 3 -6 3q-2 0 -4 -2l-24 -27q-7 -7 -16 -7h-51q-6 0 -6 4q0 3 3 6l52 58q3 3 3 6q0 4 -5 10q-55 69 -55 173q0 116 77.5 196t191.5 80q87 0 152 -45q3 -2 5 -2t6 4l22 24q7 8 17 8h51q6 0 6 -4q0 -2 -2 -4l-55 -62 q-2 -2 -2 -4t2 -5z" />
<glyph unicode="&#xf9;" horiz-adv-x="658" d="M600 77q23 -10 26 -17q1 -3 1 -6q0 -19 -30 -26q-67 -15 -117 -35q-10 -4 -20 -4q-26 0 -26 30v57q0 4 -3 4q-2 0 -4 -3q-59 -88 -164 -88q-87 0 -133 64q-33 46 -33 137v154q0 57 -8 73q-9 18 -35 27q-28 10 -28 24q0 18 31 25q66 16 114 34q16 6 25 6q24 0 24 -30v-312 q0 -52 24.5 -79.5t68.5 -27.5q45 0 74 29q26 26 36.5 75t10.5 144q0 67 -9 85q-8 17 -35 27t-27 24q0 18 30 25q68 16 115 34q16 6 24 6q24 0 24 -30v-325q0 -54 9 -73q8 -18 35 -28zM334 617l-151 93q-6 4 -6 8q0 8 13 8h120q27 0 42 -15l99 -94q3 -3 3 -6q0 -6 -9 -6h-67 q-25 0 -44 12z" />
<glyph unicode="&#xfa;" horiz-adv-x="658" d="M600 77q23 -10 26 -17q1 -3 1 -6q0 -19 -30 -26q-67 -15 -117 -35q-10 -4 -20 -4q-26 0 -26 30v57q0 4 -3 4q-2 0 -4 -3q-59 -88 -164 -88q-87 0 -133 64q-33 46 -33 137v154q0 57 -8 73q-9 18 -35 27q-28 10 -28 24q0 18 31 25q66 16 114 34q16 6 25 6q24 0 24 -30v-312 q0 -52 24.5 -79.5t68.5 -27.5q45 0 74 29q26 26 36.5 75t10.5 144q0 67 -9 85q-8 17 -35 27t-27 24q0 18 30 25q68 16 115 34q16 6 24 6q24 0 24 -30v-325q0 -54 9 -73q8 -18 35 -28zM458 710l-146 -93q-19 -12 -44 -12h-67q-9 0 -9 6q0 3 3 6l93 93q15 16 42 16h120 q13 0 13 -8q0 -5 -5 -8z" />
<glyph unicode="&#xfb;" horiz-adv-x="658" d="M600 77q23 -10 26 -17q1 -3 1 -6q0 -19 -30 -26q-67 -15 -117 -35q-10 -4 -20 -4q-26 0 -26 30v57q0 4 -3 4q-2 0 -4 -3q-59 -88 -164 -88q-87 0 -133 64q-33 46 -33 137v154q0 57 -8 73q-9 18 -35 27q-28 10 -28 24q0 18 31 25q66 16 114 34q16 6 25 6q24 0 24 -30v-312 q0 -52 24.5 -79.5t68.5 -27.5q45 0 74 29q26 26 36.5 75t10.5 144q0 67 -9 85q-8 17 -35 27t-27 24q0 18 30 25q68 16 115 34q16 6 24 6q24 0 24 -30v-325q0 -54 9 -73q8 -18 35 -28zM224 600h-49q-6 0 -6 4q0 1 15 20l75 92q9 10 21 10h78q12 0 20 -10l83 -101q8 -9 8 -11 q0 -4 -6 -4h-50q-10 0 -18 8l-73 68q-2 2 -3 2t-3 -2l-74 -69q-7 -7 -18 -7z" />
<glyph unicode="&#xfc;" horiz-adv-x="658" d="M600 77q23 -10 26 -17q1 -3 1 -6q0 -19 -30 -26q-67 -15 -117 -35q-10 -4 -20 -4q-26 0 -26 30v57q0 4 -3 4q-2 0 -4 -3q-59 -88 -164 -88q-87 0 -133 64q-33 46 -33 137v154q0 57 -8 73q-9 18 -35 27q-28 10 -28 24q0 18 31 25q66 16 114 34q16 6 25 6q24 0 24 -30v-312 q0 -52 24.5 -79.5t68.5 -27.5q45 0 74 29q26 26 36.5 75t10.5 144q0 67 -9 85q-8 17 -35 27t-27 24q0 18 30 25q68 16 115 34q16 6 24 6q24 0 24 -30v-325q0 -54 9 -73q8 -18 35 -28zM454 703q10 -11 10 -46t-10 -45q-13 -11 -46 -11q-34 0 -45 11t-11 45q0 33 11 46 q10 10 45 10t46 -10zM261 703q11 -13 11 -46q0 -34 -11 -45q-13 -11 -46 -11q-34 0 -45 11t-11 45q0 33 11 46q10 10 46 10q35 0 45 -10z" />
<glyph unicode="&#xfd;" horiz-adv-x="597" d="M562 522q35 0 35 -22q0 -11 -18 -24q-1 -1 -9 -6t-11 -7.5t-10 -8.5t-12.5 -13t-11.5 -16q-19 -29 -47 -93q-17 -40 -65 -157.5t-62 -150.5q-32 -77 -64.5 -123.5t-83.5 -73.5q-37 -20 -79 -20q-47 0 -72 28q-20 23 -20 59q0 24 10 42t31 18q13 0 29 -14q1 -1 12.5 -11 t16 -13t15 -7.5t21.5 -4.5q23 0 45 17q21 17 38 49q4 8 4 11t-2 9l-158 387q-26 65 -44 82q-6 6 -30 19q-17 8 -17 21q0 23 35 23h188q31 0 31 -22q0 -12 -15 -21q-2 -1 -6.5 -3.5t-7 -4t-6 -4.5t-6 -5.5t-4.5 -6t-3 -8t-1 -9.5q0 -16 11 -44q8 -21 32 -77t47.5 -111 t24.5 -58t3 -3t4 3l68 166q30 72 30 109q0 35 -37 56q-14 9 -14 21q0 22 35 22h150zM456 710l-146 -93q-19 -12 -44 -12h-67q-9 0 -9 6q0 3 3 6l93 93q15 16 42 16h120q13 0 13 -8q0 -5 -5 -8z" />
<glyph unicode="&#xfe;" horiz-adv-x="641" d="M355 52q59 0 91.5 54.5t32.5 145.5q0 83 -36.5 137t-94.5 54q-54 0 -89 -49t-35 -141q0 -97 36 -149t95 -52zM400 533q93 0 149.5 -70.5t56.5 -173.5q0 -127 -73 -213.5t-185 -86.5q-65 0 -113 28q-3 2 -6 2q-5 0 -5 -9v-27q0 -66 12 -92q10 -22 34 -36q21 -13 21 -26 q0 -22 -33 -22h-190q-33 0 -33 22q0 14 21 26q25 14 35 36q12 28 12 104v562q0 56 -9 74q-8 17 -35 27q-27 11 -27 24q0 18 30 25q60 13 116 35q13 5 23 5q23 0 23 -30v-261q0 -10 7 -10q3 0 8 6q30 37 72.5 59t88.5 22z" />
<glyph unicode="&#xff;" horiz-adv-x="597" d="M562 522q35 0 35 -22q0 -11 -18 -24q-1 -1 -9 -6t-11 -7.5t-10 -8.5t-12.5 -13t-11.5 -16q-19 -29 -47 -93q-17 -40 -65 -157.5t-62 -150.5q-32 -77 -64.5 -123.5t-83.5 -73.5q-37 -20 -79 -20q-47 0 -72 28q-20 23 -20 59q0 24 10 42t31 18q13 0 29 -14q1 -1 12.5 -11 t16 -13t15 -7.5t21.5 -4.5q23 0 45 17q21 17 38 49q4 8 4 11t-2 9l-158 387q-26 65 -44 82q-6 6 -30 19q-17 8 -17 21q0 23 35 23h188q31 0 31 -22q0 -12 -15 -21q-2 -1 -6.5 -3.5t-7 -4t-6 -4.5t-6 -5.5t-4.5 -6t-3 -8t-1 -9.5q0 -16 11 -44q8 -21 32 -77t47.5 -111 t24.5 -58t3 -3t4 3l68 166q30 72 30 109q0 35 -37 56q-14 9 -14 21q0 22 35 22h150zM459 703q10 -11 10 -46t-10 -45q-13 -11 -46 -11q-34 0 -45 11t-11 45q0 33 11 46q10 10 45 10t46 -10zM266 703q11 -13 11 -46q0 -34 -11 -45q-13 -11 -46 -11q-34 0 -45 11t-11 45 q0 33 11 46q10 10 46 10q35 0 45 -10z" />
<glyph unicode="&#x152;" horiz-adv-x="1041" d="M184 370q0 -148 66 -230.5t175 -82.5q41 0 58 16q18 17 18 115v377q0 38 -3 53.5t-15 25.5q-19 16 -72 16q-111 0 -169 -86t-58 -204zM971 210q36 0 36 -29q0 -10 -7 -40q-4 -17 -8.5 -44t-7.5 -42t-10 -31t-19 -24t-33 -8q-6 0 -62 4t-116 4h-209q-23 0 -64 -6t-68 -6 q-170 0 -268.5 103t-98.5 265q0 150 100.5 259t259.5 110q33 0 73.5 -5.5t66.5 -5.5h197q59 0 125 3.5t74 3.5q3 0 7.5 -0.5t6.5 -0.5q25 -3 26 -31q1 -8 1.5 -32t0.5 -35q0 -8 1.5 -35.5t1.5 -37.5q0 -20 -6.5 -28t-22.5 -8q-17 0 -24.5 6.5t-18.5 30.5q-1 2 -5 10.5 t-5.5 12t-6 11.5t-8 12.5t-8.5 11t-11.5 11.5t-13.5 9q-35 20 -136 20h-52q-14 0 -19 -5.5t-5 -18.5v-189q0 -16 5 -21t21 -5q64 0 99 2q88 6 95 6q34 0 34 -21q0 -3 -0.5 -6t-1.5 -7.5t-1 -6.5q-4 -30 -13 -36q-10 -7 -38 -7q-14 0 -44 1.5t-40 1.5q-62 2 -102 2 q-14 0 -14 -14v-164q0 -43 3 -60.5t16 -24.5q13 -8 56 -8q54 0 84 7q49 11 76 33t58 70q21 33 43 33z" />
<glyph unicode="&#x153;" horiz-adv-x="940" d="M562 341q0 -11 10 -11h139q39 0 56.5 11.5t17.5 40.5q0 34 -27 61.5t-73 27.5q-40 0 -70.5 -27.5t-41.5 -56t-11 -46.5zM311 53q59 0 90.5 51.5t31.5 131.5q0 103 -40 169t-102 66q-57 0 -90.5 -47t-33.5 -129q0 -100 40.5 -171t103.5 -71zM573 268q-12 0 -12 -10 q0 -66 35 -114q46 -64 130 -64q42 0 73.5 13t49.5 25.5t29 12.5q21 0 21 -21q0 -34 -63 -77q-66 -44 -151 -44q-123 0 -193 87q-77 -87 -191 -87q-119 0 -192 73t-73 195q0 114 77 195t190 81q131 0 201 -91q75 91 192 91q82 0 141 -48q72 -60 72 -148q0 -38 -16.5 -53 t-64.5 -16h-255z" />
<glyph unicode="&#x178;" horiz-adv-x="712" d="M674 714q35 0 35 -21q0 -13 -17 -23q-28 -19 -50 -44q-27 -31 -65 -90l-156 -249q-3 -5 -3 -12v-86q0 -80 12 -106q9 -20 34 -35q21 -12 21 -26q0 -22 -33 -22h-201q-33 0 -33 22q0 14 21 26q25 15 34 35q12 26 12 106v55q0 8 -4 16q-157 285 -171 312q-29 57 -49 77 q-8 8 -33 22q-16 9 -16 21q0 22 34 22h200q30 0 30 -20q0 -12 -17 -22.5t-21 -14.5q-6 -7 -6 -18q0 -18 18 -51l127 -232q1 -3 4 -3t5 3l105 172q42 68 42 99q0 25 -32 43q-16 9 -16 21q0 23 32 23h157zM523 883q10 -11 10 -46t-10 -45q-13 -11 -46 -11q-34 0 -45 11t-11 45 q0 33 11 46q10 10 45 10t46 -10zM330 883q11 -13 11 -46q0 -34 -11 -45q-13 -11 -46 -11q-34 0 -45 11t-11 45q0 33 11 46q10 10 46 10q35 0 45 -10z" />
<glyph unicode="&#x2c6;" horiz-adv-x="536" d="M173 600h-49q-6 0 -6 4q0 1 15 20l75 92q9 10 21 10h78q12 0 20 -10l83 -101q8 -9 8 -11q0 -4 -6 -4h-50q-10 0 -18 8l-73 68q-2 2 -3 2t-3 -2l-74 -69q-7 -7 -18 -7z" />
<glyph unicode="&#x2dc;" horiz-adv-x="586" d="M144 612l-18 6q-7 3 -7 9q0 12 14 37q32 62 92 62q30 0 70 -16q61 -24 83 -24q29 0 48 32q4 7 10 7q1 0 9 -2l14 -4q8 -2 8 -9q0 -8 -12 -32q-33 -66 -93 -66q-31 0 -85 21q-49 19 -69 19q-28 0 -45 -33q-5 -9 -11 -9q-2 0 -8 2z" />
<glyph unicode="&#x2000;" horiz-adv-x="456" />
<glyph unicode="&#x2001;" horiz-adv-x="913" />
<glyph unicode="&#x2002;" horiz-adv-x="456" />
<glyph unicode="&#x2003;" horiz-adv-x="913" />
<glyph unicode="&#x2004;" horiz-adv-x="304" />
<glyph unicode="&#x2005;" horiz-adv-x="228" />
<glyph unicode="&#x2006;" horiz-adv-x="152" />
<glyph unicode="&#x2007;" horiz-adv-x="152" />
<glyph unicode="&#x2008;" horiz-adv-x="114" />
<glyph unicode="&#x2009;" horiz-adv-x="182" />
<glyph unicode="&#x200a;" horiz-adv-x="50" />
<glyph unicode="&#x2010;" horiz-adv-x="332" d="M36 239v69q0 13 13 13h234q13 0 13 -13v-69q0 -13 -13 -13h-234q-13 0 -13 13z" />
<glyph unicode="&#x2011;" horiz-adv-x="332" d="M36 239v69q0 13 13 13h234q13 0 13 -13v-69q0 -13 -13 -13h-234q-13 0 -13 13z" />
<glyph unicode="&#x2012;" horiz-adv-x="332" d="M36 239v69q0 13 13 13h234q13 0 13 -13v-69q0 -13 -13 -13h-234q-13 0 -13 13z" />
<glyph unicode="&#x2013;" horiz-adv-x="699" d="M40 239v69q0 13 13 13h593q13 0 13 -13v-69q0 -13 -13 -13h-593q-13 0 -13 13z" />
<glyph unicode="&#x2014;" horiz-adv-x="982" d="M40 239v69q0 13 13 13h876q13 0 13 -13v-69q0 -13 -13 -13h-876q-13 0 -13 13z" />
<glyph unicode="&#x2018;" horiz-adv-x="297" d="M89 433q-30 37 -30 75q0 66 72 147q26 31 53.5 51t42.5 20q10 0 17.5 -7t7.5 -17q0 -8 -6 -14q-1 -1 -18 -13t-30 -27q-31 -34 -31 -61q0 -24 30 -56q35 -37 35 -55q0 -20 -32 -51.5t-51 -31.5q-12 0 -30 12.5t-30 27.5z" />
<glyph unicode="&#x2019;" horiz-adv-x="297" d="M208 686q30 -37 30 -75q0 -66 -72 -147q-26 -31 -53.5 -51t-42.5 -20q-10 0 -17.5 7t-7.5 17q0 8 6 14q1 1 18 13t30 27q31 34 31 61q0 24 -30 56q-35 37 -35 55q0 19 31.5 51t51.5 32q12 0 30 -12.5t30 -27.5z" />
<glyph unicode="&#x201a;" horiz-adv-x="283" d="M208 117q30 -37 30 -75q0 -66 -72 -147q-26 -31 -53.5 -51t-42.5 -20q-10 0 -17.5 7t-7.5 17q0 8 6 14q1 1 18 13t30 27q31 34 31 61q0 24 -30 56q-35 37 -35 55q0 20 31.5 51.5t51.5 31.5q12 0 30 -12.5t30 -27.5z" />
<glyph unicode="&#x201c;" horiz-adv-x="529" d="M89 433q-30 37 -30 75q0 66 72 147q26 31 53.5 51t42.5 20q10 0 17.5 -7t7.5 -17q0 -8 -6 -14q-1 -1 -18 -13t-30 -27q-31 -34 -31 -61q0 -24 30 -56q35 -37 35 -55q0 -20 -32 -51.5t-51 -31.5q-12 0 -30 12.5t-30 27.5zM321 433q-30 37 -30 75q0 66 72 147 q26 31 53.5 51t42.5 20q10 0 17.5 -7t7.5 -17q0 -8 -6 -14q-1 -1 -18 -13t-30 -27q-31 -34 -31 -61q0 -24 30 -56q35 -37 35 -55q0 -20 -32 -51.5t-51 -31.5q-12 0 -30 12.5t-30 27.5z" />
<glyph unicode="&#x201d;" horiz-adv-x="529" d="M440 686q30 -37 30 -75q0 -66 -72 -147q-26 -31 -53.5 -51t-42.5 -20q-10 0 -17.5 7t-7.5 17q0 8 6 14q1 1 18 13t30 27q31 34 31 61q0 24 -30 56q-35 37 -35 55q0 19 31.5 51t51.5 32q12 0 30 -12.5t30 -27.5zM208 686q30 -37 30 -75q0 -66 -72 -147q-26 -31 -53.5 -51 t-42.5 -20q-10 0 -17.5 7t-7.5 17q0 8 6 14q1 1 18 13t30 27q31 34 31 61q0 24 -30 56q-35 37 -35 55q0 19 31.5 51t51.5 32q12 0 30 -12.5t30 -27.5z" />
<glyph unicode="&#x201e;" horiz-adv-x="529" d="M440 117q30 -37 30 -75q0 -66 -72 -147q-26 -31 -53.5 -51t-42.5 -20q-10 0 -17.5 7t-7.5 17q0 8 6 14q1 1 18 13t30 27q31 34 31 61q0 24 -30 56q-35 37 -35 55q0 20 31.5 51.5t51.5 31.5q12 0 30 -12.5t30 -27.5zM208 117q30 -37 30 -75q0 -66 -72 -147 q-26 -31 -53.5 -51t-42.5 -20q-10 0 -17.5 7t-7.5 17q0 8 6 14q1 1 18 13t30 27q31 34 31 61q0 24 -30 56q-35 37 -35 55q0 20 31.5 51.5t51.5 31.5q12 0 30 -12.5t30 -27.5z" />
<glyph unicode="&#x2022;" horiz-adv-x="461" d="M361 319q0 -31 -50 -80.5t-81 -49.5t-81 49.5t-50 80.5t50 81t81 50q32 0 81.5 -50t49.5 -81z" />
<glyph unicode="&#x2026;" horiz-adv-x="797" d="M752 78q0 -21 -33.5 -55t-55.5 -34t-55.5 34t-33.5 55t33.5 55t55.5 34t55.5 -33.5t33.5 -55.5zM488 78q0 -21 -33.5 -55t-55.5 -34t-55.5 34t-33.5 55t33.5 55t55.5 34t55.5 -33.5t33.5 -55.5zM223 78q0 -21 -33.5 -55t-55.5 -34t-55.5 34t-33.5 55t33.5 55t55.5 34 t55.5 -33.5t33.5 -55.5z" />
<glyph unicode="&#x202f;" horiz-adv-x="182" />
<glyph unicode="&#x2039;" horiz-adv-x="374" d="M304 121v-64q0 -7 -4 -7q-3 0 -6 3l-252 222q-6 6 -6 10t6 10l252 222q2 2 5 2q5 0 5 -6v-63q0 -14 -10 -23q-150 -131 -158 -138q-2 -2 -2 -4t2 -4l159 -139q9 -8 9 -21z" />
<glyph unicode="&#x203a;" horiz-adv-x="374" d="M70 448v64q0 7 4 7q3 0 6 -3l252 -222q6 -6 6 -10t-6 -10l-252 -222q-2 -2 -5 -2q-5 0 -5 6v63q0 14 10 23q150 131 158 138q2 2 2 4t-2 4l-159 139q-9 8 -9 21z" />
<glyph unicode="&#x205f;" horiz-adv-x="228" />
<glyph unicode="&#x20ac;" horiz-adv-x="577" d="M461 148q31 0 31 -45q0 -61 -29 -90q-24 -24 -86 -24q-134 0 -214 94q-51 61 -67 137q-2 5 -7 5h-56q-11 0 -11 9v35q0 9 10 9h50q6 0 6 5v14q0 11 2 41q0 4 -6 4h-51q-11 0 -11 10v33q0 10 11 10h59q6 0 7 5q16 65 52 114q82 110 217 110q66 0 92 -25q22 -22 22 -78 q0 -50 -33 -50q-19 0 -35 23q-13 19 -20.5 29t-25 22t-37.5 12q-46 0 -74 -46t-38 -111q0 -5 5 -5h208q10 0 10 -8q0 -2 -1 -7l-6 -28q-3 -10 -13 -10h-202q-5 0 -6 -5t-1 -26q0 -24 1 -27q2 -6 8 -6h186q9 0 9 -7q0 -2 -1 -7l-6 -29q-1 -10 -13 -10h-171q-5 0 -5 -6 q9 -68 40 -114t82 -46q18 0 33 8.5t22 16.5t18.5 25t14.5 21q14 18 30 18z" />
<glyph unicode="&#x2122;" horiz-adv-x="694" d="M656 456q13 -8 13 -15q0 -13 -20 -13h-105q-20 0 -20 13q0 8 13 15q14 9 19 21q6 14 6 70v101q0 3 -2 3t-4 -5l-61 -162q-3 -10 -13 -10h-23q-9 0 -13 10l-61 162q-2 5 -4 5t-2 -3q0 -99 2 -124q4 -50 29 -64q1 -1 5 -3t5.5 -3t4 -3t3.5 -4t1 -5q0 -14 -20 -14h-85 q-21 0 -21 13q0 5 3 8.5t9 8t9 8.5q17 19 18 96q1 49 1 95q0 12 -2 16q-3 6 -13 10q-21 9 -21 18q0 13 20 13h89q18 0 22 -11l47 -125q2 -6 4 -6t4 6l46 124q4 12 18 12h91q17 0 17 -12q0 -3 -1 -5t-3 -3.5t-4 -2.5t-5.5 -3t-5.5 -3q-10 -8 -12.5 -19t-2.5 -40v-91 q0 -46 6 -58q6 -13 19 -21zM289 700q1 -10 1 -38q0 -5 0.5 -15.5t0.5 -14.5q0 -20 -19 -20q-8 0 -12.5 4t-12.5 17q-18 28 -26 35q-14 11 -32 11q-5 0 -5 -6v-137q0 -43 6 -59q4 -11 19 -21q12 -7 12 -15q0 -13 -19 -13h-106q-19 0 -19 13q0 8 12 15q14 9 19 21q6 13 6 59 v137q0 6 -6 6q-17 0 -31 -11q-13 -11 -27 -35q-12 -21 -23 -21q-21 0 -21 20q0 7 0.5 33t1.5 35q1 19 22 19q4 0 38.5 -2.5t66.5 -2.5h27q32 0 65 2.5t38 2.5q23 0 24 -19z" />
<glyph unicode="&#x25fc;" horiz-adv-x="520" d="M0 520h520v-520h-520v520z" />
</font>
</defs>
</svg>
